<?xml version="1.0" standalone="no"?>
<!DOCTYPE svg PUBLIC "-//W3C//DTD SVG 1.1//EN" "http://www.w3.org/Graphics/SVG/1.1/DTD/svg11.dtd" >
<svg>
<metadata>
Created by FontForge 20090622 at Thu Aug  6 21:38:27 2015
 By deploy user
Copyright &#194;&#169; 1990, 2001 Adobe Systems Incorporated.  All Rights Reserved.
</metadata>
<defs>
<font id="Caslon224Std-BookItalic" horiz-adv-x="556" >
  <font-face 
    font-family="ITC Caslon 224 Std Book"
    font-weight="400"
    font-style="italic"
    font-stretch="normal"
    units-per-em="1000"
    panose-1="2 3 5 3 6 5 6 9 4 4"
    ascent="730"
    descent="-270"
    x-height="462"
    cap-height="680"
    bbox="-216 -216 1084 911"
    underline-thickness="50"
    underline-position="-50"
    slope="-13"
    unicode-range="U+0020-U+FB02"
  />
<missing-glyph horiz-adv-x="566" 
d="M66 0v700h500v-700h-500zM316 395l170 255h-340zM346 350l170 -255v510zM146 50h340l-170 255zM116 605v-510l170 255z" />
    <glyph glyph-name="fi" unicode="fi" horiz-adv-x="574" 
d="M328 404h-142q-115 -598 -334 -598q-28 0 -48 17t-20 48q0 26 15.5 43.5t37.5 17.5q24 0 36 -12.5t13.5 -27.5t7.5 -27.5t19 -12.5q31 0 59 37.5t40 95.5q4 19 32 186t47 233h-74q38 11 69.5 51t56.5 89t53.5 96.5t74 79.5t105.5 32q47 0 76.5 -27.5t29.5 -62.5
q0 -33 -16.5 -52t-40.5 -19q-22 0 -35.5 12t-13.5 30q0 15 10 34t10 30q0 13 -9 22t-25 9q-50 0 -95.5 -64.5t-68.5 -209.5h178q40 0 61 -11t21 -40q0 -17 -36 -165t-36 -164q0 -32 25 -32q40 0 67 77q2 5 3.5 9.5l2.5 7.5t2 6.5t2 6t1.5 4.5t1.5 3.5t1.5 2.5t1.5 1.5l2 1
t2 0.5q8 0 8 -9q0 -8 -7 -30.5t-21 -53.5t-42.5 -54t-64.5 -23q-37 0 -56 22.5t-19 59.5q0 29 36 165.5t36 143.5q0 21 -40 21z" />
    <glyph glyph-name="fl" unicode="fl" horiz-adv-x="574" 
d="M285 404h-99q-115 -598 -334 -598q-28 0 -48 17t-20 48q0 26 15.5 43.5t37.5 17.5q24 0 36 -12.5t13.5 -27.5t7.5 -27.5t19 -12.5q31 0 59 37.5t40 95.5q4 19 32 186t47 233h-74q38 11 69.5 51t56.5 89t53.5 96.5t74 79.5t105.5 32q31 0 56.5 -13.5t36.5 -32.5
q42 6 66 14l-40.5 -166.5l-33 -135.5l-25.5 -105.5l-20 -81.5t-14.5 -59l-10 -43t-6 -27t-3.5 -18t-1 -10q0 -32 25 -32q40 0 67 77q2 5 3.5 9.5l2.5 7.5t2 6.5t2 6t1.5 4.5t1.5 3.5t1.5 2.5t1.5 1.5l2 1t2 0.5q8 0 8 -9q0 -8 -7 -30.5t-21 -53.5t-42.5 -54t-64.5 -23
q-37 0 -56 22.5t-19 59.5q0 13 4 34.5t14.5 66l22.5 92l35 141.5l45 185q-14 2 -25 13.5t-11 28.5q0 12 10 33t10 28q0 32 -34 32q-50 0 -95.5 -64.5t-68.5 -209.5h103z" />
    <glyph glyph-name=".notdef" horiz-adv-x="566" 
d="M66 0v700h500v-700h-500zM316 395l170 255h-340zM346 350l170 -255v510zM146 50h340l-170 255zM116 605v-510l170 255z" />
    <glyph glyph-name=".null" horiz-adv-x="0" 
 />
    <glyph glyph-name="nonmarkingreturn" horiz-adv-x="333" 
 />
    <glyph glyph-name="space" unicode=" " horiz-adv-x="278" 
 />
    <glyph glyph-name="exclam" unicode="!" horiz-adv-x="370" 
d="M143 192q-10 0 -10 11q0 9 5.5 30t13.5 89t13 183q9 189 90 189q45 0 45 -54q0 -35 -18.5 -84t-52 -128.5t-55.5 -155.5q-21 -74 -24 -78q-2 -2 -7 -2zM120 104q20 0 34 -12t14 -32q0 -31 -18 -49.5t-46 -18.5q-20 0 -34 12t-14 32q0 31 18 49.5t46 18.5z" />
    <glyph glyph-name="quotedbl" unicode="&#x22;" horiz-adv-x="333" 
d="M86 409l-17 204q-6 81 33 81t33 -81l-17 -204q-4 -31 -16 -31t-16 31zM232 409l-17 204q-6 81 33 81t33 -81l-17 -204q-4 -31 -16 -31t-16 31z" />
    <glyph glyph-name="numbersign" unicode="#" 
d="M44 412v54h114l30 212h62l-30 -212h126l30 212h62l-30 -212h96v-54h-104l-20 -146h96v-54h-104l-30 -212h-62l30 212h-126l-30 -212h-62l30 212h-106v54h114l20 146h-106zM212 412l-20 -146h126l20 146h-126z" />
    <glyph glyph-name="dollar" unicode="$" 
d="M459 541l-112 -165q61 -24 99 -61.5t38 -101.5q0 -81 -71.5 -141.5t-171.5 -60.5q-42 0 -130 31l-73 -110h-25l78 118q-22 4 -31 4q-21 0 -37.5 -15t-42 -56.5t-32.5 -50.5h-26q39 48 66 104.5t38 102.5t17.5 85.5t11 61.5t11.5 22t8 -8t1.5 -45.5t7.5 -83.5l126 175
q-101 44 -101 137q0 75 62 127t141 52q53 0 106 -21l51 75h24l-56 -82q30 -14 38 -14q13 0 25.5 13t32 43.5t26.5 39.5h25l-24.5 -37.5l-17.5 -26.5t-9.5 -17t-7 -19.5t-3.5 -22.5q-5 -40 -11 -96q-7 -64 -9.5 -75.5t-9.5 -11.5q-6 0 -8.5 17.5t-8 51.5t-15.5 62zM295 305
l-160 -229q37 -41 107 -41q74 0 117 39.5t43 110.5q0 44 -28 72t-79 48zM258 417l142 201q-34 26 -87 26q-63 0 -96 -41t-33 -87q0 -35 18.5 -56t55.5 -43zM228 336l-138 -190q9 -31 30 -54l155 221l-26 12.5t-21 10.5zM329 384l121 175q-10 26 -34 46l-140 -197
q42 -20 53 -24z" />
    <glyph glyph-name="percent" unicode="%" horiz-adv-x="741" 
d="M234 668q-33 0 -60 -49t-40.5 -110.5t-13.5 -112.5q0 -33 10.5 -45.5t35.5 -12.5q33 0 60 49t40.5 110.5t13.5 112.5q0 33 -10.5 45.5t-35.5 12.5zM652 686h46l-627 -694h-47zM540 340q-33 0 -60 -49t-40.5 -110.5t-13.5 -112.5q0 -33 10.5 -45.5t35.5 -12.5q33 0 60 49
t40.5 110.5t13.5 112.5q0 33 -10.5 45.5t-35.5 12.5zM231 686q50 0 85.5 -34.5t35.5 -98.5q0 -95 -51.5 -164t-134.5 -69q-53 0 -85.5 33.5t-32.5 95.5q0 97 51 167t132 70zM537 358q50 0 85.5 -34.5t35.5 -98.5q0 -95 -51.5 -164t-134.5 -69q-53 0 -85.5 33.5t-32.5 95.5
q0 97 51 167t132 70z" />
    <glyph glyph-name="ampersand" unicode="&#x26;" horiz-adv-x="759" 
d="M92 190q0 -72 44.5 -120t102.5 -48q83 0 158 61q-22 52 -47.5 95.5t-57.5 81t-47.5 54t-49.5 48.5q-49 -11 -76 -57t-27 -115zM325 670q-44 0 -78.5 -31.5t-34.5 -80.5q0 -88 84 -152q123 48 123 168q0 45 -25 70.5t-69 25.5zM327 694q72 0 108 -43t36 -97q0 -63 -41 -99
t-117 -65q57 -55 92 -104t65 -120q63 83 77 115q14 31 14 59q0 22 -10 33t-21.5 11.5t-21.5 3.5t-10 12q0 10 15 10q10 0 44.5 -2t55.5 -2q22 0 57 2t47 2q18 0 18 -10q0 -8 -16.5 -12t-44 -15.5t-46.5 -37.5l-148 -197q12 -32 22 -52t30.5 -37t47.5 -17t48.5 19.5t33.5 39
t16 19.5q8 0 8 -9q0 -23 -45 -70t-106 -47q-44 0 -76 22.5t-48 55.5q-97 -78 -212 -78q-89 0 -148 51t-59 132q0 78 51.5 136t136.5 78q-48 65 -48 125q0 65 54 126.5t141 61.5z" />
    <glyph glyph-name="quotesingle" unicode="'" horiz-adv-x="222" 
d="M104 409l-17 204q-6 81 33 81t33 -81l-17 -204q-4 -31 -16 -31t-16 31z" />
    <glyph glyph-name="parenleft" unicode="(" horiz-adv-x="407" 
d="M140 114q0 -79 15 -136.5t36.5 -85.5t43 -44t36.5 -23.5t15 -12.5q0 -6 -12 -6q-7 0 -28.5 10t-54.5 37t-62 66.5t-50 107t-21 149.5q0 115 34.5 213t84 158.5t106.5 104t99.5 61t64.5 17.5q8 0 8 -7q0 -6 -13 -10t-42 -18t-58 -38q-83 -71 -142.5 -232t-59.5 -311z" />
    <glyph glyph-name="parenright" unicode=")" horiz-adv-x="407" 
d="M220 422q0 79 -15 136.5t-36.5 85.5t-43 44t-36.5 23.5t-15 12.5q0 6 12 6q7 0 28.5 -10t54.5 -37t62 -66.5t50 -107t21 -149.5q0 -115 -34.5 -213t-84 -158.5t-106.5 -104t-99.5 -61t-64.5 -17.5q-8 0 -8 7q0 6 13 10t42 18t58 38q83 71 142.5 232t59.5 311z" />
    <glyph glyph-name="asterisk" unicode="*" horiz-adv-x="481" 
d="M343 658q0 -18 -54 -88q-10 -13 -16 -20l-5.5 37l-6 39t-2.5 25q0 20 13 31.5t31 11.5t29 -10.5t11 -25.5zM439 560q0 -42 -51 -42q-19 0 -49 7.5t-44 8.5q15 7 46.5 35.5t59.5 28.5q16 0 27 -10.5t11 -27.5zM172 663q24 0 34.5 -18.5t27.5 -75.5q3 -9 4 -14
q-10 4 -28.5 9.5t-29.5 10t-23.5 11.5t-18.5 16.5t-6 22.5q0 14 12.5 26t27.5 12zM274 406q0 -23 -11 -36.5t-32 -13.5q-41 0 -41 38q0 31 67 101q17 -60 17 -89zM403 427q0 -14 -12.5 -27.5t-30.5 -13.5q-13 0 -22 4t-15 15.5t-9 22.5l-10 35t-13 42q15 -8 41 -19t38 -17.5
t22.5 -17.5t10.5 -24zM133 535q8 0 96 -16q-6 -5 -28.5 -26t-37 -29.5t-30.5 -8.5q-21 0 -31.5 11t-10.5 28q0 18 11 29.5t31 11.5z" />
    <glyph glyph-name="plus" unicode="+" horiz-adv-x="600" 
d="M240 258v196h62v-196h196v-62h-196v-196h-62v196h-196v62h196z" />
    <glyph glyph-name="comma" unicode="," horiz-adv-x="278" 
d="M134 31q0 -68 -73 -147q-26 -28 -49.5 -44t-31.5 -16q-10 0 -10 11q0 4 6 8.5l21.5 16.5t30.5 28q48 50 48 84q0 17 -26 24q-22 6 -32 17t-10 33q0 24 18 41t46 17q27 0 44.5 -19t17.5 -54z" />
    <glyph glyph-name="hyphen" unicode="-" horiz-adv-x="333" 
d="M18 265h238l-14 -76h-238z" />
    <glyph glyph-name="period" unicode="." horiz-adv-x="278" 
d="M74 104q20 0 34 -12t14 -32q0 -31 -18 -49.5t-46 -18.5q-20 0 -34 12t-14 32q0 31 18 49.5t46 18.5z" />
    <glyph glyph-name="slash" unicode="/" horiz-adv-x="278" 
d="M-67 -16h-65l447 710h65z" />
    <glyph glyph-name="zero" unicode="0" 
d="M316 686q81 0 138.5 -78t57.5 -200q0 -161 -95 -288.5t-205 -127.5q-81 0 -138.5 78t-57.5 200q0 161 95 288.5t205 127.5zM322 662q-58 0 -102 -58t-66.5 -143t-33 -160t-10.5 -129q0 -156 96 -156q58 0 102 58t66.5 143t33 160t10.5 129q0 156 -96 156z" />
    <glyph glyph-name="one" unicode="1" 
d="M278 62q0 -21 20 -28.5t78 -7.5q35 0 35 -14t-12 -14q-37 0 -103.5 1t-97.5 1q-29 0 -87 -1t-87 -1q-22 0 -22 12q0 11 10.5 13.5t51.5 2.5q62 0 83 13.5t30 55.5q104 452 104 473q0 11 -7.5 13.5t-31.5 2.5q-84 0 -104 2t-20 12q0 8 12 11.5t53 10t81 16.5
q39 10 67.5 22.5t41.5 20t19 7.5q11 0 11 -12q0 -14 -62.5 -301t-62.5 -311z" />
    <glyph glyph-name="two" unicode="2" 
d="M42 92h286q33 0 54.5 11t28.5 24l13.5 24t13.5 11q8 0 8 -9q0 -5 -1.5 -10t-7 -16l-12 -24l-20.5 -41.5l-29 -61.5h-406q11 57 40.5 103t68.5 77t84 58.5l87.5 52t77.5 52t56 65t21 84.5q0 57 -38.5 92.5t-91.5 35.5q-47 0 -84 -19t-54.5 -41l-32 -41t-20.5 -19
q-9 0 -9 8t10.5 27.5t32.5 45.5t50.5 49.5t69 39.5t82.5 16q77 0 131 -47.5t54 -119.5q0 -71 -35 -119.5t-91.5 -78t-117 -55.5t-122.5 -70t-97 -104z" />
    <glyph glyph-name="three" unicode="3" 
d="M-33 130q0 30 15 48t39 18q34 0 47.5 -26t19 -65.5t13.5 -52.5q21 -32 81 -32q80 0 134 51t54 151q0 101 -83 126q-15 5 -30.5 6.5t-21 3t-5.5 8.5q0 6 10 8.5t29.5 5.5t33.5 8q37 14 60 50.5t23 83.5t-29.5 74.5t-83.5 27.5q-37 0 -70 -17.5t-51 -35t-21 -17.5
q-9 0 -9 9q0 5 8.5 18t26.5 31t41.5 34.5t57.5 28t70 11.5q67 0 116.5 -38t49.5 -104q0 -36 -16 -67t-31 -44.5t-41 -33.5q72 -61 72 -149q0 -106 -94 -182t-214 -76q-81 0 -141 40.5t-60 97.5z" />
    <glyph glyph-name="four" unicode="4" 
d="M421 678h54l-91 -428h97l-13 -54h-98q-20 -103 -20 -123q0 -22 12 -33t27 -12t27 -4t12 -11q0 -15 -14 -15q-20 0 -63.5 1t-65.5 1q-23 0 -65 -1t-59 -1q-20 0 -20 12q0 10 13 13t30 3.5t35 12.5t26 37q5 13 27 120h-267l-9 39zM49 250h233l69 313l-2 2z" />
    <glyph glyph-name="five" unicode="5" 
d="M129 376h-46l102 302h287q22 0 33 16t18 16t7 -8q0 -4 -3.5 -13.5t-15.5 -38.5t-25 -64h-301l-41 -124q26 4 45 4q107 0 190 -66t82 -169q-1 -90 -83.5 -164.5t-199.5 -74.5q-77 0 -131 33.5t-54 79.5q0 24 15.5 40t38.5 16q24 0 39 -17.5t35 -65.5q9 -22 15.5 -31.5
t24 -18t46.5 -8.5q72 0 120 50t48 122q0 62 -40 105.5t-94 61t-112 17.5z" />
    <glyph glyph-name="six" unicode="6" 
d="M287 418q90 0 146.5 -53t56.5 -131q0 -96 -74.5 -169t-183.5 -73q-100 0 -158 70t-58 173q0 82 32 153t82.5 118t107.5 84t111.5 56.5t89.5 29.5t47 10q9 0 9 -8q0 -6 -24.5 -14t-65 -26t-85 -46.5t-92 -86.5t-79.5 -135l2 -2q63 50 136 50zM390 263q0 66 -33 96.5
t-85 30.5q-49 0 -89.5 -24.5t-50.5 -47.5q-10 -22 -18 -73.5t-8 -89.5q0 -65 31.5 -102t95.5 -37q78 0 117.5 74t39.5 173z" />
    <glyph glyph-name="seven" unicode="7" 
d="M520 678l17 -46q-252 -279 -316 -636q-36 6 -58 6q-25 0 -61 -6q22 127 110.5 268.5t257.5 321.5h-296q-30 0 -50.5 -13t-30.5 -25.5t-14 -12.5q-7 0 -7 5t9.5 25t28 56l28.5 57h382z" />
    <glyph glyph-name="eight" unicode="8" 
d="M328 686q86 0 137 -41.5t51 -105.5q0 -30 -11 -57t-24 -44t-36 -35.5t-34 -25.5t-31 -18q102 -64 102 -157q0 -80 -72.5 -145t-193.5 -65q-105 0 -163.5 49t-58.5 128q0 65 40 108t127 88q-28 20 -47 53t-19 70q0 83 70 140.5t163 57.5zM60 169q0 -69 40 -111t113 -42
q45 0 79.5 15t53 38.5t27.5 47.5t9 47q0 27 -10 48t-32 39t-42.5 30.5t-58 33.5t-61.5 36q-49 -19 -83.5 -68.5t-34.5 -113.5zM460 551q0 51 -32.5 81t-89.5 30q-53 0 -98 -34t-45 -91q0 -22 7 -40.5t15 -30.5t27.5 -26.5t32 -22t41.5 -23.5l43 -24q40 18 69.5 66.5
t29.5 114.5z" />
    <glyph glyph-name="nine" unicode="9" 
d="M229 260q-90 0 -146.5 53t-56.5 131q0 96 74.5 169t183.5 73q100 0 158 -70t58 -173q0 -82 -32 -153t-82 -118t-107 -84t-111 -56.5t-89 -29.5t-47 -10q-11 0 -11 9q0 6 24.5 15t65 26t85 45.5t92 86t79.5 134.5l-2 2q-63 -50 -136 -50zM126 415q0 -66 33 -96.5t85 -30.5
q49 0 89.5 24.5t50.5 47.5q10 22 18 73.5t8 89.5q0 65 -31.5 102t-95.5 37q-78 0 -117.5 -74t-39.5 -173z" />
    <glyph glyph-name="colon" unicode=":" horiz-adv-x="278" 
d="M74 104q20 0 34 -12t14 -32q0 -31 -18 -49.5t-46 -18.5q-20 0 -34 12t-14 32q0 31 18 49.5t46 18.5zM134 390q20 0 34 -12t14 -32q0 -31 -18 -49.5t-46 -18.5q-20 0 -34 12t-14 32q0 31 18 49.5t46 18.5z" />
    <glyph glyph-name="semicolon" unicode=";" horiz-adv-x="278" 
d="M134 31q0 -68 -73 -147q-26 -28 -49.5 -44t-31.5 -16q-10 0 -10 11q0 4 6 8.5l21.5 16.5t30.5 28q48 50 48 84q0 17 -26 24q-22 6 -32 17t-10 33q0 24 18 41t46 17q27 0 44.5 -19t17.5 -54zM134 390q20 0 34 -12t14 -32q0 -31 -18 -49.5t-46 -18.5q-20 0 -34 12t-14 32
q0 31 18 49.5t46 18.5z" />
    <glyph glyph-name="less" unicode="&#x3c;" horiz-adv-x="600" 
d="M492 58v-64l-454 201v64l454 201v-63l-388 -170z" />
    <glyph glyph-name="equal" unicode="=" horiz-adv-x="600" 
d="M498 347v-62h-454v62h454zM498 169v-62h-454v62h454z" />
    <glyph glyph-name="greater" unicode="&#x3e;" horiz-adv-x="600" 
d="M56 -6v64l388 169l-388 170v63l454 -201v-64z" />
    <glyph glyph-name="question" unicode="?" horiz-adv-x="593" 
d="M159 419l35 7q9 -30 39.5 -46.5t65.5 -16.5q87 0 132.5 53t45.5 106q0 58 -38.5 97t-90.5 39q-33 0 -58.5 -14t-39 -30.5t-33.5 -30.5t-44 -14q-20 0 -32 11.5t-12 27.5q0 35 46.5 60.5t113.5 25.5q97 0 157.5 -50t60.5 -134q0 -86 -64.5 -155.5t-161.5 -69.5
q-33 0 -82 11l-10 -31t-7 -23.5t-5 -14.5t-5.5 -9.5t-6.5 -2.5q-10 0 -10 7q0 2 4 42t4 76q0 23 -4 79zM150 104q20 0 34 -12t14 -32q0 -31 -18 -49.5t-46 -18.5q-20 0 -34 12t-14 32q0 31 18 49.5t46 18.5z" />
    <glyph glyph-name="at" unicode="@" horiz-adv-x="800" 
d="M370 188q52 0 92.5 79.5t40.5 151.5q0 27 -14 43t-41 16q-48 0 -92 -66.5t-44 -140.5q0 -83 58 -83zM520 467l10 41h69l-59 -226q-10 -42 -10 -64q0 -40 40 -40q42 0 75.5 35t49 82.5t15.5 94.5q0 118 -84.5 199t-218.5 81q-125 0 -210 -96.5t-85 -241.5
q0 -136 83.5 -224t221.5 -88q104 0 204 49l13 -29q-102 -56 -224 -56q-157 0 -267.5 100.5t-110.5 247.5q0 152 106 257t269 105q145 0 242 -86.5t97 -216.5q0 -55 -21.5 -110t-67 -95t-103.5 -40q-45 0 -68.5 27.5t-23.5 45.5h-2q-42 -73 -118 -73q-47 0 -73.5 33t-26.5 91
q0 85 58.5 167.5t144.5 82.5q28 0 47 -15.5t26 -37.5h2z" />
    <glyph glyph-name="A" unicode="A" horiz-adv-x="630" 
d="M378 250h-229q-69 -115 -69 -161q0 -28 19 -43.5t38 -22t19 -13.5q0 -12 -11 -12q-21 0 -62.5 1t-61.5 1q-21 0 -61.5 -1t-56.5 -1q-13 0 -13 12q0 8 12.5 12t32 9t49.5 29.5t58 66.5q55 82 159 255.5t104 184.5q0 7 -7.5 12.5t-7.5 10.5t3.5 8.5t16 14.5t26.5 26
q11 12 18.5 24t9.5 19t5 11.5t7 4.5q8 0 12 -24l114 -591q5 -26 22 -40t31.5 -19.5t14.5 -12.5q0 -13 -13 -13q-15 0 -52 1t-53 1q-18 0 -57 -1t-56 -1q-10 0 -10 12q0 10 12.5 14.5t28 5.5t28 12.5t12.5 33.5q0 17 -5.5 45t-14 67t-12.5 62zM162 274h210l-53 265z" />
    <glyph glyph-name="B" unicode="B" horiz-adv-x="611" 
d="M579 546q0 -45 -23 -80t-61 -55t-76.5 -30.5t-80.5 -14.5v-2q208 -8 208 -152q0 -81 -67.5 -147.5t-199.5 -66.5q-29 0 -98.5 1t-103.5 1q-23 0 -65 -1t-60 -1t-18 10t13 14t29 4t32 10t21 32l32.5 141l26 113.5l20.5 88l15.5 67.5l11 48t8 35l4.5 22.5t2.5 16t0.5 10.5
q0 24 -19 33t-37.5 12t-18.5 13q0 12 27 12q18 0 53.5 -1t53.5 -1q29 0 86.5 1t86.5 1q102 0 149.5 -38t47.5 -96zM479 546q0 54 -29.5 82t-100.5 28h-87l-63 -278h70q100 0 155 43.5t55 124.5zM440 224q0 30 -6 50.5t-23.5 40.5t-55.5 29.5t-96 9.5h-65l-25 -117l-18 -80.5
t-10.5 -46.5t-6 -29.5t-1.5 -15.5q0 -22 20 -32.5t76 -10.5q97 0 154 51t57 151z" />
    <glyph glyph-name="C" unicode="C" horiz-adv-x="704" 
d="M128 241q0 -116 49.5 -174.5t129.5 -58.5q173 0 260 191q5 11 9 21t5.5 14.5t3.5 8t4 4.5t6 1q9 0 9 -11q0 -7 -49 -231q-6 -31 -19 -31q-12 0 -16 22.5t-25 22.5q-7 0 -60.5 -18t-116.5 -18q-137 0 -216.5 82.5t-79.5 209.5q0 90 35 170t90.5 133.5t124 84t135.5 30.5
q55 0 98 -16.5t69 -33t39 -16.5q16 0 26 8t13 17t7.5 17t11.5 8q12 0 12 -14q0 -3 -1 -7.5l-4.5 -20.5l-8.5 -39l-15 -71.5l-22 -108.5q-4 -19 -14 -19q-4 0 -6 2.5t-3 10l-2 15t-2.5 24t-3.5 31.5q-12 92 -61 140.5t-130 48.5t-146.5 -60.5t-100.5 -158t-35 -210.5z" />
    <glyph glyph-name="D" unicode="D" horiz-adv-x="704" 
d="M157 612q0 20 -11.5 28t-25 8t-25 3.5t-11.5 14.5q0 14 18 14q22 0 64 -1t58 -1q26 0 64.5 1t59.5 1q149 0 225.5 -73t76.5 -207q0 -170 -116.5 -286t-293.5 -116q-34 0 -89.5 1t-70.5 1q-18 0 -63.5 -1t-62.5 -1q-13 0 -13 8q0 10 14 15t32 8t35.5 17.5t23.5 39.5
q102 446 108 488q3 20 3 38zM320 656h-51l-33 -151.5l-26.5 -121.5l-20.5 -93l-16 -71l-11 -50.5l-7.5 -35.5l-4.5 -22.5t-2.5 -16t-0.5 -10.5q0 -62 96 -62q78 0 138.5 39.5t94.5 103.5t51 134.5t17 141.5q0 115 -54 165t-170 50z" />
    <glyph glyph-name="E" unicode="E" horiz-adv-x="630" 
d="M271 656l-65 -288q71 0 108.5 17t60.5 52q11 16 17 38.5t10 35t11 12.5q8 0 8 -8q0 -10 -30 -154q-35 -165 -39 -173q-3 -7 -10 -7q-9 0 -9 13q0 5 2.5 22t2.5 28q0 47 -28 73.5t-110 26.5l-24 -113.5t-17 -77.5t-10 -44.5t-5.5 -28t-1.5 -16.5q0 -42 71 -42
q139 0 253 109q23 22 43 55.5t31.5 54.5t18.5 21q9 0 9 -9q0 -2 -0.5 -4t-2 -6.5t-3.5 -9.5l-6.5 -15.5l-9.5 -22.5l-13 -31.5l-17.5 -42l-22.5 -55l-28 -68.5q-62 0 -175.5 1t-160.5 1q-35 0 -86 -1t-74 -1q-20 0 -20 10q0 8 20 11t42.5 13.5t28.5 35.5q114 507 116 524
q1 9 1 16q0 20 -10.5 29.5t-23.5 10.5t-23.5 5t-10.5 13q0 14 15 14q30 0 88 -1t88 -1q47 0 140.5 1t140.5 1l9.5 -85.5t6.5 -58.5t4 -34t2.5 -22.5t0.5 -13.5q0 -13 -11 -13q-3 0 -4.5 1t-3.5 3t-3 4.5t-2.5 7.5t-2.5 9t-2.5 11.5t-3.5 13.5q-23 88 -86 120.5t-194 32.5z
" />
    <glyph glyph-name="F" unicode="F" horiz-adv-x="593" 
d="M272 656l-63 -294q104 0 142 39q19 19 29.5 47.5t15 46.5t11.5 18q10 0 10 -13q0 -2 -53 -256q-10 -49 -13.5 -58.5t-11.5 -9.5q-9 0 -9 9q0 8 3 27t3 30q0 96 -132 96q-13 -63 -26.5 -121.5l-18.5 -80.5t-8 -41.5t-3 -34.5q0 -14 11.5 -22t26 -11t26 -6.5t11.5 -8.5
q0 -14 -11 -14q-24 0 -66 1t-54 1q-40 0 -74 -1t-40 -1q-24 0 -24 14q0 9 11.5 11.5t26 3t29.5 12t21 36.5l53 222q67 280 67 308q0 21 -10 32.5t-22 13t-22 5t-10 10.5q0 14 15 14q16 0 78 -1t94 -1q48 0 139.5 1t133.5 1l8 -87l8 -90t3 -41q0 -13 -12 -13q-5 0 -10 12
t-14 36t-17 41q-17 34 -32 53.5t-43 35.5t-70 22.5t-107 6.5z" />
    <glyph glyph-name="G" unicode="G" horiz-adv-x="778" 
d="M598 0h-35l-18 49q-113 -65 -218 -65q-57 0 -110.5 19t-97.5 56t-70.5 98t-26.5 137q0 88 38 165.5t97 127.5t129 78.5t136 28.5q47 0 96 -16t82.5 -32t42.5 -16q15 0 25.5 24t19.5 24q13 0 13 -13q0 -3 -1 -7.5t-4 -19l-7.5 -35.5l-13.5 -64.5l-19 -96.5
q-7 -36 -10.5 -45.5t-10.5 -9.5q-13 0 -13 15q0 2 2 22.5t2 36.5q0 90 -61.5 149.5t-146.5 59.5q-54 0 -101.5 -27t-81.5 -70.5t-58.5 -98t-36.5 -111t-12 -108.5q0 -113 51.5 -177t149.5 -64q99 0 159 61.5t60 160.5q0 25 -19 36t-38.5 14.5t-19.5 9.5q0 14 14 14
q21 0 62 -1t62 -1t62 1t62 1q15 0 15 -11q0 -10 -13 -13.5t-29 -4.5t-33 -16t-24 -45z" />
    <glyph glyph-name="H" unicode="H" horiz-adv-x="722" 
d="M494 344h-294l-27 -117.5l-19 -80l-11 -46t-6.5 -29t-1.5 -15.5q0 -20 18.5 -27t37.5 -8t19 -9q0 -14 -23 -14q-18 0 -53.5 1t-53.5 1q-23 0 -64.5 -1t-57.5 -1q-19 0 -19 13q0 7 12.5 10t28.5 3.5t31.5 10t19.5 27.5q120 500 124 526q3 15 3 24q0 23 -18 32t-36.5 12
t-18.5 10q0 14 23 14q18 0 53.5 -1t53.5 -1q22 0 65 1t64 1q12 0 12 -12q0 -8 -13.5 -11.5t-30.5 -4.5t-34 -14t-22 -37l-50 -233h294q52 251 52 258q0 19 -35.5 24t-35.5 16q0 14 19 14q18 0 53.5 -1t53.5 -1q23 0 65 1t61 1q15 0 15 -12q0 -9 -14 -12t-31.5 -4t-34.5 -13
t-22 -36l-48 -219.5l-34.5 -154.5l-20 -91.5l-11.5 -55.5t-3 -22q0 -17 11 -26t24 -10.5t24 -5t11 -10.5q0 -10 -16 -10q-21 0 -57 1t-54 1q-23 0 -64 -1t-56 -1q-21 0 -21 11q0 9 13.5 12t30 4t33.5 13t22 35z" />
    <glyph glyph-name="I" unicode="I" horiz-adv-x="352" 
d="M176 611q0 19 -11 28.5t-24.5 10.5t-24.5 4.5t-11 11.5q0 14 23 14q18 0 53.5 -1t53.5 -1q22 0 65 1t63 1q13 0 13 -13q0 -9 -13.5 -12t-30.5 -3.5t-34 -13.5t-23 -39q-120 -513 -120 -543q0 -21 18.5 -27.5t37.5 -7.5t19 -9t-3.5 -11t-15.5 -3q-21 0 -57 1t-54 1
q-24 0 -63.5 -1t-52.5 -1q-16 0 -20.5 3t-4.5 11q0 7 12.5 9.5t28.5 3t31.5 11t20.5 32.5l41 173.5l31.5 131l22 91l15.5 64.5t8.5 39.5t4.5 27t1 16.5z" />
    <glyph glyph-name="J" unicode="J" horiz-adv-x="481" 
d="M409 603l-98 -453q-10 -47 -34 -81.5t-55.5 -52t-61.5 -25t-61 -7.5q-53 0 -99 29t-46 81q0 36 19 57t47 21q24 0 37 -14t13 -32q0 -22 -13.5 -46.5t-13.5 -34.5q0 -15 15.5 -26t42.5 -11q52 0 75.5 33.5t42.5 121.5q92 430 92 447t-11.5 27t-25 12.5t-25 6.5t-11.5 10
q0 14 23 14q18 0 53.5 -1t53.5 -1q24 0 63 1t50 1q20 0 20 -14q0 -9 -12.5 -12.5t-28 -4.5t-31 -12.5t-20.5 -33.5z" />
    <glyph glyph-name="K" unicode="K" horiz-adv-x="648" 
d="M311 385l-121 -117q-7 -36 -15 -72.5t-11.5 -54l-7 -34.5t-4.5 -27t-1 -19q0 -22 17.5 -30t35.5 -10.5t18 -9.5q0 -13 -19 -13q-8 0 -44 1t-58 1q-43 0 -84 -1t-49 -1q-13 0 -13 11q0 9 13 13t29.5 5.5t32.5 13t21 33.5q113 498 113 528q0 22 -12 34t-26.5 13.5t-26.5 5
t-12 11.5q0 14 25 14q18 0 53.5 -1t53.5 -1q22 0 65.5 1t64.5 1q11 0 11 -13q0 -8 -13.5 -11t-31 -5t-34.5 -15.5t-22 -39.5l-59 -283l2 -2l84 82q129 126 163 163.5t34 60.5q0 16 -7 24t-15 9.5t-15 5t-7 10.5q0 8 5 11t20 3q11 0 46.5 -1t51.5 -1q19 0 52 1t46 1
q14 0 14 -14q0 -6 -16 -8.5t-53.5 -19.5t-77.5 -54l-144 -134l118 -352q11 -32 28 -50t31.5 -21t25.5 -7t11 -12q0 -10 -17 -10q-9 0 -33 1t-37 1h-77z" />
    <glyph glyph-name="L" unicode="L" horiz-adv-x="593" 
d="M160 602q0 19 -7.5 30t-18.5 14t-22 4t-18.5 4.5t-7.5 11.5q0 14 21 14q16 0 49.5 -1t50.5 -1q21 0 64 1t65 1q20 0 20 -14q0 -8 -13 -10.5t-30 -3.5t-34 -16.5t-24 -45.5q-110 -491 -110 -520q0 -21 15 -34.5t45 -13.5q45 0 103 22t94 51q42 34 74 77.5t46 68t20 24.5
q11 0 11 -12q0 -4 -1 -8t-4.5 -13l-7.5 -19t-13 -30.5l-19 -43l-26 -61l-34 -80.5q-15 0 -108.5 1t-169.5 1q-61 0 -130.5 -1t-95.5 -1q-17 0 -17 12q0 10 16 14.5t36.5 5.5t40 14t25.5 39q115 515 115 519z" />
    <glyph glyph-name="M" unicode="M" horiz-adv-x="833" 
d="M265 678l89 -530l315 530q50 0 101.5 1t63.5 1q13 0 13 -14q0 -9 -13 -12.5t-30 -4.5t-34 -15.5t-23 -43.5q-100 -481 -103 -510q-1 -8 -1 -13q0 -28 19.5 -37t39 -10.5t19.5 -10.5q0 -11 -16 -11q-24 0 -62 1t-55 1q-22 0 -65.5 -1t-65.5 -1q-14 0 -14 10q0 8 13.5 11
t30 4t33.5 14t22 38l111 521l-2 2l-277 -476q-53 -91 -63.5 -107.5t-18.5 -16.5q-9 0 -13.5 18t-22.5 135l-72 443h-2l-39.5 -197l-30.5 -146t-16.5 -87.5t-6.5 -62.5q0 -31 12 -49.5t26.5 -23t26.5 -9t12 -10.5q0 -11 -13 -11q-17 0 -47.5 1t-44.5 1q-22 0 -67 -1t-68 -1
q-11 0 -11 11q0 6 12 9.5t30 10t38 18.5t38 40t27 70l54 242.5l38.5 168t11.5 54.5q0 13 -13.5 19.5t-29 7t-29 4t-13.5 13.5q0 14 22 14q6 0 24.5 -0.5t54.5 -1t85 -0.5z" />
    <glyph glyph-name="N" unicode="N" horiz-adv-x="704" 
d="M229 678l269 -523h2q86 401 88 423q0 26 -14 43t-31.5 22.5t-31.5 11.5t-14 12q0 13 19 13q20 0 57 -1t61 -1q12 0 50 1t59 1q13 0 13 -10q0 -6 -18.5 -13.5l-42.5 -17t-49.5 -40t-36.5 -76.5q-56 -235 -99 -443q-14 -68 -18.5 -82t-11.5 -14q-9 0 -17 13t-41 80
l-232 457h-2l-29 -133l-22.5 -102.5l-16 -73l-11 -53l-6.5 -33t-4 -23t-1 -14.5q0 -31 14.5 -49.5t32.5 -22.5t32.5 -8.5t14.5 -10.5q0 -7 -4.5 -10t-18.5 -3q-22 0 -54.5 1t-45.5 1q-22 0 -66.5 -1t-66.5 -1q-13 0 -13 9t17.5 14.5t40 10t46.5 29t35 68.5l105 440l-16 30
q-13 24 -29 37t-28.5 15t-21 5t-8.5 10q0 14 11 14q7 0 59 -1t95 -1z" />
    <glyph glyph-name="O" unicode="O" horiz-adv-x="778" 
d="M22 280q0 95 37 176t95.5 131.5t128 78.5t137.5 28q129 0 216.5 -86.5t87.5 -209.5q0 -95 -37 -176t-95.5 -131.5t-128 -78.5t-137.5 -28q-129 0 -216.5 86.5t-87.5 209.5zM128 232q0 -116 54.5 -170t145.5 -54q70 0 127 40.5t91.5 105.5t53 140.5t18.5 151.5
q0 116 -54.5 170t-145.5 54q-70 0 -127 -40.5t-91.5 -105.5t-53 -140.5t-18.5 -151.5z" />
    <glyph glyph-name="P" unicode="P" horiz-adv-x="593" 
d="M270 302h-78q-46 -218 -46 -232q0 -20 12.5 -30.5t28 -12t28 -5t12.5 -10.5q0 -14 -27 -14q-7 0 -41 1t-66 1q-48 0 -86 -1t-39 -1q-20 0 -20 14q0 8 13.5 11t30 4t33.5 14.5t23 39.5q112 515 112 531q0 25 -17.5 33.5t-35 10t-17.5 10.5q0 14 16 14q21 0 64.5 -1
t65.5 -1t65 1t64 1q106 0 161.5 -43.5t55.5 -117.5q0 -92 -88 -154.5t-224 -62.5zM269 656l-72 -330h75q98 0 151 59t53 160q0 111 -107 111h-100z" />
    <glyph glyph-name="Q" unicode="Q" horiz-adv-x="778" 
d="M420 694q129 0 216.5 -86.5t87.5 -209.5q0 -95 -36.5 -175t-94.5 -131t-126.5 -79t-136.5 -29v-2q174 -68 236 -68q35 0 61 12.5t37 27l20 27t15 12.5q8 0 8 -11q0 -7 -7.5 -21t-26.5 -33t-45.5 -36t-69.5 -28.5t-94 -11.5q-54 0 -114.5 26.5l-116.5 53t-99 26.5
q-32 0 -57.5 -12t-37 -26.5l-21 -26.5t-13.5 -12q-11 0 -11 11t14.5 29.5t39.5 38.5t67.5 34t89.5 14l2 2q-75 24 -130 99t-55 171q0 95 37 176t95.5 131.5t128 78.5t137.5 28zM418 670q-70 0 -127 -40.5t-91.5 -105.5t-53 -140.5t-18.5 -151.5q0 -116 54.5 -170t145.5 -54
q70 0 127 40.5t91.5 105.5t53 140.5t18.5 151.5q0 116 -54.5 170t-145.5 54z" />
    <glyph glyph-name="R" unicode="R" horiz-adv-x="630" 
d="M426 0l-78 263q-14 47 -40.5 58.5t-106.5 14.5l-23 -110l-16.5 -77t-9.5 -45.5t-5.5 -29t-1.5 -14.5q0 -20 18.5 -28t37.5 -10.5t19 -10.5q0 -13 -17 -13q-22 0 -59 1t-54 1q-22 0 -65.5 -1t-65.5 -1q-10 0 -10 10q0 9 13 13t29.5 5.5t33 15t21.5 38.5l36.5 168.5l28 128
l19.5 89.5l13.5 63l8 38t4.5 24.5t1 12.5q0 20 -10.5 31t-23.5 12.5t-23.5 6t-10.5 12.5q0 14 20 14q23 0 67.5 -1t67.5 -1q22 0 67 1t69 1q89 0 143.5 -33t54.5 -108q0 -81 -75.5 -134.5t-185.5 -58.5v-2q20 -3 33.5 -6t26 -5.5t22 -10.5t16.5 -12.5t15 -20l12.5 -24
t13 -33l13.5 -39.5l16.5 -52l19.5 -62q9 -27 25 -40.5t29.5 -13.5t24 -3.5t10.5 -13.5t-26 -10q-6 0 -53 1t-89 1zM269 656l-63 -296q86 0 129 6t67 25q32 24 51 69.5t19 89.5q0 56 -32 81t-104 25h-67z" />
    <glyph glyph-name="S" unicode="S" horiz-adv-x="593" 
d="M412 179q0 40 -32 71t-78 52t-92 44.5t-78 62t-32 90.5q0 79 65.5 137t164.5 58q41 0 78 -12t61.5 -23.5t34.5 -11.5q14 0 25 15.5t17 15.5q11 0 11 -12q0 -3 -18 -125q-4 -31 -10 -72q-5 -38 -7 -46t-10 -8q-3 0 -4.5 0.5t-3 2.5t-2 3.5t-1 4.5t-0.5 5t-0.5 6t-0.5 6
q-17 227 -175 227q-61 0 -98 -38t-37 -92q0 -32 17 -57.5t44.5 -42.5t61 -32.5t67 -33t61 -38.5t44.5 -53.5t17 -74.5q0 -97 -78.5 -160.5t-185.5 -63.5q-64 0 -120 24t-76 24q-22 0 -34 -18t-17 -18q-11 0 -11 8q0 4 2 12l10 41.5l19 82.5q13 61 25 126q5 31 8 38.5t10 7.5
q9 0 10.5 -8.5t1.5 -49.5q0 -246 170 -246q80 0 128 44t48 127z" />
    <glyph glyph-name="T" unicode="T" horiz-adv-x="630" 
d="M163 682h404q13 0 23 6q12 6 15 6q6 0 6 -18q0 -30 3.5 -111.5t3.5 -101.5q0 -13 -11 -13q-5 0 -7.5 2.5t-3.5 10t-2.5 17t-7 26.5t-15.5 36q-24 49 -67.5 80.5t-91.5 35.5l-32.5 -156.5l-25.5 -124.5l-20 -95l-15.5 -73l-10.5 -51.5l-7.5 -36.5t-4 -23.5t-2 -18
t-0.5 -13.5q0 -24 23 -33t46.5 -10.5t23.5 -8.5q0 -9 -4.5 -12.5t-18.5 -3.5q-32 0 -73 1t-56 1q-21 0 -66 -1t-71 -1q-12 0 -16 2.5t-4 10.5q0 9 15 11.5t34 3t38 12t25 35.5q12 47 33.5 145.5l49 233t43.5 206.5q-61 -7 -109.5 -31.5t-76 -54t-46 -58l-30 -47.5t-18.5 -19
q-10 0 -10 11q0 4 89 193q2 5 4 9.5l3.5 8t3 6.5t2.5 5.5t1.5 4.5t1.5 3t1.5 2t1.5 1.5l2 1t2 0.5q3 0 9 -6t16 -6z" />
    <glyph glyph-name="U" unicode="U" horiz-adv-x="704" 
d="M52 137q0 31 48 237t48 230q0 29 -17 38.5t-34.5 11t-17.5 12.5q0 14 23 14q18 0 54.5 -1t54.5 -1q20 0 60 1t59 1q12 0 12 -14q0 -7 -12.5 -9.5t-29 -3.5t-32.5 -14.5t-22 -41.5l-39 -183l-27.5 -128.5l-16 -74.5t-9.5 -49t-2 -24q0 -60 39.5 -92t102.5 -32
q89 0 146.5 50.5t73.5 128.5q64 318 67 347q1 11 1 23q0 35 -12.5 56t-27 26t-27 10t-12.5 11q0 14 14 14q23 0 67 -1t67 -1q14 0 42.5 1t42.5 1q12 0 12 -14q0 -9 -14 -9.5t-40.5 -12t-49.5 -46.5q-8 -12 -13.5 -22.5l-10.5 -20.5t-9.5 -28t-9 -33t-11.5 -48.5l-13 -62
l-18 -86.5l-23 -109q-22 -103 -98 -153.5t-177 -50.5q-42 0 -87.5 14.5t-83.5 51t-38 87.5z" />
    <glyph glyph-name="V" unicode="V" horiz-adv-x="611" 
d="M268 125h2l75.5 130l59.5 102l43.5 74.5l32.5 56l20.5 37.5t13 29t5.5 20.5t2 20.5q0 29 -17 41t-34.5 16.5t-17.5 14.5q0 13 28 13q16 0 48.5 -1t48.5 -1t47.5 1t47.5 1q18 0 18 -13q0 -7 -6.5 -10t-20.5 -8t-31 -15.5t-42 -38t-50 -69.5l-209 -353q-82 -139 -98 -164
t-24 -25t-14 24.5t-32 171.5l-80 436q-3 14 -13.5 22.5t-21 10t-19.5 5.5t-9 12q0 14 25 14q18 0 55 -1t56 -1t53.5 1t48.5 1q21 0 21 -13q0 -7 -13 -10.5t-29 -5t-29 -12.5t-13 -32q0 -7 1.5 -19.5t7 -46l12.5 -78l21 -137z" />
    <glyph glyph-name="W" unicode="W" horiz-adv-x="870" 
d="M254 146l169 319l-22 151q-2 15 -12.5 23t-21 9.5t-19 5.5t-8.5 12t3.5 11t15.5 3q18 0 54 -1t54 -1q19 0 53 1t50 1q15 0 15 -14q0 -6 -12.5 -10t-27 -7t-27 -14.5t-12.5 -30.5q0 -8 54 -463h2q156 286 189.5 354t33.5 95q0 25 -10 38.5t-22 16t-22 7t-10 14.5
q0 14 17 14q18 0 54 -1t54 -1q16 0 47 1t46 1q11 0 11 -14q0 -8 -12 -12.5t-29 -9.5t-41.5 -27t-45.5 -59l-310 -557q-9 -17 -17 -17q-7 0 -10 3.5t-5 18.5l-51 411h-2l-225 -416q-9 -17 -17 -17q-7 0 -10 3.5t-5 18.5l-79 597q-3 20 -12.5 31t-20 13t-18.5 6.5t-8 12.5
q0 14 26 14q16 0 47 -1t46 -1q18 0 54 1t54 1q16 0 16 -14q0 -9 -12 -13.5t-27 -6.5t-27 -13t-12 -32q0 -6 0.5 -12t2 -19l3.5 -30t6.5 -52l10 -77l14 -112.5l18.5 -152.5h2z" />
    <glyph glyph-name="X" unicode="X" horiz-adv-x="630" 
d="M348 381l124 -300q10 -24 27 -37.5t31 -15.5t24.5 -5.5t10.5 -11.5q0 -13 -14 -13q-17 0 -52 1t-52 1q-24 0 -73 -1t-75 -1q-13 0 -13 11q0 9 12.5 13.5t28 6.5t28 13.5t12.5 31.5q0 24 -92 245q-131 -150 -150 -179q-22 -33 -22 -65q0 -21 11 -33t23.5 -14t23.5 -6
t11 -12q0 -12 -15 -12q-21 0 -63.5 1t-63.5 1q-24 0 -72 -1t-73 -1q-11 0 -11 11q0 9 14.5 13.5t36.5 9t56 24.5t65 54l218 237l-118 264q-9 19 -24 29t-27.5 10.5t-22 3.5t-9.5 11q0 15 26 15q19 0 55.5 -1t54.5 -1t54.5 1t54.5 1q14 0 14 -11q0 -10 -18 -11.5t-35.5 -8.5
t-17.5 -30q0 -10 41 -104l45 -104q100 109 115 130q20 30 20 61q0 26 -15 37.5t-29.5 15.5t-14.5 12q0 13 14 13q22 0 66.5 -1t67.5 -1q14 0 42 1t42 1q15 0 15 -12q0 -9 -13.5 -11.5t-50 -22t-78.5 -66.5z" />
    <glyph glyph-name="Y" unicode="Y" horiz-adv-x="593" 
d="M215 318l-106 295q-7 20 -25.5 28.5t-33 11.5t-14.5 13q0 8 5 11t20 3q20 0 60 -1t60 -1q17 0 52 1t53 1q17 0 17 -14q0 -7 -13 -9.5t-28.5 -3.5t-28.5 -12t-13 -31q0 -6 1 -12t4 -17t6.5 -21.5l11 -33l14.5 -42.5l20.5 -58.5l25.5 -73.5q111 119 148 172t37 85
q0 25 -13 34t-26.5 11t-13.5 12q0 14 18 14q20 0 59.5 -1t59.5 -1q14 0 41 1t40 1q16 0 16 -14q0 -5 -3.5 -8t-10.5 -4.5t-19 -6.5t-26 -12.5t-35.5 -25t-44.5 -42.5q-42 -44 -121 -135.5l-98 -112.5l-22.5 -101l-15.5 -69l-9 -39.5t-5 -24t-1 -11.5q0 -23 12 -35t26.5 -13
t26.5 -3.5t12 -10.5q0 -14 -18 -14q-21 0 -58 1t-54 1q-21 0 -66 -1t-71 -1q-12 0 -12 12q0 9 14.5 12.5t32.5 5.5t36.5 17t24.5 44z" />
    <glyph glyph-name="Z" unicode="Z" horiz-adv-x="630" 
d="M500 656h-53q-79 0 -141.5 -20t-97.5 -49t-59 -58t-37.5 -49t-20.5 -20q-10 0 -10 10q0 6 95 210q60 0 138 -1t115 -1q57 0 99.5 0.5t64 1t28.5 0.5q10 0 10 -8q0 -2 -2.5 -5.5t-8.5 -10l-10 -10.5l-530 -624h82q158 0 264 110q28 29 48 62.5t28.5 51t14.5 17.5
q11 0 11 -12q0 -3 -1 -6.5t-4 -11.5l-7 -18t-12.5 -29.5l-18.5 -43l-25.5 -62l-33.5 -82.5q-36 0 -108 1t-140 1q-65 0 -134.5 -1t-76.5 -1q-19 0 -19 4q0 2 2.5 4.5l7 7t7.5 8.5z" />
    <glyph glyph-name="bracketleft" unicode="[" horiz-adv-x="407" 
d="M190 -176h-165q-20 0 -20 9q0 12 195 848q6 25 10 30t18 5h146q13 0 13 -10q0 -9 -15 -11.5t-33.5 -2.5t-36.5 -10.5t-23 -32.5q-168 -738 -168 -759q0 -20 14.5 -30.5t32 -11.5t32 -3.5t14.5 -9.5q0 -11 -14 -11z" />
    <glyph glyph-name="backslash" unicode="\" horiz-adv-x="278" 
d="M282 -16h-61l-263 710h61z" />
    <glyph glyph-name="bracketright" unicode="]" horiz-adv-x="407" 
d="M162 716h165q20 0 20 -9q0 -12 -195 -848q-6 -25 -10 -30t-18 -5h-146q-13 0 -13 10q0 9 15 11.5t33.5 2.5t36.5 10.5t23 32.5q168 738 168 759q0 20 -14.5 30.5t-32 11.5t-32 3.5t-14.5 9.5q0 11 14 11z" />
    <glyph glyph-name="asciicircum" unicode="^" horiz-adv-x="600" 
d="M274 678h52l162 -327h-66l-122 247l-122 -247h-66z" />
    <glyph glyph-name="underscore" unicode="_" horiz-adv-x="500" 
d="M500 -125h-500v50h500v-50z" />
    <glyph glyph-name="grave" unicode="`" horiz-adv-x="315" 
d="M247 508h-31l-135 104q-24 18 -24 35q0 16 10.5 25.5t26.5 9.5q20 0 45 -32z" />
    <glyph glyph-name="a" unicode="a" horiz-adv-x="574" 
d="M315 128l-2 2q-77 -138 -192 -138q-63 0 -96 39.5t-33 107.5q0 70 26.5 132.5t67 103t85.5 64t84 23.5q91 0 118 -101l31 29l25 23l18 16.5t13.5 12l9 7t7.5 4.5t6 1q12 0 12 -13q0 -6 -9 -25.5t-21 -50.5t-18 -59l-18 -84.5l-13 -60t-7.5 -36.5t-4.5 -27t-1 -18
q0 -14 8.5 -22t22.5 -8q22 0 37 18.5t29 60.5q17 43 22 45q8 0 8 -10q0 -9 -7 -33.5t-21 -57.5t-42 -57t-63 -24q-84 0 -84 85q0 29 2 51zM355 322q0 58 -26.5 87t-70.5 29q-70 0 -123 -104.5t-53 -207.5q0 -55 18 -75.5t53 -20.5q43 0 82.5 34.5t64.5 82.5t40 96t15 79z
" />
    <glyph glyph-name="b" unicode="b" 
d="M255 730l-94 -383l2 -2q65 117 163 117q65 0 110.5 -51.5t45.5 -140.5q0 -102 -81 -190t-194 -88q-77 0 -124 47.5t-47 126.5q0 40 50.5 244.5t50.5 219.5q0 22 -16 32t-32 14t-16 10q0 8 13.5 11.5t64 11.5t104.5 21zM112 109q0 -93 92 -93q59 0 104 55.5t64.5 124.5
t19.5 132q0 49 -24 75.5t-66 26.5q-46 0 -85 -41t-60.5 -98t-33 -106.5t-11.5 -75.5z" />
    <glyph glyph-name="c" unicode="c" horiz-adv-x="500" 
d="M88 203q0 -69 42 -111t112 -42q38 0 69.5 13.5t47.5 29l29 29t17 13.5q7 0 7 -7q0 -8 -14.5 -29t-39.5 -45.5t-69 -43t-93 -18.5q-90 0 -144 54.5t-54 149.5q0 105 81 185.5t198 80.5q75 0 122 -37t47 -96q0 -31 -15 -52t-43 -21q-21 0 -32 11.5t-11 29.5q0 15 5.5 40.5
t5.5 33.5q0 29 -21.5 51t-62.5 22q-77 0 -130.5 -76t-53.5 -165z" />
    <glyph glyph-name="d" unicode="d" horiz-adv-x="593" 
d="M332 146l-2 2q-85 -156 -200 -156q-63 0 -97.5 42.5t-34.5 117.5q0 114 84.5 212t179.5 98q51 0 76.5 -26.5t38.5 -68.5h2q52 240 52 263q0 22 -16 32t-32 14t-16 10q0 8 13.5 11.5t64 11.5t104.5 21q-142 -621 -144 -645q-1 -6 -1 -11q0 -32 31 -32q43 0 71 77
q2 5 3.5 9.5l2.5 7.5t2 6.5t2 6t1.5 4.5t1.5 3.5t1.5 2.5t1.5 1.5l2 1t2 0.5q8 0 8 -9q0 -8 -7 -30.5t-21 -53.5t-42.5 -54t-64.5 -23q-38 0 -57.5 22.5t-19.5 59.5q0 30 10 72zM361 319q0 47 -22.5 83t-74.5 36q-47 0 -89 -54t-64.5 -124.5t-22.5 -129.5q0 -100 80 -100
q51 0 97.5 54.5t71 121t24.5 113.5z" />
    <glyph glyph-name="e" unicode="e" horiz-adv-x="463" 
d="M-2 185q0 65 29.5 120t73.5 88t91 51t86 18q59 0 94.5 -24.5t35.5 -69.5q0 -78 -134 -123q-63 -21 -186 -44q-2 -64 38.5 -107.5t115.5 -43.5q51 0 98 34l29.5 23t17.5 14.5t7 3.5q7 0 7 -8q0 -5 -9 -18t-28.5 -31.5t-44 -35.5t-60.5 -28.5t-74 -11.5q-84 0 -135.5 56.5
t-51.5 136.5zM275 444q-28 0 -57.5 -13t-57.5 -38t-48 -70t-24 -102q57 11 84 17t70 22.5t60 37.5q30 35 30 84q0 62 -57 62z" />
    <glyph glyph-name="f" unicode="f" horiz-adv-x="296" 
d="M91 404h-66q33 19 64.5 63t56.5 91t51.5 91.5t60 73.5t71.5 29q33 0 52.5 -19t19.5 -49q0 -29 -18.5 -52.5t-44.5 -23.5q-17 0 -27 9.5t-10 22.5t7 31.5t7 24.5q0 26 -21 26q-18 0 -40 -25.5t-31 -55.5q-8 -27 -14 -87t-14 -100h107l-8 -50h-108q-115 -598 -334 -598
q-28 0 -48 17t-20 48q0 26 15.5 43.5t37.5 17.5q24 0 36 -12.5t13.5 -27.5t7.5 -27.5t19 -12.5q31 0 59 37.5t40 95.5q4 19 32 186t47 233z" />
    <glyph glyph-name="g" unicode="g" horiz-adv-x="519" 
d="M50 300q0 75 61 118.5t159 43.5q8 41 44 79.5t78 38.5q38 0 38 -37q0 -18 -13 -28.5t-37 -10.5q-10 0 -25.5 4t-24.5 4q-20 0 -28 -12.5t-14 -37.5q68 -8 109 -43.5t41 -91.5q0 -66 -53 -111.5t-147 -52.5q-104 -7 -137 -16.5t-33 -37.5q0 -27 36 -37.5t114 -13t106 -6.5
q43 -6 66.5 -30.5t23.5 -60.5q0 -64 -69 -109.5t-206 -45.5q-95 0 -153 29t-58 77q0 22 9 39t27.5 28t27.5 15t27 11q-31 20 -31 59q0 47 45.5 76.5t119.5 31.5v2q-49 17 -76 46t-27 80zM-22 -82q0 -42 39.5 -68t121.5 -26q95 0 145 26t50 75q0 12 -4 20t-13.5 13.5t-19 9
t-27.5 5.5t-31 2.5t-37.5 2l-40.5 2.5q-103 7 -123 15q-60 -21 -60 -77zM140 254q0 -74 83 -74q36 0 62 20t39 52t18.5 61t5.5 57q0 74 -83 74q-36 0 -62 -20t-39 -52t-18.5 -61t-5.5 -57z" />
    <glyph glyph-name="h" unicode="h" horiz-adv-x="574" 
d="M134 191l-52 -195q-21 6 -44 6q-22 0 -42 -6q140 610 140 634q0 22 -16 32t-32 14t-16 10q0 8 13.5 11.5t64 11.5t104.5 21l-110 -450l2 -2q46 97 95 140.5t109 43.5q51 0 79 -28.5t28 -79.5q0 -26 -31 -147t-31 -133q2 -32 31 -32q44 0 71 77q2 5 3.5 9.5l2.5 7.5t2 6.5
t2 6t1.5 4.5t1.5 3.5t1.5 2.5t1.5 1.5l2 1t2 0.5q8 0 8 -9q0 -8 -7 -30.5t-21.5 -53.5t-44 -54t-66.5 -23q-39 0 -60 23t-21 59q0 41 31 157.5t31 137.5q0 28 -16 41.5t-38 13.5q-55 0 -105 -72.5t-74 -160.5z" />
    <glyph glyph-name="i" unicode="i" horiz-adv-x="315" 
d="M166 42q44 0 71 77q2 5 3.5 9.5l2.5 7.5t2 6.5t2 6t1.5 4.5t1.5 3.5t1.5 2.5t1.5 1.5l2 1t2 0.5q8 0 8 -9q0 -8 -7 -30.5t-21.5 -53.5t-44 -54t-66.5 -23q-38 0 -59.5 24t-21.5 61q0 29 36.5 157t36.5 146q0 32 -31 32q-43 0 -72 -77q-13 -35 -19 -35q-8 0 -8 9
q0 7 7.5 29t22.5 51t44 51t65 22q41 0 61 -22t20 -57q0 -31 -36.5 -163t-36.5 -146q0 -32 31 -32zM215 654q21 0 35.5 -14.5t14.5 -34.5q0 -24 -16.5 -39.5t-41.5 -15.5q-21 0 -35.5 14.5t-14.5 34.5q0 24 16.5 39.5t41.5 15.5z" />
    <glyph glyph-name="j" unicode="j" horiz-adv-x="296" 
d="M220 383q0 -32 -48 -234l-31 -127q-16 -70 -26 -110q-11 -48 -60.5 -77t-107.5 -29q-51 0 -77 18.5t-26 47.5q0 21 13.5 34.5t36.5 13.5q48 0 53 -59q2 -18 7.5 -24.5t21.5 -6.5q32 0 52.5 15.5t20.5 42.5q0 13 -5.5 31t-5.5 30q0 14 46 213t46 218q0 32 -31 32
q-43 0 -72 -77q-13 -35 -19 -35q-8 0 -8 9q0 7 7.5 29t22.5 51t44 51t65 22q41 0 61 -22t20 -57zM215 654q21 0 35.5 -14.5t14.5 -34.5q0 -24 -16.5 -39.5t-41.5 -15.5q-21 0 -35.5 14.5t-14.5 34.5q0 24 16.5 39.5t41.5 15.5z" />
    <glyph glyph-name="k" unicode="k" horiz-adv-x="574" 
d="M256 730l-106 -464l2 -2q24 42 43 69.5t49 61t64.5 50.5t73.5 17q51 0 78.5 -26t27.5 -60q0 -49 -52 -90t-157 -61v-2q16 1 28.5 -4.5t24 -21t18 -27t18.5 -36.5q23 -46 33 -59t26 -13q33 0 58 52q4 7 8.5 19t7 16t7.5 4q10 0 10 -10q0 -13 -14 -46.5t-47 -69t-73 -35.5
q-32 0 -54.5 26t-44.5 73q-7 14 -17 36t-14 29.5l-11 20t-11.5 15.5t-13.5 7.5t-18.5 5.5t-23.5 1h-29q-15 -43 -63 -210q-21 6 -41 6q-22 0 -43 -6l37 167.5l30 134.5l23 103.5l18 79l13 56l9 40t5 25t2.5 17.5t0.5 11q0 22 -16 32t-32 14t-16 10q0 8 13.5 11.5t64 11.5
t104.5 21zM156 230h37q84 0 139.5 38t55.5 89q0 26 -15 40.5t-42 14.5q-46 0 -98 -63t-77 -119z" />
    <glyph glyph-name="l" unicode="l" horiz-adv-x="296" 
d="M139 630q0 22 -16 32t-32 14t-16 10q0 8 13.5 11.5t64 11.5t104.5 21q-151 -643 -151 -656q0 -32 31 -32q43 0 71 77q2 5 3.5 9.5l2.5 7.5t2 6.5t2 6t1.5 4.5t1.5 3.5t1.5 2.5t1.5 1.5l2 1t2 0.5q8 0 8 -9q0 -8 -7 -30.5t-22 -53.5t-45 -54t-69 -23q-38 0 -57.5 22.5
t-19.5 59.5q0 30 61.5 278t61.5 278z" />
    <glyph glyph-name="m" unicode="m" horiz-adv-x="889" 
d="M453 181l-46 -185q-23 6 -46 6q-20 0 -41 -6l33.5 141l24 101l14.5 61.5t9 43.5t2 25q0 56 -53 56q-63 0 -113.5 -85.5t-81.5 -219.5l-29 -123q-22 6 -46 6q-20 0 -41 -6l32.5 147l24 103l15 63t9 41.5t2.5 22.5q0 17 -8 28t-22 11q-26 0 -41.5 -21.5t-28.5 -57.5
l-4 -12.5t-3 -9.5t-2.5 -7t-2 -5.5t-2 -3t-2.5 -2t-3 -0.5q-7 0 -7 11q0 8 7 30.5t21 52.5t41 52.5t61 22.5q38 0 58 -24.5t20 -70.5q0 -17 -5 -50l2 -2q74 147 178 147q44 0 75 -26.5t31 -83.5q0 -21 -5 -43h2q18 32 31 52t36 47t52.5 40.5t63.5 13.5q50 0 79.5 -31
t29.5 -77q0 -30 -32.5 -146t-32.5 -134q0 -32 31 -32q44 0 71 77q2 5 3.5 9.5l2.5 7.5t2 6.5t2 6t1.5 4.5t1.5 3.5t1.5 2.5t1.5 1.5l2 1t2 0.5q8 0 8 -9q0 -8 -7 -30.5t-21.5 -53.5t-45 -54t-69.5 -23q-38 0 -57.5 22t-19.5 57q0 32 32.5 155.5t32.5 148.5q0 49 -50 49
q-40 0 -79.5 -44t-64.5 -97t-37 -102z" />
    <glyph glyph-name="n" unicode="n" horiz-adv-x="611" 
d="M174 185l-46 -189q-26 6 -46 6t-39 -6l19.5 96.5l20.5 98t16 79.5t12 68t4 37q0 37 -31 37q-43 0 -72 -77q-13 -35 -19 -35q-8 0 -8 9q0 7 7.5 29t22.5 51t44 51t65 22q40 0 60.5 -22.5t20.5 -59.5q0 -36 -7 -68l2 -2q44 80 86.5 116t99.5 36q48 0 78 -31t30 -79
q0 -29 -29 -147.5t-29 -130.5q0 -32 31 -32q44 0 71 77q2 5 3.5 9.5l2.5 7.5t2 6.5t2 6t1.5 4.5t1.5 3.5t1.5 2.5t1.5 1.5l2 1t2 0.5q8 0 8 -9q0 -8 -6.5 -30.5t-20.5 -53.5t-44.5 -54t-69.5 -23q-40 0 -59.5 22.5t-19.5 59.5q0 28 29 148.5t29 146.5q0 55 -55 55
q-33 0 -64.5 -28.5t-54 -70.5t-36 -77.5t-20.5 -62.5z" />
    <glyph glyph-name="o" unicode="o" horiz-adv-x="519" 
d="M259 444q-56 0 -96.5 -51t-57.5 -117.5t-17 -133.5q0 -132 102 -132q56 0 96.5 51t57.5 117.5t17 133.5q0 132 -102 132zM257 462q88 0 141 -55t53 -149q0 -111 -72.5 -188.5t-186.5 -77.5q-88 0 -141 55t-53 149q0 111 72.5 188.5t186.5 77.5z" />
    <glyph glyph-name="p" unicode="p" horiz-adv-x="593" 
d="M141 39l-53 -233q-34 8 -47 8q-16 0 -40 -8l32.5 150l26 120.5l20 92l15.5 69.5l11 49t7 35t4 22t2.5 15.5t0.5 10.5q0 42 -38 42q-21 0 -36.5 -17.5t-30.5 -49.5q-6 -12 -11 -25t-7 -17.5t-5 -4.5q-7 0 -7 7t7.5 30t21.5 52.5t42.5 52t63.5 22.5q90 0 90 -112h2
q30 53 65.5 82.5t89.5 29.5q66 0 112 -52.5t46 -134.5q0 -117 -81.5 -200t-183.5 -83q-64 0 -119 47zM435 318q0 56 -24 84t-64 28q-52 0 -96 -56t-65.5 -128.5t-21.5 -135.5q0 -38 22.5 -66t70.5 -28q44 0 80.5 36t56.5 87.5t30.5 99t10.5 79.5z" />
    <glyph glyph-name="q" unicode="q" 
d="M439 257l-89 -451q-34 8 -47 8q-16 0 -40 -8l64 327l-2 2q-85 -143 -196 -143q-60 0 -95.5 40.5t-35.5 117.5q0 123 86.5 217.5t176.5 94.5q43 0 75 -25.5t45 -74.5q25 32 60 62t52 30q9 0 9 -9q0 -5 -9.5 -21t-25 -59.5t-28.5 -107.5zM88 126q0 -96 78 -96q51 0 97.5 57
t70 126t23.5 119q0 48 -26.5 77t-63.5 29q-44 0 -80.5 -38t-56.5 -92t-31 -103t-11 -79z" />
    <glyph glyph-name="r" unicode="r" horiz-adv-x="444" 
d="M206 328h2q70 134 173 134q25 0 40 -12.5t15 -34.5q0 -26 -15 -39.5t-40 -13.5q-22 0 -43.5 14t-35.5 14q-39 0 -74 -68t-60 -166l-40 -160q-34 6 -46 6q-7 0 -43 -6q81 354 81 383q0 33 -28 33q-42 0 -73 -86q-13 -36 -16 -37q-1 -1 -3 -1q-7 0 -7 8q0 9 7 33t21 55.5
t43 54.5t66 23q36 0 58 -22.5t22 -64.5q0 -28 -4 -47z" />
    <glyph glyph-name="s" unicode="s" horiz-adv-x="463" 
d="M402 366q0 -48 -42 -48q-21 0 -34 10.5t-17 23t-8 34.5q-5 31 -19 44.5t-56 13.5t-68.5 -23t-26.5 -55q0 -25 18.5 -43t46.5 -28.5l60 -23.5t60 -27t46.5 -40t18.5 -62q0 -61 -52.5 -105.5t-156.5 -44.5q-82 0 -128 32t-46 82q0 62 47 62q41 0 48 -74q5 -45 21.5 -64.5
t65.5 -19.5q56 0 90.5 26.5t34.5 68.5q0 27 -25.5 46t-62.5 32t-74 27.5t-62.5 41t-25.5 64.5q0 66 53 106t122 40q83 0 127.5 -30t44.5 -66z" />
    <glyph glyph-name="t" unicode="t" horiz-adv-x="333" 
d="M95 404h-85q67 29 113.5 69.5t98.5 120.5l-30 -140h109l-15 -50h-105l-27 -125l-19.5 -87.5l-12 -52.5t-7 -33.5t-1.5 -15.5q0 -22 15.5 -35t40.5 -13q24 0 48.5 13.5t41 27t19.5 13.5q7 0 7 -8t-21 -30t-62 -44t-84 -22q-42 0 -68.5 21.5t-26.5 57.5q0 9 1 19.5t4 26.5
l6 31t10 44t12.5 54t17 71.5t20.5 86.5z" />
    <glyph glyph-name="u" unicode="u" horiz-adv-x="611" 
d="M373 269l46 189q26 -6 46 -6t39 6l-19.5 -96.5l-20.5 -98t-16 -80t-12 -68.5t-4 -37q0 -36 31 -36q43 0 71 77q2 5 3.5 9.5l2.5 7.5t2 6.5t2 6t1.5 4.5t1.5 3.5t1.5 2.5t1.5 1.5l2 1t2 0.5q8 0 8 -9q0 -8 -7 -30.5t-21.5 -53.5t-45 -54t-69.5 -23q-38 0 -57.5 22.5
t-19.5 59.5q0 23 7 70l-2 2q-42 -81 -86.5 -117.5t-99.5 -36.5q-50 0 -79 29t-29 81q0 30 29 148t29 130q0 32 -31 32q-44 0 -71 -77q-2 -5 -3.5 -9.5l-2.5 -7.5t-2 -6.5t-2 -6t-1.5 -4.5t-1.5 -3.5t-1.5 -2.5t-1.5 -1.5l-2 -1t-2 -0.5q-8 0 -8 9q0 8 7 30.5t21.5 53.5
t44 54t66.5 23q39 0 60 -23t21 -59q0 -32 -29 -152t-29 -148q0 -23 13 -36.5t38 -13.5q35 0 67.5 28.5t54.5 70.5t36 77.5t21 62.5z" />
    <glyph glyph-name="v" unicode="v" horiz-adv-x="574" 
d="M371 409q0 23 13 38t33 15q40 0 66 -44t26 -115t-31 -142t-91.5 -120t-132.5 -49q-68 0 -104.5 42.5t-36.5 103.5q0 89 100 232q-43 6 -80.5 26t-59.5 20q-27 0 -42 -17t-15 -39q0 -29 21 -29q5 0 14 1t15 1q18 0 31 -11t13 -35q0 -22 -14 -35t-39 -13q-71 0 -71 89
q0 54 38 94t98 40q20 0 67 -8t61 -8q17 0 32 4l14 4q7 0 7 -7q0 -4 -32 -44t-64 -98t-32 -106q0 -131 133 -131q43 0 78 22t54 54.5t29 64.5t10 58q0 28 -17 47.5t-37 28t-37 25.5t-17 41z" />
    <glyph glyph-name="w" unicode="w" horiz-adv-x="852" 
d="M494 400q-34 0 -58 -45.5t-24 -107.5q0 -59 26 -99q97 109 97 204q0 48 -41 48zM647 400q0 23 16 38.5t39 15.5q38 0 61.5 -38t23.5 -88q0 -82 -36 -159.5t-99 -127t-134 -49.5q-83 0 -125 74q-92 -74 -166 -74q-53 0 -87.5 38t-34.5 105q0 15 2 29t4.5 25t10 27
l11.5 24.5t16.5 28.5t18.5 28.5l23.5 34.5l25.5 38q-31 3 -75.5 24.5t-64.5 21.5q-28 0 -44.5 -17.5t-16.5 -40.5q0 -27 22 -27q5 0 15 1t15 1q18 0 30 -12t12 -32q0 -22 -13.5 -36t-35.5 -14q-75 0 -75 89q0 56 37 95t106 39q21 0 70 -7t63 -7q12 0 25 3t16 3q6 0 6 -6
q0 -3 -32 -42t-64 -96.5t-32 -106.5q0 -145 114 -145q50 0 88 36q-13 36 -13 91q0 104 48 190.5t107 86.5q62 0 62 -81q0 -42 -33.5 -110.5t-100.5 -143.5q50 -59 121 -59q49 0 86.5 25t55.5 60t26.5 62.5t8.5 41.5q0 29 -16.5 49t-35.5 29.5t-35.5 26t-16.5 38.5z" />
    <glyph glyph-name="x" unicode="x" horiz-adv-x="574" 
d="M223 203l-34 84q-26 64 -35.5 81.5t-22.5 17.5q-23 0 -46 -40l-9 -16t-7.5 -14t-5.5 -9.5t-5.5 -6.5t-4.5 -2q-7 0 -7 8q0 23 39 89.5t88 66.5q22 0 37 -18.5t33 -60.5l42 -100q11 15 37.5 56.5t41.5 62.5t41.5 40.5t52.5 19.5q29 0 49 -18.5t20 -52.5q0 -36 -34.5 -84.5
t-48.5 -48.5q-7 0 -7 8q0 4 12 16t24 32t12 43q0 18 -10 30.5t-32 12.5q-15 0 -29 -5t-27.5 -16t-23 -20.5t-22 -27l-18 -25.5t-16.5 -26.5t-12 -20.5l46 -110q19 -47 31.5 -62t32.5 -15q21 0 32 13.5t24 46.5l6.5 17t4.5 13.5t3 8t3 5t3 1.5q7 0 7 -8q0 -7 -7.5 -33
t-21.5 -59.5t-40.5 -59t-57.5 -25.5q-38 0 -57.5 30t-70.5 157l-52 -79q-40 -60 -70.5 -84t-72.5 -24q-30 0 -48.5 22t-18.5 56t23.5 69t46.5 53.5t29 18.5q8 0 8 -8q0 -3 -14 -15.5t-28.5 -33t-14.5 -42.5q0 -58 51 -58q35 0 70 34.5t81 114.5z" />
    <glyph glyph-name="y" unicode="y" horiz-adv-x="500" 
d="M162 399l118 -338q61 77 89 127t28 100q0 36 -27.5 71t-27.5 57q0 21 13.5 33.5t35.5 12.5q27 0 47.5 -22t20.5 -69q0 -130 -200 -370q-163 -195 -274 -195q-43 0 -68 19t-25 46q0 22 14.5 35t37.5 13q27 0 42.5 -16.5t27.5 -32.5t31 -16q38 0 98.5 56t60.5 85
q0 4 -0.5 8t-1.5 9t-4 14.5l-6.5 20l-10 30l-14 41l-19 56l-23.5 71.5q-39 117 -42 123q-9 18 -26 18q-16 0 -28 -18t-26 -61q-10 -31 -16 -31q-7 0 -7 9q0 16 12 55.5t41 80.5t65 41q42 0 64 -63z" />
    <glyph glyph-name="z" unicode="z" horiz-adv-x="500" 
d="M437 403l-318 -279l2 -2q16 2 25 2q27 0 47.5 -9.5t33 -23.5l24.5 -28t27 -23.5t34 -9.5q25 0 40 12t15 29q0 20 -26 41.5t-26 43.5q0 19 13.5 33t38.5 14q30 0 46 -20t16 -54q0 -20 -9.5 -42.5t-28.5 -44.5t-55.5 -36t-83.5 -14q-43 0 -76.5 19.5t-56 39t-38.5 19.5
q-17 0 -29.5 -12t-19 -27t-19 -27t-29.5 -12q-26 0 -26 26q0 17 17.5 30.5t41 23.5t28.5 14l283 258l-2 2q-8 -2 -32 -2q-41 0 -72 27q-6 6 -19.5 21t-24.5 21.5t-27 6.5q-26 0 -40 -14.5t-14 -34.5q0 -17 9 -28t19.5 -16.5t19.5 -16.5t9 -27q0 -20 -15 -33.5t-41 -13.5
q-27 0 -45 18.5t-18 55.5q0 65 55 108.5t110 43.5q45 0 89 -32q45 -32 72 -32q33 0 53 32q1 2 5.5 9t6 9.5t5 6.5t7 5.5t7.5 1.5q8 0 14.5 -6.5t6.5 -14.5q0 -13 -29 -38z" />
    <glyph glyph-name="braceleft" unicode="{" horiz-adv-x="407" 
d="M135 270v-2q26 -7 43 -26t17 -44q0 -33 -29 -153t-29 -152q0 -59 61 -63l-6 -24q-71 0 -104 18.5t-33 71.5q0 35 29 154t29 146q0 30 -13 46.5t-42 26.5q48 15 69.5 41.5t33.5 79.5l43 191q21 90 65 119.5t131 29.5l-5 -24q-46 -3 -70.5 -32t-37.5 -87l-40 -181
q-14 -61 -37 -92t-75 -44z" />
    <glyph glyph-name="bar" unicode="|" horiz-adv-x="222" 
d="M60 0v730h62v-730h-62z" />
    <glyph glyph-name="braceright" unicode="}" horiz-adv-x="407" 
d="M227 266v2q-26 7 -43 26t-17 44q0 33 29 153t29 152q0 59 -61 63l6 24q71 0 104 -18.5t33 -71.5q0 -35 -29 -154t-29 -146q0 -30 13 -46.5t42 -26.5q-48 -15 -69.5 -41.5t-33.5 -79.5l-43 -191q-21 -90 -65 -119.5t-131 -29.5l5 24q46 3 70.5 32t37.5 87l40 181
q14 61 37 92t75 44z" />
    <glyph glyph-name="asciitilde" unicode="~" horiz-adv-x="600" 
d="M432 293l32 -51q-18 -25 -29.5 -38t-34 -26t-48.5 -13q-37 0 -91 30t-104 30q-47 0 -75 -64l-32 50q41 78 112 78q32 0 100 -29q73 -33 91 -33q17 0 32.5 11t24 22.5t22.5 32.5z" />
    <glyph glyph-name="uni00A0" unicode="&#xa0;" horiz-adv-x="278" 
 />
    <glyph glyph-name="exclamdown" unicode="&#xa1;" horiz-adv-x="370" 
d="M169 290q10 0 10 -11q0 -9 -5.5 -30t-13.5 -89t-13 -183q-9 -189 -90 -189q-45 0 -45 54q0 35 18.5 84t52 128.5t55.5 155.5q21 74 24 78q2 2 7 2zM192 378q-20 0 -34 12t-14 32q0 31 18 49.5t46 18.5q20 0 34 -12t14 -32q0 -31 -18 -49.5t-46 -18.5z" />
    <glyph glyph-name="cent" unicode="&#xa2;" 
d="M173 239l203 271q-16 34 -64 34q-70 0 -118.5 -67.5t-48.5 -138.5q0 -26 4.5 -46t8.5 -27.5t15 -25.5zM524 664l-100 -137q45 -43 45 -89q0 -28 -14.5 -46.5t-42.5 -18.5q-37 0 -37 37q0 11 4 34.5t4 32.5h-2l-188 -260q32 -30 85 -30q39 0 69.5 12.5t44 27t24 27
t14.5 12.5q6 0 6 -9q0 -8 -12.5 -27.5t-35 -42.5t-62.5 -40.5t-87 -17.5q-50 0 -95 25l-100 -138h-34l112 153q-63 55 -63 147q0 68 40.5 126t98.5 89t115 31q45 0 86 -21l91 123h34z" />
    <glyph glyph-name="sterling" unicode="&#xa3;" 
d="M83 354h131q-59 65 -59 136q0 67 57.5 131.5t139.5 64.5q34 0 64.5 -13t51 -26t31.5 -13q13 0 22 14t14 14q9 0 9 -9q0 -7 -7 -42l-32 -154q-4 -19 -13 -19t-9 10q0 5 1 13.5t1 12.5q0 87 -37.5 140.5t-97.5 53.5q-46 0 -84.5 -36.5t-38.5 -90.5q0 -27 15.5 -51.5
l38.5 -59t36 -76.5h137l-6 -38h-126q0 -47 -15.5 -88.5t-29.5 -61t-47 -57.5q-6 -7 -9 -11q52 -38 90 -38q49 0 79.5 32t39.5 70t15.5 70t12.5 32q10 0 10 -12q0 -16 -3.5 -38.5t-10.5 -54t-22.5 -61.5t-36 -56t-53 -42t-72.5 -16q-53 0 -108 59q-56 -45 -105 -45
q-89 0 -89 83q0 39 30.5 67.5t74.5 28.5q57 0 133 -65q64 69 64 122q0 11 -1.5 21t-5 19.5t-6 14.5l-7.5 15l-6 12h-166zM50 139q-26 0 -42 -15.5t-16 -41.5q0 -60 66 -60q50 0 91 36q-36 48 -55.5 64.5t-43.5 16.5z" />
    <glyph glyph-name="currency" unicode="&#xa4;" 
d="M512 339q0 -94 -53 -154l55 -54l-42 -42l-56 56q-63 -54 -152 -54t-152 54l-56 -56l-42 42l55 54q-53 60 -53 154t53 154l-55 54l42 42l56 -56q63 54 152 54t152 -54l56 56l42 -42l-55 -54q53 -60 53 -154zM450 339q0 77 -54 133.5t-132 56.5t-132 -56.5t-54 -133.5
t54 -133.5t132 -56.5t132 56.5t54 133.5z" />
    <glyph glyph-name="yen" unicode="&#xa5;" 
d="M457 252l-7 -38h-182q-30 -134 -30 -140q0 -23 12 -35t26.5 -13t26.5 -3.5t12 -10.5q0 -14 -18 -14q-21 0 -58 1t-54 1q-22 0 -65 -1t-64 -1q-12 0 -12 12q0 9 14.5 12.5t32.5 5.5t36.5 17t24.5 44l28 125h-156l7 38h157l15 66l-9 25h-150l7 38h129l-83 232
q-7 20 -25.5 28.5t-33 11.5t-14.5 13q0 8 5 11t20 3t53 -1t59 -1q17 0 52 1t53 1q17 0 17 -13q0 -8 -13 -10.5t-28.5 -3.5t-28.5 -11.5t-13 -30.5q0 -5 0.5 -9t2 -10.5l3 -12.5t5.5 -18l8 -23l11 -31.5l13.5 -40l17.5 -51.5l22 -63q111 119 148 172t37 85q0 25 -13 34
t-26.5 11t-13.5 12q0 14 18 14q20 0 59.5 -1t59.5 -1q14 0 41 1t40 1q16 0 16 -14q0 -5 -3.5 -8t-10.5 -4.5t-19 -6.5t-26 -12.5t-35.5 -25t-44.5 -42.5q-44 -47 -165 -186h132l-7 -38h-158l-21 -24l-15 -67h181z" />
    <glyph glyph-name="brokenbar" unicode="&#xa6;" horiz-adv-x="222" 
d="M60 0v275h62v-275h-62zM60 455v275h62v-275h-62z" />
    <glyph glyph-name="section" unicode="&#xa7;" horiz-adv-x="500" 
d="M104 315q0 -31 33 -63t121 -86q34 10 56.5 35t22.5 54q0 15 -7 29.5t-14.5 25t-26.5 26t-30 23.5t-38 26t-38 26q-79 -30 -79 -96zM266 670q-43 0 -67 -26t-24 -62q0 -28 25 -56.5t60.5 -53l71 -50.5t60.5 -61t25 -73q0 -45 -34 -85t-106 -51q38 -31 55.5 -58t17.5 -67
q0 -60 -57 -104.5t-153 -44.5q-47 0 -96 18.5t-50 18.5q-17 0 -28.5 -13.5t-15.5 -13.5q-7 0 -7 7q0 4 1.5 13t7.5 42.5l13 72.5l9 51.5t7 35t8 5.5q3 0 4.5 -2t2.5 -8.5t2 -14t3.5 -23t5.5 -31.5q10 -54 51.5 -94t96.5 -40q50 0 77.5 27t27.5 68q0 33 -25 61t-60.5 50
l-71 45t-60.5 56.5t-25 74.5q0 59 43 95.5t104 44.5q-42 31 -59 60.5t-17 67.5q0 53 46.5 97.5t115.5 44.5q47 0 93 -20t53 -20q15 0 26 10.5t15 10.5q8 0 8 -5q0 -4 -2 -14l-6.5 -32.5t-8.5 -46.5q-2 -13 -4.5 -27t-3.5 -22.5t-2.5 -17t-2.5 -13t-2.5 -8.5t-3 -5.5
t-4.5 -1.5q-4 0 -6 2t-4 9t-3 15.5t-4 26.5t-7 37q-9 38 -39 68t-77 30z" />
    <glyph glyph-name="dieresis" unicode="&#xa8;" horiz-adv-x="315" 
d="M44 574q0 21 14.5 35.5t35.5 14.5t35.5 -14.5t14.5 -35.5t-14.5 -35.5t-35.5 -14.5t-35.5 14.5t-14.5 35.5zM242 574q0 21 14.5 35.5t35.5 14.5t35.5 -14.5t14.5 -35.5t-14.5 -35.5t-35.5 -14.5t-35.5 14.5t-14.5 35.5z" />
    <glyph glyph-name="copyright" unicode="&#xa9;" horiz-adv-x="800" 
d="M384 -16q-147 0 -247.5 103t-100.5 252t100.5 252t247.5 103t247.5 -103t100.5 -252t-100.5 -252t-247.5 -103zM384 34q117 0 198.5 90.5t81.5 214.5t-81.5 214.5t-198.5 90.5t-198.5 -90.5t-81.5 -214.5t81.5 -214.5t198.5 -90.5zM536 260h18l-16 -79q-2 -9 -46.5 -22
t-87.5 -13q-100 0 -159 52t-59 152q0 86 59.5 142t166.5 56q45 0 85.5 -12t40.5 -26v-74h-18q-26 88 -109 88q-54 0 -89.5 -43.5t-35.5 -125.5q0 -185 127 -185q82 0 123 90z" />
    <glyph glyph-name="ordfeminine" unicode="&#xaa;" horiz-adv-x="344" 
d="M185 686q59 0 77 -53q12 8 23 16.5l17 13l11.5 9t9 6.5t6 3t5.5 1q7 0 7 -4q0 -5 -13 -33t-18 -52q-8 -39 -15.5 -71.5l-10 -43.5t-2.5 -17q0 -17 18 -17q15 0 26 18t18 35.5t14 17.5q10 0 10 -10q0 -9 -6.5 -30t-29 -46t-56.5 -25q-54 0 -54 45q0 16 2 29l-2 1
q-15 -28 -46 -51.5t-78 -23.5q-42 0 -63.5 23.5t-21.5 64.5q0 81 57.5 137.5t114.5 56.5zM81 482q0 -48 41 -48q47 0 83.5 62t36.5 106q0 31 -14 48.5t-39 17.5q-30 0 -53 -24.5t-34 -58.5t-16 -61t-5 -42z" />
    <glyph glyph-name="guillemotleft" unicode="&#xab;" horiz-adv-x="444" 
d="M4 222q0 6 27 29l56 47l106 93q25 22 28 22q9 0 9 -9q0 -5 -16 -23l-60 -64.5l-85 -92.5q87 -168 87 -171q0 -12 -13 -12q-5 0 -9.5 5t-23.5 31l-38 51q-15 21 -29 38.5l-20.5 25.5t-11 14.5t-6 9.5t-1.5 6zM134 222q0 6 27 29l56 47l106 93q25 22 28 22q9 0 9 -9
q0 -5 -16 -23l-60 -64.5l-85 -92.5q87 -168 87 -171q0 -12 -13 -12q-5 0 -9.5 5t-23.5 31l-38 51q-15 21 -29 38.5l-20.5 25.5t-11 14.5t-6 9.5t-1.5 6z" />
    <glyph glyph-name="logicalnot" unicode="&#xac;" horiz-adv-x="600" 
d="M436 107v178h-392v62h454v-240h-62z" />
    <glyph glyph-name="uni00AD" unicode="&#xad;" horiz-adv-x="333" 
d="M18 265h238l-14 -76h-238z" />
    <glyph glyph-name="registered" unicode="&#xae;" horiz-adv-x="800" 
d="M216 518v18h195q48 0 81.5 -26.5t33.5 -71.5q0 -35 -22 -63.5t-58 -40.5l58 -82q39 -56 70 -84v-12h-81q-14 0 -29 22t-40 69t-44 75h-36v-106q0 -26 8 -33t42 -9v-18h-178v18q34 2 42 9t8 33v260q0 26 -8 33t-42 9zM344 512v-166h34q27 0 45.5 24t18.5 70q0 72 -64 72
h-34zM384 -16q-147 0 -247.5 103t-100.5 252t100.5 252t247.5 103t247.5 -103t100.5 -252t-100.5 -252t-247.5 -103zM384 34q117 0 198.5 90.5t81.5 214.5t-81.5 214.5t-198.5 90.5t-198.5 -90.5t-81.5 -214.5t81.5 -214.5t198.5 -90.5z" />
    <glyph glyph-name="macron" unicode="&#xaf;" horiz-adv-x="315" 
d="M347 600l-11 -50h-301l11 50h301z" />
    <glyph glyph-name="degree" unicode="&#xb0;" horiz-adv-x="400" 
d="M62 544q0 58 42 100t100 42t100 -42t42 -100t-42 -100t-100 -42t-100 42t-42 100zM112 544q0 -41 27 -69.5t65 -28.5t65 28.5t27 69.5t-27 69.5t-65 28.5t-65 -28.5t-27 -69.5z" />
    <glyph glyph-name="plusminus" unicode="&#xb1;" horiz-adv-x="600" 
d="M240 312v142h62v-142h196v-62h-196v-153h-62v153h-196v62h196zM44 0v62h454v-62h-454z" />
    <glyph glyph-name="twosuperior" unicode="&#xb2;" horiz-adv-x="333" 
d="M49 336h169q22 0 36 6t18.5 13.5t9.5 13.5t11 6q10 0 10 -11q0 -3 -1 -6t-4 -10t-7 -14t-13 -24l-19 -36h-269q7 46 38.5 81.5t70 57.5l76.5 42.5t63.5 48.5t25.5 65q0 33 -22.5 52t-53.5 19q-28 0 -52 -11t-36 -23.5l-22 -23.5t-14 -11q-9 0 -9 8q0 6 11 22.5t30 36
t52 34t69 14.5q50 0 85.5 -28.5t35.5 -72.5t-20.5 -73.5t-55 -46.5t-71.5 -31.5t-77 -39t-65 -58.5z" />
    <glyph glyph-name="threesuperior" unicode="&#xb3;" horiz-adv-x="333" 
d="M-8 352q0 18 10 29t25 11q22 0 31.5 -16t12 -37.5t5.5 -25.5q18 -21 55 -21q50 0 83.5 28t33.5 87q0 56 -48 71q-6 2 -13.5 3t-12 2t-8.5 2t-5.5 3t-1.5 6q0 6 6.5 8t19.5 4t22 5q22 8 36.5 28t14.5 46t-18 40.5t-50 14.5q-23 0 -44.5 -9.5t-34 -19t-13.5 -9.5
q-10 0 -10 10q0 6 14.5 22.5t48.5 34t74 17.5q43 0 75 -23t32 -63q0 -21 -8 -38.5t-16.5 -26.5t-24.5 -21q39 -33 39 -90q0 -64 -61 -110t-139 -46q-52 0 -91 25t-39 59z" />
    <glyph glyph-name="acute" unicode="&#xb4;" horiz-adv-x="315" 
d="M148 508h-34l149 145q2 2 6.5 6t7 6.5t7 6t8 5.5t8 3.5t8.5 1.5q12 0 22 -9.5t10 -25.5q0 -20 -28 -38z" />
    <glyph glyph-name="mu" unicode="&#xb5;" horiz-adv-x="611" 
d="M373 269l46 189q26 -6 46 -6t39 6l-19.5 -96.5l-20.5 -98t-16 -80t-12 -68.5t-4 -37q0 -36 31 -36q43 0 71 77q2 5 3.5 9.5l2.5 7.5t2 6.5t2 6t1.5 4.5t1.5 3.5t1.5 2.5t1.5 1.5l2 1t2 0.5q8 0 8 -9q0 -8 -7 -30.5t-21.5 -53.5t-45 -54t-69.5 -23q-38 0 -57.5 22.5
t-19.5 59.5q0 23 7 70l-2 2q-42 -81 -86.5 -117.5t-99.5 -36.5q-21 0 -39 5l-12.5 -52t-10 -44t-8 -34.5t-8.5 -27.5t-10 -18t-14.5 -11.5t-19.5 -3.5q-20 0 -32 12t-12 32q0 13 27 133l64 284q4 20 11 47.5t10.5 42.5t3.5 23q0 32 -31 32q-44 0 -71 -77q-2 -5 -3.5 -9.5
l-2.5 -7.5t-2 -6.5t-2 -6t-1.5 -4.5t-1.5 -3.5t-1.5 -2.5t-1.5 -1.5l-2 -1t-2 -0.5q-8 0 -8 9q0 8 7 30.5t21.5 53.5t44 54t66.5 23q39 0 60 -23t21 -59q0 -32 -29 -152t-29 -148q0 -23 13 -36.5t38 -13.5q35 0 67.5 28.5t54.5 70.5t36 77.5t21 62.5z" />
    <glyph glyph-name="paragraph" unicode="&#xb6;" horiz-adv-x="600" 
d="M151 -140l92 407q-82 0 -121.5 40.5t-39.5 106.5q0 125 70.5 194.5t192.5 69.5h248l-5 -24q-47 -1 -67.5 -15t-28.5 -47l-165 -732h-58l178 788h-60l-178 -788h-58z" />
    <glyph glyph-name="periodcentered" unicode="&#xb7;" horiz-adv-x="278" 
d="M52 227q0 23 16.5 39.5t39.5 16.5t39.5 -16.5t16.5 -39.5t-16.5 -39.5t-39.5 -16.5t-39.5 16.5t-16.5 39.5z" />
    <glyph glyph-name="cedilla" unicode="&#xb8;" horiz-adv-x="315" 
d="M44 0h38l-44 -66q13 3 27 3q36 0 58 -18.5t22 -53.5q0 -39 -35 -60t-87 -21q-48 0 -89 21l16 28q39 -15 66 -15q25 0 40 12t15 32q0 17 -13.5 29t-29.5 12q-18 0 -35 -7l-9 8z" />
    <glyph glyph-name="onesuperior" unicode="&#xb9;" horiz-adv-x="333" 
d="M43 296q39 0 51.5 9t17.5 32l26 109t19 76.5l12 46t7 28t2 12.5q0 6 -5 7.5t-20 1.5q-50 0 -63.5 2t-13.5 11q0 6 2.5 8.5t10.5 4.5t17.5 3t28.5 4t38 7q25 6 44 13t27.5 11t12.5 4q12 0 12 -10t-39.5 -179.5t-39.5 -178.5q0 -13 12 -17.5t45 -4.5q21 0 21 -14
q0 -10 -13 -10q-20 0 -62 1t-63 1q-19 0 -56.5 -1t-56.5 -1q-9 0 -11.5 1.5t-2.5 7.5q0 15 40 15z" />
    <glyph glyph-name="ordmasculine" unicode="&#xba;" horiz-adv-x="311" 
d="M239 606q0 27 -14.5 44.5t-34.5 17.5q-41 0 -67 -58t-26 -125q0 -63 49 -63q42 0 67.5 57.5t25.5 126.5zM189 686q57 0 91.5 -33t34.5 -89q0 -67 -47 -113.5t-121 -46.5q-57 0 -91.5 33t-34.5 90q0 66 47 112.5t121 46.5z" />
    <glyph glyph-name="guillemotright" unicode="&#xbb;" horiz-adv-x="444" 
d="M360 232q0 -6 -27 -29l-56 -47l-106 -93q-25 -22 -28 -22q-9 0 -9 9q0 5 16 23l60 64.5l85 92.5q-87 168 -87 171q0 12 13 12q5 0 9.5 -5t23.5 -31l38 -51q15 -21 29 -38.5l20.5 -25.5t11 -14.5t6 -9.5t1.5 -6zM230 232q0 -6 -27 -29l-56 -47l-106 -93q-25 -22 -28 -22
q-9 0 -9 9q0 5 16 23l60 64.5l85 92.5q-87 168 -87 171q0 12 13 12q5 0 9.5 -5t23.5 -31l38 -51q15 -21 29 -38.5l20.5 -25.5t11 -14.5t6 -9.5t1.5 -6z" />
    <glyph glyph-name="onequarter" unicode="&#xbc;" horiz-adv-x="834" 
d="M735 412h39l-57 -258h59l-11 -40h-59q-13 -47 -13 -62q0 -22 25 -27.5t25 -13.5q0 -13 -13 -13t-41 1t-43 1t-42 -1t-38 -1q-17 0 -17 13q0 7 9 9.5t20.5 3t23.5 8t17 22.5q4 11 8 32.5t6 27.5h-168l-7 27zM509 154h132l38 162l-2 2zM590 686h77l-424 -694h-77zM36 296
q39 0 51.5 9t17.5 32l26 109t19 76.5l12 46t7 28t2 12.5q0 6 -5 7.5t-20 1.5q-50 0 -63.5 2t-13.5 11q0 6 2.5 8.5t10.5 4.5t17.5 3t28.5 4t38 7q25 6 44 13t27.5 11t12.5 4q12 0 12 -10t-39.5 -179.5t-39.5 -178.5q0 -13 12 -17.5t45 -4.5q21 0 21 -14q0 -10 -13 -10
q-20 0 -62 1t-63 1q-19 0 -56.5 -1t-56.5 -1q-9 0 -11.5 1.5t-2.5 7.5q0 15 40 15z" />
    <glyph glyph-name="onehalf" unicode="&#xbd;" horiz-adv-x="834" 
d="M578 686h77l-424 -694h-77zM24 296q39 0 51.5 9t17.5 32l26 109t19 76.5l12 46t7 28t2 12.5q0 6 -5 7.5t-20 1.5q-50 0 -63.5 2t-13.5 11q0 6 2.5 8.5t10.5 4.5t17.5 3t28.5 4t38 7q25 6 44 13t27.5 11t12.5 4q12 0 12 -10t-39.5 -179.5t-39.5 -178.5q0 -13 12 -17.5
t45 -4.5q21 0 21 -14q0 -10 -13 -10q-20 0 -62 1t-63 1q-19 0 -56.5 -1t-56.5 -1q-9 0 -11.5 1.5t-2.5 7.5q0 15 40 15zM503 62h169q22 0 36 6t18.5 13.5t9.5 13.5t11 6q10 0 10 -11q0 -3 -1 -6t-4 -10t-7 -14t-13 -24l-19 -36h-269q7 46 38.5 81.5t70 57.5l76.5 42.5
t63.5 48.5t25.5 65q0 33 -22.5 52t-53.5 19q-28 0 -52 -11t-36 -23.5l-22 -23.5t-14 -11q-9 0 -9 8q0 6 11 22.5t30 36t52 34t69 14.5q50 0 85.5 -28.5t35.5 -72.5t-20.5 -73.5t-55 -46.5t-71.5 -31.5t-77 -39t-65 -58.5z" />
    <glyph glyph-name="threequarters" unicode="&#xbe;" horiz-adv-x="834" 
d="M742 412h39l-57 -258h59l-11 -40h-59q-13 -47 -13 -62q0 -22 25 -27.5t25 -13.5q0 -13 -13 -13t-41 1t-43 1t-42 -1t-38 -1q-17 0 -17 13q0 7 9 9.5t20.5 3t23.5 8t17 22.5q4 11 8 32.5t6 27.5h-168l-7 27zM516 154h132l38 162l-2 2zM-4 352q0 18 10 29t25 11
q22 0 31.5 -16t12 -37.5t5.5 -25.5q17 -21 55 -21q50 0 83.5 28t33.5 87q0 56 -48 71q-6 2 -13.5 3t-12 2t-8.5 2t-5.5 3t-1.5 6q0 6 6.5 8t19.5 4t22 5q22 8 36.5 28t14.5 46t-18 40.5t-50 14.5q-23 0 -44.5 -9.5t-34 -19t-13.5 -9.5q-10 0 -10 10q0 6 14.5 22.5t48.5 34
t74 17.5q43 0 75 -23t32 -63q0 -21 -8 -38.5t-16.5 -26.5t-24.5 -21q39 -33 39 -90q0 -64 -61 -110t-139 -46q-52 0 -91 25t-39 59zM605 686h77l-424 -694h-77z" />
    <glyph glyph-name="questiondown" unicode="&#xbf;" horiz-adv-x="593" 
d="M358 63l-35 -7q-9 30 -39.5 46.5t-65.5 16.5q-87 0 -132.5 -53t-45.5 -106q0 -58 38.5 -97t90.5 -39q33 0 59 14t39 30.5t33 30.5t44 14q20 0 32 -11.5t12 -27.5q0 -35 -46.5 -60.5t-113.5 -25.5q-97 0 -157.5 50t-60.5 134q0 86 64.5 155.5t161.5 69.5q32 0 82 -11
l10 31t7 23.5t5 14.5t5.5 9.5t6.5 2.5q10 0 10 -7q0 -2 -4 -42t-4 -76q0 -23 4 -79zM367 378q-20 0 -34 12t-14 32q0 31 18 49.5t46 18.5q20 0 34 -12t14 -32q0 -31 -18 -49.5t-46 -18.5z" />
    <glyph glyph-name="Agrave" unicode="&#xc0;" horiz-adv-x="630" 
d="M378 250h-229q-69 -115 -69 -161q0 -28 19 -43.5t38 -22t19 -13.5q0 -12 -11 -12q-21 0 -62.5 1t-61.5 1q-21 0 -61.5 -1t-56.5 -1q-13 0 -13 12q0 8 12.5 12t32 9t49.5 29.5t58 66.5q55 82 159 255.5t104 184.5q0 7 -7.5 12.5t-7.5 10.5t3.5 8.5t16 14.5t26.5 26
q11 12 18.5 24t9.5 19t5 11.5t7 4.5q8 0 12 -24l114 -591q5 -26 22 -40t31.5 -19.5t14.5 -12.5q0 -13 -13 -13q-15 0 -52 1t-53 1q-18 0 -57 -1t-56 -1q-10 0 -10 12q0 10 12.5 14.5t28 5.5t28 12.5t12.5 33.5q0 17 -5.5 45t-14 67t-12.5 62zM162 274h210l-53 265zM446 711
h-31l-135 104q-24 18 -24 35q0 16 10.5 25.5t26.5 9.5q20 0 45 -32z" />
    <glyph glyph-name="Aacute" unicode="&#xc1;" horiz-adv-x="630" 
d="M378 250h-229q-69 -115 -69 -161q0 -28 19 -43.5t38 -22t19 -13.5q0 -12 -11 -12q-21 0 -62.5 1t-61.5 1q-21 0 -61.5 -1t-56.5 -1q-13 0 -13 12q0 8 12.5 12t32 9t49.5 29.5t58 66.5q55 82 159 255.5t104 184.5q0 7 -7.5 12.5t-7.5 10.5t3.5 8.5t16 14.5t26.5 26
q11 12 18.5 24t9.5 19t5 11.5t7 4.5q8 0 12 -24l114 -591q5 -26 22 -40t31.5 -19.5t14.5 -12.5q0 -13 -13 -13q-15 0 -52 1t-53 1q-18 0 -57 -1t-56 -1q-10 0 -10 12q0 10 12.5 14.5t28 5.5t28 12.5t12.5 33.5q0 17 -5.5 45t-14 67t-12.5 62zM162 274h210l-53 265zM347 711
h-34l149 145q2 2 6.5 6t7 6.5t7 6t8 5.5t8 3.5t8.5 1.5q12 0 22 -9.5t10 -25.5q0 -20 -28 -38z" />
    <glyph glyph-name="Acircumflex" unicode="&#xc2;" horiz-adv-x="630" 
d="M378 250h-229q-69 -115 -69 -161q0 -28 19 -43.5t38 -22t19 -13.5q0 -12 -11 -12q-21 0 -62.5 1t-61.5 1q-21 0 -61.5 -1t-56.5 -1q-13 0 -13 12q0 8 12.5 12t32 9t49.5 29.5t58 66.5q55 82 159 255.5t104 184.5q0 7 -7.5 12.5t-7.5 10.5t3.5 8.5t16 14.5t26.5 26
q11 12 18.5 24t9.5 19t5 11.5t7 4.5q8 0 12 -24l114 -591q5 -26 22 -40t31.5 -19.5t14.5 -12.5q0 -13 -13 -13q-15 0 -52 1t-53 1q-18 0 -57 -1t-56 -1q-10 0 -10 12q0 10 12.5 14.5t28 5.5t28 12.5t12.5 33.5q0 17 -5.5 45t-14 67t-12.5 62zM162 274h210l-53 265zM515 711
h-36l-83 104l-138 -104h-39l158 170h49z" />
    <glyph glyph-name="Atilde" unicode="&#xc3;" horiz-adv-x="630" 
d="M378 250h-229q-69 -115 -69 -161q0 -28 19 -43.5t38 -22t19 -13.5q0 -12 -11 -12q-21 0 -62.5 1t-61.5 1q-21 0 -61.5 -1t-56.5 -1q-13 0 -13 12q0 8 12.5 12t32 9t49.5 29.5t58 66.5q55 82 159 255.5t104 184.5q0 7 -7.5 12.5t-7.5 10.5t3.5 8.5t16 14.5t26.5 26
q11 12 18.5 24t9.5 19t5 11.5t7 4.5q8 0 12 -24l114 -591q5 -26 22 -40t31.5 -19.5t14.5 -12.5q0 -13 -13 -13q-15 0 -52 1t-53 1q-18 0 -57 -1t-56 -1q-10 0 -10 12q0 10 12.5 14.5t28 5.5t28 12.5t12.5 33.5q0 17 -5.5 45t-14 67t-12.5 62zM162 274h210l-53 265zM533 845
h28q-6 -42 -31 -73q-26 -31 -64 -31q-30 0 -78 23t-72 23q-20 0 -33.5 -13.5t-17.5 -34.5h-30q23 106 98 106q31 0 81 -23q52 -23 70 -23q20 0 30.5 11.5t18.5 34.5z" />
    <glyph glyph-name="Adieresis" unicode="&#xc4;" horiz-adv-x="630" 
d="M378 250h-229q-69 -115 -69 -161q0 -28 19 -43.5t38 -22t19 -13.5q0 -12 -11 -12q-21 0 -62.5 1t-61.5 1q-21 0 -61.5 -1t-56.5 -1q-13 0 -13 12q0 8 12.5 12t32 9t49.5 29.5t58 66.5q55 82 159 255.5t104 184.5q0 7 -7.5 12.5t-7.5 10.5t3.5 8.5t16 14.5t26.5 26
q11 12 18.5 24t9.5 19t5 11.5t7 4.5q8 0 12 -24l114 -591q5 -26 22 -40t31.5 -19.5t14.5 -12.5q0 -13 -13 -13q-15 0 -52 1t-53 1q-18 0 -57 -1t-56 -1q-10 0 -10 12q0 10 12.5 14.5t28 5.5t28 12.5t12.5 33.5q0 17 -5.5 45t-14 67t-12.5 62zM162 274h210l-53 265zM243 777
q0 21 14.5 35.5t35.5 14.5t35.5 -14.5t14.5 -35.5t-14.5 -35.5t-35.5 -14.5t-35.5 14.5t-14.5 35.5zM441 777q0 21 14.5 35.5t35.5 14.5t35.5 -14.5t14.5 -35.5t-14.5 -35.5t-35.5 -14.5t-35.5 14.5t-14.5 35.5z" />
    <glyph glyph-name="Aring" unicode="&#xc5;" horiz-adv-x="630" 
d="M378 250h-229q-69 -115 -69 -161q0 -28 19 -43.5t38 -22t19 -13.5q0 -12 -11 -12q-21 0 -62.5 1t-61.5 1q-21 0 -61.5 -1t-56.5 -1q-13 0 -13 12q0 8 12.5 12t32 9t49.5 29.5t58 66.5q55 82 159 255.5t104 184.5q0 7 -7.5 12.5t-7.5 10.5t3.5 8.5t16 14.5t26.5 26
q11 12 18.5 24t9.5 19t5 11.5t7 4.5q8 0 12 -24l114 -591q5 -26 22 -40t31.5 -19.5t14.5 -12.5q0 -13 -13 -13q-15 0 -52 1t-53 1q-18 0 -57 -1t-56 -1q-10 0 -10 12q0 10 12.5 14.5t28 5.5t28 12.5t12.5 33.5q0 17 -5.5 45t-14 67t-12.5 62zM162 274h210l-53 265zM294 811
q0 41 29 70.5t71 29.5q41 0 70.5 -29.5t29.5 -70.5t-29.5 -70.5t-70.5 -29.5q-42 0 -71 29.5t-29 70.5zM328 811q0 -27 19 -46.5t47 -19.5q27 0 46.5 19.5t19.5 46.5t-19.5 46.5t-46.5 19.5q-28 0 -47 -19.5t-19 -46.5z" />
    <glyph glyph-name="AE" unicode="&#xc6;" horiz-adv-x="963" 
d="M438 332h-226l-73 -90.5l-54.5 -65.5t-26.5 -40t-11 -41q0 -30 11.5 -47.5t25 -20.5t25 -6t11.5 -9q0 -14 -16 -14q-21 0 -62.5 1t-62.5 1q-23 0 -61.5 -1t-51.5 -1q-15 0 -20.5 2.5t-5.5 10.5q0 6 6.5 8.5l22 8.5t35.5 17.5t54 41.5t72 75l271 316q80 93 96.5 115
t16.5 37q0 13 -8 19t-17.5 6t-17.5 3t-8 10q0 12 21 12q32 0 122 -1t135 -1q43 0 127.5 1t125.5 1l9.5 -85.5t6.5 -58.5t4 -34t2.5 -22.5t0.5 -13.5q0 -13 -11 -13q-3 0 -4.5 1t-3.5 3t-3 4.5t-2.5 7.5t-2.5 9t-2.5 11.5t-3.5 13.5q-23 88 -86 120.5t-194 32.5l-67 -300
q62 0 97.5 17.5t58.5 51.5q11 16 17 38.5t10 35t11 12.5q8 0 8 -8q0 -10 -30 -154q-35 -165 -39 -173q-3 -7 -10 -7q-9 0 -9 13q0 5 2.5 22t2.5 28q0 46 -26 73t-98 27l-17.5 -81l-13.5 -62.5l-9.5 -44.5l-6.5 -32.5l-4 -20.5t-2.5 -15.5t-0.5 -11.5q0 -42 68 -42
q139 0 253 109q23 22 43 55.5t31.5 54.5t18.5 21q9 0 9 -9q0 -2 -0.5 -4t-2 -6.5t-3.5 -9.5l-6.5 -15.5l-9.5 -22.5l-13 -31.5l-17.5 -42l-22.5 -55l-28 -68.5q-41 0 -129.5 1t-142.5 1q-48 0 -120.5 -1t-91.5 -1t-24 2t-5 8q0 8 12 11.5t27.5 5t31 13t20.5 33.5zM509 655
h-30l-250 -299h214z" />
    <glyph glyph-name="Ccedilla" unicode="&#xc7;" horiz-adv-x="704" 
d="M128 241q0 -116 49.5 -174.5t129.5 -58.5q173 0 260 191q5 11 9 21t5.5 14.5t3.5 8t4 4.5t6 1q9 0 9 -11q0 -7 -49 -231q-6 -31 -19 -31q-12 0 -16 22.5t-25 22.5q-7 0 -59 -17.5t-112 -18.5l-33 -50q13 3 27 3q36 0 58 -18.5t22 -53.5q0 -39 -35 -60t-87 -21
q-48 0 -89 21l16 28q39 -15 66 -15q25 0 40 12t15 32q0 17 -13.5 29t-29.5 12q-17 0 -35 -7l-9 8l50 81q-123 10 -194 91t-71 200q0 90 35 170t90.5 133.5t124 84t135.5 30.5q55 0 98 -16.5t69 -33t39 -16.5q16 0 26 8t13 17t7.5 17t11.5 8q12 0 12 -14q0 -3 -1 -7.5
l-4.5 -20.5l-8.5 -39l-15 -71.5l-22 -108.5q-4 -19 -14 -19q-4 0 -6 2.5t-3 10l-2 15t-2.5 24t-3.5 31.5q-12 92 -61 140.5t-130 48.5t-146.5 -60.5t-100.5 -158t-35 -210.5z" />
    <glyph glyph-name="Egrave" unicode="&#xc8;" horiz-adv-x="630" 
d="M271 656l-65 -288q71 0 108.5 17t60.5 52q11 16 17 38.5t10 35t11 12.5q8 0 8 -8q0 -10 -30 -154q-35 -165 -39 -173q-3 -7 -10 -7q-9 0 -9 13q0 5 2.5 22t2.5 28q0 47 -28 73.5t-110 26.5l-24 -113.5t-17 -77.5t-10 -44.5t-5.5 -28t-1.5 -16.5q0 -42 71 -42
q139 0 253 109q23 22 43 55.5t31.5 54.5t18.5 21q9 0 9 -9q0 -2 -0.5 -4t-2 -6.5t-3.5 -9.5l-6.5 -15.5l-9.5 -22.5l-13 -31.5l-17.5 -42l-22.5 -55l-28 -68.5q-62 0 -175.5 1t-160.5 1q-35 0 -86 -1t-74 -1q-20 0 -20 10q0 8 20 11t42.5 13.5t28.5 35.5q114 507 116 524
q1 9 1 16q0 20 -10.5 29.5t-23.5 10.5t-23.5 5t-10.5 13q0 14 15 14q30 0 88 -1t88 -1q47 0 140.5 1t140.5 1l9.5 -85.5t6.5 -58.5t4 -34t2.5 -22.5t0.5 -13.5q0 -13 -11 -13q-3 0 -4.5 1t-3.5 3t-3 4.5t-2.5 7.5t-2.5 9t-2.5 11.5t-3.5 13.5q-23 88 -86 120.5t-194 32.5z
M440 711h-31l-135 104q-24 18 -24 35q0 16 10.5 25.5t26.5 9.5q20 0 45 -32z" />
    <glyph glyph-name="Eacute" unicode="&#xc9;" horiz-adv-x="630" 
d="M271 656l-65 -288q71 0 108.5 17t60.5 52q11 16 17 38.5t10 35t11 12.5q8 0 8 -8q0 -10 -30 -154q-35 -165 -39 -173q-3 -7 -10 -7q-9 0 -9 13q0 5 2.5 22t2.5 28q0 47 -28 73.5t-110 26.5l-24 -113.5t-17 -77.5t-10 -44.5t-5.5 -28t-1.5 -16.5q0 -42 71 -42
q139 0 253 109q23 22 43 55.5t31.5 54.5t18.5 21q9 0 9 -9q0 -2 -0.5 -4t-2 -6.5t-3.5 -9.5l-6.5 -15.5l-9.5 -22.5l-13 -31.5l-17.5 -42l-22.5 -55l-28 -68.5q-62 0 -175.5 1t-160.5 1q-35 0 -86 -1t-74 -1q-20 0 -20 10q0 8 20 11t42.5 13.5t28.5 35.5q114 507 116 524
q1 9 1 16q0 20 -10.5 29.5t-23.5 10.5t-23.5 5t-10.5 13q0 14 15 14q30 0 88 -1t88 -1q47 0 140.5 1t140.5 1l9.5 -85.5t6.5 -58.5t4 -34t2.5 -22.5t0.5 -13.5q0 -13 -11 -13q-3 0 -4.5 1t-3.5 3t-3 4.5t-2.5 7.5t-2.5 9t-2.5 11.5t-3.5 13.5q-23 88 -86 120.5t-194 32.5z
M341 711h-34l149 145q2 2 6.5 6t7 6.5t7 6t8 5.5t8 3.5t8.5 1.5q12 0 22 -9.5t10 -25.5q0 -20 -28 -38z" />
    <glyph glyph-name="Ecircumflex" unicode="&#xca;" horiz-adv-x="630" 
d="M271 656l-65 -288q71 0 108.5 17t60.5 52q11 16 17 38.5t10 35t11 12.5q8 0 8 -8q0 -10 -30 -154q-35 -165 -39 -173q-3 -7 -10 -7q-9 0 -9 13q0 5 2.5 22t2.5 28q0 47 -28 73.5t-110 26.5l-24 -113.5t-17 -77.5t-10 -44.5t-5.5 -28t-1.5 -16.5q0 -42 71 -42
q139 0 253 109q23 22 43 55.5t31.5 54.5t18.5 21q9 0 9 -9q0 -2 -0.5 -4t-2 -6.5t-3.5 -9.5l-6.5 -15.5l-9.5 -22.5l-13 -31.5l-17.5 -42l-22.5 -55l-28 -68.5q-62 0 -175.5 1t-160.5 1q-35 0 -86 -1t-74 -1q-20 0 -20 10q0 8 20 11t42.5 13.5t28.5 35.5q114 507 116 524
q1 9 1 16q0 20 -10.5 29.5t-23.5 10.5t-23.5 5t-10.5 13q0 14 15 14q30 0 88 -1t88 -1q47 0 140.5 1t140.5 1l9.5 -85.5t6.5 -58.5t4 -34t2.5 -22.5t0.5 -13.5q0 -13 -11 -13q-3 0 -4.5 1t-3.5 3t-3 4.5t-2.5 7.5t-2.5 9t-2.5 11.5t-3.5 13.5q-23 88 -86 120.5t-194 32.5z
M509 711h-36l-83 104l-138 -104h-39l158 170h49z" />
    <glyph glyph-name="Edieresis" unicode="&#xcb;" horiz-adv-x="630" 
d="M271 656l-65 -288q71 0 108.5 17t60.5 52q11 16 17 38.5t10 35t11 12.5q8 0 8 -8q0 -10 -30 -154q-35 -165 -39 -173q-3 -7 -10 -7q-9 0 -9 13q0 5 2.5 22t2.5 28q0 47 -28 73.5t-110 26.5l-24 -113.5t-17 -77.5t-10 -44.5t-5.5 -28t-1.5 -16.5q0 -42 71 -42
q139 0 253 109q23 22 43 55.5t31.5 54.5t18.5 21q9 0 9 -9q0 -2 -0.5 -4t-2 -6.5t-3.5 -9.5l-6.5 -15.5l-9.5 -22.5l-13 -31.5l-17.5 -42l-22.5 -55l-28 -68.5q-62 0 -175.5 1t-160.5 1q-35 0 -86 -1t-74 -1q-20 0 -20 10q0 8 20 11t42.5 13.5t28.5 35.5q114 507 116 524
q1 9 1 16q0 20 -10.5 29.5t-23.5 10.5t-23.5 5t-10.5 13q0 14 15 14q30 0 88 -1t88 -1q47 0 140.5 1t140.5 1l9.5 -85.5t6.5 -58.5t4 -34t2.5 -22.5t0.5 -13.5q0 -13 -11 -13q-3 0 -4.5 1t-3.5 3t-3 4.5t-2.5 7.5t-2.5 9t-2.5 11.5t-3.5 13.5q-23 88 -86 120.5t-194 32.5z
M237 777q0 21 14.5 35.5t35.5 14.5t35.5 -14.5t14.5 -35.5t-14.5 -35.5t-35.5 -14.5t-35.5 14.5t-14.5 35.5zM435 777q0 21 14.5 35.5t35.5 14.5t35.5 -14.5t14.5 -35.5t-14.5 -35.5t-35.5 -14.5t-35.5 14.5t-14.5 35.5z" />
    <glyph glyph-name="Igrave" unicode="&#xcc;" horiz-adv-x="352" 
d="M176 611q0 19 -11 28.5t-24.5 10.5t-24.5 4.5t-11 11.5q0 14 23 14q18 0 53.5 -1t53.5 -1q22 0 65 1t63 1q13 0 13 -13q0 -9 -13.5 -12t-30.5 -3.5t-34 -13.5t-23 -39q-120 -513 -120 -543q0 -21 18.5 -27.5t37.5 -7.5t19 -9t-3.5 -11t-15.5 -3q-21 0 -57 1t-54 1
q-24 0 -63.5 -1t-52.5 -1q-16 0 -20.5 3t-4.5 11q0 7 12.5 9.5t28.5 3t31.5 11t20.5 32.5l41 173.5l31.5 131l22 91l15.5 64.5t8.5 39.5t4.5 27t1 16.5zM324 711h-31l-135 104q-24 18 -24 35q0 16 10.5 25.5t26.5 9.5q20 0 45 -32z" />
    <glyph glyph-name="Iacute" unicode="&#xcd;" horiz-adv-x="352" 
d="M176 611q0 19 -11 28.5t-24.5 10.5t-24.5 4.5t-11 11.5q0 14 23 14q18 0 53.5 -1t53.5 -1q22 0 65 1t63 1q13 0 13 -13q0 -9 -13.5 -12t-30.5 -3.5t-34 -13.5t-23 -39q-120 -513 -120 -543q0 -21 18.5 -27.5t37.5 -7.5t19 -9t-3.5 -11t-15.5 -3q-21 0 -57 1t-54 1
q-24 0 -63.5 -1t-52.5 -1q-16 0 -20.5 3t-4.5 11q0 7 12.5 9.5t28.5 3t31.5 11t20.5 32.5l41 173.5l31.5 131l22 91l15.5 64.5t8.5 39.5t4.5 27t1 16.5zM225 711h-34l149 145q2 2 6.5 6t7 6.5t7 6t8 5.5t8 3.5t8.5 1.5q12 0 22 -9.5t10 -25.5q0 -20 -28 -38z" />
    <glyph glyph-name="Icircumflex" unicode="&#xce;" horiz-adv-x="352" 
d="M176 611q0 19 -11 28.5t-24.5 10.5t-24.5 4.5t-11 11.5q0 14 23 14q18 0 53.5 -1t53.5 -1q22 0 65 1t63 1q13 0 13 -13q0 -9 -13.5 -12t-30.5 -3.5t-34 -13.5t-23 -39q-120 -513 -120 -543q0 -21 18.5 -27.5t37.5 -7.5t19 -9t-3.5 -11t-15.5 -3q-21 0 -57 1t-54 1
q-24 0 -63.5 -1t-52.5 -1q-16 0 -20.5 3t-4.5 11q0 7 12.5 9.5t28.5 3t31.5 11t20.5 32.5l41 173.5l31.5 131l22 91l15.5 64.5t8.5 39.5t4.5 27t1 16.5zM393 711h-36l-83 104l-138 -104h-39l158 170h49z" />
    <glyph glyph-name="Idieresis" unicode="&#xcf;" horiz-adv-x="352" 
d="M176 611q0 19 -11 28.5t-24.5 10.5t-24.5 4.5t-11 11.5q0 14 23 14q18 0 53.5 -1t53.5 -1q22 0 65 1t63 1q13 0 13 -13q0 -9 -13.5 -12t-30.5 -3.5t-34 -13.5t-23 -39q-120 -513 -120 -543q0 -21 18.5 -27.5t37.5 -7.5t19 -9t-3.5 -11t-15.5 -3q-21 0 -57 1t-54 1
q-24 0 -63.5 -1t-52.5 -1q-16 0 -20.5 3t-4.5 11q0 7 12.5 9.5t28.5 3t31.5 11t20.5 32.5l41 173.5l31.5 131l22 91l15.5 64.5t8.5 39.5t4.5 27t1 16.5zM121 777q0 21 14.5 35.5t35.5 14.5t35.5 -14.5t14.5 -35.5t-14.5 -35.5t-35.5 -14.5t-35.5 14.5t-14.5 35.5zM319 777
q0 21 14.5 35.5t35.5 14.5t35.5 -14.5t14.5 -35.5t-14.5 -35.5t-35.5 -14.5t-35.5 14.5t-14.5 35.5z" />
    <glyph glyph-name="Eth" unicode="&#xd0;" horiz-adv-x="704" 
d="M17 344l7 24h86q47 203 47 244q0 20 -11.5 28t-25 8t-25 3.5t-11.5 14.5q0 14 18 14q22 0 64 -1t58 -1q26 0 64.5 1t59.5 1q149 0 225.5 -73t76.5 -207q0 -170 -116.5 -286t-293.5 -116q-34 0 -89.5 1t-70.5 1q-18 0 -63.5 -1t-62.5 -1q-13 0 -13 8q0 10 14 15t32 8
t35.5 17.5t23.5 39.5l59 258h-88zM391 368l-7 -24h-183q-54 -244 -54 -260q0 -62 96 -62q78 0 138.5 39.5t94.5 103.5t51 134.5t17 141.5q0 115 -54 165t-170 50h-51q-49 -234 -63 -288h185z" />
    <glyph glyph-name="Ntilde" unicode="&#xd1;" horiz-adv-x="704" 
d="M229 678l269 -523h2q86 401 88 423q0 26 -14 43t-31.5 22.5t-31.5 11.5t-14 12q0 13 19 13q20 0 57 -1t61 -1q12 0 50 1t59 1q13 0 13 -10q0 -6 -18.5 -13.5l-42.5 -17t-49.5 -40t-36.5 -76.5q-56 -235 -99 -443q-14 -68 -18.5 -82t-11.5 -14q-9 0 -17 13t-41 80
l-232 457h-2l-29 -133l-22.5 -102.5l-16 -73l-11 -53l-6.5 -33t-4 -23t-1 -14.5q0 -31 14.5 -49.5t32.5 -22.5t32.5 -8.5t14.5 -10.5q0 -7 -4.5 -10t-18.5 -3q-22 0 -54.5 1t-45.5 1q-22 0 -66.5 -1t-66.5 -1q-13 0 -13 9t17.5 14.5t40 10t46.5 29t35 68.5l105 440l-16 30
q-13 24 -29 37t-28.5 15t-21 5t-8.5 10q0 14 11 14q7 0 59 -1t95 -1zM570 845h28q-6 -42 -31 -73q-26 -31 -64 -31q-30 0 -78 23t-72 23q-20 0 -33.5 -13.5t-17.5 -34.5h-30q23 106 98 106q31 0 81 -23q52 -23 70 -23q20 0 30.5 11.5t18.5 34.5z" />
    <glyph glyph-name="Ograve" unicode="&#xd2;" horiz-adv-x="778" 
d="M22 280q0 95 37 176t95.5 131.5t128 78.5t137.5 28q129 0 216.5 -86.5t87.5 -209.5q0 -95 -37 -176t-95.5 -131.5t-128 -78.5t-137.5 -28q-129 0 -216.5 86.5t-87.5 209.5zM128 232q0 -116 54.5 -170t145.5 -54q70 0 127 40.5t91.5 105.5t53 140.5t18.5 151.5
q0 116 -54.5 170t-145.5 54q-70 0 -127 -40.5t-91.5 -105.5t-53 -140.5t-18.5 -151.5zM520 711h-31l-135 104q-24 18 -24 35q0 16 10.5 25.5t26.5 9.5q20 0 45 -32z" />
    <glyph glyph-name="Oacute" unicode="&#xd3;" horiz-adv-x="778" 
d="M22 280q0 95 37 176t95.5 131.5t128 78.5t137.5 28q129 0 216.5 -86.5t87.5 -209.5q0 -95 -37 -176t-95.5 -131.5t-128 -78.5t-137.5 -28q-129 0 -216.5 86.5t-87.5 209.5zM128 232q0 -116 54.5 -170t145.5 -54q70 0 127 40.5t91.5 105.5t53 140.5t18.5 151.5
q0 116 -54.5 170t-145.5 54q-70 0 -127 -40.5t-91.5 -105.5t-53 -140.5t-18.5 -151.5zM421 711h-34l149 145q2 2 6.5 6t7 6.5t7 6t8 5.5t8 3.5t8.5 1.5q12 0 22 -9.5t10 -25.5q0 -20 -28 -38z" />
    <glyph glyph-name="Ocircumflex" unicode="&#xd4;" horiz-adv-x="778" 
d="M22 280q0 95 37 176t95.5 131.5t128 78.5t137.5 28q129 0 216.5 -86.5t87.5 -209.5q0 -95 -37 -176t-95.5 -131.5t-128 -78.5t-137.5 -28q-129 0 -216.5 86.5t-87.5 209.5zM128 232q0 -116 54.5 -170t145.5 -54q70 0 127 40.5t91.5 105.5t53 140.5t18.5 151.5
q0 116 -54.5 170t-145.5 54q-70 0 -127 -40.5t-91.5 -105.5t-53 -140.5t-18.5 -151.5zM589 711h-36l-83 104l-138 -104h-39l158 170h49z" />
    <glyph glyph-name="Otilde" unicode="&#xd5;" horiz-adv-x="778" 
d="M22 280q0 95 37 176t95.5 131.5t128 78.5t137.5 28q129 0 216.5 -86.5t87.5 -209.5q0 -95 -37 -176t-95.5 -131.5t-128 -78.5t-137.5 -28q-129 0 -216.5 86.5t-87.5 209.5zM128 232q0 -116 54.5 -170t145.5 -54q70 0 127 40.5t91.5 105.5t53 140.5t18.5 151.5
q0 116 -54.5 170t-145.5 54q-70 0 -127 -40.5t-91.5 -105.5t-53 -140.5t-18.5 -151.5zM607 845h28q-6 -42 -31 -73q-26 -31 -64 -31q-30 0 -78 23t-72 23q-20 0 -33.5 -13.5t-17.5 -34.5h-30q23 106 98 106q31 0 81 -23q52 -23 70 -23q20 0 30.5 11.5t18.5 34.5z" />
    <glyph glyph-name="Odieresis" unicode="&#xd6;" horiz-adv-x="778" 
d="M22 280q0 95 37 176t95.5 131.5t128 78.5t137.5 28q129 0 216.5 -86.5t87.5 -209.5q0 -95 -37 -176t-95.5 -131.5t-128 -78.5t-137.5 -28q-129 0 -216.5 86.5t-87.5 209.5zM128 232q0 -116 54.5 -170t145.5 -54q70 0 127 40.5t91.5 105.5t53 140.5t18.5 151.5
q0 116 -54.5 170t-145.5 54q-70 0 -127 -40.5t-91.5 -105.5t-53 -140.5t-18.5 -151.5zM317 777q0 21 14.5 35.5t35.5 14.5t35.5 -14.5t14.5 -35.5t-14.5 -35.5t-35.5 -14.5t-35.5 14.5t-14.5 35.5zM515 777q0 21 14.5 35.5t35.5 14.5t35.5 -14.5t14.5 -35.5t-14.5 -35.5
t-35.5 -14.5t-35.5 14.5t-14.5 35.5z" />
    <glyph glyph-name="multiply" unicode="&#xd7;" horiz-adv-x="600" 
d="M224 227l-182 183l44 44l183 -183l184 183l45 -44l-183 -183l183 -183l-45 -44l-184 183l-183 -183l-44 44z" />
    <glyph glyph-name="Oslash" unicode="&#xd8;" horiz-adv-x="778" 
d="M168 81l374 554q-48 35 -124 35q-70 0 -127 -40.5t-91.5 -105.5t-53 -140.5t-18.5 -151.5q0 -96 40 -151zM571 608l-376 -557q49 -43 133 -43q70 0 127 40.5t91.5 105.5t53 140.5t18.5 151.5q0 104 -47 162zM103 -84h-46l86 127q-57 41 -89 103.5t-32 133.5q0 95 37 176
t95.5 131.5t128 78.5t137.5 28q78 0 140 -32l60 88h47l-73 -108q61 -41 95.5 -105.5t34.5 -138.5q0 -95 -37 -176t-95.5 -131.5t-128 -78.5t-137.5 -28q-83 0 -151 38z" />
    <glyph glyph-name="Ugrave" unicode="&#xd9;" horiz-adv-x="704" 
d="M52 137q0 31 48 237t48 230q0 29 -17 38.5t-34.5 11t-17.5 12.5q0 14 23 14q18 0 54.5 -1t54.5 -1q20 0 60 1t59 1q12 0 12 -14q0 -7 -12.5 -9.5t-29 -3.5t-32.5 -14.5t-22 -41.5l-39 -183l-27.5 -128.5l-16 -74.5t-9.5 -49t-2 -24q0 -60 39.5 -92t102.5 -32
q89 0 146.5 50.5t73.5 128.5q64 318 67 347q1 11 1 23q0 35 -12.5 56t-27 26t-27 10t-12.5 11q0 14 14 14q23 0 67 -1t67 -1q14 0 42.5 1t42.5 1q12 0 12 -14q0 -9 -14 -9.5t-40.5 -12t-49.5 -46.5q-8 -12 -13.5 -22.5l-10.5 -20.5t-9.5 -28t-9 -33t-11.5 -48.5l-13 -62
l-18 -86.5l-23 -109q-22 -103 -98 -153.5t-177 -50.5q-42 0 -87.5 14.5t-83.5 51t-38 87.5zM483 711h-31l-135 104q-24 18 -24 35q0 16 10.5 25.5t26.5 9.5q20 0 45 -32z" />
    <glyph glyph-name="Uacute" unicode="&#xda;" horiz-adv-x="704" 
d="M52 137q0 31 48 237t48 230q0 29 -17 38.5t-34.5 11t-17.5 12.5q0 14 23 14q18 0 54.5 -1t54.5 -1q20 0 60 1t59 1q12 0 12 -14q0 -7 -12.5 -9.5t-29 -3.5t-32.5 -14.5t-22 -41.5l-39 -183l-27.5 -128.5l-16 -74.5t-9.5 -49t-2 -24q0 -60 39.5 -92t102.5 -32
q89 0 146.5 50.5t73.5 128.5q64 318 67 347q1 11 1 23q0 35 -12.5 56t-27 26t-27 10t-12.5 11q0 14 14 14q23 0 67 -1t67 -1q14 0 42.5 1t42.5 1q12 0 12 -14q0 -9 -14 -9.5t-40.5 -12t-49.5 -46.5q-8 -12 -13.5 -22.5l-10.5 -20.5t-9.5 -28t-9 -33t-11.5 -48.5l-13 -62
l-18 -86.5l-23 -109q-22 -103 -98 -153.5t-177 -50.5q-42 0 -87.5 14.5t-83.5 51t-38 87.5zM384 711h-34l149 145q2 2 6.5 6t7 6.5t7 6t8 5.5t8 3.5t8.5 1.5q12 0 22 -9.5t10 -25.5q0 -20 -28 -38z" />
    <glyph glyph-name="Ucircumflex" unicode="&#xdb;" horiz-adv-x="704" 
d="M52 137q0 31 48 237t48 230q0 29 -17 38.5t-34.5 11t-17.5 12.5q0 14 23 14q18 0 54.5 -1t54.5 -1q20 0 60 1t59 1q12 0 12 -14q0 -7 -12.5 -9.5t-29 -3.5t-32.5 -14.5t-22 -41.5l-39 -183l-27.5 -128.5l-16 -74.5t-9.5 -49t-2 -24q0 -60 39.5 -92t102.5 -32
q89 0 146.5 50.5t73.5 128.5q64 318 67 347q1 11 1 23q0 35 -12.5 56t-27 26t-27 10t-12.5 11q0 14 14 14q23 0 67 -1t67 -1q14 0 42.5 1t42.5 1q12 0 12 -14q0 -9 -14 -9.5t-40.5 -12t-49.5 -46.5q-8 -12 -13.5 -22.5l-10.5 -20.5t-9.5 -28t-9 -33t-11.5 -48.5l-13 -62
l-18 -86.5l-23 -109q-22 -103 -98 -153.5t-177 -50.5q-42 0 -87.5 14.5t-83.5 51t-38 87.5zM552 711h-36l-83 104l-138 -104h-39l158 170h49z" />
    <glyph glyph-name="Udieresis" unicode="&#xdc;" horiz-adv-x="704" 
d="M52 137q0 31 48 237t48 230q0 29 -17 38.5t-34.5 11t-17.5 12.5q0 14 23 14q18 0 54.5 -1t54.5 -1q20 0 60 1t59 1q12 0 12 -14q0 -7 -12.5 -9.5t-29 -3.5t-32.5 -14.5t-22 -41.5l-39 -183l-27.5 -128.5l-16 -74.5t-9.5 -49t-2 -24q0 -60 39.5 -92t102.5 -32
q89 0 146.5 50.5t73.5 128.5q64 318 67 347q1 11 1 23q0 35 -12.5 56t-27 26t-27 10t-12.5 11q0 14 14 14q23 0 67 -1t67 -1q14 0 42.5 1t42.5 1q12 0 12 -14q0 -9 -14 -9.5t-40.5 -12t-49.5 -46.5q-8 -12 -13.5 -22.5l-10.5 -20.5t-9.5 -28t-9 -33t-11.5 -48.5l-13 -62
l-18 -86.5l-23 -109q-22 -103 -98 -153.5t-177 -50.5q-42 0 -87.5 14.5t-83.5 51t-38 87.5zM280 777q0 21 14.5 35.5t35.5 14.5t35.5 -14.5t14.5 -35.5t-14.5 -35.5t-35.5 -14.5t-35.5 14.5t-14.5 35.5zM478 777q0 21 14.5 35.5t35.5 14.5t35.5 -14.5t14.5 -35.5
t-14.5 -35.5t-35.5 -14.5t-35.5 14.5t-14.5 35.5z" />
    <glyph glyph-name="Yacute" unicode="&#xdd;" horiz-adv-x="593" 
d="M215 318l-106 295q-7 20 -25.5 28.5t-33 11.5t-14.5 13q0 8 5 11t20 3q20 0 60 -1t60 -1q17 0 52 1t53 1q17 0 17 -14q0 -7 -13 -9.5t-28.5 -3.5t-28.5 -12t-13 -31q0 -6 1 -12t4 -17t6.5 -21.5l11 -33l14.5 -42.5l20.5 -58.5l25.5 -73.5q111 119 148 172t37 85
q0 25 -13 34t-26.5 11t-13.5 12q0 14 18 14q20 0 59.5 -1t59.5 -1q14 0 41 1t40 1q16 0 16 -14q0 -5 -3.5 -8t-10.5 -4.5t-19 -6.5t-26 -12.5t-35.5 -25t-44.5 -42.5q-42 -44 -121 -135.5l-98 -112.5l-22.5 -101l-15.5 -69l-9 -39.5t-5 -24t-1 -11.5q0 -23 12 -35t26.5 -13
t26.5 -3.5t12 -10.5q0 -14 -18 -14q-21 0 -58 1t-54 1q-21 0 -66 -1t-71 -1q-12 0 -12 12q0 9 14.5 12.5t32.5 5.5t36.5 17t24.5 44zM322 711h-34l149 145q2 2 6.5 6t7 6.5t7 6t8 5.5t8 3.5t8.5 1.5q12 0 22 -9.5t10 -25.5q0 -20 -28 -38z" />
    <glyph glyph-name="Thorn" unicode="&#xde;" horiz-adv-x="593" 
d="M160 612q0 25 -17.5 33.5t-35 10t-17.5 10.5q0 14 16 14q24 0 62.5 -1t48.5 -1q22 0 65.5 1t65.5 1q10 0 10 -14q0 -9 -13.5 -11.5t-30.5 -3t-34 -13.5t-23 -39l-13 -59q62 2 91 2q106 0 161.5 -43.5t55.5 -117.5q0 -92 -88 -154.5t-224 -62.5h-78q-16 -81 -16 -94
q0 -20 12.5 -30.5t28 -12t28 -5t12.5 -10.5q0 -14 -27 -14q-7 0 -41 1t-66 1q-48 0 -86 -1t-39 -1q-20 0 -20 14q0 8 13.5 11t30 4t33.5 14.5t23 39.5q112 515 112 531zM239 518l-72 -330h75q98 0 151 59t53 160q0 111 -107 111h-100z" />
    <glyph glyph-name="germandbls" unicode="&#xdf;" 
d="M95 391h-71q35 21 67.5 65t58 89t54.5 88t68.5 70t88.5 27q53 0 88 -33.5t35 -88.5q0 -48 -23.5 -84t-51.5 -52t-51.5 -31.5t-23.5 -26.5q0 -15 23 -32t50 -34t50 -55t23 -90q0 -94 -67 -156.5t-162 -62.5q-50 0 -80 20t-30 60q0 21 15.5 39t40.5 18q22 0 34 -12t12 -26
q0 -12 -11 -30.5t-11 -25.5q0 -25 39 -25q76 0 99 86q27 100 27 147q0 33 -12.5 59.5t-27.5 40t-27.5 30.5t-12.5 34q0 25 17.5 48t38.5 41t38.5 55t17.5 87q0 76 -64 76q-46 0 -79.5 -35.5t-45.5 -88.5l-131 -582q-42 0 -91 -1t-55 -1q-11 0 -11 12q0 8 17.5 10t37.5 11
t26 34z" />
    <glyph glyph-name="agrave" unicode="&#xe0;" horiz-adv-x="574" 
d="M315 128l-2 2q-77 -138 -192 -138q-63 0 -96 39.5t-33 107.5q0 70 26.5 132.5t67 103t85.5 64t84 23.5q91 0 118 -101l31 29l25 23l18 16.5t13.5 12l9 7t7.5 4.5t6 1q12 0 12 -13q0 -6 -9 -25.5t-21 -50.5t-18 -59l-18 -84.5l-13 -60t-7.5 -36.5t-4.5 -27t-1 -18
q0 -14 8.5 -22t22.5 -8q22 0 37 18.5t29 60.5q17 43 22 45q8 0 8 -10q0 -9 -7 -33.5t-21 -57.5t-42 -57t-63 -24q-84 0 -84 85q0 29 2 51zM355 322q0 58 -26.5 87t-70.5 29q-70 0 -123 -104.5t-53 -207.5q0 -55 18 -75.5t53 -20.5q43 0 82.5 34.5t64.5 82.5t40 96t15 79z
M385 508h-31l-135 104q-24 18 -24 35q0 16 10.5 25.5t26.5 9.5q20 0 45 -32z" />
    <glyph glyph-name="aacute" unicode="&#xe1;" horiz-adv-x="574" 
d="M315 128l-2 2q-77 -138 -192 -138q-63 0 -96 39.5t-33 107.5q0 70 26.5 132.5t67 103t85.5 64t84 23.5q91 0 118 -101l31 29l25 23l18 16.5t13.5 12l9 7t7.5 4.5t6 1q12 0 12 -13q0 -6 -9 -25.5t-21 -50.5t-18 -59l-18 -84.5l-13 -60t-7.5 -36.5t-4.5 -27t-1 -18
q0 -14 8.5 -22t22.5 -8q22 0 37 18.5t29 60.5q17 43 22 45q8 0 8 -10q0 -9 -7 -33.5t-21 -57.5t-42 -57t-63 -24q-84 0 -84 85q0 29 2 51zM355 322q0 58 -26.5 87t-70.5 29q-70 0 -123 -104.5t-53 -207.5q0 -55 18 -75.5t53 -20.5q43 0 82.5 34.5t64.5 82.5t40 96t15 79z
M286 508h-34l149 145q2 2 6.5 6t7 6.5t7 6t8 5.5t8 3.5t8.5 1.5q12 0 22 -9.5t10 -25.5q0 -20 -28 -38z" />
    <glyph glyph-name="acircumflex" unicode="&#xe2;" horiz-adv-x="574" 
d="M315 128l-2 2q-77 -138 -192 -138q-63 0 -96 39.5t-33 107.5q0 70 26.5 132.5t67 103t85.5 64t84 23.5q91 0 118 -101l31 29l25 23l18 16.5t13.5 12l9 7t7.5 4.5t6 1q12 0 12 -13q0 -6 -9 -25.5t-21 -50.5t-18 -59l-18 -84.5l-13 -60t-7.5 -36.5t-4.5 -27t-1 -18
q0 -14 8.5 -22t22.5 -8q22 0 37 18.5t29 60.5q17 43 22 45q8 0 8 -10q0 -9 -7 -33.5t-21 -57.5t-42 -57t-63 -24q-84 0 -84 85q0 29 2 51zM355 322q0 58 -26.5 87t-70.5 29q-70 0 -123 -104.5t-53 -207.5q0 -55 18 -75.5t53 -20.5q43 0 82.5 34.5t64.5 82.5t40 96t15 79z
M454 508h-36l-83 104l-138 -104h-39l158 170h49z" />
    <glyph glyph-name="atilde" unicode="&#xe3;" horiz-adv-x="574" 
d="M315 128l-2 2q-77 -138 -192 -138q-63 0 -96 39.5t-33 107.5q0 70 26.5 132.5t67 103t85.5 64t84 23.5q91 0 118 -101l31 29l25 23l18 16.5t13.5 12l9 7t7.5 4.5t6 1q12 0 12 -13q0 -6 -9 -25.5t-21 -50.5t-18 -59l-18 -84.5l-13 -60t-7.5 -36.5t-4.5 -27t-1 -18
q0 -14 8.5 -22t22.5 -8q22 0 37 18.5t29 60.5q17 43 22 45q8 0 8 -10q0 -9 -7 -33.5t-21 -57.5t-42 -57t-63 -24q-84 0 -84 85q0 29 2 51zM355 322q0 58 -26.5 87t-70.5 29q-70 0 -123 -104.5t-53 -207.5q0 -55 18 -75.5t53 -20.5q43 0 82.5 34.5t64.5 82.5t40 96t15 79z
M472 642h28q-7 -44 -32 -74t-63 -30q-30 0 -78 23t-72 23q-20 0 -33.5 -13.5t-17.5 -34.5h-30q23 106 98 106q31 0 81 -23q52 -23 70 -23q20 0 30.5 11.5t18.5 34.5z" />
    <glyph glyph-name="adieresis" unicode="&#xe4;" horiz-adv-x="574" 
d="M315 128l-2 2q-77 -138 -192 -138q-63 0 -96 39.5t-33 107.5q0 70 26.5 132.5t67 103t85.5 64t84 23.5q91 0 118 -101l31 29l25 23l18 16.5t13.5 12l9 7t7.5 4.5t6 1q12 0 12 -13q0 -6 -9 -25.5t-21 -50.5t-18 -59l-18 -84.5l-13 -60t-7.5 -36.5t-4.5 -27t-1 -18
q0 -14 8.5 -22t22.5 -8q22 0 37 18.5t29 60.5q17 43 22 45q8 0 8 -10q0 -9 -7 -33.5t-21 -57.5t-42 -57t-63 -24q-84 0 -84 85q0 29 2 51zM355 322q0 58 -26.5 87t-70.5 29q-70 0 -123 -104.5t-53 -207.5q0 -55 18 -75.5t53 -20.5q43 0 82.5 34.5t64.5 82.5t40 96t15 79z
M182 574q0 21 14.5 35.5t35.5 14.5t35.5 -14.5t14.5 -35.5t-14.5 -35.5t-35.5 -14.5t-35.5 14.5t-14.5 35.5zM380 574q0 21 14.5 35.5t35.5 14.5t35.5 -14.5t14.5 -35.5t-14.5 -35.5t-35.5 -14.5t-35.5 14.5t-14.5 35.5z" />
    <glyph glyph-name="aring" unicode="&#xe5;" horiz-adv-x="574" 
d="M315 128l-2 2q-77 -138 -192 -138q-63 0 -96 39.5t-33 107.5q0 70 26.5 132.5t67 103t85.5 64t84 23.5q91 0 118 -101l31 29l25 23l18 16.5t13.5 12l9 7t7.5 4.5t6 1q12 0 12 -13q0 -6 -9 -25.5t-21 -50.5t-18 -59l-18 -84.5l-13 -60t-7.5 -36.5t-4.5 -27t-1 -18
q0 -14 8.5 -22t22.5 -8q22 0 37 18.5t29 60.5q17 43 22 45q8 0 8 -10q0 -9 -7 -33.5t-21 -57.5t-42 -57t-63 -24q-84 0 -84 85q0 29 2 51zM355 322q0 58 -26.5 87t-70.5 29q-70 0 -123 -104.5t-53 -207.5q0 -55 18 -75.5t53 -20.5q43 0 82.5 34.5t64.5 82.5t40 96t15 79z
M233 608q0 41 29 70.5t71 29.5q41 0 70.5 -29.5t29.5 -70.5t-29.5 -70.5t-70.5 -29.5q-42 0 -71 29.5t-29 70.5zM267 608q0 -27 19 -46.5t47 -19.5q27 0 46.5 19.5t19.5 46.5t-19.5 46.5t-46.5 19.5q-28 0 -47 -19.5t-19 -46.5z" />
    <glyph glyph-name="ae" unicode="&#xe6;" horiz-adv-x="685" 
d="M524 462q54 0 85.5 -22t31.5 -60q0 -41 -51.5 -79t-114.5 -60.5t-131 -36.5q0 -80 41.5 -117t98.5 -37q32 0 60 11.5t43 25.5l27 25.5t15 11.5q6 0 6 -7q0 -5 -7 -18t-23.5 -31.5t-38 -35t-56 -28.5t-72.5 -12q-49 0 -92.5 27.5t-70.5 71.5q-105 -71 -162 -89
q-30 -10 -55 -10q-80 0 -80 87q0 67 80 116q46 28 192 85q18 7 27 11q21 82 21 117q0 30 -40 30q-27 0 -55 -19.5t-48 -52.5l-15.5 -27t-15 -24.5t-13 -16t-16.5 -13t-19 -3.5q-37 0 -37 33q0 31 43 66.5t102.5 58t105.5 22.5q38 0 56 -11t29 -35q98 46 149 46zM239 90
l33 176q-127 -49 -165.5 -82.5t-38.5 -107.5q0 -26 10 -36t32 -10q45 0 129 60zM503 438q-59 0 -107 -62.5t-52 -152.5q221 49 221 160q0 55 -62 55z" />
    <glyph glyph-name="ccedilla" unicode="&#xe7;" horiz-adv-x="500" 
d="M88 203q0 -69 42 -111t112 -42q38 0 69.5 13.5t47.5 29l29 29t17 13.5q7 0 7 -7q0 -8 -14.5 -29t-39.5 -45.5t-69 -43t-93 -18.5h-3l-39 -58q14 3 27 3q36 0 58 -18.5t22 -53.5q0 -39 -35 -60t-87 -21q-48 0 -89 21l16 28q39 -15 66 -15q25 0 40 12t15 32q0 17 -13.5 29
t-29.5 12q-17 0 -35 -7l-9 8l57 91q-73 11 -116 64t-43 137q0 105 81 185.5t198 80.5q75 0 122 -37t47 -96q0 -31 -15 -52t-43 -21q-21 0 -32 11.5t-11 29.5q0 15 5.5 40.5t5.5 33.5q0 29 -21.5 51t-62.5 22q-77 0 -130.5 -76t-53.5 -165z" />
    <glyph glyph-name="egrave" unicode="&#xe8;" horiz-adv-x="463" 
d="M-2 185q0 65 29.5 120t73.5 88t91 51t86 18q59 0 94.5 -24.5t35.5 -69.5q0 -78 -134 -123q-63 -21 -186 -44q-2 -64 38.5 -107.5t115.5 -43.5q51 0 98 34l29.5 23t17.5 14.5t7 3.5q7 0 7 -8q0 -5 -9 -18t-28.5 -31.5t-44 -35.5t-60.5 -28.5t-74 -11.5q-84 0 -135.5 56.5
t-51.5 136.5zM275 444q-28 0 -57.5 -13t-57.5 -38t-48 -70t-24 -102q57 11 84 17t70 22.5t60 37.5q30 35 30 84q0 62 -57 62zM344 508h-31l-135 104q-24 18 -24 35q0 16 10.5 25.5t26.5 9.5q20 0 45 -32z" />
    <glyph glyph-name="eacute" unicode="&#xe9;" horiz-adv-x="463" 
d="M-2 185q0 65 29.5 120t73.5 88t91 51t86 18q59 0 94.5 -24.5t35.5 -69.5q0 -78 -134 -123q-63 -21 -186 -44q-2 -64 38.5 -107.5t115.5 -43.5q51 0 98 34l29.5 23t17.5 14.5t7 3.5q7 0 7 -8q0 -5 -9 -18t-28.5 -31.5t-44 -35.5t-60.5 -28.5t-74 -11.5q-84 0 -135.5 56.5
t-51.5 136.5zM275 444q-28 0 -57.5 -13t-57.5 -38t-48 -70t-24 -102q57 11 84 17t70 22.5t60 37.5q30 35 30 84q0 62 -57 62zM245 508h-34l149 145q2 2 6.5 6t7 6.5t7 6t8 5.5t8 3.5t8.5 1.5q12 0 22 -9.5t10 -25.5q0 -20 -28 -38z" />
    <glyph glyph-name="ecircumflex" unicode="&#xea;" horiz-adv-x="463" 
d="M-2 185q0 65 29.5 120t73.5 88t91 51t86 18q59 0 94.5 -24.5t35.5 -69.5q0 -78 -134 -123q-63 -21 -186 -44q-2 -64 38.5 -107.5t115.5 -43.5q51 0 98 34l29.5 23t17.5 14.5t7 3.5q7 0 7 -8q0 -5 -9 -18t-28.5 -31.5t-44 -35.5t-60.5 -28.5t-74 -11.5q-84 0 -135.5 56.5
t-51.5 136.5zM275 444q-28 0 -57.5 -13t-57.5 -38t-48 -70t-24 -102q57 11 84 17t70 22.5t60 37.5q30 35 30 84q0 62 -57 62zM413 508h-36l-83 104l-138 -104h-39l158 170h49z" />
    <glyph glyph-name="edieresis" unicode="&#xeb;" horiz-adv-x="463" 
d="M-2 185q0 65 29.5 120t73.5 88t91 51t86 18q59 0 94.5 -24.5t35.5 -69.5q0 -78 -134 -123q-63 -21 -186 -44q-2 -64 38.5 -107.5t115.5 -43.5q51 0 98 34l29.5 23t17.5 14.5t7 3.5q7 0 7 -8q0 -5 -9 -18t-28.5 -31.5t-44 -35.5t-60.5 -28.5t-74 -11.5q-84 0 -135.5 56.5
t-51.5 136.5zM275 444q-28 0 -57.5 -13t-57.5 -38t-48 -70t-24 -102q57 11 84 17t70 22.5t60 37.5q30 35 30 84q0 62 -57 62zM141 574q0 21 14.5 35.5t35.5 14.5t35.5 -14.5t14.5 -35.5t-14.5 -35.5t-35.5 -14.5t-35.5 14.5t-14.5 35.5zM339 574q0 21 14.5 35.5t35.5 14.5
t35.5 -14.5t14.5 -35.5t-14.5 -35.5t-35.5 -14.5t-35.5 14.5t-14.5 35.5z" />
    <glyph glyph-name="igrave" unicode="&#xec;" horiz-adv-x="315" 
d="M166 42q44 0 71 77q2 5 3.5 9.5l2.5 7.5t2 6.5t2 6t1.5 4.5t1.5 3.5t1.5 2.5t1.5 1.5l2 1t2 0.5q8 0 8 -9q0 -8 -7 -30.5t-21.5 -53.5t-44 -54t-66.5 -23q-38 0 -59.5 24t-21.5 61q0 29 36.5 157t36.5 146q0 32 -31 32q-43 0 -72 -77q-13 -35 -19 -35q-8 0 -8 9
q0 7 7.5 29t22.5 51t44 51t65 22q41 0 61 -22t20 -57q0 -31 -36.5 -163t-36.5 -146q0 -32 31 -32zM224 508h-31l-135 104q-24 18 -24 35q0 16 10.5 25.5t26.5 9.5q20 0 45 -32z" />
    <glyph glyph-name="iacute" unicode="&#xed;" horiz-adv-x="315" 
d="M166 42q44 0 71 77q2 5 3.5 9.5l2.5 7.5t2 6.5t2 6t1.5 4.5t1.5 3.5t1.5 2.5t1.5 1.5l2 1t2 0.5q8 0 8 -9q0 -8 -7 -30.5t-21.5 -53.5t-44 -54t-66.5 -23q-38 0 -59.5 24t-21.5 61q0 29 36.5 157t36.5 146q0 32 -31 32q-43 0 -72 -77q-13 -35 -19 -35q-8 0 -8 9
q0 7 7.5 29t22.5 51t44 51t65 22q41 0 61 -22t20 -57q0 -31 -36.5 -163t-36.5 -146q0 -32 31 -32zM125 508h-34l149 145q2 2 6.5 6t7 6.5t7 6t8 5.5t8 3.5t8.5 1.5q12 0 22 -9.5t10 -25.5q0 -20 -28 -38z" />
    <glyph glyph-name="icircumflex" unicode="&#xee;" horiz-adv-x="315" 
d="M166 42q44 0 71 77q2 5 3.5 9.5l2.5 7.5t2 6.5t2 6t1.5 4.5t1.5 3.5t1.5 2.5t1.5 1.5l2 1t2 0.5q8 0 8 -9q0 -8 -7 -30.5t-21.5 -53.5t-44 -54t-66.5 -23q-38 0 -59.5 24t-21.5 61q0 29 36.5 157t36.5 146q0 32 -31 32q-43 0 -72 -77q-13 -35 -19 -35q-8 0 -8 9
q0 7 7.5 29t22.5 51t44 51t65 22q41 0 61 -22t20 -57q0 -31 -36.5 -163t-36.5 -146q0 -32 31 -32zM293 508h-36l-83 104l-138 -104h-39l158 170h49z" />
    <glyph glyph-name="idieresis" unicode="&#xef;" horiz-adv-x="315" 
d="M166 42q44 0 71 77q2 5 3.5 9.5l2.5 7.5t2 6.5t2 6t1.5 4.5t1.5 3.5t1.5 2.5t1.5 1.5l2 1t2 0.5q8 0 8 -9q0 -8 -7 -30.5t-21.5 -53.5t-44 -54t-66.5 -23q-38 0 -59.5 24t-21.5 61q0 29 36.5 157t36.5 146q0 32 -31 32q-43 0 -72 -77q-13 -35 -19 -35q-8 0 -8 9
q0 7 7.5 29t22.5 51t44 51t65 22q41 0 61 -22t20 -57q0 -31 -36.5 -163t-36.5 -146q0 -32 31 -32zM21 574q0 21 14.5 35.5t35.5 14.5t35.5 -14.5t14.5 -35.5t-14.5 -35.5t-35.5 -14.5t-35.5 14.5t-14.5 35.5zM219 574q0 21 14.5 35.5t35.5 14.5t35.5 -14.5t14.5 -35.5
t-14.5 -35.5t-35.5 -14.5t-35.5 14.5t-14.5 35.5z" />
    <glyph glyph-name="eth" unicode="&#xf0;" horiz-adv-x="519" 
d="M259 444q-56 0 -96.5 -51t-57.5 -117.5t-17 -133.5q0 -132 102 -132q56 0 96.5 51t57.5 117.5t17 133.5q0 132 -102 132zM166 551l153 77q-18 37 -41.5 63t-37.5 36.5t-14 14.5q0 10 11 10q22 0 59 -26.5t71 -72.5l159 81l14 -28l-156 -78q79 -126 79 -306
q0 -155 -75.5 -242.5t-195.5 -87.5q-88 0 -141 55t-53 149q0 111 72.5 188.5t186.5 77.5q66 0 111 -30q-8 100 -37 170l-151 -76z" />
    <glyph glyph-name="ntilde" unicode="&#xf1;" horiz-adv-x="611" 
d="M174 185l-46 -189q-26 6 -46 6t-39 -6l19.5 96.5l20.5 98t16 79.5t12 68t4 37q0 37 -31 37q-43 0 -72 -77q-13 -35 -19 -35q-8 0 -8 9q0 7 7.5 29t22.5 51t44 51t65 22q40 0 60.5 -22.5t20.5 -59.5q0 -36 -7 -68l2 -2q44 80 86.5 116t99.5 36q48 0 78 -31t30 -79
q0 -29 -29 -147.5t-29 -130.5q0 -32 31 -32q44 0 71 77q2 5 3.5 9.5l2.5 7.5t2 6.5t2 6t1.5 4.5t1.5 3.5t1.5 2.5t1.5 1.5l2 1t2 0.5q8 0 8 -9q0 -8 -6.5 -30.5t-20.5 -53.5t-44.5 -54t-69.5 -23q-40 0 -59.5 22.5t-19.5 59.5q0 28 29 148.5t29 146.5q0 55 -55 55
q-33 0 -64.5 -28.5t-54 -70.5t-36 -77.5t-20.5 -62.5zM476 642h28q-7 -44 -32 -74t-63 -30q-30 0 -78 23t-72 23q-20 0 -33.5 -13.5t-17.5 -34.5h-30q23 106 98 106q31 0 81 -23q52 -23 70 -23q20 0 30.5 11.5t18.5 34.5z" />
    <glyph glyph-name="ograve" unicode="&#xf2;" horiz-adv-x="519" 
d="M259 444q-56 0 -96.5 -51t-57.5 -117.5t-17 -133.5q0 -132 102 -132q56 0 96.5 51t57.5 117.5t17 133.5q0 132 -102 132zM257 462q88 0 141 -55t53 -149q0 -111 -72.5 -188.5t-186.5 -77.5q-88 0 -141 55t-53 149q0 111 72.5 188.5t186.5 77.5zM349 508h-31l-135 104
q-24 18 -24 35q0 16 10.5 25.5t26.5 9.5q20 0 45 -32z" />
    <glyph glyph-name="oacute" unicode="&#xf3;" horiz-adv-x="519" 
d="M259 444q-56 0 -96.5 -51t-57.5 -117.5t-17 -133.5q0 -132 102 -132q56 0 96.5 51t57.5 117.5t17 133.5q0 132 -102 132zM257 462q88 0 141 -55t53 -149q0 -111 -72.5 -188.5t-186.5 -77.5q-88 0 -141 55t-53 149q0 111 72.5 188.5t186.5 77.5zM250 508h-34l149 145
q2 2 6.5 6t7 6.5t7 6t8 5.5t8 3.5t8.5 1.5q12 0 22 -9.5t10 -25.5q0 -20 -28 -38z" />
    <glyph glyph-name="ocircumflex" unicode="&#xf4;" horiz-adv-x="519" 
d="M259 444q-56 0 -96.5 -51t-57.5 -117.5t-17 -133.5q0 -132 102 -132q56 0 96.5 51t57.5 117.5t17 133.5q0 132 -102 132zM257 462q88 0 141 -55t53 -149q0 -111 -72.5 -188.5t-186.5 -77.5q-88 0 -141 55t-53 149q0 111 72.5 188.5t186.5 77.5zM418 508h-36l-83 104
l-138 -104h-39l158 170h49z" />
    <glyph glyph-name="otilde" unicode="&#xf5;" horiz-adv-x="519" 
d="M259 444q-56 0 -96.5 -51t-57.5 -117.5t-17 -133.5q0 -132 102 -132q56 0 96.5 51t57.5 117.5t17 133.5q0 132 -102 132zM257 462q88 0 141 -55t53 -149q0 -111 -72.5 -188.5t-186.5 -77.5q-88 0 -141 55t-53 149q0 111 72.5 188.5t186.5 77.5zM436 642h28
q-7 -44 -32 -74t-63 -30q-30 0 -78 23t-72 23q-20 0 -33.5 -13.5t-17.5 -34.5h-30q23 106 98 106q31 0 81 -23q52 -23 70 -23q20 0 30.5 11.5t18.5 34.5z" />
    <glyph glyph-name="odieresis" unicode="&#xf6;" horiz-adv-x="519" 
d="M259 444q-56 0 -96.5 -51t-57.5 -117.5t-17 -133.5q0 -132 102 -132q56 0 96.5 51t57.5 117.5t17 133.5q0 132 -102 132zM257 462q88 0 141 -55t53 -149q0 -111 -72.5 -188.5t-186.5 -77.5q-88 0 -141 55t-53 149q0 111 72.5 188.5t186.5 77.5zM146 574q0 21 14.5 35.5
t35.5 14.5t35.5 -14.5t14.5 -35.5t-14.5 -35.5t-35.5 -14.5t-35.5 14.5t-14.5 35.5zM344 574q0 21 14.5 35.5t35.5 14.5t35.5 -14.5t14.5 -35.5t-14.5 -35.5t-35.5 -14.5t-35.5 14.5t-14.5 35.5z" />
    <glyph glyph-name="divide" unicode="&#xf7;" horiz-adv-x="600" 
d="M498 196h-454v62h454v-62zM215 44q0 23 16.5 39.5t39.5 16.5t39.5 -16.5t16.5 -39.5t-16.5 -39.5t-39.5 -16.5t-39.5 16.5t-16.5 39.5zM215 410q0 23 16.5 39.5t39.5 16.5t39.5 -16.5t16.5 -39.5t-16.5 -39.5t-39.5 -16.5t-39.5 16.5t-16.5 39.5z" />
    <glyph glyph-name="oslash" unicode="&#xf8;" horiz-adv-x="519" 
d="M97 77l232 341q-26 26 -70 26q-56 0 -96.5 -51t-57.5 -117.5t-17 -133.5q0 -38 9 -65zM347 389l-234 -344q24 -35 77 -35q56 0 96.5 51t57.5 117.5t17 133.5q0 47 -14 77zM-11 -82l79 116q-70 53 -70 162q0 111 72.5 188.5t186.5 77.5q52 0 89 -19l59 87h38l-70 -102
q78 -56 78 -170q0 -111 -72.5 -188.5t-186.5 -77.5q-58 0 -99 24l-66 -98h-38z" />
    <glyph glyph-name="ugrave" unicode="&#xf9;" horiz-adv-x="611" 
d="M373 269l46 189q26 -6 46 -6t39 6l-19.5 -96.5l-20.5 -98t-16 -80t-12 -68.5t-4 -37q0 -36 31 -36q43 0 71 77q2 5 3.5 9.5l2.5 7.5t2 6.5t2 6t1.5 4.5t1.5 3.5t1.5 2.5t1.5 1.5l2 1t2 0.5q8 0 8 -9q0 -8 -7 -30.5t-21.5 -53.5t-45 -54t-69.5 -23q-38 0 -57.5 22.5
t-19.5 59.5q0 23 7 70l-2 2q-42 -81 -86.5 -117.5t-99.5 -36.5q-50 0 -79 29t-29 81q0 30 29 148t29 130q0 32 -31 32q-44 0 -71 -77q-2 -5 -3.5 -9.5l-2.5 -7.5t-2 -6.5t-2 -6t-1.5 -4.5t-1.5 -3.5t-1.5 -2.5t-1.5 -1.5l-2 -1t-2 -0.5q-8 0 -8 9q0 8 7 30.5t21.5 53.5
t44 54t66.5 23q39 0 60 -23t21 -59q0 -32 -29 -152t-29 -148q0 -23 13 -36.5t38 -13.5q35 0 67.5 28.5t54.5 70.5t36 77.5t21 62.5zM389 508h-31l-135 104q-24 18 -24 35q0 16 10.5 25.5t26.5 9.5q20 0 45 -32z" />
    <glyph glyph-name="uacute" unicode="&#xfa;" horiz-adv-x="611" 
d="M373 269l46 189q26 -6 46 -6t39 6l-19.5 -96.5l-20.5 -98t-16 -80t-12 -68.5t-4 -37q0 -36 31 -36q43 0 71 77q2 5 3.5 9.5l2.5 7.5t2 6.5t2 6t1.5 4.5t1.5 3.5t1.5 2.5t1.5 1.5l2 1t2 0.5q8 0 8 -9q0 -8 -7 -30.5t-21.5 -53.5t-45 -54t-69.5 -23q-38 0 -57.5 22.5
t-19.5 59.5q0 23 7 70l-2 2q-42 -81 -86.5 -117.5t-99.5 -36.5q-50 0 -79 29t-29 81q0 30 29 148t29 130q0 32 -31 32q-44 0 -71 -77q-2 -5 -3.5 -9.5l-2.5 -7.5t-2 -6.5t-2 -6t-1.5 -4.5t-1.5 -3.5t-1.5 -2.5t-1.5 -1.5l-2 -1t-2 -0.5q-8 0 -8 9q0 8 7 30.5t21.5 53.5
t44 54t66.5 23q39 0 60 -23t21 -59q0 -32 -29 -152t-29 -148q0 -23 13 -36.5t38 -13.5q35 0 67.5 28.5t54.5 70.5t36 77.5t21 62.5zM290 508h-34l149 145q2 2 6.5 6t7 6.5t7 6t8 5.5t8 3.5t8.5 1.5q12 0 22 -9.5t10 -25.5q0 -20 -28 -38z" />
    <glyph glyph-name="ucircumflex" unicode="&#xfb;" horiz-adv-x="611" 
d="M373 269l46 189q26 -6 46 -6t39 6l-19.5 -96.5l-20.5 -98t-16 -80t-12 -68.5t-4 -37q0 -36 31 -36q43 0 71 77q2 5 3.5 9.5l2.5 7.5t2 6.5t2 6t1.5 4.5t1.5 3.5t1.5 2.5t1.5 1.5l2 1t2 0.5q8 0 8 -9q0 -8 -7 -30.5t-21.5 -53.5t-45 -54t-69.5 -23q-38 0 -57.5 22.5
t-19.5 59.5q0 23 7 70l-2 2q-42 -81 -86.5 -117.5t-99.5 -36.5q-50 0 -79 29t-29 81q0 30 29 148t29 130q0 32 -31 32q-44 0 -71 -77q-2 -5 -3.5 -9.5l-2.5 -7.5t-2 -6.5t-2 -6t-1.5 -4.5t-1.5 -3.5t-1.5 -2.5t-1.5 -1.5l-2 -1t-2 -0.5q-8 0 -8 9q0 8 7 30.5t21.5 53.5
t44 54t66.5 23q39 0 60 -23t21 -59q0 -32 -29 -152t-29 -148q0 -23 13 -36.5t38 -13.5q35 0 67.5 28.5t54.5 70.5t36 77.5t21 62.5zM458 508h-36l-83 104l-138 -104h-39l158 170h49z" />
    <glyph glyph-name="udieresis" unicode="&#xfc;" horiz-adv-x="611" 
d="M373 269l46 189q26 -6 46 -6t39 6l-19.5 -96.5l-20.5 -98t-16 -80t-12 -68.5t-4 -37q0 -36 31 -36q43 0 71 77q2 5 3.5 9.5l2.5 7.5t2 6.5t2 6t1.5 4.5t1.5 3.5t1.5 2.5t1.5 1.5l2 1t2 0.5q8 0 8 -9q0 -8 -7 -30.5t-21.5 -53.5t-45 -54t-69.5 -23q-38 0 -57.5 22.5
t-19.5 59.5q0 23 7 70l-2 2q-42 -81 -86.5 -117.5t-99.5 -36.5q-50 0 -79 29t-29 81q0 30 29 148t29 130q0 32 -31 32q-44 0 -71 -77q-2 -5 -3.5 -9.5l-2.5 -7.5t-2 -6.5t-2 -6t-1.5 -4.5t-1.5 -3.5t-1.5 -2.5t-1.5 -1.5l-2 -1t-2 -0.5q-8 0 -8 9q0 8 7 30.5t21.5 53.5
t44 54t66.5 23q39 0 60 -23t21 -59q0 -32 -29 -152t-29 -148q0 -23 13 -36.5t38 -13.5q35 0 67.5 28.5t54.5 70.5t36 77.5t21 62.5zM186 574q0 21 14.5 35.5t35.5 14.5t35.5 -14.5t14.5 -35.5t-14.5 -35.5t-35.5 -14.5t-35.5 14.5t-14.5 35.5zM384 574q0 21 14.5 35.5
t35.5 14.5t35.5 -14.5t14.5 -35.5t-14.5 -35.5t-35.5 -14.5t-35.5 14.5t-14.5 35.5z" />
    <glyph glyph-name="yacute" unicode="&#xfd;" horiz-adv-x="500" 
d="M162 399l118 -338q61 77 89 127t28 100q0 36 -27.5 71t-27.5 57q0 21 13.5 33.5t35.5 12.5q27 0 47.5 -22t20.5 -69q0 -130 -200 -370q-163 -195 -274 -195q-43 0 -68 19t-25 46q0 22 14.5 35t37.5 13q27 0 42.5 -16.5t27.5 -32.5t31 -16q38 0 98.5 56t60.5 85
q0 4 -0.5 8t-1.5 9t-4 14.5l-6.5 20l-10 30l-14 41l-19 56l-23.5 71.5q-39 117 -42 123q-9 18 -26 18q-16 0 -28 -18t-26 -61q-10 -31 -16 -31q-7 0 -7 9q0 16 12 55.5t41 80.5t65 41q42 0 64 -63zM241 508h-34l149 145q2 2 6.5 6t7 6.5t7 6t8 5.5t8 3.5t8.5 1.5
q12 0 22 -9.5t10 -25.5q0 -20 -28 -38z" />
    <glyph glyph-name="thorn" unicode="&#xfe;" horiz-adv-x="593" 
d="M298 730l-88 -380h2q30 53 65.5 82.5t89.5 29.5q66 0 112 -52.5t46 -134.5q0 -117 -81.5 -200t-183.5 -83q-64 0 -119 47l-53 -233q-19 8 -46 8q-21 0 -41 -8l141 636q38 169 38 188q0 22 -16 32t-32 14t-16 10q0 8 13.5 11.5t64 11.5t104.5 21zM435 318q0 56 -24 84
t-64 28q-52 0 -96 -56t-65.5 -128.5t-21.5 -135.5q0 -38 22.5 -66t70.5 -28q44 0 80.5 36t56.5 87.5t30.5 99t10.5 79.5z" />
    <glyph glyph-name="ydieresis" unicode="&#xff;" horiz-adv-x="500" 
d="M162 399l118 -338q61 77 89 127t28 100q0 36 -27.5 71t-27.5 57q0 21 13.5 33.5t35.5 12.5q27 0 47.5 -22t20.5 -69q0 -130 -200 -370q-163 -195 -274 -195q-43 0 -68 19t-25 46q0 22 14.5 35t37.5 13q27 0 42.5 -16.5t27.5 -32.5t31 -16q38 0 98.5 56t60.5 85
q0 4 -0.5 8t-1.5 9t-4 14.5l-6.5 20l-10 30l-14 41l-19 56l-23.5 71.5q-39 117 -42 123q-9 18 -26 18q-16 0 -28 -18t-26 -61q-10 -31 -16 -31q-7 0 -7 9q0 16 12 55.5t41 80.5t65 41q42 0 64 -63zM137 574q0 21 14.5 35.5t35.5 14.5t35.5 -14.5t14.5 -35.5t-14.5 -35.5
t-35.5 -14.5t-35.5 14.5t-14.5 35.5zM335 574q0 21 14.5 35.5t35.5 14.5t35.5 -14.5t14.5 -35.5t-14.5 -35.5t-35.5 -14.5t-35.5 14.5t-14.5 35.5z" />
    <glyph glyph-name="dotlessi" unicode="&#x131;" horiz-adv-x="315" 
d="M166 42q44 0 71 77q2 5 3.5 9.5l2.5 7.5t2 6.5t2 6t1.5 4.5t1.5 3.5t1.5 2.5t1.5 1.5l2 1t2 0.5q8 0 8 -9q0 -8 -7 -30.5t-21.5 -53.5t-44 -54t-66.5 -23q-38 0 -59.5 24t-21.5 61q0 29 36.5 157t36.5 146q0 32 -31 32q-43 0 -72 -77q-13 -35 -19 -35q-8 0 -8 9
q0 7 7.5 29t22.5 51t44 51t65 22q41 0 61 -22t20 -57q0 -31 -36.5 -163t-36.5 -146q0 -32 31 -32z" />
    <glyph glyph-name="Lslash" unicode="&#x141;" horiz-adv-x="593" 
d="M430 438l-16 -46l-218 -69q-51 -230 -51 -253q0 -21 15 -34.5t45 -13.5q45 0 103 22t94 51q42 34 74 77.5t46 68t20 24.5q11 0 11 -12q0 -4 -1 -8t-4.5 -13l-7.5 -19t-13 -30.5l-19 -43l-26 -61l-34 -80.5q-15 0 -108.5 1t-169.5 1q-61 0 -130.5 -1t-95.5 -1
q-17 0 -17 12q0 10 16 14.5t36.5 5.5t40 14t25.5 39q43 192 47 207l-116 -37l18 47l108 34q58 262 58 268q0 19 -7.5 30t-18.5 14t-22 4t-18.5 4.5t-7.5 11.5q0 14 21 14q16 0 49.5 -1t50.5 -1q21 0 64 1t65 1q20 0 20 -14q0 -8 -13 -10.5t-30 -3.5t-34 -16.5t-24 -45.5
q-45 -202 -49 -223z" />
    <glyph glyph-name="lslash" unicode="&#x142;" horiz-adv-x="296" 
d="M301 483l-11 -38l-112 -53q-72 -305 -72 -318q0 -32 31 -32q43 0 71 77q2 5 3.5 9.5l2.5 7.5t2 6.5t2 6t1.5 4.5t1.5 3.5t1.5 2.5t1.5 1.5l2 1t2 0.5q8 0 8 -9q0 -8 -7 -30.5t-22 -53.5t-45 -54t-69 -23q-38 0 -57.5 22.5t-19.5 59.5q0 36 60 270l-113 -53l11 38l111 52
q54 224 54 249q0 22 -16 32t-32 14t-16 10q0 8 13.5 11.5t64 11.5t104.5 21l-32 -137.5l-27 -113.5t-11 -50z" />
    <glyph glyph-name="OE" unicode="&#x152;" horiz-adv-x="1130" 
d="M418 670q-70 0 -127 -40.5t-91.5 -105.5t-53 -140.5t-18.5 -151.5q0 -116 54.5 -170t145.5 -54q70 0 127 40.5t91.5 105.5t53 140.5t18.5 151.5q0 116 -54.5 170t-145.5 54zM773 656l-65 -288q70 0 107 17t60 52q11 16 17 38.5t10 35t11 12.5q8 0 8 -8q0 -10 -30 -154
q-35 -165 -39 -173q-3 -7 -10 -7q-9 0 -9 13q0 5 2.5 22t2.5 28q0 47 -27.5 73.5t-108.5 26.5l-24 -113.5t-17 -77.5t-10 -44.5t-5.5 -28t-1.5 -16.5q0 -42 69 -42q139 0 253 109q23 22 43 55.5t31.5 54.5t18.5 21q9 0 9 -9q0 -2 -0.5 -4t-2 -6.5t-3.5 -9.5l-6.5 -15.5
l-9.5 -22.5l-13 -31.5l-17.5 -42l-22.5 -55l-28 -68.5q-68 0 -170 1t-120 1q-23 0 -69.5 -1t-69.5 -1l12 60q-104 -74 -222 -74q-135 0 -219.5 93.5t-84.5 212.5q0 92 37 170.5t95.5 128t128 77.5t137.5 28q145 0 237 -114l21 100q18 0 71 -1t95 -1q38 0 103 1t114 1
l9.5 -85t6.5 -58.5t4 -34.5t2.5 -22.5t0.5 -13.5q0 -13 -11 -13q-3 0 -4.5 1t-3.5 3t-3 4.5t-2.5 7.5t-2.5 9t-2.5 11.5t-3.5 13.5q-23 88 -85.5 120.5t-192.5 32.5z" />
    <glyph glyph-name="oe" unicode="&#x153;" horiz-adv-x="759" 
d="M88 126q0 -55 26.5 -85.5t75.5 -30.5q50 0 86.5 51.5t51.5 121.5t15 145q0 116 -96 116q-53 0 -90.5 -51.5t-53 -121t-15.5 -145.5zM715 368q0 -84 -134 -127q-61 -20 -162 -39q0 -59 33.5 -105.5t96.5 -46.5q51 0 98 34l29.5 23t17.5 14.5t7 3.5q7 0 7 -8q0 -5 -9 -18
t-28 -31.5t-43 -35.5t-58.5 -28.5t-70.5 -11.5q-90 0 -138 77q-31 -36 -79 -56.5t-98 -20.5q-82 0 -134 55.5t-52 148.5q0 110 70.5 188t176.5 78q49 0 92 -22t67 -62q39 40 88.5 62t92.5 22q59 0 94.5 -24.5t35.5 -69.5zM639 382q0 62 -57 62q-71 0 -115.5 -71t-47.5 -151
q153 28 190 72q30 35 30 88z" />
    <glyph glyph-name="Scaron" unicode="&#x160;" horiz-adv-x="593" 
d="M412 179q0 40 -32 71t-78 52t-92 44.5t-78 62t-32 90.5q0 79 65.5 137t164.5 58q41 0 78 -12t61.5 -23.5t34.5 -11.5q14 0 25 15.5t17 15.5q11 0 11 -12q0 -3 -18 -125q-4 -31 -10 -72q-5 -38 -7 -46t-10 -8q-3 0 -4.5 0.5t-3 2.5t-2 3.5t-1 4.5t-0.5 5t-0.5 6t-0.5 6
q-17 227 -175 227q-61 0 -98 -38t-37 -92q0 -32 17 -57.5t44.5 -42.5t61 -32.5t67 -33t61 -38.5t44.5 -53.5t17 -74.5q0 -97 -78.5 -160.5t-185.5 -63.5q-64 0 -120 24t-76 24q-22 0 -34 -18t-17 -18q-11 0 -11 8q0 4 2 12l10 41.5l19 82.5q13 61 25 126q5 31 8 38.5t10 7.5
q9 0 10.5 -8.5t1.5 -49.5q0 -246 170 -246q80 0 128 44t48 127zM236 881h36l83 -104l138 104h39l-158 -170h-49z" />
    <glyph glyph-name="scaron" unicode="&#x161;" horiz-adv-x="463" 
d="M402 366q0 -48 -42 -48q-21 0 -34 10.5t-17 23t-8 34.5q-5 31 -19 44.5t-56 13.5t-68.5 -23t-26.5 -55q0 -25 18.5 -43t46.5 -28.5l60 -23.5t60 -27t46.5 -40t18.5 -62q0 -61 -52.5 -105.5t-156.5 -44.5q-82 0 -128 32t-46 82q0 62 47 62q41 0 48 -74q5 -45 21.5 -64.5
t65.5 -19.5q56 0 90.5 26.5t34.5 68.5q0 27 -25.5 46t-62.5 32t-74 27.5t-62.5 41t-25.5 64.5q0 66 53 106t122 40q83 0 127.5 -30t44.5 -66zM136 678h36l83 -104l138 104h39l-158 -170h-49z" />
    <glyph glyph-name="Ydieresis" unicode="&#x178;" horiz-adv-x="593" 
d="M215 318l-106 295q-7 20 -25.5 28.5t-33 11.5t-14.5 13q0 8 5 11t20 3q20 0 60 -1t60 -1q17 0 52 1t53 1q17 0 17 -14q0 -7 -13 -9.5t-28.5 -3.5t-28.5 -12t-13 -31q0 -6 1 -12t4 -17t6.5 -21.5l11 -33l14.5 -42.5l20.5 -58.5l25.5 -73.5q111 119 148 172t37 85
q0 25 -13 34t-26.5 11t-13.5 12q0 14 18 14q20 0 59.5 -1t59.5 -1q14 0 41 1t40 1q16 0 16 -14q0 -5 -3.5 -8t-10.5 -4.5t-19 -6.5t-26 -12.5t-35.5 -25t-44.5 -42.5q-42 -44 -121 -135.5l-98 -112.5l-22.5 -101l-15.5 -69l-9 -39.5t-5 -24t-1 -11.5q0 -23 12 -35t26.5 -13
t26.5 -3.5t12 -10.5q0 -14 -18 -14q-21 0 -58 1t-54 1q-21 0 -66 -1t-71 -1q-12 0 -12 12q0 9 14.5 12.5t32.5 5.5t36.5 17t24.5 44zM218 777q0 21 14.5 35.5t35.5 14.5t35.5 -14.5t14.5 -35.5t-14.5 -35.5t-35.5 -14.5t-35.5 14.5t-14.5 35.5zM416 777q0 21 14.5 35.5
t35.5 14.5t35.5 -14.5t14.5 -35.5t-14.5 -35.5t-35.5 -14.5t-35.5 14.5t-14.5 35.5z" />
    <glyph glyph-name="Zcaron" unicode="&#x17d;" horiz-adv-x="630" 
d="M500 656h-53q-79 0 -141.5 -20t-97.5 -49t-59 -58t-37.5 -49t-20.5 -20q-10 0 -10 10q0 6 95 210q60 0 138 -1t115 -1q57 0 99.5 0.5t64 1t28.5 0.5q10 0 10 -8q0 -2 -2.5 -5.5t-8.5 -10l-10 -10.5l-530 -624h82q158 0 264 110q28 29 48 62.5t28.5 51t14.5 17.5
q11 0 11 -12q0 -3 -1 -6.5t-4 -11.5l-7 -18t-12.5 -29.5l-18.5 -43l-25.5 -62l-33.5 -82.5q-36 0 -108 1t-140 1q-65 0 -134.5 -1t-76.5 -1q-19 0 -19 4q0 2 2.5 4.5l7 7t7.5 8.5zM255 881h36l83 -104l138 104h39l-158 -170h-49z" />
    <glyph glyph-name="zcaron" unicode="&#x17e;" horiz-adv-x="500" 
d="M437 403l-318 -279l2 -2q16 2 25 2q27 0 47.5 -9.5t33 -23.5l24.5 -28t27 -23.5t34 -9.5q25 0 40 12t15 29q0 20 -26 41.5t-26 43.5q0 19 13.5 33t38.5 14q30 0 46 -20t16 -54q0 -20 -9.5 -42.5t-28.5 -44.5t-55.5 -36t-83.5 -14q-43 0 -76.5 19.5t-56 39t-38.5 19.5
q-17 0 -29.5 -12t-19 -27t-19 -27t-29.5 -12q-26 0 -26 26q0 17 17.5 30.5t41 23.5t28.5 14l283 258l-2 2q-8 -2 -32 -2q-41 0 -72 27q-6 6 -19.5 21t-24.5 21.5t-27 6.5q-26 0 -40 -14.5t-14 -34.5q0 -17 9 -28t19.5 -16.5t19.5 -16.5t9 -27q0 -20 -15 -33.5t-41 -13.5
q-27 0 -45 18.5t-18 55.5q0 65 55 108.5t110 43.5q45 0 89 -32q45 -32 72 -32q33 0 53 32q1 2 5.5 9t6 9.5t5 6.5t7 5.5t7.5 1.5q8 0 14.5 -6.5t6.5 -14.5q0 -13 -29 -38zM155 678h36l83 -104l138 104h39l-158 -170h-49z" />
    <glyph glyph-name="florin" unicode="&#x192;" 
d="M198 404h-79q32 21 68.5 64t68.5 85.5t68.5 83.5t80.5 67t91 26q36 0 59 -17.5t23 -49.5q0 -21 -13 -41t-43 -20q-20 0 -32 13.5t-12 39.5q0 7 1 18t1 16q0 11 -22 11q-58 0 -103 -70.5t-55 -175.5h111l-22 -50h-98l-24 -93t-26.5 -97t-33.5 -102l-38 -93t-45 -86
t-51 -65t-61 -47t-69 -15q-31 0 -47 14t-16 36q0 25 15 41.5t44 16.5q21 0 36 -12.5t24.5 -25t17.5 -12.5q27 0 46.5 24.5t34 78t26 111.5t32 152.5t42.5 173.5z" />
    <glyph glyph-name="circumflex" unicode="&#x2c6;" horiz-adv-x="315" 
d="M316 508h-36l-83 104l-138 -104h-39l158 170h49z" />
    <glyph glyph-name="caron" unicode="&#x2c7;" horiz-adv-x="315" 
d="M62 678h36l83 -104l138 104h39l-158 -170h-49z" />
    <glyph glyph-name="uni02C9" unicode="&#x2c9;" horiz-adv-x="315" 
d="M347 600l-11 -50h-301l11 50h301z" />
    <glyph glyph-name="breve" unicode="&#x2d8;" horiz-adv-x="315" 
d="M326 668h28q-15 -66 -56.5 -113t-110.5 -47q-75 0 -104.5 43t-30.5 117h30q2 -47 30.5 -74.5t78.5 -27.5q92 0 135 102z" />
    <glyph glyph-name="dotaccent" unicode="&#x2d9;" horiz-adv-x="315" 
d="M142 574q0 21 14.5 35.5t35.5 14.5t35.5 -14.5t14.5 -35.5t-14.5 -35.5t-35.5 -14.5t-35.5 14.5t-14.5 35.5z" />
    <glyph glyph-name="ring" unicode="&#x2da;" horiz-adv-x="315" 
d="M95 608q0 41 29 70.5t71 29.5q41 0 70.5 -29.5t29.5 -70.5t-29.5 -70.5t-70.5 -29.5q-42 0 -71 29.5t-29 70.5zM129 608q0 -27 19 -46.5t47 -19.5q27 0 46.5 19.5t19.5 46.5t-19.5 46.5t-46.5 19.5q-28 0 -47 -19.5t-19 -46.5z" />
    <glyph glyph-name="ogonek" unicode="&#x2db;" horiz-adv-x="315" 
d="M221 18v-9q-174 -55 -174 -139q0 -16 12.5 -27t32.5 -11q37 0 112 43l14 -28q-93 -59 -154 -59q-42 0 -66.5 20t-24.5 52q0 116 248 158z" />
    <glyph glyph-name="tilde" unicode="&#x2dc;" horiz-adv-x="315" 
d="M334 642h28q-7 -44 -32 -74t-63 -30q-30 0 -78 23t-72 23q-20 0 -33.5 -13.5t-17.5 -34.5h-30q23 106 98 106q31 0 81 -23q52 -23 70 -23q20 0 30.5 11.5t18.5 34.5z" />
    <glyph glyph-name="hungarumlaut" unicode="&#x2dd;" horiz-adv-x="315" 
d="M78 508h-28l123 142q2 2 8.5 10t10 11.5t10.5 7t15 3.5q12 0 21.5 -9t9.5 -24q0 -20 -27 -40zM220 508h-34l149 145q2 2 6.5 6t7 6.5t7 6t8 5.5t8 3.5t8.5 1.5q12 0 22 -9.5t10 -25.5q0 -20 -28 -38z" />
    <glyph glyph-name="uni03A9" unicode="&#x3a9;" horiz-adv-x="728" 
d="M633 139l-57 -139h-235l-3 19l40 49q40 49 54 69l44 65t47 84.5t26 80.5q33 145 -7 213.5t-122 68.5q-87 0 -155.5 -69t-102.5 -218q-5 -20 -7 -41l-3.5 -38t1 -39t3.5 -35.5t6.5 -36.5t7.5 -32.5t9.5 -33.5t9.5 -29.5l11 -30t10 -27.5l-12 -19h-232l9 139l24 2
q4 -47 16 -61t42 -14h105q-16 17 -27.5 30.5t-28 36.5t-26 46.5t-17.5 53t-7.5 64.5t9.5 72q32 140 135 225t229 85q128 0 189.5 -81t29.5 -220q-11 -49 -37 -95.5t-64 -87.5t-68.5 -68.5t-72.5 -60.5h110q32 0 48.5 13t43.5 62z" />
    <glyph glyph-name="uni03BC" unicode="&#x3bc;" horiz-adv-x="611" 
d="M373 269l46 189q26 -6 46 -6t39 6l-19.5 -96.5l-20.5 -98t-16 -80t-12 -68.5t-4 -37q0 -36 31 -36q43 0 71 77q2 5 3.5 9.5l2.5 7.5t2 6.5t2 6t1.5 4.5t1.5 3.5t1.5 2.5t1.5 1.5l2 1t2 0.5q8 0 8 -9q0 -8 -7 -30.5t-21.5 -53.5t-45 -54t-69.5 -23q-38 0 -57.5 22.5
t-19.5 59.5q0 23 7 70l-2 2q-42 -81 -86.5 -117.5t-99.5 -36.5q-21 0 -39 5l-12.5 -52t-10 -44t-8 -34.5t-8.5 -27.5t-10 -18t-14.5 -11.5t-19.5 -3.5q-20 0 -32 12t-12 32q0 13 27 133l64 284q4 20 11 47.5t10.5 42.5t3.5 23q0 32 -31 32q-44 0 -71 -77q-2 -5 -3.5 -9.5
l-2.5 -7.5t-2 -6.5t-2 -6t-1.5 -4.5t-1.5 -3.5t-1.5 -2.5t-1.5 -1.5l-2 -1t-2 -0.5q-8 0 -8 9q0 8 7 30.5t21.5 53.5t44 54t66.5 23q39 0 60 -23t21 -59q0 -32 -29 -152t-29 -148q0 -23 13 -36.5t38 -13.5q35 0 67.5 28.5t54.5 70.5t36 77.5t21 62.5z" />
    <glyph glyph-name="pi" unicode="&#x3c0;" horiz-adv-x="560" 
d="M523 462l21 -9q-23 -53 -55 -87q-21 -5 -69 -5q-15 -46 -57 -228q-20 -88 23 -88q24 0 56 29l8 -20q-51 -66 -117 -66q-42 0 -58 27.5t0 97.5q21 94 68 251q-116 2 -156 2l-4 -18q-24 -101 -56.5 -182.5t-54 -115t-34.5 -45.5q-39 -14 -61 -17l-2 17q62 60 107.5 163.5
t67.5 198.5q-45 0 -72.5 -10.5t-65.5 -34.5l-9 21l11.5 11.5t13 12t13.5 11.5t15.5 12.5l16.5 10.5t19 10.5l20 8.5t23.5 7t25.5 3.5t29 1.5q34 0 124.5 -1.5t141.5 -1.5q23 0 36.5 6.5t30.5 26.5z" />
    <glyph glyph-name="endash" unicode="&#x2013;" horiz-adv-x="500" 
d="M-38 256h514l-14 -58h-514z" />
    <glyph glyph-name="emdash" unicode="&#x2014;" horiz-adv-x="1000" 
d="M-38 256h1014l-14 -58h-1014z" />
    <glyph glyph-name="quoteleft" unicode="&#x2018;" horiz-adv-x="222" 
d="M52 531q0 68 73 147q26 28 49.5 44t31.5 16q10 0 10 -11q0 -4 -6 -8.5l-21.5 -16.5t-30.5 -28q-48 -50 -48 -84q0 -17 26 -24q22 -6 32 -17t10 -33q0 -24 -18 -41t-46 -17q-27 0 -44.5 19t-17.5 54z" />
    <glyph glyph-name="quoteright" unicode="&#x2019;" horiz-adv-x="222" 
d="M244 657q0 -68 -73 -147q-26 -28 -49.5 -44t-31.5 -16q-10 0 -10 11q0 4 6 8.5l21.5 16.5t30.5 28q48 50 48 84q0 17 -26 24q-22 6 -32 17t-10 33q0 24 18 41t46 17q27 0 44.5 -19t17.5 -54z" />
    <glyph glyph-name="quotesinglbase" unicode="&#x201a;" horiz-adv-x="222" 
d="M94 31q0 -68 -73 -147q-26 -28 -49.5 -44t-31.5 -16q-10 0 -10 11q0 4 6 8.5l21.5 16.5t30.5 28q48 50 48 84q0 17 -26 24q-22 6 -32 17t-10 33q0 24 18 41t46 17q27 0 44.5 -19t17.5 -54z" />
    <glyph glyph-name="quotedblleft" unicode="&#x201c;" horiz-adv-x="444" 
d="M274 531q0 68 73 147q26 28 49.5 44t31.5 16q10 0 10 -11q0 -4 -6 -8.5l-21.5 -16.5t-30.5 -28q-48 -50 -48 -84q0 -17 26 -24q22 -6 32 -17t10 -33q0 -24 -18 -41t-46 -17q-27 0 -44.5 19t-17.5 54zM70 531q0 68 73 147q26 28 49.5 44t31.5 16q10 0 10 -11q0 -4 -6 -8.5
l-21.5 -16.5t-30.5 -28q-48 -50 -48 -84q0 -17 26 -24q22 -6 32 -17t10 -33q0 -24 -18 -41t-46 -17q-27 0 -44.5 19t-17.5 54z" />
    <glyph glyph-name="quotedblright" unicode="&#x201d;" horiz-adv-x="444" 
d="M244 657q0 -68 -73 -147q-26 -28 -49.5 -44t-31.5 -16q-10 0 -10 11q0 4 6 8.5l21.5 16.5t30.5 28q48 50 48 84q0 17 -26 24q-22 6 -32 17t-10 33q0 24 18 41t46 17q27 0 44.5 -19t17.5 -54zM448 657q0 -68 -73 -147q-26 -28 -49.5 -44t-31.5 -16q-10 0 -10 11q0 4 6 8.5
l21.5 16.5t30.5 28q48 50 48 84q0 17 -26 24q-22 6 -32 17t-10 33q0 24 18 41t46 17q27 0 44.5 -19t17.5 -54z" />
    <glyph glyph-name="quotedblbase" unicode="&#x201e;" horiz-adv-x="444" 
d="M94 27q0 -68 -73 -147q-26 -28 -49.5 -44t-31.5 -16q-10 0 -10 11q0 4 6 8.5l21.5 16.5t30.5 28q48 50 48 84q0 17 -26 24q-22 6 -32 17t-10 33q0 24 18 41t46 17q27 0 44.5 -19t17.5 -54zM298 27q0 -68 -73 -147q-26 -28 -49.5 -44t-31.5 -16q-10 0 -10 11q0 4 6 8.5
l21.5 16.5t30.5 28q48 50 48 84q0 17 -26 24q-22 6 -32 17t-10 33q0 24 18 41t46 17q27 0 44.5 -19t17.5 -54z" />
    <glyph glyph-name="dagger" unicode="&#x2020;" horiz-adv-x="500" 
d="M147 -104h-24q67 334 67 459q53 53 53 85q0 18 -29 18q-15 0 -55.5 -14t-60.5 -14q-44 0 -44 35q0 23 17.5 36t48.5 13q21 0 57.5 -19t49.5 -19q17 0 23 12t6 39q0 9 -6.5 38t-6.5 47q0 33 17 57.5t44 24.5q41 0 41 -42q0 -32 -35.5 -88t-35.5 -66q0 -22 19 -22
q20 0 71.5 19t60.5 19q18 0 27.5 -12.5t9.5 -28.5q0 -22 -16 -34.5t-45 -12.5q-21 0 -57 16t-54 16q-29 0 -29 -30q0 -49 19 -72q-50 -99 -73.5 -182t-59.5 -278z" />
    <glyph glyph-name="daggerdbl" unicode="&#x2021;" horiz-adv-x="500" 
d="M304 694q41 0 41 -42q0 -32 -35.5 -88t-35.5 -66q0 -22 19 -22q20 0 71.5 19t60.5 19q18 0 27.5 -12.5t9.5 -28.5q0 -22 -16 -34.5t-45 -12.5q-21 0 -57 16t-54 16q-29 0 -29 -30q0 -40 18 -67q-37 -57 -37 -96q0 -15 11 -44q-53 -53 -53 -85q0 -18 29 -18q15 0 55.5 14
t60.5 14q44 0 44 -35q0 -23 -17.5 -36t-48.5 -13q-21 0 -57.5 19t-49.5 19q-17 0 -23 -12t-6 -39q0 -9 6.5 -38t6.5 -47q0 -33 -17 -57.5t-44 -24.5q-41 0 -41 42q0 32 35.5 88t35.5 66q0 22 -19 22q-20 0 -71.5 -19t-60.5 -19q-18 0 -27.5 12.5t-9.5 28.5q0 22 16 34.5
t45 12.5q20 0 57 -16t54 -16q29 0 29 30q0 49 -19 68q16 23 26.5 52t10.5 46q0 26 -8 47q51 48 51 79q0 18 -29 18q-15 0 -55.5 -14t-60.5 -14q-44 0 -44 35q0 23 17.5 36t48.5 13q21 0 57.5 -19t49.5 -19q17 0 23 12t6 39q0 9 -6.5 38t-6.5 47q0 33 17 57.5t44 24.5z" />
    <glyph glyph-name="bullet" unicode="&#x2022;" horiz-adv-x="500" 
d="M54 339q0 70 49.5 119.5t119.5 49.5t119.5 -49.5t49.5 -119.5t-49.5 -119.5t-119.5 -49.5t-119.5 49.5t-49.5 119.5z" />
    <glyph glyph-name="ellipsis" unicode="&#x2026;" horiz-adv-x="1000" 
d="M104 104q20 0 34 -12t14 -32q0 -31 -18 -49.5t-46 -18.5q-20 0 -34 12t-14 32q0 31 18 49.5t46 18.5zM437 104q20 0 34 -12t14 -32q0 -31 -18 -49.5t-46 -18.5q-20 0 -34 12t-14 32q0 31 18 49.5t46 18.5zM770 104q20 0 34 -12t14 -32q0 -31 -18 -49.5t-46 -18.5
q-20 0 -34 12t-14 32q0 31 18 49.5t46 18.5z" />
    <glyph glyph-name="perthousand" unicode="&#x2030;" horiz-adv-x="1000" 
d="M864 340q-33 0 -60 -49t-40.5 -110.5t-13.5 -112.5q0 -33 10.5 -45.5t35.5 -12.5q33 0 60 49t40.5 110.5t13.5 112.5q0 33 -10.5 45.5t-35.5 12.5zM618 686h46l-627 -694h-47zM200 668q-33 0 -60 -49t-40.5 -110.5t-13.5 -112.5q0 -33 10.5 -45.5t35.5 -12.5q33 0 60 49
t40.5 110.5t13.5 112.5q0 33 -10.5 45.5t-35.5 12.5zM861 358q50 0 85.5 -34.5t35.5 -98.5q0 -95 -51.5 -164t-134.5 -69q-53 0 -85.5 33.5t-32.5 95.5q0 97 51 167t132 70zM197 686q50 0 85.5 -34.5t35.5 -98.5q0 -95 -51.5 -164t-134.5 -69q-53 0 -85.5 33.5t-32.5 95.5
q0 97 51 167t132 70zM503 358q50 0 85.5 -34.5t35.5 -98.5q0 -95 -51.5 -164t-134.5 -69q-53 0 -85.5 33.5t-32.5 95.5q0 97 51 167t132 70zM506 340q-33 0 -60 -49t-40.5 -110.5t-13.5 -112.5q0 -33 10.5 -45.5t35.5 -12.5q33 0 60 49t40.5 110.5t13.5 112.5
q0 33 -10.5 45.5t-35.5 12.5z" />
    <glyph glyph-name="guilsinglleft" unicode="&#x2039;" horiz-adv-x="333" 
d="M14 222q0 6 27 29l56 47l106 93q25 22 28 22q9 0 9 -9q0 -5 -16 -23l-60 -64.5l-85 -92.5q87 -168 87 -171q0 -12 -13 -12q-5 0 -9.5 5t-23.5 31l-38 51q-15 21 -29 38.5l-20.5 25.5t-11 14.5t-6 9.5t-1.5 6z" />
    <glyph glyph-name="guilsinglright" unicode="&#x203a;" horiz-adv-x="333" 
d="M239 232q0 -6 -27 -29l-56 -47l-106 -93q-25 -22 -28 -22q-9 0 -9 9q0 5 16 23l60 64.5l85 92.5q-87 168 -87 171q0 12 13 12q5 0 9.5 -5t23.5 -31l38 -51q15 -21 29 -38.5l20.5 -25.5t11 -14.5t6 -9.5t1.5 -6z" />
    <glyph glyph-name="fraction" unicode="&#x2044;" horiz-adv-x="167" 
d="M257 686h77l-424 -694h-77z" />
    <glyph glyph-name="Euro" unicode="&#x20ac;" 
d="M367 312l-6 -30h-194q-9 -61 -9 -107q0 -78 25.5 -118.5t68.5 -40.5q69 0 128 55.5t85 140.5q7 23 17 23t7 -16l-44 -211q-3 -16 -15 -16q-6 0 -9 23t-20 23q-10 0 -30.5 -11.5t-54.5 -23t-76 -11.5q-85 0 -132 67.5t-47 174.5q0 24 3 48h-74l6 30h72q1 9 5 27
q5 22 16 56h-75l6 30h80q47 112 134.5 186.5t163.5 74.5q37 0 64.5 -13.5t44 -27t26.5 -13.5q15 0 25 25t19 25t6 -16l-48 -224q-3 -16 -13 -16q-11 0 -11 48q0 188 -118 188q-57 0 -107.5 -60.5t-85.5 -176.5h191l-6 -30h-194q-6 -23 -13 -56q-1 -4 -2.5 -13t-2.5 -14h194z
" />
    <glyph glyph-name="afii61289" unicode="&#x2113;" horiz-adv-x="405" 
d="M304 120l15 -17q-84 -109 -189 -109q-66 0 -91 38q-13 22 -13.5 51t12.5 91l18 78l-69 -44l-7 23l84 57l29 125q28 121 50 172.5t62 87.5q47 46 96 46q43 0 57.5 -37t1.5 -92q-18 -80 -71.5 -148t-140.5 -139l-20 -89q-20 -97 -7.5 -131.5t57.5 -34.5q60 0 126 72z
M187 471l-29 -124q55 51 96 114.5t55 126.5q11 43 5 72t-28 29q-27 0 -49 -48.5t-50 -169.5z" />
    <glyph glyph-name="trademark" unicode="&#x2122;" horiz-adv-x="990" 
d="M239 654v-289q0 -37 5.5 -43t43.5 -10v-24h-165v24q37 4 42.5 10t5.5 43v289h-48q-51 0 -68 -67h-20v91h339v-91h-20q-15 67 -66 67h-49zM668 284l-152 301h-2v-212q0 -32 10.5 -45t41.5 -16v-24h-130v24q31 3 40.5 15.5t9.5 45.5v232q0 20 -21.5 34.5t-44.5 14.5v24h125
l147 -285l154 285h108v-24q-31 -1 -43.5 -15t-12.5 -41v-233q0 -37 5.5 -43t43.5 -10v-24h-163v18q36 4 41 10.5t5 48.5v207h-2l-151 -288h-9z" />
    <glyph glyph-name="Omega" unicode="&#x2126;" horiz-adv-x="728" 
d="M633 139l-57 -139h-235l-3 19l40 49q40 49 54 69l44 65t47 84.5t26 80.5q33 145 -7 213.5t-122 68.5q-87 0 -155.5 -69t-102.5 -218q-5 -20 -7 -41l-3.5 -38t1 -39t3.5 -35.5t6.5 -36.5t7.5 -32.5t9.5 -33.5t9.5 -29.5l11 -30t10 -27.5l-12 -19h-232l9 139l24 2
q4 -47 16 -61t42 -14h105q-16 17 -27.5 30.5t-28 36.5t-26 46.5t-17.5 53t-7.5 64.5t9.5 72q32 140 135 225t229 85q128 0 189.5 -81t29.5 -220q-11 -49 -37 -95.5t-64 -87.5t-68.5 -68.5t-72.5 -60.5h110q32 0 48.5 13t43.5 62z" />
    <glyph glyph-name="estimated" unicode="&#x212e;" horiz-adv-x="901" 
d="M868 329h-623q-6 0 -6 -4v-189q0 -12 9 -21q98 -103 235 -103q149 0 248 115h56q-53 -62 -133.5 -98t-171.5 -36q-159 0 -271.5 101t-112.5 244q0 144 112.5 245t271.5 101q161 0 273.5 -101t112.5 -245v-9zM726 353v190q0 13 -9 23q-100 98 -234 98q-135 0 -234 -102
q-10 -9 -10 -23v-186q0 -6 6 -6h477q4 0 4 6z" />
    <glyph glyph-name="partialdiff" unicode="&#x2202;" horiz-adv-x="526" 
d="M266 425h1q37 0 70 -18t48 -52q24 69 32 103q22 86 10 155q-8 38 -37 66t-72 28q-67 0 -150 -57q-8 -1 -14.5 10t-7 24.5t6.5 26.5q74 41 149 41q131 0 173 -138q28 -95 -4 -226q-31 -143 -103 -245q-105 -149 -237 -149q-83 0 -120 53t-16 143q21 93 95 162q36 33 83 53
t93 20zM278 386h-1q-67 0 -121 -57q-61 -69 -86 -179q-13 -54 5 -90t63 -36q67 0 138 102q48 68 92 188q-6 25 -30 48.5t-60 23.5z" />
    <glyph glyph-name="Delta" unicode="&#x2206;" horiz-adv-x="629" 
d="M501 0h-558l6 24l404 643l41 11l113 -654zM406 46l-84 511l-316 -511h400z" />
    <glyph glyph-name="product" unicode="&#x220f;" horiz-adv-x="741" 
d="M713 671v-25q-63 -4 -76.5 -15t-13.5 -52v-560q0 -48 14 -60.5t74 -16.5v-25h-255v25q59 5 71 15.5t12 61.5v588q0 21 -6.5 26.5t-28.5 5.5h-207q-21 0 -27 -5t-6 -23v-592q0 -49 10.5 -60.5t64.5 -16.5v-25h-247v25q60 4 73.5 16.5t13.5 60.5v560q0 42 -13.5 52.5
t-76.5 14.5v25h624z" />
    <glyph glyph-name="summation" unicode="&#x2211;" horiz-adv-x="610" 
d="M587 97l-42 -184h-455v24l222 336l-216 375v23h449q0 -4 12 -158l-27 -5q-11 66 -33 101q-10 18 -29.5 24.5t-72.5 6.5h-193l184 -313l-221 -341h258q66 0 87 17.5t51 100.5z" />
    <glyph glyph-name="minus" unicode="&#x2212;" horiz-adv-x="600" 
d="M498 196h-454v62h454v-62z" />
    <glyph glyph-name="uni2215" unicode="&#x2215;" horiz-adv-x="167" 
d="M257 686h77l-424 -694h-77z" />
    <glyph glyph-name="uni2219" unicode="&#x2219;" horiz-adv-x="278" 
d="M52 227q0 23 16.5 39.5t39.5 16.5t39.5 -16.5t16.5 -39.5t-16.5 -39.5t-39.5 -16.5t-39.5 16.5t-16.5 39.5z" />
    <glyph glyph-name="radical" unicode="&#x221a;" horiz-adv-x="608" 
d="M592 859l-164 -1001l-20 -11l-215 534l-85 -42l-12 32l153 72l167 -429h2l136 854z" />
    <glyph glyph-name="infinity" unicode="&#x221e;" horiz-adv-x="746" 
d="M699 278v-1q0 -70 -44 -113.5t-104 -43.5q-43 0 -83.5 26t-89.5 86q-47 -54 -87 -83t-92 -29q-60 0 -103 44t-43 109q0 67 43.5 111t109.5 44q49 0 90.5 -29t84.5 -82q3 3 9 10q29 33 46.5 49.5t51 34t69.5 17.5q62 0 102 -41.5t40 -108.5zM206 172h1q11 0 21.5 3t19 6
t20 11.5l17.5 13t17.5 16t15 15.5l16 18t14.5 16l-25.5 32t-24 26.5t-29.5 26t-30.5 14.5t-37.5 7q-42 0 -67.5 -30t-25.5 -75q0 -42 27.5 -71t70.5 -29zM552 377h-1q-22 0 -46 -13t-35 -22.5t-36 -37.5l-26 -28q50 -58 80.5 -81t65.5 -23q41 0 66 31t25 70q0 47 -26 75.5
t-67 28.5z" />
    <glyph glyph-name="integral" unicode="&#x222b;" horiz-adv-x="432" 
d="M224 14l-19 398q-20 407 149 407q21 0 39.5 -12t19.5 -33q0 -20 -12.5 -31t-30.5 -11q-16 0 -28 22.5t-23 22.5q-48 0 -41 -164l18 -372q21 -434 -150 -434q-26 0 -42.5 14t-16.5 33q-1 18 14 31.5t35 13.5q14 0 26 -24t22 -24q22 0 33 44.5t7 118.5z" />
    <glyph glyph-name="approxequal" unicode="&#x2248;" horiz-adv-x="538" 
d="M462 419l35 -32q-50 -92 -126 -92q-27 0 -49.5 8.5t-60.5 30.5q-56 31 -87 31q-30 0 -51 -18t-43 -51l-36 30q22 43 58 68t78 25q13 0 25 -2t25 -7.5l19 -8t20 -10.5t16 -9t9.5 -5.5t9.5 -5.5t8.5 -5t8.5 -5t8 -3.5l8.5 -3.5t7.5 -2.5t9 -2t8.5 -1t9.5 -0.5
q27 0 47.5 17.5t42.5 53.5zM462 252l35 -32q-48 -92 -126 -92q-43 0 -110 39q-55 32 -87 32q-30 0 -50.5 -18.5t-43.5 -52.5l-36 31q22 43 58 68t78 25q13 0 25.5 -2t25 -7t19 -8.5l19.5 -11t16 -8.5q3 -2 16.5 -10t18 -10l15 -6.5t19 -6t18.5 -1.5q27 0 47 17t43 54z" />
    <glyph glyph-name="notequal" unicode="&#x2260;" horiz-adv-x="558" 
d="M408 484l-41 -90h143v-55h-165l-61 -135h226v-55h-248l-50 -111l-44 19l42 92h-139v55h161l61 135h-222v55h244l49 109z" />
    <glyph glyph-name="lessequal" unicode="&#x2264;" horiz-adv-x="576" 
d="M526 96l-431 214v58l431 213v-64l-374 -177v-2l374 -178v-64zM529 2h-439v56h439v-56z" />
    <glyph glyph-name="greaterequal" unicode="&#x2265;" horiz-adv-x="576" 
d="M96 581l431 -213v-59l-431 -213v64l373 178v2l-373 177v64zM528 2h-437v56h437v-56z" />
    <glyph glyph-name="lozenge" unicode="&#x25ca;" horiz-adv-x="615" 
d="M569 323l-196 -392h-64l-195 392l196 394h63zM506 323l-162 334h-4l-164 -333l165 -335h3z" />
    </font>
</defs>
</svg>
