<?xml version="1.0" standalone="no"?>
<!DOCTYPE svg PUBLIC "-//W3C//DTD SVG 1.1//EN" "http://www.w3.org/Graphics/SVG/1.1/DTD/svg11.dtd" >
<svg>
<metadata>
Created by FontForge 20090622 at Thu Aug  6 21:39:51 2015
 By deploy user
Copyright &#194;&#169; 1990, 2001 Adobe Systems Incorporated.  All Rights Reserved.
</metadata>
<defs>
<font id="Caslon224Std-Bold" horiz-adv-x="593" >
  <font-face 
    font-family="ITC Caslon 224 Std Medium"
    font-weight="700"
    font-stretch="normal"
    units-per-em="1000"
    panose-1="2 3 7 3 8 5 6 2 4 4"
    ascent="730"
    descent="-270"
    x-height="456"
    cap-height="680"
    bbox="-167 -218 1143 927"
    underline-thickness="50"
    underline-position="-50"
    unicode-range="U+0020-U+FB02"
  />
<missing-glyph horiz-adv-x="500" 
d="M0 0v700h500v-700h-500zM250 395l170 255h-340zM280 350l170 -255v510zM80 50h340l-170 255zM50 605v-510l170 255z" />
    <glyph glyph-name="fi" unicode="fi" horiz-adv-x="611" 
d="M90 406h-62q35 29 60.5 77.5t41.5 92.5t37.5 85t63 66t103.5 25q61 0 98.5 -32t37.5 -80q0 -26 -18.5 -45t-41.5 -19q-31 0 -48.5 16t-17.5 45q0 12 4 30.5t4 26.5q0 15 -12.5 24.5t-31.5 9.5q-92 0 -92 -148v-126h188q68 0 122 8v-382q0 -27 11 -40.5t24 -14.5t24 -4
t11 -11q0 -12 -12 -12q-10 0 -50.5 1t-70.5 1t-70.5 -1t-50.5 -1q-12 0 -12 12q0 8 11 11t24 4t24 14.5t11 40.5v286q0 40 -34 40h-150v-326q0 -27 11 -40.5t24 -14.5t24 -4t11 -11q0 -12 -12 -12q-10 0 -50.5 1t-70.5 1t-70.5 -1t-50.5 -1q-12 0 -12 12q0 8 11 11t24 4
t24 14.5t11 40.5v326z" />
    <glyph glyph-name="fl" unicode="fl" horiz-adv-x="611" 
d="M90 406h-62q34 28 59 76t41 92t37.5 86t62.5 67t102 25q72 0 124 -52l72 30v-650q0 -27 11 -40.5t24 -14.5t24 -4t11 -11q0 -12 -12 -12q-10 0 -50.5 1t-70.5 1t-70.5 -1t-50.5 -1q-12 0 -12 12q0 8 11 11t24 4t24 14.5t11 40.5v496q-25 0 -40.5 16.5t-15.5 44.5
q0 12 4 30.5t4 26.5q0 15 -12.5 24.5t-31.5 9.5q-92 0 -92 -148v-126h110l-14 -48h-96v-326q0 -27 11 -40.5t24 -14.5t24 -4t11 -11q0 -12 -12 -12q-10 0 -50.5 1t-70.5 1t-70.5 -1t-50.5 -1q-12 0 -12 12q0 8 11 11t24 4t24 14.5t11 40.5v326z" />
    <glyph glyph-name=".notdef" horiz-adv-x="500" 
d="M0 0v700h500v-700h-500zM250 395l170 255h-340zM280 350l170 -255v510zM80 50h340l-170 255zM50 605v-510l170 255z" />
    <glyph glyph-name=".null" horiz-adv-x="0" 
 />
    <glyph glyph-name="nonmarkingreturn" horiz-adv-x="333" 
 />
    <glyph glyph-name="space" unicode=" " horiz-adv-x="296" 
 />
    <glyph glyph-name="exclam" unicode="!" horiz-adv-x="278" 
d="M58 580q0 114 81 114t81 -114q0 -58 -28 -166.5t-38 -163.5q-2 -12 -2.5 -31.5t-2.5 -28t-10 -8.5t-10 8.5t-2.5 28t-2.5 31.5q-10 59 -38 166t-28 164zM66 65q0 30 21.5 51.5t51.5 21.5q31 0 52 -21.5t21 -51.5q0 -31 -21 -52t-52 -21q-30 0 -51.5 21t-21.5 52z" />
    <glyph glyph-name="quotedbl" unicode="&#x22;" horiz-adv-x="333" 
d="M62 416l-17 188q-2 24 -2 34q0 56 42 56t42 -56q0 -10 -2 -34l-17 -188q-3 -30 -23 -30t-23 30zM224 416l-17 188q-2 24 -2 34q0 56 42 56t42 -56q0 -10 -2 -34l-17 -188q-3 -30 -23 -30t-23 30z" />
    <glyph glyph-name="numbersign" unicode="#" 
d="M514 276v-74h-94l-28 -202h-82l29 202h-118l-28 -202h-82l29 202h-90v74h102l17 126h-90v74h101l29 202h81l-28 -202h117l29 202h81l-28 -202h81v-74h-93l-16 -126h81zM368 402h-118l-16 -126h117z" />
    <glyph glyph-name="dollar" unicode="$" 
d="M88 41v251q0 16 12 16q11 0 13.5 -15l8.5 -52.5t22 -74.5l71 159q-52 26 -81.5 62.5t-29.5 96.5q0 75 51.5 127.5t135.5 52.5q40 0 70 -11l45 101h28l-49 -110q9 -3 20 -7.5t17 -6.5t9 -2q10 0 21 15l49 111h29l-52 -118l9 -154q2 -22 2 -40q0 -10 -7 -10t-9 9
t-10.5 38.5t-25.5 63.5l-63 -141q72 -35 111 -79.5t39 -109.5q0 -87 -64 -137t-154 -50q-55 0 -93 15l-61 -135h-28l64 144q-48 20 -54 20q-5 0 -5 -1l-73 -163h-28zM319 280l-96 -216q34 -20 75 -20q58 0 91 30t33 85q0 46 -27 73t-76 48zM269 447l83 186q-28 13 -56 13
q-47 0 -71.5 -26.5t-24.5 -68.5q0 -71 69 -104zM375 621l-82 -185l56 -23l72 160q-19 29 -46 48zM201 80l94 211q-51 21 -56 24l-80 -179q18 -35 42 -56z" />
    <glyph glyph-name="percent" unicode="%" horiz-adv-x="833" 
d="M139 492q0 -176 74 -176t74 176t-74 176t-74 -176zM589 686h56l-410 -694h-56zM545 186q0 -176 74 -176t74 176t-74 176t-74 -176zM43 492q0 92 49 143t121 51t121 -51t49 -143t-49 -143t-121 -51t-121 51t-49 143zM449 186q0 92 49 143t121 51t121 -51t49 -143t-49 -143
t-121 -51t-121 51t-49 143z" />
    <glyph glyph-name="ampersand" unicode="&#x26;" horiz-adv-x="815" 
d="M372 406q37 10 60.5 45.5t23.5 94.5q0 58 -31 91t-79 33q-42 0 -68 -30.5t-26 -75.5q0 -20 6 -38t12 -29.5t22.5 -27.5t23 -21.5t29.5 -22zM504 542q0 -47 -29 -89.5t-83 -60.5q106 -69 184 -188q36 62 36 129q0 35 -13 54.5t-29 22.5t-29 6.5t-13 10.5q0 11 18 11
q17 0 50.5 -1t50.5 -1q15 0 52 1t63 1q18 0 18 -8t-8.5 -11t-27 -8.5t-33.5 -17.5q-22 -18 -37.5 -45t-37.5 -74.5t-48 -89.5q73 -146 154 -146q32 0 48 21.5t20 49.5q2 15 13 15t11 -14q0 -56 -48 -91t-115 -35q-41 0 -77.5 17t-52 31t-45.5 45q-114 -93 -233 -93
q-92 0 -155.5 54t-63.5 150q0 61 42.5 112t113.5 78q-38 37 -53 68.5t-15 75.5q0 67 56 119.5t145 52.5q79 0 125 -45.5t46 -106.5zM170 253q0 -107 55.5 -161t120.5 -54q73 0 137 56q-60 93 -115.5 149.5t-151.5 118.5q-46 -30 -46 -109z" />
    <glyph glyph-name="quotesingle" unicode="'" horiz-adv-x="222" 
d="M88 416l-17 188q-2 24 -2 34q0 56 42 56t42 -56q0 -10 -2 -34l-17 -188q-3 -30 -23 -30t-23 30z" />
    <glyph glyph-name="parenleft" unicode="(" horiz-adv-x="407" 
d="M72 259q0 110 44.5 211t113.5 168q30 29 65.5 51.5t58 31.5t30.5 9t8 -10q0 -3 -20.5 -12t-52 -32.5t-52.5 -58.5q-69 -115 -69 -358t69 -358q21 -35 52.5 -58.5t52 -32.5t20.5 -12q0 -10 -8 -10t-30.5 9t-58 31.5t-65.5 51.5q-69 67 -113.5 168t-44.5 211z" />
    <glyph glyph-name="parenright" unicode=")" horiz-adv-x="407" 
d="M335 259q0 -110 -44.5 -211t-113.5 -168q-30 -29 -65.5 -51.5t-58 -31.5t-30.5 -9t-8 10q0 3 20.5 12t52 32.5t52.5 58.5q69 115 69 358t-69 358q-21 35 -52.5 58.5t-52 32.5t-20.5 12q0 10 8 10t30.5 -9t58 -31.5t65.5 -51.5q69 -67 113.5 -168t44.5 -211z" />
    <glyph glyph-name="asterisk" unicode="*" horiz-adv-x="500" 
d="M252 540h-2q-6 16 -18.5 40t-19 40t-6.5 27q0 47 45 47q19 0 32 -12.5t13 -33.5q0 -12 -6.5 -28t-19 -40.5t-18.5 -39.5zM278 522v2q14 15 33.5 44t35 42.5t36.5 13.5q20 0 31.5 -13.5t11.5 -32.5q0 -24 -22 -39q-27 -17 -126 -17zM222 524v-2q-99 0 -126 17
q-22 15 -22 39q0 19 11.5 32.5t31.5 13.5q21 0 36.5 -13.5t35 -42.5t33.5 -44zM278 484v2q99 0 126 -17q22 -15 22 -39q0 -19 -11.5 -32.5t-31.5 -13.5q-21 0 -36.5 13.5t-35 42.5t-33.5 44zM250 470h2q6 -15 18.5 -39.5t19 -40.5t6.5 -28q0 -21 -13 -33.5t-32 -12.5
q-45 0 -45 47q0 11 6.5 27t19 40t18.5 40zM222 486v-2q-14 -15 -33.5 -44t-35 -42.5t-36.5 -13.5q-20 0 -31.5 13.5t-11.5 32.5q0 24 22 39q27 17 126 17z" />
    <glyph glyph-name="plus" unicode="+" horiz-adv-x="600" 
d="M249 278v176h102v-176h176v-102h-176v-176h-102v176h-176v102h176z" />
    <glyph glyph-name="comma" unicode="," horiz-adv-x="296" 
d="M235 32q0 -64 -46 -113t-69 -49q-6 0 -6 6q0 2 2.5 4.5t6 5t11.5 9t16 14.5q36 36 37 89q-4 -1 -11 -2.5t-9 -1.5q-14 -2 -21 -2q-32 0 -51.5 18t-19.5 53q0 34 20 54.5t53 20.5q36 0 61.5 -29t25.5 -77z" />
    <glyph glyph-name="hyphen" unicode="-" horiz-adv-x="333" 
d="M42 179v96h248v-96h-248z" />
    <glyph glyph-name="period" unicode="." horiz-adv-x="296" 
d="M75 65q0 30 21.5 51.5t51.5 21.5q31 0 52 -21.5t21 -51.5q0 -31 -21 -52t-52 -21q-30 0 -51.5 21t-21.5 52z" />
    <glyph glyph-name="slash" unicode="/" horiz-adv-x="278" 
d="M74 -16h-102l232 710h102z" />
    <glyph glyph-name="zero" unicode="0" 
d="M169 339q0 -329 127 -329t127 329t-127 329t-127 -329zM31 339q0 144 77 245.5t188 101.5t188 -101.5t77 -245.5t-77 -245.5t-188 -101.5t-188 101.5t-77 245.5z" />
    <glyph glyph-name="one" unicode="1" 
d="M384 664v-569q0 -63 83 -67q57 -3 63 -9q2 -3 2 -9q0 -12 -16 -12h-201q-136 -2 -205 -2q-16 0 -16 12q0 10 10.5 13t48.5 5h6q83 4 83 67v467q0 17 -5 22.5t-19 5.5h-136q-14 0 -14 11q0 3 1 5t5 3.5t8.5 2t13.5 1t19 1.5l26 2.5t33 3.5q57 7 101.5 24t67 30.5
t28.5 13.5q13 0 13 -22z" />
    <glyph glyph-name="two" unicode="2" 
d="M527 165l-44 -165h-427q0 44 18.5 83t47 68.5t63.5 56.5l69.5 53t63 53t46.5 61.5t18 73.5q0 68 -41.5 111.5t-107.5 43.5q-75 0 -124 -54q-16 -18 -27 -38.5l-16.5 -31t-10.5 -10.5q-7 0 -7 8t6 28.5t23.5 52.5t44 59.5t74 47.5t106.5 20q99 0 160.5 -58t61.5 -143
q0 -59 -28.5 -101t-75.5 -69.5t-97.5 -50.5t-103 -58t-83.5 -78h248q76 0 113 34q10 9 15 19.5l7.5 15.5t7.5 5q7 0 7 -7q0 -4 -7 -30z" />
    <glyph glyph-name="three" unicode="3" 
d="M480 521q0 -57 -52 -109q110 -79 110 -181q0 -100 -82.5 -169.5t-193.5 -69.5q-103 0 -168.5 41t-65.5 96q0 30 19.5 52.5t49.5 22.5q38 0 55.5 -23.5t19.5 -74.5q3 -96 88 -96q62 0 101 44t39 120q0 61 -30 104t-77 59q-16 5 -37.5 6.5t-32.5 3t-11 7.5q0 9 11 10l34 3
t44 13q53 28 53 118q0 55 -35 85.5t-96 30.5q-37 0 -64 -12.5t-38 -27.5l-20.5 -27.5t-14.5 -12.5q-8 0 -8 9q0 11 13.5 33.5t37 47.5t65.5 43.5t90 18.5q80 0 138 -44t58 -121z" />
    <glyph glyph-name="four" unicode="4" 
d="M309 240v306h-2l-248 -306h250zM451 678v-438h122l-24 -48h-98v-104q0 -30 14.5 -45t31.5 -15.5t31.5 -4t14.5 -13.5q0 -12 -18 -12q-29 0 -77 1t-68 1t-68 -1t-77 -1q-18 0 -18 12q0 10 14.5 13.5t31.5 4t31.5 15.5t14.5 45v104h-278l-12 36l368 450h64z" />
    <glyph glyph-name="five" unicode="5" 
d="M157 678h320q19 0 30 9t15.5 18t7.5 9q9 0 9 -7q0 -3 -1.5 -7t-4 -10t-3.5 -10l-45 -130h-324l-14 -96q18 5 37 6q26 2 40 2q144 0 230.5 -75.5t86.5 -170.5q0 -85 -69 -154.5t-197 -69.5q-96 0 -160 40t-64 98q0 27 19 45.5t46 18.5q40 0 56 -22.5t29 -84.5
q9 -45 27.5 -61t58.5 -16q51 0 83.5 37.5t32.5 92.5q0 89 -65 145.5t-177 56.5q-5 0 -64 -8q25 95 60 344z" />
    <glyph glyph-name="six" unicode="6" 
d="M566 204q0 -94 -67 -153t-190 -59q-121 0 -193 83.5t-72 211.5q0 81 38.5 151.5t93 114.5t115 75.5t103.5 44.5t60 13q6 0 6 -8q0 -2 -21.5 -12.5t-55 -32t-69 -53.5t-68 -88.5t-48.5 -125.5q66 42 134 42q114 0 174 -60.5t60 -143.5zM428 198q0 96 -35 141t-89 45
q-34 0 -68.5 -18t-43.5 -36q-10 -20 -10 -89q0 -127 35 -179t96 -52q115 0 115 188z" />
    <glyph glyph-name="seven" unicode="7" 
d="M534 678l18 -42q-180 -221 -180 -644q-41 16 -95 16t-95 -16q6 63 26 127t44 113.5t66.5 112t73 102l82.5 103.5h-320q-30 0 -49.5 -13t-28.5 -26t-13 -13q-7 0 -7 7q0 2 10 30l52 143h416z" />
    <glyph glyph-name="eight" unicode="8" 
d="M462 512q0 76 -39 116t-107 40q-53 0 -85.5 -32t-32.5 -85q0 -21 7.5 -39.5t25 -33.5t31.5 -25.5t42 -22t40 -16t42.5 -14t33.5 -10.5q21 23 31.5 49t10.5 73zM44 179q0 45 28.5 91t82.5 75q-83 62 -83 147q0 82 69.5 138t173.5 56q86 0 143.5 -45.5t57.5 -111.5
q0 -44 -21.5 -83t-58.5 -64q56 -19 88 -68.5t32 -114.5q0 -88 -78.5 -147.5t-199.5 -59.5q-104 0 -169 54t-65 133zM110 194q0 -83 44.5 -133.5t123.5 -50.5q72 0 112 39.5t40 99.5q0 45 -27 77.5t-102 59.5l-50 19t-33.5 13.5l-19 8t-12.5 4.5t-8 1q-10 0 -25.5 -15.5
t-29 -49.5t-13.5 -73z" />
    <glyph glyph-name="nine" unicode="9" 
d="M27 474q0 94 67 153t190 59q121 0 193 -83.5t72 -211.5q0 -81 -38.5 -151.5t-93 -114.5t-115 -75.5t-103.5 -44.5t-60 -13q-6 0 -6 8q0 2 21.5 12.5t55 32t69 53.5t68 88.5t48.5 125.5q-66 -42 -134 -42q-114 0 -174 60.5t-60 143.5zM165 480q0 -96 35 -141t89 -45
q34 0 68.5 18t43.5 36q10 20 10 89q0 127 -35 179t-96 52q-115 0 -115 -188z" />
    <glyph glyph-name="colon" unicode=":" horiz-adv-x="296" 
d="M75 65q0 30 21.5 51.5t51.5 21.5q31 0 52 -21.5t21 -51.5q0 -31 -21 -52t-52 -21q-30 0 -51.5 21t-21.5 52zM75 341q0 30 21.5 51.5t51.5 21.5q31 0 52 -21.5t21 -51.5q0 -31 -21 -52t-52 -21q-30 0 -51.5 21t-21.5 52z" />
    <glyph glyph-name="semicolon" unicode=";" horiz-adv-x="296" 
d="M235 32q0 -64 -46 -113t-69 -49q-6 0 -6 6q0 2 2.5 4.5t6 5t11.5 9t16 14.5q36 36 37 89q-4 -1 -11 -2.5t-9 -1.5q-14 -2 -21 -2q-32 0 -51.5 18t-19.5 53q0 34 20 54.5t53 20.5q36 0 61.5 -29t25.5 -77zM75 341q0 30 21.5 51.5t51.5 21.5q31 0 52 -21.5t21 -51.5
q0 -31 -21 -52t-52 -21q-30 0 -51.5 21t-21.5 52z" />
    <glyph glyph-name="less" unicode="&#x3c;" horiz-adv-x="600" 
d="M527 93v-103l-454 200v74l454 200v-102l-319 -135z" />
    <glyph glyph-name="equal" unicode="=" horiz-adv-x="600" 
d="M527 378v-102h-454v102h454zM527 178v-102h-454v102h454z" />
    <glyph glyph-name="greater" unicode="&#x3e;" horiz-adv-x="600" 
d="M73 -10v103l319 134l-319 135v102l454 -200v-74z" />
    <glyph glyph-name="question" unicode="?" horiz-adv-x="500" 
d="M226 188l-30 -6q-2 20 -6.5 42.5t-8 38.5t-11 41t-10.5 34t-12.5 35t-9.5 27l28 16q31 -38 88 -38q63 0 107.5 42.5t44.5 117.5q0 53 -33 86.5t-89 33.5q-35 0 -58 -16.5t-33.5 -40t-20 -47t-26.5 -40t-45 -16.5q-24 0 -40.5 16.5t-16.5 42.5q0 56 53.5 96.5t131.5 40.5
q115 0 179 -70t64 -165q0 -34 -11.5 -67t-35.5 -63.5t-67 -49.5t-100 -19h-32v-72zM139 65q0 30 21.5 51.5t51.5 21.5q31 0 52 -21.5t21 -51.5q0 -31 -21 -52t-52 -21q-30 0 -51.5 21t-21.5 52z" />
    <glyph glyph-name="at" unicode="@" horiz-adv-x="800" 
d="M344 290q0 -39 14 -61.5t34 -22.5q39 0 70.5 49.5t41.5 146.5q0 63 -45 63q-38 0 -76.5 -55t-38.5 -120zM527 476l11 35h75l-58 -239q-5 -22 -5 -32q0 -48 32 -48q44 0 74.5 64.5t30.5 133.5q0 90 -74.5 163t-193.5 73q-100 0 -181 -79t-81 -217q0 -122 80.5 -200
t191.5 -78q108 0 204 49l15 -61q-112 -56 -218 -56q-96 0 -173 33t-122 85t-68.5 109.5t-23.5 112.5q0 162 110 266t266 104q143 0 240.5 -86.5t97.5 -216.5q0 -55 -21.5 -110t-66.5 -95t-103 -40q-68 0 -93 63h-2q-55 -60 -112 -63q-48 -2 -76.5 34t-28.5 93q0 34 13 76
t36.5 82t64 67t89.5 27q10 0 18 -1t14.5 -4.5t10.5 -6t9 -8.5t6.5 -8.5l6 -10.5t5.5 -10z" />
    <glyph glyph-name="A" unicode="A" horiz-adv-x="704" 
d="M196 274h212l-110 269zM418 256h-228q-4 -12 -14 -38t-14.5 -39.5t-9 -33.5t-4.5 -38q0 -40 21 -61t41.5 -28t20.5 -12q0 -8 -9 -8q-18 0 -56 1t-58 1t-58.5 -1t-58.5 -1q-11 0 -11 9t21 14q82 18 149 194l127 329q7 19 7 29q0 12 -15 22t-15 12q0 3 6 6.5t23 16.5t37 33
l21.5 24t13.5 17l7 10.5t4.5 6t4.5 1.5q5 0 15 -25l253 -616q14 -35 35.5 -49.5t35.5 -17t14 -8.5q0 -8 -10 -8q-23 0 -70 1t-71 1t-71.5 -1t-69.5 -1q-12 0 -12 10q0 7 17.5 9t35 11t17.5 33q0 9 -2 18.5t-8 25.5t-13 32l-21 50z" />
    <glyph glyph-name="B" unicode="B" horiz-adv-x="667" 
d="M112 80v518q0 27 -13.5 40.5t-29.5 14t-29.5 3t-13.5 11.5q0 13 20 13q27 0 73.5 -1t65.5 -1q32 0 90.5 1t86.5 1q114 0 179.5 -44.5t65.5 -120.5q0 -70 -52 -108.5t-173 -49.5v-2q259 -7 259 -170q0 -89 -54 -138t-191 -49q-22 0 -94 1t-117 1q-19 0 -65.5 -1t-73.5 -1
q-20 0 -20 13q0 9 13.5 11.5t29.5 3t29.5 14t13.5 40.5zM258 344v-256q0 -66 85 -66q146 0 146 158q0 164 -159 164h-72zM258 656v-288h60q68 0 105.5 37.5t37.5 101.5q0 72 -38 110.5t-104 38.5h-61z" />
    <glyph glyph-name="C" unicode="C" horiz-adv-x="704" 
d="M636 668v-252q0 -20 -11 -20q-7 0 -9.5 9t-9.5 38t-20 60q-31 73 -81.5 120t-116.5 47q-93 0 -144.5 -80.5t-51.5 -250.5q0 -331 202 -331q69 0 127.5 57.5t83.5 128.5q5 16 8.5 30.5t4.5 22.5t2.5 14.5t3.5 8.5t7 2q9 0 9 -16v-263q0 -17 -12 -17q-7 0 -9.5 14t-10.5 28
t-29 14q-15 0 -42.5 -12t-69 -24t-91.5 -12q-154 0 -251 101t-97 254q0 150 102 252.5t246 102.5q49 0 91 -14t71 -28t46 -14q14 0 20.5 7t7 15t3 15t9.5 7q12 0 12 -14z" />
    <glyph glyph-name="D" unicode="D" horiz-adv-x="759" 
d="M112 80v518q0 27 -13.5 40.5t-29.5 14t-29.5 3t-13.5 11.5q0 13 20 13q27 0 73.5 -1t65.5 -1q28 0 83 1t87 1q174 0 275 -98t101 -244q0 -158 -87.5 -249t-230.5 -91q-30 0 -106 1t-122 1q-19 0 -65.5 -1t-73.5 -1q-20 0 -20 13q0 9 13.5 11.5t29.5 3t29.5 14t13.5 40.5z
M258 656v-533q0 -101 118 -101q92 0 147.5 76.5t55.5 225.5q0 160 -62.5 246t-172.5 86h-86z" />
    <glyph glyph-name="E" unicode="E" horiz-adv-x="667" 
d="M112 80v518q0 27 -13.5 40.5t-29.5 14t-29.5 3t-13.5 11.5q0 13 20 13q27 0 73.5 -1t65.5 -1q124 0 360 2l50 -191q6 -22 6 -26q0 -8 -10 -8q-4 0 -7 5.5t-13.5 27.5t-26.5 49q-37 61 -91 90t-141 29h-54v-288h25q52 0 87 35t38 89q1 25 14 25q10 0 10 -14v-306
q0 -14 -10 -14q-13 0 -14 25q-3 65 -37 100.5t-88 35.5h-25v-252q0 -36 18 -53t64 -17q107 0 175.5 62t95.5 148l2.5 7.5t2 6.5t1.5 5t2 4t2 2.5t2.5 2t3.5 0.5q10 0 10 -11q0 -7 -4 -29l-44 -222q-264 2 -404 2q-19 0 -65.5 -1t-73.5 -1q-20 0 -20 13q0 9 13.5 11.5t29.5 3
t29.5 14t13.5 40.5z" />
    <glyph glyph-name="F" unicode="F" horiz-adv-x="611" 
d="M112 80v518q0 27 -13.5 40.5t-29.5 14t-29.5 3t-13.5 11.5q0 13 20 13q27 0 73.5 -1t65.5 -1q123 0 361 2l50 -191q6 -22 6 -26q0 -8 -10 -8q-4 0 -7 5.5t-13.5 27.5t-26.5 49q-37 61 -91 90t-141 29h-55v-288h25q52 0 87 35t38 89q1 25 14 25q10 0 10 -14v-306
q0 -14 -10 -14q-13 0 -14 25q-3 65 -37 100.5t-88 35.5h-25v-264q0 -27 13.5 -40.5t29.5 -14t29.5 -3t13.5 -11.5q0 -13 -20 -13q-27 0 -73.5 1t-65.5 1q-74 -1 -110 0.5t-42.5 3.5t-6.5 7q0 9 13.5 11.5t29.5 3t29.5 14t13.5 40.5z" />
    <glyph glyph-name="G" unicode="G" horiz-adv-x="778" 
d="M666 0l-30 58q-34 -21 -58 -33.5t-73.5 -26.5t-102.5 -14q-158 0 -266 104t-108 251t107.5 251t263.5 104q47 0 93 -13t77.5 -26t41.5 -13q18 0 24.5 11.5t8 23t8.5 11.5q12 0 12 -11v-265q0 -12 -9 -12q-5 0 -7 2.5t-3 9t-2 15t-5.5 24.5t-10.5 33q-66 186 -225 186
q-40 0 -75.5 -17.5t-66.5 -54t-49.5 -103.5t-18.5 -156t18.5 -156t49.5 -103.5t66.5 -54t75.5 -17.5q67 0 111.5 38t44.5 106v56q0 32 -13.5 48.5t-29.5 18t-29.5 4.5t-13.5 12q0 13 20 13q27 0 73 -1t62 -1t62 1t73 1q20 0 20 -13q0 -9 -13.5 -11.5t-29.5 -3t-29.5 -14
t-13.5 -40.5v-222h-30z" />
    <glyph glyph-name="H" unicode="H" horiz-adv-x="778" 
d="M112 80v518q0 27 -13.5 40.5t-29.5 14t-29.5 3t-13.5 11.5q0 13 20 13q27 0 73.5 -1t65.5 -1t65.5 1t73.5 1q20 0 20 -13q0 -9 -13.5 -11.5t-29.5 -3t-29.5 -14t-13.5 -40.5v-230h262v230q0 27 -13.5 40.5t-29.5 14t-29.5 3t-13.5 11.5q0 13 20 13q27 0 73.5 -1t65.5 -1
t65.5 1t73.5 1q20 0 20 -13q0 -9 -13.5 -11.5t-29.5 -3t-29.5 -14t-13.5 -40.5v-518q0 -27 13.5 -40.5t29.5 -14t29.5 -3t13.5 -11.5q0 -13 -20 -13q-27 0 -73.5 1t-65.5 1t-65.5 -1t-73.5 -1q-20 0 -20 13q0 9 13.5 11.5t29.5 3t29.5 14t13.5 40.5v264h-262v-264
q0 -27 13.5 -40.5t29.5 -14t29.5 -3t13.5 -11.5q0 -13 -20 -13q-27 0 -73.5 1t-65.5 1t-65.5 -1t-73.5 -1q-20 0 -20 13q0 9 13.5 11.5t29.5 3t29.5 14t13.5 40.5z" />
    <glyph glyph-name="I" unicode="I" horiz-adv-x="370" 
d="M112 80v518q0 27 -13.5 40.5t-29.5 14t-29.5 3t-13.5 11.5q0 13 20 13q27 0 73.5 -1t65.5 -1t65.5 1t73.5 1q20 0 20 -13q0 -9 -13.5 -11.5t-29.5 -3t-29.5 -14t-13.5 -40.5v-518q0 -27 13.5 -40.5t29.5 -14t29.5 -3t13.5 -11.5q0 -13 -20 -13q-27 0 -73.5 1t-65.5 1
t-65.5 -1t-73.5 -1q-20 0 -20 13q0 9 13.5 11.5t29.5 3t29.5 14t13.5 40.5z" />
    <glyph glyph-name="J" unicode="J" horiz-adv-x="481" 
d="M244 92v506q0 27 -13.5 40.5t-29.5 14t-29.5 3t-13.5 11.5q0 13 20 13q27 0 73.5 -1t65.5 -1t65.5 1t73.5 1q20 0 20 -13q0 -9 -13.5 -11.5t-29.5 -3t-29.5 -14t-13.5 -40.5v-422q0 -89 -62 -140.5t-158 -51.5q-84 0 -134 34t-50 78q0 32 20.5 55t52.5 23q35 0 52 -18
t17 -45q0 -13 -6 -33t-6 -31q0 -45 60 -45q33 0 50.5 19.5t17.5 70.5z" />
    <glyph glyph-name="K" unicode="K" horiz-adv-x="722" 
d="M266 269v-189q0 -27 13.5 -40.5t29.5 -14t29.5 -3t13.5 -11.5q0 -13 -20 -13q-27 0 -73.5 1t-65.5 1t-65.5 -1t-73.5 -1q-20 0 -20 13q0 9 13.5 11.5t29.5 3t29.5 14t13.5 40.5v518q0 27 -13.5 40.5t-29.5 14t-29.5 3t-13.5 11.5q0 13 20 13q27 0 73.5 -1t65.5 -1t65.5 1
t73.5 1q20 0 20 -13q0 -9 -13.5 -11.5t-29.5 -3t-29.5 -14t-13.5 -40.5v-294l188 218q52 61 52 91q0 26 -13 35t-26 11t-13 9q0 12 15 12t46 -1t46 -1t45.5 1t45.5 1q19 0 24.5 -2t5.5 -8q0 -7 -15.5 -9t-50.5 -19.5t-72 -59.5l-110 -124l200 -369q19 -35 45 -49t41.5 -17
t15.5 -12q0 -13 -18 -13q-4 0 -66 1t-138 1l-180 346z" />
    <glyph glyph-name="L" unicode="L" horiz-adv-x="630" 
d="M112 80v518q0 27 -13.5 40.5t-29.5 14t-29.5 3t-13.5 11.5q0 13 20 13q27 0 73.5 -1t65.5 -1t65.5 1t73.5 1q20 0 20 -13q0 -9 -13.5 -11.5t-29.5 -3t-29.5 -14t-13.5 -40.5v-506q0 -36 18 -53t64 -17q85 0 150 59.5t94 150.5l2.5 7.5t2 6.5t1.5 5t2 4t2 2.5t2.5 2
t3.5 0.5q10 0 10 -11q0 -7 -4 -29l-44 -222q-210 2 -377 2q-19 0 -65.5 -1t-73.5 -1q-20 0 -20 13q0 9 13.5 11.5t29.5 3t29.5 14t13.5 40.5z" />
    <glyph glyph-name="M" unicode="M" horiz-adv-x="889" 
d="M246 678l200 -476l194 476h65q19 0 65.5 1t73.5 1q20 0 20 -13q0 -9 -13.5 -11.5t-29.5 -3t-29.5 -14t-13.5 -40.5v-518q0 -27 13.5 -40.5t29.5 -14t29.5 -3t13.5 -11.5q0 -13 -20 -13q-27 0 -73.5 1t-65.5 1t-65.5 -1t-73.5 -1q-20 0 -20 13q0 9 13.5 11.5t29.5 3
t29.5 14t13.5 40.5v520h-2l-240 -597q-3 -3 -7 -3q-5 0 -8 3l-237 571h-2v-408q0 -104 53 -131q12 -6 23.5 -9t17.5 -3.5t10 -3t4 -8.5q0 -13 -22 -13q-11 0 -43.5 1t-54.5 1t-54.5 -1t-43.5 -1q-22 0 -22 13q0 7 5.5 9t20 4.5t29.5 10.5q53 27 53 131v441
q-16 25 -33.5 35.5t-49.5 13.5q-17 1 -19 12q0 12 13 12q19 0 56 -1t55 -1h112z" />
    <glyph glyph-name="N" unicode="N" horiz-adv-x="722" 
d="M135 560v-406q0 -99 62 -126q9 -4 20 -5.5t17.5 -2t11.5 -3t5 -8.5q0 -11 -14 -11q-16 0 -54.5 1t-59.5 1t-59.5 -1t-54.5 -1q-14 0 -14 11q0 6 5 8.5t11.5 3t17.5 2t20 5.5q62 27 62 126v437q-40 58 -93 65q-20 3 -22 8q-1 2 -1 5q0 11 12 11q17 0 53 -1t55 -1h112
l358 -450h2v296q0 99 -62 126q-9 4 -20 5.5t-17.5 2t-11.5 3t-5 8.5q0 11 14 11q16 0 54.5 -1t59.5 -1t59.5 1t54.5 1q14 0 14 -11q0 -6 -5 -8.5t-11.5 -3t-17.5 -2t-20 -5.5q-62 -27 -62 -126v-515q0 -33 -9 -33q-7 0 -25 24l-440 560h-2z" />
    <glyph glyph-name="O" unicode="O" horiz-adv-x="796" 
d="M192 339q0 -157 55.5 -244t150.5 -87t150.5 87t55.5 244t-55.5 244t-150.5 87t-150.5 -87t-55.5 -244zM28 339q0 145 104 250t266 105t266 -105t104 -250t-104 -250t-266 -105t-266 105t-104 250z" />
    <glyph glyph-name="P" unicode="P" horiz-adv-x="630" 
d="M258 302v-222q0 -27 13.5 -40.5t29.5 -14t29.5 -3t13.5 -11.5q0 -13 -20 -13q-27 0 -73.5 1t-65.5 1t-65.5 -1t-73.5 -1q-20 0 -20 13q0 9 13.5 11.5t29.5 3t29.5 14t13.5 40.5v518q0 27 -13.5 40.5t-29.5 14t-29.5 3t-13.5 11.5q0 13 20 13q27 0 73.5 -1t65.5 -1
q29 0 77 1t69 1q134 0 206.5 -53.5t72.5 -134.5q0 -89 -69 -139.5t-208 -50.5h-75zM258 656v-330h52q79 0 116.5 39.5t37.5 127.5q0 163 -154 163h-52z" />
    <glyph glyph-name="Q" unicode="Q" horiz-adv-x="796" 
d="M192 339q0 -157 55.5 -244t150.5 -87t150.5 87t55.5 244t-55.5 244t-150.5 87t-150.5 -87t-55.5 -244zM216 28v2q-87 45 -137.5 128.5t-50.5 180.5q0 145 104 250t266 105t266 -105t104 -250t-104 -250t-266 -105q-11 0 -13 1l-2 -2q31 -8 128.5 -49.5t143.5 -41.5
q59 0 92 42q4 5 7 11t4.5 9.5t3.5 6t5 2.5q8 0 8 -11q0 -6 -4.5 -19.5t-19.5 -35t-37 -39.5t-63.5 -31t-93.5 -13q-39 0 -80.5 17.5t-77 42.5l-70.5 50t-74.5 42.5t-75.5 17.5q-40 0 -68 -30q-5 -6 -10 -14.5t-8 -13t-8 -4.5q-9 0 -9 10q0 23 38.5 57t101.5 39z" />
    <glyph glyph-name="R" unicode="R" horiz-adv-x="704" 
d="M516 0l-121 253q-32 67 -129 67v-240q0 -27 13.5 -40.5t29.5 -14t29.5 -3t13.5 -11.5q0 -13 -20 -13q-27 0 -73.5 1t-65.5 1t-65.5 -1t-73.5 -1q-20 0 -20 13q0 9 13.5 11.5t29.5 3t29.5 14t13.5 40.5v518q0 27 -13.5 40.5t-29.5 14t-29.5 3t-13.5 11.5q0 13 20 13
q27 0 73.5 -1t65.5 -1q23 0 73.5 1t85.5 1q125 0 193.5 -49.5t68.5 -128.5q0 -70 -57 -115.5t-201 -60.5v-2q81 0 128 -22.5t76 -78.5l75 -145q11 -22 26.5 -34.5t29 -16t25.5 -4.5t19 -3.5t7 -10.5q0 -11 -10 -11q-18 0 -54 1t-54 1h-108zM266 656v-318h39q163 0 163 162
q0 156 -139 156h-63z" />
    <glyph glyph-name="S" unicode="S" 
d="M52 5v278q0 15 10 15q3 0 5 -1.5t3 -5.5t2 -7t2 -10.5t2 -11.5q10 -53 24.5 -94t39 -79.5t64.5 -59.5t92 -21q75 0 117.5 35t42.5 94q0 41 -22 70t-57.5 45t-78 29.5t-85 28.5t-78 35t-57.5 56.5t-22 86.5q0 88 65 147t159 59q55 0 110.5 -20t61.5 -20q20 0 25.5 14
t12.5 14q11 0 12 -18l18 -189q3 -29 3 -33q0 -10 -8 -10q-5 0 -7.5 5.5t-8 23.5t-11.5 32q-36 90 -83 133.5t-126 43.5q-57 0 -92 -26.5t-35 -80.5q0 -33 22.5 -56t58 -37t79 -26t87 -28t79 -38.5t58 -63t22.5 -95.5q0 -100 -75 -167.5t-188 -67.5q-57 0 -115 23t-70 23
q-17 0 -25.5 -8.5t-13.5 -17t-11 -8.5q-8 0 -8 9z" />
    <glyph glyph-name="T" unicode="T" horiz-adv-x="630" 
d="M242 100v554q-68 -18 -116 -55t-66 -70t-30.5 -58t-18.5 -25q-9 0 -9 10q0 9 5 36l33 183q4 19 11 19q5 0 14 -7q15 -9 26 -9h448q11 0 26 9q9 7 14 7q7 0 11 -19l33 -183q5 -27 5 -36q0 -10 -9 -10q-6 0 -18.5 25t-30.5 58t-66 70t-116 55v-554q0 -45 20 -61.5t60 -16.5
q18 0 18 -13q0 -11 -16 -11q-30 0 -81.5 1t-73.5 1t-73.5 -1t-81.5 -1q-16 0 -16 11q0 13 18 13q40 0 60 16.5t20 61.5z" />
    <glyph glyph-name="U" unicode="U" horiz-adv-x="704" 
d="M601 504v-297q0 -108 -66.5 -165.5t-175.5 -57.5q-116 0 -186 48.5t-70 127.5v438q0 27 -13.5 40.5t-29.5 14t-29.5 3t-13.5 11.5q0 13 20 13q27 0 73.5 -1t65.5 -1t65.5 1t73.5 1q20 0 20 -13q0 -9 -13.5 -11.5t-29.5 -3t-29.5 -14t-13.5 -40.5v-438q0 -61 44 -103.5
t107 -42.5q80 0 128.5 49.5t48.5 137.5v303q0 62 -21 100t-57 50q-3 1 -8.5 2.5t-8.5 2.5t-6.5 2.5t-5 3t-1.5 4.5q0 11 14 11q11 0 47.5 -1t58.5 -1t58.5 1t47.5 1q14 0 14 -11q0 -3 -1.5 -4.5t-5 -3t-6.5 -2.5t-8.5 -2.5t-8.5 -2.5q-36 -12 -57 -50t-21 -100z" />
    <glyph glyph-name="V" unicode="V" horiz-adv-x="685" 
d="M404 184l131 321q13 33 13 66t-13.5 52t-29.5 23.5t-29.5 9.5t-13.5 13q0 11 17 11t50.5 -1t50.5 -1q16 0 49.5 1t50.5 1q32 0 32 -13q0 -9 -13.5 -13.5t-32 -9t-44.5 -32.5t-46 -77l-217 -528q-10 -23 -16 -23t-16 23l-241 584q-15 37 -38.5 52t-38.5 17.5t-15 9.5
q0 10 14 10q26 0 73 -1t69 -1t68 1t68 1q24 0 24 -11q0 -8 -17.5 -9t-35 -8.5t-17.5 -30.5q0 -17 8 -37z" />
    <glyph glyph-name="W" unicode="W" horiz-adv-x="963" 
d="M494 438l-161 -431q-10 -23 -16 -23t-16 23l-222 599q-8 23 -23 34.5t-28 12.5t-22.5 4.5t-9.5 12.5q0 10 14 10q24 0 67 -1t63 -1q18 0 64 1t78 1q16 0 16 -10t-16.5 -12t-33 -10t-16.5 -31q0 -13 9 -36l139 -381l104 275l-45 123q-9 25 -24 38.5t-27 14.5t-21 5t-9 13
q0 11 17 11q21 0 63 -1t63 -1q20 0 62 1t63 1q24 0 24 -13q0 -7 -9.5 -9.5t-21.5 -3.5t-21.5 -10t-9.5 -27q0 -17 8 -39l130 -370h2l87 251q21 61 21 109q0 34 -12.5 54t-27.5 25l-27.5 9.5t-12.5 11.5q0 12 17 12q16 0 48 -1t48 -1q15 0 47 1t48 1q18 0 18 -13
q0 -5 -19.5 -10.5t-45.5 -25t-39 -58.5l-194 -566q-8 -23 -16 -23t-16 23z" />
    <glyph glyph-name="X" unicode="X" horiz-adv-x="685" 
d="M287 595l110 -179l77 116q23 34 23 60q0 27 -11 42t-24 18.5t-24 7t-11 9.5q0 11 14 11q21 0 55 -1t49 -1t48 1t54 1q14 0 14 -9q0 -7 -10 -11t-26 -8.5t-43.5 -27.5t-55.5 -62l-119 -166l185 -308q18 -30 39.5 -45.5t36.5 -16t25 -3t10 -12.5q0 -13 -20 -13q-26 0 -76 1
t-74 1q-25 0 -75 -1t-76 -1q-13 0 -13 11q0 10 16 13t32 10.5t16 28.5q0 19 -16 45l-120 200l-73 -116q-39 -62 -39 -111q0 -17 5.5 -28t14 -15.5t18.5 -7.5t18.5 -3.5t14 -4t5.5 -9.5q0 -13 -27 -13q-22 0 -60 1t-55 1q-19 0 -56 -1t-55 -1q-27 0 -27 13q0 10 14.5 14.5
t36.5 8.5t56.5 30.5t67.5 72.5l131 187l-158 263q-19 31 -40 47t-35 17.5t-23.5 4.5t-9.5 12q0 12 17 12q23 0 69.5 -1t70.5 -1q23 0 69.5 1t69.5 1q16 0 16 -12q0 -9 -14.5 -10.5t-29 -6.5t-14.5 -22q0 -15 12 -34z" />
    <glyph glyph-name="Y" unicode="Y" horiz-adv-x="630" 
d="M258 561l118 -221l78 138q36 64 36 118q0 29 -15.5 43.5t-31 19.5t-15.5 10q0 11 20 11q15 0 45 -1t51 -1q16 0 47 1t46 1q11 0 11 -10q0 -4 -4 -7t-11.5 -5.5t-20 -11.5t-27.5 -22.5t-36 -41t-43 -64.5l-118 -197v-241q0 -27 13.5 -40.5t29.5 -14t29.5 -3t13.5 -11.5
q0 -13 -20 -13q-27 0 -73.5 1t-65.5 1t-65.5 -1t-73.5 -1q-20 0 -20 13q0 9 13.5 11.5t29.5 3t29.5 14t13.5 40.5v222l-161 293q-15 27 -33.5 42t-32.5 17t-23.5 5t-9.5 10q0 11 17 11q25 0 72 -1t70 -1t70 1t70 1q22 0 22 -10q0 -7 -10 -9.5t-21.5 -3.5t-21.5 -11t-10 -29
q0 -21 18 -56z" />
    <glyph glyph-name="Z" unicode="Z" 
d="M184 22h82q147 0 227 115q19 26 30.5 58t17 48.5t12.5 16.5q9 0 9 -11q0 -7 -7 -40l-41 -211q-160 2 -244 2q-41 0 -123 -1t-123 -1q-12 0 -12 9q0 5 11 24l373 625h-60q-157 0 -230 -119q-12 -19 -20.5 -35t-11.5 -24t-5.5 -14t-4.5 -7.5t-6 -1.5q-8 0 -8 8q0 3 6 26
l50 191q36 0 109 -1t110 -1t111 1t112 1q16 0 16 -8q0 -4 -15 -30z" />
    <glyph glyph-name="bracketleft" unicode="[" horiz-adv-x="407" 
d="M100 -188v894q0 16 16 16h175q19 0 19 -12q0 -11 -36 -12q-21 -1 -37.5 -15t-16.5 -39v-770q0 -25 16.5 -39t37.5 -15q36 -1 36 -12q0 -12 -19 -12h-175q-16 0 -16 16z" />
    <glyph glyph-name="backslash" unicode="\" horiz-adv-x="278" 
d="M306 -16h-102l-232 710h102z" />
    <glyph glyph-name="bracketright" unicode="]" horiz-adv-x="407" 
d="M307 706v-894q0 -16 -16 -16h-175q-19 0 -19 12q0 11 36 12q21 1 37.5 15t16.5 39v770q0 25 -16.5 39t-37.5 15q-36 1 -36 12q0 12 19 12h175q16 0 16 -16z" />
    <glyph glyph-name="asciicircum" unicode="^" horiz-adv-x="600" 
d="M503 351h-101l-102 211l-102 -211h-101l155 327h96z" />
    <glyph glyph-name="underscore" unicode="_" horiz-adv-x="500" 
d="M500 -125h-500v50h500v-50z" />
    <glyph glyph-name="grave" unicode="`" horiz-adv-x="296" 
d="M228 514h-50l-154 96q-32 20 -32 43q0 18 13 29.5t29 11.5q27 0 52 -26z" />
    <glyph glyph-name="a" unicode="a" horiz-adv-x="500" 
d="M422 334v-272q0 -28 25 -28q18 0 40 20q2 2 5 5.5t5.5 6t5.5 2.5q7 0 7 -8q0 -15 -38 -41.5t-82 -26.5q-42 0 -62 16t-32 54q-89 -70 -170 -70q-44 0 -73 21.5t-29 70.5q0 47 33 77.5t126 68.5l113 45v114q0 51 -39 51q-32 0 -56.5 -19.5t-30.5 -55.5q-9 -57 -26 -79
t-55 -22q-23 0 -37 15.5t-14 40.5q0 35 41 68.5t102.5 53.5t119.5 20q61 0 91 -30t30 -98zM296 86v169q-77 -30 -108.5 -58t-31.5 -73q0 -78 54 -78q42 0 86 40z" />
    <glyph glyph-name="b" unicode="b" 
d="M205 730v-340q82 72 164 72q83 0 139 -57t56 -149q0 -111 -77 -187.5t-189 -76.5q-46 0 -82.5 14t-84.5 46l-39 -50q-7 -10 -10 -10t-3 5v598q0 30 -20 44t-40 19t-20 12q0 8 13.5 11l69 15t123.5 34zM205 366v-254q0 -102 90 -102q66 0 101.5 54.5t35.5 146.5
q0 87 -40.5 139t-105.5 52q-45 0 -81 -36z" />
    <glyph glyph-name="c" unicode="c" horiz-adv-x="481" 
d="M33 218q0 105 65.5 174.5t166.5 69.5q82 0 134 -44.5t52 -99.5q0 -34 -16.5 -52t-42.5 -18q-61 0 -56 76q0 4 1 18.5t0 26.5q-1 36 -23 55.5t-57 19.5q-50 0 -80 -43t-30 -113q0 -104 46.5 -161t110.5 -57q42 0 72.5 14.5t42 31.5t20 31.5t11.5 14.5q8 0 8 -8
q0 -9 -5.5 -26t-20 -41t-36 -45t-58 -35.5t-81.5 -14.5q-102 0 -163 66.5t-61 159.5z" />
    <glyph glyph-name="d" unicode="d" 
d="M514 730v-603q0 -30 20.5 -44t41 -19t20.5 -12q0 -5 -5 -8t-21 -6l-36.5 -7t-60.5 -14.5t-85 -24.5v80h-2q-68 -80 -175 -80q-70 0 -126 58t-56 154q0 107 75.5 182.5t189.5 75.5q45 0 94 -16v149q0 30 -20 44t-40 19t-20 12q0 8 13.5 11l69 15t123.5 34zM388 94v248
q0 48 -26 75t-71 27q-59 0 -94.5 -51t-35.5 -153q0 -80 39.5 -134t90.5 -54q63 0 97 42z" />
    <glyph glyph-name="e" unicode="e" horiz-adv-x="500" 
d="M467 252h-320q1 -87 48.5 -134.5t114.5 -47.5q75 0 122 52q9 9 14.5 19.5l8 15t6.5 4.5q6 0 6 -7q0 -14 -10.5 -38.5t-32.5 -53.5t-66.5 -49.5t-101.5 -20.5q-101 0 -162 65.5t-61 172.5q0 99 63.5 165.5t159.5 66.5q88 0 148 -55t63 -155zM147 276h200q-1 94 -24 131
t-68 37q-48 0 -77.5 -44.5t-30.5 -123.5z" />
    <glyph glyph-name="f" unicode="f" horiz-adv-x="315" 
d="M326 454l-14 -48h-96v-326q0 -27 11 -40.5t24 -14.5t24 -4t11 -11q0 -12 -12 -12q-10 0 -50.5 1t-70.5 1t-70.5 -1t-50.5 -1q-12 0 -12 12q0 8 11 11t24 4t24 14.5t11 40.5v326h-62q27 24 46.5 58.5t27 59t22.5 80.5q24 90 56 119t80 29q39 0 67.5 -28t28.5 -61
q0 -31 -18.5 -50t-43.5 -19q-27 0 -42.5 16.5t-15.5 44.5q0 36 -4.5 48.5t-15.5 12.5q-34 0 -34 -65q0 -27 14.5 -102t17.5 -95h112z" />
    <glyph glyph-name="g" unicode="g" horiz-adv-x="519" 
d="M362 606q28 0 47 -18.5t19 -44.5q0 -25 -17 -41t-39 -16q-13 0 -32 10t-28 10q-28 0 -34 -44q95 -9 144.5 -49.5t49.5 -100.5q0 -68 -59.5 -106.5t-165.5 -43.5q-57 -3 -84 -17t-27 -35q0 -29 33 -38.5t148 -9.5q103 0 148 -29.5t45 -93.5q0 -78 -77 -114.5t-197 -36.5
q-212 0 -212 102q0 56 66 82q-44 27 -44 85q0 43 31 75t95 40v2q-122 25 -122 133q0 66 55 110.5t155 44.5q14 144 102 144zM72 -101q0 -87 164 -87q184 0 184 76q0 25 -22.5 38.5t-89.5 13.5q-48 0 -84 1.5t-54 3.5t-29.5 4t-16.5 3.5t-8 1.5q-18 0 -31 -18.5t-13 -36.5z
M182 312q0 -132 77 -132q35 0 55 28.5t20 103.5t-20 103.5t-55 28.5q-77 0 -77 -132z" />
    <glyph glyph-name="h" unicode="h" 
d="M208 730v-341q65 41 102.5 57t84.5 16q50 0 82.5 -29t32.5 -85v-268q0 -27 11 -40.5t24 -14.5t24 -4t11 -11q0 -12 -12 -12q-10 0 -50.5 1t-70.5 1t-70.5 -1t-50.5 -1q-12 0 -12 12q0 8 11 11t24 4t24 14.5t11 40.5v262q0 72 -64 72q-42 0 -112 -48v-286q0 -27 11 -40.5
t24 -14.5t24 -4t11 -11q0 -12 -12 -12q-10 0 -50.5 1t-70.5 1t-70.5 -1t-50.5 -1q-12 0 -12 12q0 8 11 11t24 4t24 14.5t11 40.5v515q0 30 -20 44t-40 19t-20 12q0 8 13.5 11l69 15t123.5 34z" />
    <glyph glyph-name="i" unicode="i" horiz-adv-x="296" 
d="M211 462v-382q0 -27 13 -40.5t28 -14.5t28 -4t13 -11q0 -12 -12 -12q-13 0 -58.5 1t-74.5 1t-74.5 -1t-58.5 -1q-12 0 -12 12q0 8 13 11t28 4t28 14.5t13 40.5v247q0 30 -20 44t-40 19t-20 12q0 8 13.5 11l69 15t123.5 34zM77 611q0 29 21 50t50 21t50 -21t21 -50
t-21 -50t-50 -21t-50 21t-21 50z" />
    <glyph glyph-name="j" unicode="j" horiz-adv-x="296" 
d="M226 462v-450q0 -62 -17 -107t-46.5 -69.5t-63.5 -36t-73 -11.5q-48 0 -75 23t-27 54q0 25 15.5 42t38.5 17q24 0 40 -16.5t16 -43.5q0 -5 -0.5 -12t-0.5 -12q0 -34 32 -34q24 0 38.5 15t14.5 37q0 16 -9 36t-9 42v391q0 30 -20 44t-40 19t-20 12q0 8 13.5 11l69 15
t123.5 34zM92 611q0 29 21 50t50 21t50 -21t21 -50t-21 -50t-50 -21t-50 21t-21 50z" />
    <glyph glyph-name="k" unicode="k" horiz-adv-x="574" 
d="M272 242l-58 -38v-124q0 -27 11 -40.5t24 -14.5t24 -4t11 -11q0 -12 -12 -12q-10 0 -50.5 1t-70.5 1t-70.5 -1t-50.5 -1q-12 0 -12 12q0 8 11 11t24 4t24 14.5t11 40.5v515q0 30 -20 44t-40 19t-20 12q0 8 13.5 11l69 15t123.5 34v-508q50 33 73 51q109 85 109 123
q0 17 -10.5 26t-23 10t-23 3.5t-10.5 9.5q0 11 17 11q10 0 45 -1t53 -1q21 0 52 1t42 1q16 0 16 -10q0 -7 -17 -9t-49 -13.5t-60 -40.5l-62 -65l155 -260q11 -18 25 -26t24.5 -7.5t18 -2.5t7.5 -12q0 -12 -22 -12q-20 0 -61 1t-61 1t-61 -1t-61 -1q-18 0 -18 12q0 9 15 10.5
t30 7.5t15 25q0 13 -11 33z" />
    <glyph glyph-name="l" unicode="l" horiz-adv-x="296" 
d="M211 730v-650q0 -27 13 -40.5t28 -14.5t28 -4t13 -11q0 -12 -12 -12q-13 0 -58.5 1t-74.5 1t-74.5 -1t-58.5 -1q-12 0 -12 12q0 8 13 11t28 4t28 14.5t13 40.5v515q0 30 -20 44t-40 19t-20 12q0 8 13.5 11l69 15t123.5 34z" />
    <glyph glyph-name="m" unicode="m" horiz-adv-x="852" 
d="M209 462v-75q35 26 51.5 37t49 24.5t61.5 13.5q87 0 116 -76q96 76 171 76q111 0 111 -115v-267q0 -27 11 -40.5t24 -14.5t24 -4t11 -11q0 -12 -12 -12q-10 0 -50.5 1t-70.5 1q-31 0 -70 -1t-45 -1q-12 0 -12 12q0 8 10 11t22 4t22 14.5t10 40.5v264q0 32 -14.5 51
t-41.5 19q-37 0 -98 -47v-287q0 -35 16 -46.5t32 -13t16 -10.5q0 -12 -12 -12q-6 0 -45 1t-70 1t-70 -1t-45 -1q-12 0 -12 12q0 8 10 11t22 4t22 14.5t10 40.5v272q0 62 -55 62q-39 0 -99 -47v-287q0 -35 16 -46.5t32 -13t16 -10.5q0 -12 -12 -12q-6 0 -45 1t-70 1
q-30 0 -70.5 -1t-50.5 -1q-12 0 -12 12q0 8 11 11t24 4t24 14.5t11 40.5v251q0 30 -17.5 45t-35 19.5t-17.5 10.5q0 8 10.5 11t64.5 14t121 31z" />
    <glyph glyph-name="n" unicode="n" 
d="M208 462v-73q65 41 102.5 57t84.5 16q50 0 82.5 -29t32.5 -85v-268q0 -27 11 -40.5t24 -14.5t24 -4t11 -11q0 -12 -12 -12q-10 0 -50.5 1t-70.5 1t-70.5 -1t-50.5 -1q-12 0 -12 12q0 8 11 11t24 4t24 14.5t11 40.5v262q0 72 -64 72q-42 0 -112 -48v-286q0 -27 11 -40.5
t24 -14.5t24 -4t11 -11q0 -12 -12 -12q-10 0 -50.5 1t-70.5 1t-70.5 -1t-50.5 -1q-12 0 -12 12q0 8 11 11t24 4t24 14.5t11 40.5v251q0 30 -17.5 45t-35 19.5t-17.5 10.5q0 8 10.5 11t64.5 14t121 31z" />
    <glyph glyph-name="o" unicode="o" horiz-adv-x="574" 
d="M29 227q0 97 73 166t185 69t185 -69t73 -166t-73 -166t-185 -69t-185 69t-73 166zM171 227q0 -217 116 -217t116 217t-116 217t-116 -217z" />
    <glyph glyph-name="p" unicode="p" 
d="M205 462v-82l2 -1q70 83 169 83q81 0 134.5 -66.5t53.5 -153.5q0 -103 -73.5 -176.5t-186.5 -73.5q-43 0 -99 16v-120q0 -27 13 -40.5t28 -14.5t28 -4t13 -11q0 -12 -12 -12q-13 0 -58.5 1t-74.5 1t-74.5 -1t-58.5 -1q-12 0 -12 12q0 8 13 11t28 4t28 14.5t13 40.5v439
q0 30 -20 44t-40 19t-20 12q0 8 13.5 11l69 15t123.5 34zM205 354v-238q0 -46 26 -76t68 -30q59 0 96 48t37 146q0 89 -41 143.5t-101 54.5q-45 0 -85 -48z" />
    <glyph glyph-name="q" unicode="q" 
d="M388 86v236q0 122 -87 122q-63 0 -101.5 -52t-38.5 -149q0 -90 37 -140.5t103 -50.5q53 0 87 34zM450 406l39 41q15 15 17 15q8 0 8 -12v-562q0 -27 13 -40.5t28 -14.5t28 -4t13 -11q0 -12 -12 -12q-13 0 -58.5 1t-74.5 1t-74.5 -1t-58.5 -1q-12 0 -12 12q0 8 13 11t28 4
t28 14.5t13 40.5v172q-73 -68 -161 -68q-90 0 -144 58.5t-54 165.5q0 99 77.5 172.5t175.5 73.5q99 0 168 -56z" />
    <glyph glyph-name="r" unicode="r" horiz-adv-x="426" 
d="M220 462v-130h2q54 130 134 130q35 0 57.5 -19t22.5 -52q0 -32 -16 -50.5t-46 -18.5q-18 0 -30 9t-16.5 19t-13 19t-19.5 9q-30 0 -52.5 -39t-22.5 -67v-192q0 -27 11 -40.5t24 -14.5t24 -4t11 -11q0 -12 -12 -12q-10 0 -50.5 1t-70.5 1t-70.5 -1t-50.5 -1q-12 0 -12 12
q0 8 11 11t24 4t24 14.5t11 40.5v251q0 30 -17.5 45t-35 19.5t-17.5 10.5q0 8 10.5 11t64.5 14t121 31z" />
    <glyph glyph-name="s" unicode="s" horiz-adv-x="426" 
d="M40 21v148q0 9 8 9q4 0 6 -3t6.5 -16t10.5 -26q25 -55 59 -89t89 -34q45 0 68 20t23 55q0 31 -27.5 51.5t-67 34t-79 29.5t-67 48t-27.5 80q0 55 47 94.5t126 39.5q41 0 83.5 -11.5t65.5 -26.5v-115q0 -7 -6 -7q-4 0 -6.5 5t-8 19t-12.5 27q-22 41 -51.5 66t-77.5 25
q-32 0 -51 -16t-19 -46q0 -27 27.5 -45t67 -30.5t79 -28t67 -46.5t27.5 -78q0 -77 -52.5 -119.5t-138.5 -42.5q-88 0 -169 29z" />
    <glyph glyph-name="t" unicode="t" horiz-adv-x="352" 
d="M212 454h138l-24 -48h-114v-280q0 -86 64 -86q40 0 69 34q3 3 5.5 7t3.5 6.5t3 4.5t4 2q7 0 7 -8q0 -7 -8.5 -21t-25 -31t-47.5 -29.5t-70 -12.5q-64 0 -97.5 34t-33.5 94v286h-62q113 91 186 220h2v-172z" />
    <glyph glyph-name="u" unicode="u" 
d="M510 462v-339q0 -30 17.5 -45t35 -19.5t17.5 -10.5q0 -8 -10.5 -11t-64.5 -14t-121 -31v78q-45 -39 -84 -58.5t-97 -19.5q-63 0 -92 27.5t-29 82.5v229q0 30 -17.5 45t-35 19.5t-17.5 10.5q0 8 10.5 11t64.5 14t121 31v-354q0 -36 15.5 -52t51.5 -16q60 0 109 58v233
q0 30 -17.5 45t-35 19.5t-17.5 10.5q0 8 10.5 11t64.5 14t121 31z" />
    <glyph glyph-name="v" unicode="v" horiz-adv-x="500" 
d="M215 354l88 -208l61 131q25 53 25 99q0 29 -13.5 42.5t-27 17.5t-13.5 10q0 10 12 10t36 -1t36 -1t36 1t36 1t12 -9q0 -6 -6.5 -10t-16.5 -9t-26 -24.5t-31 -50.5l-167 -348q-6 -13 -14 -13q-10 0 -15 13l-172 397q-6 15 -17 22.5t-19.5 9t-15 4.5t-6.5 8q0 10 12 10
q19 0 56.5 -1t56.5 -1t57 1t59 1q15 0 15 -11q0 -8 -13.5 -10t-27 -9t-13.5 -27q0 -9 16 -45z" />
    <glyph glyph-name="w" unicode="w" horiz-adv-x="741" 
d="M290 156l72 162l-38 89q-7 16 -20.5 22.5t-23.5 8t-10 7.5q0 11 13 11q16 0 51.5 -1t53.5 -1q17 0 55 1t61 1q12 0 12 -12q0 -6 -8 -9t-18 -4t-18 -9t-8 -22q0 -9 11 -35l81 -203l64 155q12 29 12 57q0 32 -14.5 45t-29 16t-14.5 10q0 11 18 11q12 0 34.5 -1t33.5 -1
q12 0 36 1t32 1q16 0 16 -11q0 -5 -9 -10l-22 -12.5t-31.5 -31.5t-33.5 -61l-133 -327q-5 -11 -13 -11t-13 11l-117 291l-127 -291q-5 -11 -13 -11t-13 11l-160 402q-8 21 -29.5 27.5t-21.5 13.5q0 10 15 10q16 0 50.5 -1t51.5 -1t51.5 1t51.5 1q16 0 16 -11q0 -4 -11.5 -7
t-23 -11t-11.5 -25q0 -6 10 -31z" />
    <glyph glyph-name="x" unicode="x" horiz-adv-x="556" 
d="M309 84l-77 112q-70 -78 -70 -124q0 -26 14 -38t28 -16t14 -11q0 -9 -14 -9q-20 0 -50 1t-44 1q-18 0 -49.5 -1t-41.5 -1q-19 0 -19 11q0 7 10.5 10t27 6t44 23t54.5 56l84 110l-129 187q-13 19 -32 27t-30 10t-11 8q0 10 13 10q23 0 65.5 -1t63.5 -1t63 1t63 1
q16 0 16 -11q0 -3 -26 -11t-26 -27q0 -13 14 -33l57 -83q38 40 54.5 63t16.5 45q0 20 -12 28t-24 10.5t-12 9.5q0 9 16 9q12 0 38 -1t39 -1t39.5 1t39.5 1q14 0 14 -8q0 -7 -10.5 -10t-38.5 -18t-58 -47l-91 -96l136 -202q21 -31 46.5 -42.5t39.5 -13t14 -10.5
q0 -11 -20 -11q-24 0 -68.5 1t-65.5 1t-65.5 -1t-68.5 -1q-8 0 -11.5 3t-2.5 9q1 7 10 10t19 3.5t18.5 7t8.5 19.5q0 15 -13 34z" />
    <glyph glyph-name="y" unicode="y" horiz-adv-x="500" 
d="M244 -6l-173 386q-14 31 -33 43t-30.5 13.5t-11.5 10.5t16 9q19 0 56 -1t55 -1t54.5 1t54.5 1q12 0 12 -9q0 -5 -11 -8t-22 -10t-11 -23q0 -7 14 -40l96 -218l55 129q19 43 19 89q0 37 -17.5 52.5t-35 18t-17.5 9.5q0 10 12 10q15 0 45 -1t45 -1t45 1t45 1q10 0 10 -8
q0 -6 -3.5 -8t-14.5 -6t-21 -11q-39 -28 -77 -116l-193 -447q-31 -72 -89 -72q-28 0 -48 19t-20 46q0 28 15 44.5t42 16.5q31 0 50 -29l6.5 -11t4.5 -8t3.5 -4t6.5 -2q13 0 22 25z" />
    <glyph glyph-name="z" unicode="z" horiz-adv-x="500" 
d="M298 438h-8q-116 0 -192 -93q-13 -16 -22.5 -31t-13 -23.5l-6 -15t-4.5 -9t-6 -2.5q-6 0 -6 6q0 9 7 34l39 152q124 -2 184 -2q56 0 190 2l-284 -440h8q76 0 137.5 42t97.5 110q6 12 11.5 24.5t7.5 20t4.5 14t5 9t5.5 2.5q7 0 7 -6q0 -8 -6 -36l-40 -198q-132 2 -199 2
t-199 -2z" />
    <glyph glyph-name="braceleft" unicode="{" horiz-adv-x="407" 
d="M104 383v195q0 94 43 123t158 29v-24q-46 -4 -63.5 -28.5t-17.5 -81.5v-197q0 -63 -16 -94.5t-65 -44.5v-2q49 -13 65 -44.5t16 -94.5v-197q0 -57 17.5 -81.5t63.5 -28.5v-24q-115 0 -158 29t-43 123v195q0 55 -15.5 82.5t-60.5 41.5q45 14 60.5 41.5t15.5 82.5z" />
    <glyph glyph-name="bar" unicode="|" horiz-adv-x="222" 
d="M60 0v730h102v-730h-102z" />
    <glyph glyph-name="braceright" unicode="}" horiz-adv-x="407" 
d="M303 135v-195q0 -94 -43 -123t-158 -29v24q46 4 63.5 28.5t17.5 81.5v197q0 63 16 94.5t65 44.5v2q-49 13 -65 44.5t-16 94.5v197q0 57 -17.5 81.5t-63.5 28.5v24q115 0 158 -29t43 -123v-195q0 -55 15.5 -82.5t60.5 -41.5q-45 -14 -60.5 -41.5t-15.5 -82.5z" />
    <glyph glyph-name="asciitilde" unicode="~" horiz-adv-x="600" 
d="M475 311l40 -87q-3 -3 -8 -9q-20 -23 -32 -34.5t-34 -22.5t-46 -11q-38 0 -91 29q-56 33 -103 33q-45 0 -76 -66l-40 87q18 24 31 38t37 26.5t52 12.5q34 0 100 -29q70 -32 91 -32q17 0 32.5 11t24 22t22.5 32z" />
    <glyph glyph-name="uni00A0" unicode="&#xa0;" horiz-adv-x="296" 
 />
    <glyph glyph-name="exclamdown" unicode="&#xa1;" horiz-adv-x="278" 
d="M220 -98q0 -114 -81 -114t-81 114q0 58 28 166.5t38 163.5q2 12 2.5 31.5t2.5 28t10 8.5t10 -8.5t2.5 -28t2.5 -31.5q10 -59 38 -166t28 -164zM212 417q0 -30 -21.5 -51.5t-51.5 -21.5q-31 0 -52 21.5t-21 51.5q0 31 21 52t52 21q30 0 51.5 -21t21.5 -52z" />
    <glyph glyph-name="cent" unicode="&#xa2;" 
d="M116 0h-30l92 160q-38 24 -65 71.5t-27 98.5q0 105 63.5 172.5t159.5 67.5q43 0 85 -20l72 128h30l-78 -140q30 -20 47 -52t17 -56q0 -28 -15.5 -46t-42.5 -18t-40.5 17t-17.5 57h-2l-115 -200q36 -38 93 -38q31 0 58 12t41 27l25 27t14 12q8 0 8 -7q0 -10 -9 -32
t-28 -49.5t-57 -47.5t-86 -20q-64 0 -108 22zM230 258l138 246q-15 48 -67 48q-56 0 -87.5 -42.5t-31.5 -111.5q0 -79 48 -140z" />
    <glyph glyph-name="sterling" unicode="&#xa3;" 
d="M58 316v48h104q-66 60 -66 142q0 74 57.5 127t134.5 53q43 0 91.5 -20t65.5 -20q14 0 19.5 12t10.5 12q9 0 10 -15l17 -177q0 -4 1 -14t1 -14q0 -12 -10 -12q-6 0 -9 9.5l-11.5 36.5t-24.5 57q-68 127 -165 127q-39 0 -62.5 -27.5t-23.5 -68.5q0 -29 17 -56t39.5 -45.5
t49.5 -48t42 -58.5h132v-48h-114q4 -34 4 -50q0 -65 -28 -128q48 -26 84 -26q92 0 112 106q2 10 3 25.5t3.5 20t8.5 4.5q9 0 9 -12q0 -47 -8 -89.5t-26 -84t-54 -66t-85 -24.5q-62 0 -109 52q-46 -44 -108 -44q-46 0 -73 26t-27 74q0 44 30 76t81 32q70 0 138 -55q2 6 2 25
q0 28 -27 72t-68 66h-168zM94 88q0 -28 21.5 -49t54.5 -21q60 0 96 42q-70 88 -114 88q-27 0 -42.5 -16.5t-15.5 -43.5z" />
    <glyph glyph-name="currency" unicode="&#xa4;" 
d="M501 606l60 -60l-58 -57q48 -53 48 -150t-48 -150l58 -57l-60 -60l-59 58q-55 -47 -146 -47t-146 47l-59 -58l-60 60l58 57q-48 53 -48 150t48 150l-58 57l60 60l59 -58q55 47 146 47t146 -47zM296 507q-68 0 -115.5 -49t-47.5 -119t47.5 -119t115.5 -49t115.5 49
t47.5 119t-47.5 119t-115.5 49z" />
    <glyph glyph-name="yen" unicode="&#xa5;" 
d="M540 220h-173v-140q0 -27 13.5 -40.5t30.5 -14t30.5 -3t13.5 -11.5q0 -13 -20 -13q-27 0 -73.5 1t-65.5 1t-65.5 -1t-73.5 -1q-20 0 -20 13q0 9 13.5 11.5t30.5 3t30.5 14t13.5 40.5v140h-171v48h171v44l-20 36h-151v48h124l-116 211q-17 30 -42 41t-41 12t-16 9
q0 11 17 11q25 0 72 -1t70 -1q24 0 70 1t70 1q22 0 22 -10q0 -8 -19 -9.5t-37.5 -10.5t-18.5 -33q0 -18 22 -60l119 -227l85 148q44 77 44 118q0 29 -17.5 43.5t-35 19.5t-17.5 10q0 11 20 11q15 0 45 -1t51 -1q16 0 47 1t46 1q11 0 11 -10q0 -4 -4 -7t-11.5 -5.5t-20 -11.5
t-27.5 -22.5t-36 -41t-43 -64.5l-73 -122h126v-48h-156l-17 -29v-51h173v-48z" />
    <glyph glyph-name="brokenbar" unicode="&#xa6;" horiz-adv-x="222" 
d="M60 0v282h102v-282h-102zM60 448v282h102v-282h-102z" />
    <glyph glyph-name="section" unicode="&#xa7;" horiz-adv-x="500" 
d="M30 -98v181q0 11 8 11q5 0 8 -5t10 -24.5t17 -39.5q28 -58 74 -91.5t103 -33.5q34 0 57 20t23 52t-30.5 56.5t-73.5 43t-86 41t-73.5 61t-30.5 90.5q0 110 126 150q-98 81 -98 149q0 61 45.5 96t126.5 35q44 0 94 -15t53 -15q18 0 30.5 12t15.5 12q9 0 9 -15v-153
q0 -17 -10 -17q-6 0 -9 4.5t-8 21.5t-11 31q-45 110 -130 110q-35 0 -57.5 -19t-22.5 -57q0 -32 29 -59t70 -49t82 -46.5t70 -60.5t29 -81q0 -32 -9.5 -56t-31 -41.5t-35 -25t-42.5 -21.5q46 -22 72 -56t26 -71q0 -64 -52 -107.5t-136 -43.5q-49 0 -105 20t-62 20
q-16 0 -30.5 -15t-20.5 -15q-14 0 -14 16zM374 233q0 17 -10 33t-31 32.5t-41 29.5l-53.5 34t-55.5 36q-57 -16 -57 -70q0 -38 45.5 -72t161.5 -92q13 2 27 22.5t14 46.5z" />
    <glyph glyph-name="dieresis" unicode="&#xa8;" horiz-adv-x="296" 
d="M192 587q0 24 17 41.5t42 17.5t42 -17.5t17 -41.5t-17 -41.5t-42 -17.5t-42 17.5t-17 41.5zM-14 587q0 24 17 41.5t42 17.5t42 -17.5t17 -41.5t-17 -41.5t-42 -17.5t-42 17.5t-17 41.5z" />
    <glyph glyph-name="copyright" unicode="&#xa9;" horiz-adv-x="800" 
d="M400 -16q-149 0 -248 101.5t-99 252.5t99 253.5t248 102.5t248 -102.5t99 -253.5t-99 -252.5t-248 -101.5zM400 42q115 0 191 86t76 210q0 125 -76 211.5t-191 86.5t-191 -86.5t-76 -211.5q0 -124 76 -210t191 -86zM548 263h22l-16 -76q0 -2 -1 -4t-1.5 -3.5t-2.5 -3
t-3.5 -2.5t-4 -2.5t-4.5 -2t-5.5 -2t-5.5 -2.5l-22 -6q-23 -6 -43 -9.5t-41 -3.5q-102 0 -160 52t-58 152q0 35 11.5 67.5t35.5 63t70 49t108 18.5q48 0 103 -19q23 -7 23 -21v-72h-22q-26 88 -103 88q-54 0 -81.5 -45t-28.5 -123q-2 -186 110 -186q79 0 120 93z" />
    <glyph glyph-name="ordfeminine" unicode="&#xaa;" horiz-adv-x="300" 
d="M184 577v55q0 36 -22 36q-47 0 -58 -40q-12 -42 -22 -51q-11 -10 -31 -10q-16 0 -25 9.5t-9 24.5q0 31 56.5 58t114.5 27q39 0 58.5 -18t19.5 -59v-160q0 -17 17 -17q11 0 23 10t13 10q7 0 7 -7q0 -10 -25 -25.5t-53 -15.5q-29 0 -42.5 10t-21.5 33q-59 -43 -110 -43
q-66 0 -66 55q0 13 4.5 24t14.5 20.5t20.5 16.5t28.5 15t31.5 13l37.5 14zM184 463v96q-48 -16 -68 -33t-20 -42t8.5 -33.5t25.5 -8.5q31 0 54 21z" />
    <glyph glyph-name="guillemotleft" unicode="&#xab;" horiz-adv-x="481" 
d="M257 390l-102 -163l102 -163q10 -15 10 -20q0 -8 -8 -8q-5 0 -25 18l-156 149q-17 17 -17 24t17 24l156 149q20 18 25 18q8 0 8 -8q0 -5 -10 -20zM411 390l-102 -163l102 -163q10 -15 10 -20q0 -8 -8 -8q-5 0 -25 18l-156 149q-17 17 -17 24t17 24l156 149q20 18 25 18
q8 0 8 -8q0 -5 -10 -20z" />
    <glyph glyph-name="logicalnot" unicode="&#xac;" horiz-adv-x="600" 
d="M425 76v200h-352v102h454v-302h-102z" />
    <glyph glyph-name="uni00AD" unicode="&#xad;" horiz-adv-x="333" 
d="M42 179v96h248v-96h-248z" />
    <glyph glyph-name="registered" unicode="&#xae;" horiz-adv-x="800" 
d="M234 518v18h201q49 0 80 -25t31 -74q0 -33 -20.5 -61.5t-56.5 -39.5l58 -84q37 -54 63 -81v-14h-90q-14 0 -29.5 24.5t-38 71t-38.5 71.5h-27v-106q0 -26 6 -32.5t37 -8.5v-20h-176v20q31 2 37 8.5t6 32.5v259q0 15 -0.5 20t-4.5 10.5t-12.5 7.5t-25.5 3zM367 512v-164
h28q55 0 55 86q0 78 -52 78h-31zM400 -16q-149 0 -248 101.5t-99 252.5t99 253.5t248 102.5t248 -102.5t99 -253.5t-99 -252.5t-248 -101.5zM400 42q115 0 191 86t76 210q0 125 -76 211.5t-191 86.5t-191 -86.5t-76 -211.5q0 -124 76 -210t191 -86z" />
    <glyph glyph-name="macron" unicode="&#xaf;" horiz-adv-x="296" 
d="M-14 554v66h324v-66h-324z" />
    <glyph glyph-name="degree" unicode="&#xb0;" horiz-adv-x="400" 
d="M200 450q36 0 62.5 28t26.5 65t-26.5 65t-62.5 28t-62.5 -28t-26.5 -65t26.5 -65t62.5 -28zM200 400q-60 0 -101.5 41.5t-41.5 101.5t41.5 101.5t101.5 41.5t101.5 -41.5t41.5 -101.5t-41.5 -101.5t-101.5 -41.5z" />
    <glyph glyph-name="plusminus" unicode="&#xb1;" horiz-adv-x="600" 
d="M249 344v110h102v-110h176v-102h-176v-110h-102v110h-176v102h176zM73 0v102h454v-102h-454z" />
    <glyph glyph-name="twosuperior" unicode="&#xb2;" horiz-adv-x="355" 
d="M85 352h154q25 0 42.5 7t23.5 16l11 16t9 7q8 0 8 -8q0 -3 -4 -17l-29 -99h-278q1 38 22.5 70.5t52 54.5l61 43.5t52 47.5t21.5 56q0 35 -25.5 60.5t-68.5 25.5q-47 0 -81 -34q-7 -7 -14 -18t-11.5 -17.5t-8.5 -6.5q-5 0 -5 5q0 3 3.5 14.5t15 31t28.5 37t48.5 30
t69.5 12.5q63 0 104 -36t41 -85q0 -46 -29 -77t-66 -45.5t-81.5 -38t-65.5 -52.5z" />
    <glyph glyph-name="threesuperior" unicode="&#xb3;" horiz-adv-x="355" 
d="M304 587q0 -35 -34 -66q72 -47 72 -108q0 -60 -54 -102.5t-126 -42.5q-68 0 -111 24.5t-43 58.5q0 19 13.5 33t33.5 14q47 0 49 -60q1 -52 57 -52q37 0 63 25t26 67q0 36 -20 60.5t-51 34.5q-10 3 -23.5 3.5t-19.5 2t-6 7.5t4 8.5t10.5 2t18 1.5t22.5 7q37 19 37 68
q0 33 -22 51t-59 18q-29 0 -48.5 -12.5t-29.5 -25t-15 -12.5q-7 0 -7 8q0 7 7.5 20t22.5 28.5t43 26.5t63 11q51 0 89 -26.5t38 -72.5z" />
    <glyph glyph-name="acute" unicode="&#xb4;" horiz-adv-x="296" 
d="M118 514h-50l142 154q25 26 52 26q16 0 29 -11.5t13 -29.5q0 -23 -32 -43z" />
    <glyph glyph-name="mu" unicode="&#xb5;" 
d="M208 462v-354q0 -36 15.5 -52t51.5 -16q60 0 109 58v233q0 30 -17.5 45t-35 19.5t-17.5 10.5q0 8 10.5 11t64.5 14t121 31v-339q0 -30 17.5 -45t35 -19.5t17.5 -10.5q0 -8 -10.5 -11t-64.5 -14t-121 -31v78q-45 -40 -83.5 -58.5t-90.5 -19.5q0 -15 2 -48.5t2 -53.5
q0 -102 -70 -102q-68 0 -68 102q0 33 3 110.5t3 133.5v197q0 30 -17.5 45t-35 19.5t-17.5 10.5q0 8 10.5 11t64.5 14t121 31z" />
    <glyph glyph-name="paragraph" unicode="&#xb6;" horiz-adv-x="620" 
d="M560 678v-24q-49 -5 -62.5 -13t-13.5 -33v-732h-84v772h-60v-772h-84v404q-84 0 -129 56t-45 150q0 102 47.5 147t155.5 45h275z" />
    <glyph glyph-name="periodcentered" unicode="&#xb7;" horiz-adv-x="296" 
d="M75 227q0 30 21.5 51.5t51.5 21.5q31 0 52 -21.5t21 -51.5q0 -31 -21 -52t-52 -21q-30 0 -51.5 21t-21.5 52z" />
    <glyph glyph-name="cedilla" unicode="&#xb8;" horiz-adv-x="296" 
d="M118 0h42l-32 -66q11 4 35 4q37 0 61 -17.5t24 -49.5q0 -44 -34.5 -66.5t-93.5 -22.5q-43 0 -92 14l16 36q38 -12 60 -12q60 0 60 41q0 17 -14 28t-34 11q-17 0 -28 -4l-12 8z" />
    <glyph glyph-name="onesuperior" unicode="&#xb9;" horiz-adv-x="355" 
d="M234 672v-335q0 -41 46 -41q48 0 48 -14q0 -10 -11 -10q-22 0 -66.5 1t-66.5 1t-66.5 -1t-66.5 -1q-12 0 -12 10q0 5 2.5 7.5t13.5 4.5t32 2q29 0 40 9t11 31v267q0 17 -14 17h-89q-9 0 -9 10q0 4 3 6.5t10 3.5t14.5 1t20.5 0.5t25 2.5q27 4 56 14.5t47 19t19 8.5
q13 0 13 -14z" />
    <glyph glyph-name="ordmasculine" unicode="&#xba;" horiz-adv-x="344" 
d="M4 545q0 58 47.5 99.5t120.5 41.5t120.5 -41.5t47.5 -99.5t-47.5 -99.5t-120.5 -41.5t-120.5 41.5t-47.5 99.5zM94 545q0 -64 21.5 -93.5t56.5 -29.5t56.5 29.5t21.5 93.5t-21.5 93.5t-56.5 29.5t-56.5 -29.5t-21.5 -93.5z" />
    <glyph glyph-name="guillemotright" unicode="&#xbb;" horiz-adv-x="481" 
d="M224 64l102 163l-102 163q-10 15 -10 20q0 8 8 8q5 0 25 -18l156 -149q17 -17 17 -24t-17 -24l-156 -149q-20 -18 -25 -18q-8 0 -8 8q0 5 10 20zM70 64l102 163l-102 163q-10 15 -10 20q0 8 8 8q5 0 25 -18l156 -149q17 -17 17 -24t-17 -24l-156 -149q-20 -18 -25 -18
q-8 0 -8 8q0 5 10 20z" />
    <glyph glyph-name="onequarter" unicode="&#xbc;" horiz-adv-x="889" 
d="M701 144v168h-1l-152 -168h153zM793 407v-263h79l-15 -32h-64v-59q0 -22 15 -28.5t30 -7t15 -7.5q0 -12 -12 -12q-19 0 -50 1t-44 1t-44 -1t-50 -1q-12 0 -12 12q0 7 15 7.5t30 7t15 28.5v59h-181l-12 25l240 270h45zM291 -8h-84l417 694h84zM234 672v-335q0 -41 46 -41
q48 0 48 -14q0 -10 -11 -10q-22 0 -66.5 1t-66.5 1t-66.5 -1t-66.5 -1q-12 0 -12 10q0 5 2.5 7.5t13.5 4.5t32 2q29 0 40 9t11 31v267q0 17 -14 17h-89q-9 0 -9 10q0 4 3 6.5t10 3.5t14.5 1t20.5 0.5t25 2.5q27 4 56 14.5t47 19t19 8.5q13 0 13 -14z" />
    <glyph glyph-name="onehalf" unicode="&#xbd;" horiz-adv-x="889" 
d="M283 -8h-84l417 694h84zM234 672v-335q0 -41 46 -41q48 0 48 -14q0 -10 -11 -10q-22 0 -66.5 1t-66.5 1t-66.5 -1t-66.5 -1q-12 0 -12 10q0 5 2.5 7.5t13.5 4.5t32 2q29 0 40 9t11 31v267q0 17 -14 17h-89q-9 0 -9 10q0 4 3 6.5t10 3.5t14.5 1t20.5 0.5t25 2.5
q27 4 56 14.5t47 19t19 8.5q13 0 13 -14zM609 78h154q25 0 42.5 7t23.5 16l11 16t9 7q8 0 8 -8q0 -3 -4 -17l-29 -99h-278q1 38 22.5 70.5t52 54.5l61 43.5t52 47.5t21.5 56q0 35 -25.5 60.5t-68.5 25.5q-47 0 -81 -34q-7 -7 -14 -18t-11.5 -17.5t-8.5 -6.5q-5 0 -5 5
q0 3 3.5 14.5t15 31t28.5 37t48.5 30t69.5 12.5q63 0 104 -36t41 -85q0 -46 -29 -77t-66 -45.5t-81.5 -38t-65.5 -52.5z" />
    <glyph glyph-name="threequarters" unicode="&#xbe;" horiz-adv-x="889" 
d="M713 144v168h-1l-152 -168h153zM805 407v-263h79l-15 -32h-64v-59q0 -22 15 -28.5t30 -7t15 -7.5q0 -11 -12 -11q-19 0 -50 0.5t-44 0.5t-44 -0.5t-50 -0.5q-12 0 -12 11q0 7 15 7.5t30 7t15 28.5v59h-181l-12 25l240 270h45zM311 -8h-84l417 694h84zM328 587
q0 -35 -34 -66q72 -47 72 -108q0 -60 -54 -102.5t-126 -42.5q-68 0 -111 24.5t-43 58.5q0 19 13.5 33t33.5 14q47 0 49 -60q1 -52 57 -52q37 0 63 25t26 67q0 36 -20 60.5t-51 34.5q-10 3 -23.5 3.5t-19.5 2t-6 7.5t4 8.5t10.5 2t18 1.5t22.5 7q37 19 37 68q0 33 -22 51
t-59 18q-29 0 -48.5 -12.5t-29.5 -25t-15 -12.5q-7 0 -7 8q0 7 7.5 20t22.5 28.5t43 26.5t63 11q51 0 89 -26.5t38 -72.5z" />
    <glyph glyph-name="questiondown" unicode="&#xbf;" horiz-adv-x="500" 
d="M274 294l30 6q2 -20 6.5 -42.5t8 -38.5t11 -41t10.5 -34t12.5 -35t9.5 -27l-28 -16q-31 38 -88 38q-63 0 -107.5 -42.5t-44.5 -117.5q0 -53 33 -86.5t89 -33.5q35 0 58 16.5t33.5 40t20 47t26.5 40t45 16.5q24 0 40.5 -16.5t16.5 -42.5q0 -56 -53.5 -96.5t-131.5 -40.5
q-115 0 -179 70t-64 165q0 34 11.5 67t35.5 63.5t67 49.5t100 19h32v72zM361 417q0 -30 -21.5 -51.5t-51.5 -21.5q-31 0 -52 21.5t-21 51.5q0 31 21 52t52 21q30 0 51.5 -21t21.5 -52z" />
    <glyph glyph-name="Agrave" unicode="&#xc0;" horiz-adv-x="704" 
d="M196 274h212l-110 269zM418 256h-228q-4 -12 -14 -38t-14.5 -39.5t-9 -33.5t-4.5 -38q0 -40 21 -61t41.5 -28t20.5 -12q0 -8 -9 -8q-18 0 -56 1t-58 1t-58.5 -1t-58.5 -1q-11 0 -11 9t21 14q82 18 149 194l127 329q7 19 7 29q0 12 -15 22t-15 12q0 3 6 6.5t23 16.5t37 33
l21.5 24t13.5 17l7 10.5t4.5 6t4.5 1.5q5 0 15 -25l253 -616q14 -35 35.5 -49.5t35.5 -17t14 -8.5q0 -8 -10 -8q-23 0 -70 1t-71 1t-71.5 -1t-69.5 -1q-12 0 -12 10q0 7 17.5 9t35 11t17.5 33q0 9 -2 18.5t-8 25.5t-13 32l-21 50zM438 721h-50l-154 96q-32 20 -32 43
q0 18 13 29.5t29 11.5q27 0 52 -26z" />
    <glyph glyph-name="Aacute" unicode="&#xc1;" horiz-adv-x="704" 
d="M196 274h212l-110 269zM418 256h-228q-4 -12 -14 -38t-14.5 -39.5t-9 -33.5t-4.5 -38q0 -40 21 -61t41.5 -28t20.5 -12q0 -8 -9 -8q-18 0 -56 1t-58 1t-58.5 -1t-58.5 -1q-11 0 -11 9t21 14q82 18 149 194l127 329q7 19 7 29q0 12 -15 22t-15 12q0 3 6 6.5t23 16.5t37 33
l21.5 24t13.5 17l7 10.5t4.5 6t4.5 1.5q5 0 15 -25l253 -616q14 -35 35.5 -49.5t35.5 -17t14 -8.5q0 -8 -10 -8q-23 0 -70 1t-71 1t-71.5 -1t-69.5 -1q-12 0 -12 10q0 7 17.5 9t35 11t17.5 33q0 9 -2 18.5t-8 25.5t-13 32l-21 50zM328 721h-50l142 154q25 26 52 26
q16 0 29 -11.5t13 -29.5q0 -23 -32 -43z" />
    <glyph glyph-name="Acircumflex" unicode="&#xc2;" horiz-adv-x="704" 
d="M196 274h212l-110 269zM418 256h-228q-4 -12 -14 -38t-14.5 -39.5t-9 -33.5t-4.5 -38q0 -40 21 -61t41.5 -28t20.5 -12q0 -8 -9 -8q-18 0 -56 1t-58 1t-58.5 -1t-58.5 -1q-11 0 -11 9t21 14q82 18 149 194l127 329q7 19 7 29q0 12 -15 22t-15 12q0 3 6 6.5t23 16.5t37 33
l21.5 24t13.5 17l7 10.5t4.5 6t4.5 1.5q5 0 15 -25l253 -616q14 -35 35.5 -49.5t35.5 -17t14 -8.5q0 -8 -10 -8q-23 0 -70 1t-71 1t-71.5 -1t-69.5 -1q-12 0 -12 10q0 7 17.5 9t35 11t17.5 33q0 9 -2 18.5t-8 25.5t-13 32l-21 50zM320 895h78l124 -174h-50l-114 102
l-114 -102h-50z" />
    <glyph glyph-name="Atilde" unicode="&#xc3;" horiz-adv-x="704" 
d="M196 274h212l-110 269zM418 256h-228q-4 -12 -14 -38t-14.5 -39.5t-9 -33.5t-4.5 -38q0 -40 21 -61t41.5 -28t20.5 -12q0 -8 -9 -8q-18 0 -56 1t-58 1t-58.5 -1t-58.5 -1q-11 0 -11 9t21 14q82 18 149 194l127 329q7 19 7 29q0 12 -15 22t-15 12q0 3 6 6.5t23 16.5t37 33
l21.5 24t13.5 17l7 10.5t4.5 6t4.5 1.5q5 0 15 -25l253 -616q14 -35 35.5 -49.5t35.5 -17t14 -8.5q0 -8 -10 -8q-23 0 -70 1t-71 1t-71.5 -1t-69.5 -1q-12 0 -12 10q0 7 17.5 9t35 11t17.5 33q0 9 -2 18.5t-8 25.5t-13 32l-21 50zM498 861h36q-17 -65 -45 -91.5t-69 -26.5
q-35 0 -83 24t-65 24q-20 0 -35.5 -13.5t-18.5 -34.5h-36q7 57 39 87.5t75 30.5q30 0 78.5 -24t68.5 -24q38 0 55 48z" />
    <glyph glyph-name="Adieresis" unicode="&#xc4;" horiz-adv-x="704" 
d="M196 274h212l-110 269zM418 256h-228q-4 -12 -14 -38t-14.5 -39.5t-9 -33.5t-4.5 -38q0 -40 21 -61t41.5 -28t20.5 -12q0 -8 -9 -8q-18 0 -56 1t-58 1t-58.5 -1t-58.5 -1q-11 0 -11 9t21 14q82 18 149 194l127 329q7 19 7 29q0 12 -15 22t-15 12q0 3 6 6.5t23 16.5t37 33
l21.5 24t13.5 17l7 10.5t4.5 6t4.5 1.5q5 0 15 -25l253 -616q14 -35 35.5 -49.5t35.5 -17t14 -8.5q0 -8 -10 -8q-23 0 -70 1t-71 1t-71.5 -1t-69.5 -1q-12 0 -12 10q0 7 17.5 9t35 11t17.5 33q0 9 -2 18.5t-8 25.5t-13 32l-21 50zM402 794q0 24 17 41.5t42 17.5t42 -17.5
t17 -41.5t-17 -41.5t-42 -17.5t-42 17.5t-17 41.5zM196 794q0 24 17 41.5t42 17.5t42 -17.5t17 -41.5t-17 -41.5t-42 -17.5t-42 17.5t-17 41.5z" />
    <glyph glyph-name="Aring" unicode="&#xc5;" horiz-adv-x="704" 
d="M196 274h212l-110 269zM418 256h-228q-4 -12 -14 -38t-14.5 -39.5t-9 -33.5t-4.5 -38q0 -40 21 -61t41.5 -28t20.5 -12q0 -8 -9 -8q-18 0 -56 1t-58 1t-58.5 -1t-58.5 -1q-11 0 -11 9t21 14q82 18 149 194l127 329q7 19 7 29q0 12 -15 22t-15 12q0 3 6 6.5t23 16.5t37 33
l21.5 24t13.5 17l7 10.5t4.5 6t4.5 1.5q5 0 15 -25l253 -616q14 -35 35.5 -49.5t35.5 -17t14 -8.5q0 -8 -10 -8q-23 0 -70 1t-71 1t-71.5 -1t-69.5 -1q-12 0 -12 10q0 7 17.5 9t35 11t17.5 33q0 9 -2 18.5t-8 25.5t-13 32l-21 50zM256 825q0 44 29 73t73 29t73 -29t29 -73
t-29 -73t-73 -29t-73 29t-29 73zM298 825q0 -25 17.5 -42.5t42.5 -17.5t42.5 17.5t17.5 42.5t-17.5 42.5t-42.5 17.5t-42.5 -17.5t-17.5 -42.5z" />
    <glyph glyph-name="AE" unicode="&#xc6;" horiz-adv-x="1019" 
d="M464 332h-220l-91 -140q-25 -38 -25 -78q0 -34 13.5 -55t29.5 -26t29.5 -10t13.5 -12q0 -13 -21 -13q-20 0 -56.5 1t-54.5 1q-17 0 -55 -1t-60 -1q-19 0 -19 14q0 6 14 15t34.5 19.5t50.5 38.5t55 67l293 453q17 25 17 35q0 12 -24 17t-24 13q0 10 20 10q42 0 128 -1
t128 -1t128 1t129 1l50 -191q6 -22 6 -26q0 -8 -10 -8q-4 0 -7 5.5t-13.5 27.5t-26.5 49q-37 61 -91 90t-141 29h-54v-300h25q52 0 87 35t38 89q1 25 14 25q10 0 10 -14v-306q0 -14 -10 -14q-13 0 -14 25q-3 65 -37 100.5t-88 35.5h-25v-240q0 -36 18 -53t64 -17
q107 0 175.5 62t95.5 148l2.5 7.5t2 6.5t1.5 5t2 4t2 2.5t2.5 2t3.5 0.5q10 0 10 -11q0 -7 -4 -29l-44 -222q-272 2 -404 2q-19 0 -65.5 -1t-73.5 -1q-20 0 -20 13q0 9 13.5 11.5t29.5 3t29.5 14t13.5 40.5v252zM464 356v300h-2l-200 -300h202z" />
    <glyph glyph-name="Ccedilla" unicode="&#xc7;" horiz-adv-x="704" 
d="M636 668v-252q0 -20 -11 -20q-7 0 -9.5 9t-9.5 38t-20 60q-31 73 -81.5 120t-116.5 47q-93 0 -144.5 -80.5t-51.5 -250.5q0 -331 202 -331q69 0 127.5 57.5t83.5 128.5q5 16 8.5 30.5t4.5 22.5t2.5 14.5t3.5 8.5t7 2q9 0 9 -16v-263q0 -17 -12 -17q-7 0 -9.5 14t-10.5 28
t-29 14q-15 0 -42.5 -12t-69 -24t-91.5 -12h-3l-24 -50q11 4 35 4q37 0 61 -17.5t24 -49.5q0 -44 -34.5 -66.5t-93.5 -22.5q-43 0 -92 14l16 36q38 -12 60 -12q60 0 60 41q0 17 -14 28t-34 11q-17 0 -28 -4l-12 8l36 82q-136 15 -220.5 113.5t-84.5 239.5q0 150 102 252.5
t246 102.5q49 0 91 -14t71 -28t46 -14q14 0 20.5 7t7 15t3 15t9.5 7q12 0 12 -14z" />
    <glyph glyph-name="Egrave" unicode="&#xc8;" horiz-adv-x="667" 
d="M112 80v518q0 27 -13.5 40.5t-29.5 14t-29.5 3t-13.5 11.5q0 13 20 13q27 0 73.5 -1t65.5 -1q124 0 360 2l50 -191q6 -22 6 -26q0 -8 -10 -8q-4 0 -7 5.5t-13.5 27.5t-26.5 49q-37 61 -91 90t-141 29h-54v-288h25q52 0 87 35t38 89q1 25 14 25q10 0 10 -14v-306
q0 -14 -10 -14q-13 0 -14 25q-3 65 -37 100.5t-88 35.5h-25v-252q0 -36 18 -53t64 -17q107 0 175.5 62t95.5 148l2.5 7.5t2 6.5t1.5 5t2 4t2 2.5t2.5 2t3.5 0.5q10 0 10 -11q0 -7 -4 -29l-44 -222q-264 2 -404 2q-19 0 -65.5 -1t-73.5 -1q-20 0 -20 13q0 9 13.5 11.5t29.5 3
t29.5 14t13.5 40.5zM414 721h-50l-154 96q-32 20 -32 43q0 18 13 29.5t29 11.5q27 0 52 -26z" />
    <glyph glyph-name="Eacute" unicode="&#xc9;" horiz-adv-x="667" 
d="M112 80v518q0 27 -13.5 40.5t-29.5 14t-29.5 3t-13.5 11.5q0 13 20 13q27 0 73.5 -1t65.5 -1q124 0 360 2l50 -191q6 -22 6 -26q0 -8 -10 -8q-4 0 -7 5.5t-13.5 27.5t-26.5 49q-37 61 -91 90t-141 29h-54v-288h25q52 0 87 35t38 89q1 25 14 25q10 0 10 -14v-306
q0 -14 -10 -14q-13 0 -14 25q-3 65 -37 100.5t-88 35.5h-25v-252q0 -36 18 -53t64 -17q107 0 175.5 62t95.5 148l2.5 7.5t2 6.5t1.5 5t2 4t2 2.5t2.5 2t3.5 0.5q10 0 10 -11q0 -7 -4 -29l-44 -222q-264 2 -404 2q-19 0 -65.5 -1t-73.5 -1q-20 0 -20 13q0 9 13.5 11.5t29.5 3
t29.5 14t13.5 40.5zM304 721h-50l142 154q25 26 52 26q16 0 29 -11.5t13 -29.5q0 -23 -32 -43z" />
    <glyph glyph-name="Ecircumflex" unicode="&#xca;" horiz-adv-x="667" 
d="M112 80v518q0 27 -13.5 40.5t-29.5 14t-29.5 3t-13.5 11.5q0 13 20 13q27 0 73.5 -1t65.5 -1q124 0 360 2l50 -191q6 -22 6 -26q0 -8 -10 -8q-4 0 -7 5.5t-13.5 27.5t-26.5 49q-37 61 -91 90t-141 29h-54v-288h25q52 0 87 35t38 89q1 25 14 25q10 0 10 -14v-306
q0 -14 -10 -14q-13 0 -14 25q-3 65 -37 100.5t-88 35.5h-25v-252q0 -36 18 -53t64 -17q107 0 175.5 62t95.5 148l2.5 7.5t2 6.5t1.5 5t2 4t2 2.5t2.5 2t3.5 0.5q10 0 10 -11q0 -7 -4 -29l-44 -222q-264 2 -404 2q-19 0 -65.5 -1t-73.5 -1q-20 0 -20 13q0 9 13.5 11.5t29.5 3
t29.5 14t13.5 40.5zM296 895h78l124 -174h-50l-114 102l-114 -102h-50z" />
    <glyph glyph-name="Edieresis" unicode="&#xcb;" horiz-adv-x="667" 
d="M112 80v518q0 27 -13.5 40.5t-29.5 14t-29.5 3t-13.5 11.5q0 13 20 13q27 0 73.5 -1t65.5 -1q124 0 360 2l50 -191q6 -22 6 -26q0 -8 -10 -8q-4 0 -7 5.5t-13.5 27.5t-26.5 49q-37 61 -91 90t-141 29h-54v-288h25q52 0 87 35t38 89q1 25 14 25q10 0 10 -14v-306
q0 -14 -10 -14q-13 0 -14 25q-3 65 -37 100.5t-88 35.5h-25v-252q0 -36 18 -53t64 -17q107 0 175.5 62t95.5 148l2.5 7.5t2 6.5t1.5 5t2 4t2 2.5t2.5 2t3.5 0.5q10 0 10 -11q0 -7 -4 -29l-44 -222q-264 2 -404 2q-19 0 -65.5 -1t-73.5 -1q-20 0 -20 13q0 9 13.5 11.5t29.5 3
t29.5 14t13.5 40.5zM378 794q0 24 17 41.5t42 17.5t42 -17.5t17 -41.5t-17 -41.5t-42 -17.5t-42 17.5t-17 41.5zM172 794q0 24 17 41.5t42 17.5t42 -17.5t17 -41.5t-17 -41.5t-42 -17.5t-42 17.5t-17 41.5z" />
    <glyph glyph-name="Igrave" unicode="&#xcc;" horiz-adv-x="370" 
d="M112 80v518q0 27 -13.5 40.5t-29.5 14t-29.5 3t-13.5 11.5q0 13 20 13q27 0 73.5 -1t65.5 -1t65.5 1t73.5 1q20 0 20 -13q0 -9 -13.5 -11.5t-29.5 -3t-29.5 -14t-13.5 -40.5v-518q0 -27 13.5 -40.5t29.5 -14t29.5 -3t13.5 -11.5q0 -13 -20 -13q-27 0 -73.5 1t-65.5 1
t-65.5 -1t-73.5 -1q-20 0 -20 13q0 9 13.5 11.5t29.5 3t29.5 14t13.5 40.5zM265 721h-50l-154 96q-32 20 -32 43q0 18 13 29.5t29 11.5q27 0 52 -26z" />
    <glyph glyph-name="Iacute" unicode="&#xcd;" horiz-adv-x="370" 
d="M112 80v518q0 27 -13.5 40.5t-29.5 14t-29.5 3t-13.5 11.5q0 13 20 13q27 0 73.5 -1t65.5 -1t65.5 1t73.5 1q20 0 20 -13q0 -9 -13.5 -11.5t-29.5 -3t-29.5 -14t-13.5 -40.5v-518q0 -27 13.5 -40.5t29.5 -14t29.5 -3t13.5 -11.5q0 -13 -20 -13q-27 0 -73.5 1t-65.5 1
t-65.5 -1t-73.5 -1q-20 0 -20 13q0 9 13.5 11.5t29.5 3t29.5 14t13.5 40.5zM155 721h-50l142 154q25 26 52 26q16 0 29 -11.5t13 -29.5q0 -23 -32 -43z" />
    <glyph glyph-name="Icircumflex" unicode="&#xce;" horiz-adv-x="370" 
d="M112 80v518q0 27 -13.5 40.5t-29.5 14t-29.5 3t-13.5 11.5q0 13 20 13q27 0 73.5 -1t65.5 -1t65.5 1t73.5 1q20 0 20 -13q0 -9 -13.5 -11.5t-29.5 -3t-29.5 -14t-13.5 -40.5v-518q0 -27 13.5 -40.5t29.5 -14t29.5 -3t13.5 -11.5q0 -13 -20 -13q-27 0 -73.5 1t-65.5 1
t-65.5 -1t-73.5 -1q-20 0 -20 13q0 9 13.5 11.5t29.5 3t29.5 14t13.5 40.5zM147 895h78l124 -174h-50l-114 102l-114 -102h-50z" />
    <glyph glyph-name="Idieresis" unicode="&#xcf;" horiz-adv-x="370" 
d="M112 80v518q0 27 -13.5 40.5t-29.5 14t-29.5 3t-13.5 11.5q0 13 20 13q27 0 73.5 -1t65.5 -1t65.5 1t73.5 1q20 0 20 -13q0 -9 -13.5 -11.5t-29.5 -3t-29.5 -14t-13.5 -40.5v-518q0 -27 13.5 -40.5t29.5 -14t29.5 -3t13.5 -11.5q0 -13 -20 -13q-27 0 -73.5 1t-65.5 1
t-65.5 -1t-73.5 -1q-20 0 -20 13q0 9 13.5 11.5t29.5 3t29.5 14t13.5 40.5zM229 794q0 24 17 41.5t42 17.5t42 -17.5t17 -41.5t-17 -41.5t-42 -17.5t-42 17.5t-17 41.5zM23 794q0 24 17 41.5t42 17.5t42 -17.5t17 -41.5t-17 -41.5t-42 -17.5t-42 17.5t-17 41.5z" />
    <glyph glyph-name="Eth" unicode="&#xd0;" horiz-adv-x="759" 
d="M12 344v36h100v218q0 27 -13.5 40.5t-29.5 14t-29.5 3t-13.5 11.5q0 13 20 13q27 0 73.5 -1t65.5 -1q28 0 83 1t87 1q174 0 275 -98t101 -244q0 -158 -87.5 -249t-230.5 -91q-30 0 -106 1t-122 1q-19 0 -65.5 -1t-73.5 -1q-20 0 -20 13q0 9 13.5 11.5t29.5 3t29.5 14
t13.5 40.5v264h-100zM426 380v-36h-168v-221q0 -101 118 -101q92 0 147.5 76.5t55.5 225.5q0 160 -62.5 246t-172.5 86h-86v-276h168z" />
    <glyph glyph-name="Ntilde" unicode="&#xd1;" horiz-adv-x="722" 
d="M135 560v-406q0 -99 62 -126q9 -4 20 -5.5t17.5 -2t11.5 -3t5 -8.5q0 -11 -14 -11q-16 0 -54.5 1t-59.5 1t-59.5 -1t-54.5 -1q-14 0 -14 11q0 6 5 8.5t11.5 3t17.5 2t20 5.5q62 27 62 126v437q-40 58 -93 65q-20 3 -22 8q-1 2 -1 5q0 11 12 11q17 0 53 -1t55 -1h112
l358 -450h2v296q0 99 -62 126q-9 4 -20 5.5t-17.5 2t-11.5 3t-5 8.5q0 11 14 11q16 0 54.5 -1t59.5 -1t59.5 1t54.5 1q14 0 14 -11q0 -6 -5 -8.5t-11.5 -3t-17.5 -2t-20 -5.5q-62 -27 -62 -126v-515q0 -33 -9 -33q-7 0 -25 24l-440 560h-2zM507 861h36q-17 -65 -45 -91.5
t-69 -26.5q-35 0 -83 24t-65 24q-20 0 -35.5 -13.5t-18.5 -34.5h-36q7 57 39 87.5t75 30.5q30 0 78.5 -24t68.5 -24q38 0 55 48z" />
    <glyph glyph-name="Ograve" unicode="&#xd2;" horiz-adv-x="796" 
d="M192 339q0 -157 55.5 -244t150.5 -87t150.5 87t55.5 244t-55.5 244t-150.5 87t-150.5 -87t-55.5 -244zM28 339q0 145 104 250t266 105t266 -105t104 -250t-104 -250t-266 -105t-266 105t-104 250zM478 721h-50l-154 96q-32 20 -32 43q0 18 13 29.5t29 11.5q27 0 52 -26z
" />
    <glyph glyph-name="Oacute" unicode="&#xd3;" horiz-adv-x="796" 
d="M192 339q0 -157 55.5 -244t150.5 -87t150.5 87t55.5 244t-55.5 244t-150.5 87t-150.5 -87t-55.5 -244zM28 339q0 145 104 250t266 105t266 -105t104 -250t-104 -250t-266 -105t-266 105t-104 250zM368 721h-50l142 154q25 26 52 26q16 0 29 -11.5t13 -29.5q0 -23 -32 -43
z" />
    <glyph glyph-name="Ocircumflex" unicode="&#xd4;" horiz-adv-x="796" 
d="M192 339q0 -157 55.5 -244t150.5 -87t150.5 87t55.5 244t-55.5 244t-150.5 87t-150.5 -87t-55.5 -244zM28 339q0 145 104 250t266 105t266 -105t104 -250t-104 -250t-266 -105t-266 105t-104 250zM360 895h78l124 -174h-50l-114 102l-114 -102h-50z" />
    <glyph glyph-name="Otilde" unicode="&#xd5;" horiz-adv-x="796" 
d="M192 339q0 -157 55.5 -244t150.5 -87t150.5 87t55.5 244t-55.5 244t-150.5 87t-150.5 -87t-55.5 -244zM28 339q0 145 104 250t266 105t266 -105t104 -250t-104 -250t-266 -105t-266 105t-104 250zM538 861h36q-17 -65 -45 -91.5t-69 -26.5q-35 0 -83 24t-65 24
q-20 0 -35.5 -13.5t-18.5 -34.5h-36q7 57 39 87.5t75 30.5q30 0 78.5 -24t68.5 -24q38 0 55 48z" />
    <glyph glyph-name="Odieresis" unicode="&#xd6;" horiz-adv-x="796" 
d="M192 339q0 -157 55.5 -244t150.5 -87t150.5 87t55.5 244t-55.5 244t-150.5 87t-150.5 -87t-55.5 -244zM28 339q0 145 104 250t266 105t266 -105t104 -250t-104 -250t-266 -105t-266 105t-104 250zM442 794q0 24 17 41.5t42 17.5t42 -17.5t17 -41.5t-17 -41.5t-42 -17.5
t-42 17.5t-17 41.5zM236 794q0 24 17 41.5t42 17.5t42 -17.5t17 -41.5t-17 -41.5t-42 -17.5t-42 17.5t-17 41.5z" />
    <glyph glyph-name="multiply" unicode="&#xd7;" horiz-adv-x="600" 
d="M228 227l-155 156l72 71l155 -156l156 156l71 -71l-155 -156l155 -155l-71 -72l-156 156l-155 -156l-72 72z" />
    <glyph glyph-name="Oslash" unicode="&#xd8;" horiz-adv-x="796" 
d="M241 107l292 496q-52 67 -135 67q-95 0 -150.5 -87t-55.5 -244q0 -146 49 -232zM128 -86l72 123q-81 48 -126.5 128.5t-45.5 173.5q0 145 104 250t266 105q91 0 167 -37l53 91h50l-65 -111q77 -48 121 -127.5t44 -170.5q0 -145 -104 -250t-266 -105q-88 0 -160 33
l-60 -103h-50zM559 562l-291 -494q51 -60 130 -60q95 0 150.5 87t55.5 244q0 139 -45 223z" />
    <glyph glyph-name="Ugrave" unicode="&#xd9;" horiz-adv-x="704" 
d="M601 504v-297q0 -108 -66.5 -165.5t-175.5 -57.5q-116 0 -186 48.5t-70 127.5v438q0 27 -13.5 40.5t-29.5 14t-29.5 3t-13.5 11.5q0 13 20 13q27 0 73.5 -1t65.5 -1t65.5 1t73.5 1q20 0 20 -13q0 -9 -13.5 -11.5t-29.5 -3t-29.5 -14t-13.5 -40.5v-438q0 -61 44 -103.5
t107 -42.5q80 0 128.5 49.5t48.5 137.5v303q0 62 -21 100t-57 50q-3 1 -8.5 2.5t-8.5 2.5t-6.5 2.5t-5 3t-1.5 4.5q0 11 14 11q11 0 47.5 -1t58.5 -1t58.5 1t47.5 1q14 0 14 -11q0 -3 -1.5 -4.5t-5 -3t-6.5 -2.5t-8.5 -2.5t-8.5 -2.5q-36 -12 -57 -50t-21 -100zM449 721h-50
l-154 96q-32 20 -32 43q0 18 13 29.5t29 11.5q27 0 52 -26z" />
    <glyph glyph-name="Uacute" unicode="&#xda;" horiz-adv-x="704" 
d="M601 504v-297q0 -108 -66.5 -165.5t-175.5 -57.5q-116 0 -186 48.5t-70 127.5v438q0 27 -13.5 40.5t-29.5 14t-29.5 3t-13.5 11.5q0 13 20 13q27 0 73.5 -1t65.5 -1t65.5 1t73.5 1q20 0 20 -13q0 -9 -13.5 -11.5t-29.5 -3t-29.5 -14t-13.5 -40.5v-438q0 -61 44 -103.5
t107 -42.5q80 0 128.5 49.5t48.5 137.5v303q0 62 -21 100t-57 50q-3 1 -8.5 2.5t-8.5 2.5t-6.5 2.5t-5 3t-1.5 4.5q0 11 14 11q11 0 47.5 -1t58.5 -1t58.5 1t47.5 1q14 0 14 -11q0 -3 -1.5 -4.5t-5 -3t-6.5 -2.5t-8.5 -2.5t-8.5 -2.5q-36 -12 -57 -50t-21 -100zM334 721h-50
l142 154q25 26 52 26q16 0 29 -11.5t13 -29.5q0 -23 -32 -43z" />
    <glyph glyph-name="Ucircumflex" unicode="&#xdb;" horiz-adv-x="704" 
d="M601 504v-297q0 -108 -66.5 -165.5t-175.5 -57.5q-116 0 -186 48.5t-70 127.5v438q0 27 -13.5 40.5t-29.5 14t-29.5 3t-13.5 11.5q0 13 20 13q27 0 73.5 -1t65.5 -1t65.5 1t73.5 1q20 0 20 -13q0 -9 -13.5 -11.5t-29.5 -3t-29.5 -14t-13.5 -40.5v-438q0 -61 44 -103.5
t107 -42.5q80 0 128.5 49.5t48.5 137.5v303q0 62 -21 100t-57 50q-3 1 -8.5 2.5t-8.5 2.5t-6.5 2.5t-5 3t-1.5 4.5q0 11 14 11q11 0 47.5 -1t58.5 -1t58.5 1t47.5 1q14 0 14 -11q0 -3 -1.5 -4.5t-5 -3t-6.5 -2.5t-8.5 -2.5t-8.5 -2.5q-36 -12 -57 -50t-21 -100zM326 895h78
l124 -174h-50l-114 102l-114 -102h-50z" />
    <glyph glyph-name="Udieresis" unicode="&#xdc;" horiz-adv-x="704" 
d="M601 504v-297q0 -108 -66.5 -165.5t-175.5 -57.5q-116 0 -186 48.5t-70 127.5v438q0 27 -13.5 40.5t-29.5 14t-29.5 3t-13.5 11.5q0 13 20 13q27 0 73.5 -1t65.5 -1t65.5 1t73.5 1q20 0 20 -13q0 -9 -13.5 -11.5t-29.5 -3t-29.5 -14t-13.5 -40.5v-438q0 -61 44 -103.5
t107 -42.5q80 0 128.5 49.5t48.5 137.5v303q0 62 -21 100t-57 50q-3 1 -8.5 2.5t-8.5 2.5t-6.5 2.5t-5 3t-1.5 4.5q0 11 14 11q11 0 47.5 -1t58.5 -1t58.5 1t47.5 1q14 0 14 -11q0 -3 -1.5 -4.5t-5 -3t-6.5 -2.5t-8.5 -2.5t-8.5 -2.5q-36 -12 -57 -50t-21 -100zM413 794
q0 24 17 41.5t42 17.5t42 -17.5t17 -41.5t-17 -41.5t-42 -17.5t-42 17.5t-17 41.5zM207 794q0 24 17 41.5t42 17.5t42 -17.5t17 -41.5t-17 -41.5t-42 -17.5t-42 17.5t-17 41.5z" />
    <glyph glyph-name="Yacute" unicode="&#xdd;" horiz-adv-x="630" 
d="M258 561l118 -221l78 138q36 64 36 118q0 29 -15.5 43.5t-31 19.5t-15.5 10q0 11 20 11q15 0 45 -1t51 -1q16 0 47 1t46 1q11 0 11 -10q0 -4 -4 -7t-11.5 -5.5t-20 -11.5t-27.5 -22.5t-36 -41t-43 -64.5l-118 -197v-241q0 -27 13.5 -40.5t29.5 -14t29.5 -3t13.5 -11.5
q0 -13 -20 -13q-27 0 -73.5 1t-65.5 1t-65.5 -1t-73.5 -1q-20 0 -20 13q0 9 13.5 11.5t29.5 3t29.5 14t13.5 40.5v222l-161 293q-15 27 -33.5 42t-32.5 17t-23.5 5t-9.5 10q0 11 17 11q25 0 72 -1t70 -1t70 1t70 1q22 0 22 -10q0 -7 -10 -9.5t-21.5 -3.5t-21.5 -11t-10 -29
q0 -21 18 -56zM279 721h-50l142 154q25 26 52 26q16 0 29 -11.5t13 -29.5q0 -23 -32 -43z" />
    <glyph glyph-name="Thorn" unicode="&#xde;" horiz-adv-x="630" 
d="M258 160v-80q0 -27 13.5 -40.5t29.5 -14t29.5 -3t13.5 -11.5q0 -13 -20 -13q-27 0 -73.5 1t-65.5 1t-65.5 -1t-73.5 -1q-20 0 -20 13q0 9 13.5 11.5t29.5 3t29.5 14t13.5 40.5v518q0 27 -13.5 40.5t-29.5 14t-29.5 3t-13.5 11.5q0 13 20 13q27 0 73.5 -1t65.5 -1t65.5 1
t73.5 1q20 0 20 -13q0 -9 -13.5 -11.5t-29.5 -3t-29.5 -14t-13.5 -40.5v-62q29 2 73 2q134 0 206.5 -53.5t72.5 -134.5q0 -89 -69 -139.5t-208 -50.5h-75zM258 514v-330h52q79 0 116.5 39.5t37.5 127.5q0 163 -154 163h-52z" />
    <glyph glyph-name="germandbls" unicode="&#xdf;" horiz-adv-x="611" 
d="M98 406h-76q33 27 52 58t35.5 77.5t23.5 62.5q35 75 75 111.5t104 36.5q61 0 108.5 -46t47.5 -114q0 -42 -20 -71t-44 -41t-44 -26.5t-20 -30.5q0 -11 17.5 -21.5t44 -19t57.5 -25.5t57.5 -39t44 -62.5t17.5 -92.5q0 -86 -57 -132.5t-143 -46.5q-54 0 -87 27.5t-33 71.5
q0 62 55 62q23 0 38 -13.5t15 -37.5q0 -13 -11 -34.5t-11 -30.5q0 -13 11.5 -20t25.5 -7q59 0 59 151q0 59 -12 102t-29.5 65.5t-35 39t-29.5 32.5t-12 35t10.5 36.5t23.5 31t23.5 48t10.5 84.5q0 107 -85 107q-41 0 -70 -26t-29 -71q0 -25 9 -72t9 -72v-493h-63
q-30 0 -70.5 -1t-50.5 -1q-12 0 -12 12q0 8 11 11t24 4t24 15t11 42v324z" />
    <glyph glyph-name="agrave" unicode="&#xe0;" horiz-adv-x="500" 
d="M422 334v-272q0 -28 25 -28q18 0 40 20q2 2 5 5.5t5.5 6t5.5 2.5q7 0 7 -8q0 -15 -38 -41.5t-82 -26.5q-42 0 -62 16t-32 54q-89 -70 -170 -70q-44 0 -73 21.5t-29 70.5q0 47 33 77.5t126 68.5l113 45v114q0 51 -39 51q-32 0 -56.5 -19.5t-30.5 -55.5q-9 -57 -26 -79
t-55 -22q-23 0 -37 15.5t-14 40.5q0 35 41 68.5t102.5 53.5t119.5 20q61 0 91 -30t30 -98zM296 86v169q-77 -30 -108.5 -58t-31.5 -73q0 -78 54 -78q42 0 86 40zM324 514h-50l-154 96q-32 20 -32 43q0 18 13 29.5t29 11.5q27 0 52 -26z" />
    <glyph glyph-name="aacute" unicode="&#xe1;" horiz-adv-x="500" 
d="M422 334v-272q0 -28 25 -28q18 0 40 20q2 2 5 5.5t5.5 6t5.5 2.5q7 0 7 -8q0 -15 -38 -41.5t-82 -26.5q-42 0 -62 16t-32 54q-89 -70 -170 -70q-44 0 -73 21.5t-29 70.5q0 47 33 77.5t126 68.5l113 45v114q0 51 -39 51q-32 0 -56.5 -19.5t-30.5 -55.5q-9 -57 -26 -79
t-55 -22q-23 0 -37 15.5t-14 40.5q0 35 41 68.5t102.5 53.5t119.5 20q61 0 91 -30t30 -98zM296 86v169q-77 -30 -108.5 -58t-31.5 -73q0 -78 54 -78q42 0 86 40zM214 514h-50l142 154q25 26 52 26q16 0 29 -11.5t13 -29.5q0 -23 -32 -43z" />
    <glyph glyph-name="acircumflex" unicode="&#xe2;" horiz-adv-x="500" 
d="M422 334v-272q0 -28 25 -28q18 0 40 20q2 2 5 5.5t5.5 6t5.5 2.5q7 0 7 -8q0 -15 -38 -41.5t-82 -26.5q-42 0 -62 16t-32 54q-89 -70 -170 -70q-44 0 -73 21.5t-29 70.5q0 47 33 77.5t126 68.5l113 45v114q0 51 -39 51q-32 0 -56.5 -19.5t-30.5 -55.5q-9 -57 -26 -79
t-55 -22q-23 0 -37 15.5t-14 40.5q0 35 41 68.5t102.5 53.5t119.5 20q61 0 91 -30t30 -98zM296 86v169q-77 -30 -108.5 -58t-31.5 -73q0 -78 54 -78q42 0 86 40zM206 688h78l124 -174h-50l-114 102l-114 -102h-50z" />
    <glyph glyph-name="atilde" unicode="&#xe3;" horiz-adv-x="500" 
d="M422 334v-272q0 -28 25 -28q18 0 40 20q2 2 5 5.5t5.5 6t5.5 2.5q7 0 7 -8q0 -15 -38 -41.5t-82 -26.5q-42 0 -62 16t-32 54q-89 -70 -170 -70q-44 0 -73 21.5t-29 70.5q0 47 33 77.5t126 68.5l113 45v114q0 51 -39 51q-32 0 -56.5 -19.5t-30.5 -55.5q-9 -57 -26 -79
t-55 -22q-23 0 -37 15.5t-14 40.5q0 35 41 68.5t102.5 53.5t119.5 20q61 0 91 -30t30 -98zM296 86v169q-77 -30 -108.5 -58t-31.5 -73q0 -78 54 -78q42 0 86 40zM384 654h36q-17 -65 -45 -91.5t-69 -26.5q-35 0 -83 24t-65 24q-20 0 -35.5 -13.5t-18.5 -34.5h-36
q7 57 39 87.5t75 30.5q30 0 78.5 -24t68.5 -24q38 0 55 48z" />
    <glyph glyph-name="adieresis" unicode="&#xe4;" horiz-adv-x="500" 
d="M422 334v-272q0 -28 25 -28q18 0 40 20q2 2 5 5.5t5.5 6t5.5 2.5q7 0 7 -8q0 -15 -38 -41.5t-82 -26.5q-42 0 -62 16t-32 54q-89 -70 -170 -70q-44 0 -73 21.5t-29 70.5q0 47 33 77.5t126 68.5l113 45v114q0 51 -39 51q-32 0 -56.5 -19.5t-30.5 -55.5q-9 -57 -26 -79
t-55 -22q-23 0 -37 15.5t-14 40.5q0 35 41 68.5t102.5 53.5t119.5 20q61 0 91 -30t30 -98zM296 86v169q-77 -30 -108.5 -58t-31.5 -73q0 -78 54 -78q42 0 86 40zM288 587q0 24 17 41.5t42 17.5t42 -17.5t17 -41.5t-17 -41.5t-42 -17.5t-42 17.5t-17 41.5zM82 587
q0 24 17 41.5t42 17.5t42 -17.5t17 -41.5t-17 -41.5t-42 -17.5t-42 17.5t-17 41.5z" />
    <glyph glyph-name="aring" unicode="&#xe5;" horiz-adv-x="500" 
d="M422 334v-272q0 -28 25 -28q18 0 40 20q2 2 5 5.5t5.5 6t5.5 2.5q7 0 7 -8q0 -15 -38 -41.5t-82 -26.5q-42 0 -62 16t-32 54q-89 -70 -170 -70q-44 0 -73 21.5t-29 70.5q0 47 33 77.5t126 68.5l113 45v114q0 51 -39 51q-32 0 -56.5 -19.5t-30.5 -55.5q-9 -57 -26 -79
t-55 -22q-23 0 -37 15.5t-14 40.5q0 35 41 68.5t102.5 53.5t119.5 20q61 0 91 -30t30 -98zM296 86v169q-77 -30 -108.5 -58t-31.5 -73q0 -78 54 -78q42 0 86 40zM142 618q0 44 29 73t73 29t73 -29t29 -73t-29 -73t-73 -29t-73 29t-29 73zM184 618q0 -25 17.5 -42.5
t42.5 -17.5t42.5 17.5t17.5 42.5t-17.5 42.5t-42.5 17.5t-42.5 -17.5t-17.5 -42.5z" />
    <glyph glyph-name="ae" unicode="&#xe6;" horiz-adv-x="759" 
d="M286 86v170q-77 -26 -109.5 -55.5t-32.5 -75.5q0 -43 14 -61t43 -18q41 0 85 40zM734 252h-322q1 -87 49 -134.5t116 -47.5q75 0 122 52q9 9 14.5 19.5l8 15t6.5 4.5q6 0 6 -7q0 -14 -10.5 -38.5t-32.5 -53.5t-66.5 -49.5t-101.5 -20.5q-67 0 -117.5 30t-76.5 84
q-105 -114 -215 -114q-44 0 -73 21.5t-29 70.5q0 47 33 78t126 68l115 45v114q0 51 -41 51q-32 0 -56.5 -19.5t-30.5 -55.5q-9 -57 -26 -79t-55 -22q-23 0 -37 15.5t-14 40.5q0 35 41 68.5t102.5 53.5t119.5 20q67 0 109 -38q57 38 125 38q88 0 148 -55t63 -155zM412 276
h202q-1 94 -24 131t-68 37q-50 0 -79.5 -44.5t-30.5 -123.5z" />
    <glyph glyph-name="ccedilla" unicode="&#xe7;" horiz-adv-x="481" 
d="M33 218q0 105 65.5 174.5t166.5 69.5q82 0 134 -44.5t52 -99.5q0 -34 -16.5 -52t-42.5 -18q-61 0 -56 76q0 4 1 18.5t0 26.5q-1 36 -23 55.5t-57 19.5q-50 0 -80 -43t-30 -113q0 -104 46.5 -161t110.5 -57q42 0 72.5 14.5t42 31.5t20 31.5t11.5 14.5q8 0 8 -8
q0 -9 -5.5 -25.5t-19.5 -40.5t-35 -45t-57 -35.5t-80 -15.5l-28 -58q11 4 35 4q37 0 61 -17.5t24 -49.5q0 -44 -34.5 -66.5t-93.5 -22.5q-43 0 -92 14l16 36q38 -12 60 -12q60 0 60 41q0 17 -14 28t-34 11q-17 0 -28 -4l-12 8l40 90q-87 12 -137.5 76t-50.5 148z" />
    <glyph glyph-name="egrave" unicode="&#xe8;" horiz-adv-x="500" 
d="M467 252h-320q1 -87 48.5 -134.5t114.5 -47.5q75 0 122 52q9 9 14.5 19.5l8 15t6.5 4.5q6 0 6 -7q0 -14 -10.5 -38.5t-32.5 -53.5t-66.5 -49.5t-101.5 -20.5q-101 0 -162 65.5t-61 172.5q0 99 63.5 165.5t159.5 66.5q88 0 148 -55t63 -155zM147 276h200q-1 94 -24 131
t-68 37q-48 0 -77.5 -44.5t-30.5 -123.5zM342 514h-50l-154 96q-32 20 -32 43q0 18 13 29.5t29 11.5q27 0 52 -26z" />
    <glyph glyph-name="eacute" unicode="&#xe9;" horiz-adv-x="500" 
d="M467 252h-320q1 -87 48.5 -134.5t114.5 -47.5q75 0 122 52q9 9 14.5 19.5l8 15t6.5 4.5q6 0 6 -7q0 -14 -10.5 -38.5t-32.5 -53.5t-66.5 -49.5t-101.5 -20.5q-101 0 -162 65.5t-61 172.5q0 99 63.5 165.5t159.5 66.5q88 0 148 -55t63 -155zM147 276h200q-1 94 -24 131
t-68 37q-48 0 -77.5 -44.5t-30.5 -123.5zM232 514h-50l142 154q25 26 52 26q16 0 29 -11.5t13 -29.5q0 -23 -32 -43z" />
    <glyph glyph-name="ecircumflex" unicode="&#xea;" horiz-adv-x="500" 
d="M467 252h-320q1 -87 48.5 -134.5t114.5 -47.5q75 0 122 52q9 9 14.5 19.5l8 15t6.5 4.5q6 0 6 -7q0 -14 -10.5 -38.5t-32.5 -53.5t-66.5 -49.5t-101.5 -20.5q-101 0 -162 65.5t-61 172.5q0 99 63.5 165.5t159.5 66.5q88 0 148 -55t63 -155zM147 276h200q-1 94 -24 131
t-68 37q-48 0 -77.5 -44.5t-30.5 -123.5zM224 688h78l124 -174h-50l-114 102l-114 -102h-50z" />
    <glyph glyph-name="edieresis" unicode="&#xeb;" horiz-adv-x="500" 
d="M467 252h-320q1 -87 48.5 -134.5t114.5 -47.5q75 0 122 52q9 9 14.5 19.5l8 15t6.5 4.5q6 0 6 -7q0 -14 -10.5 -38.5t-32.5 -53.5t-66.5 -49.5t-101.5 -20.5q-101 0 -162 65.5t-61 172.5q0 99 63.5 165.5t159.5 66.5q88 0 148 -55t63 -155zM147 276h200q-1 94 -24 131
t-68 37q-48 0 -77.5 -44.5t-30.5 -123.5zM306 587q0 24 17 41.5t42 17.5t42 -17.5t17 -41.5t-17 -41.5t-42 -17.5t-42 17.5t-17 41.5zM100 587q0 24 17 41.5t42 17.5t42 -17.5t17 -41.5t-17 -41.5t-42 -17.5t-42 17.5t-17 41.5z" />
    <glyph glyph-name="igrave" unicode="&#xec;" horiz-adv-x="296" 
d="M211 462v-382q0 -27 13 -40.5t28 -14.5t28 -4t13 -11q0 -12 -12 -12q-13 0 -58.5 1t-74.5 1t-74.5 -1t-58.5 -1q-12 0 -12 12q0 8 13 11t28 4t28 14.5t13 40.5v247q0 30 -20 44t-40 19t-20 12q0 8 13.5 11l69 15t123.5 34zM228 514h-50l-154 96q-32 20 -32 43
q0 18 13 29.5t29 11.5q27 0 52 -26z" />
    <glyph glyph-name="iacute" unicode="&#xed;" horiz-adv-x="296" 
d="M211 462v-382q0 -27 13 -40.5t28 -14.5t28 -4t13 -11q0 -12 -12 -12q-13 0 -58.5 1t-74.5 1t-74.5 -1t-58.5 -1q-12 0 -12 12q0 8 13 11t28 4t28 14.5t13 40.5v247q0 30 -20 44t-40 19t-20 12q0 8 13.5 11l69 15t123.5 34zM118 514h-50l142 154q25 26 52 26
q16 0 29 -11.5t13 -29.5q0 -23 -32 -43z" />
    <glyph glyph-name="icircumflex" unicode="&#xee;" horiz-adv-x="296" 
d="M211 462v-382q0 -27 13 -40.5t28 -14.5t28 -4t13 -11q0 -12 -12 -12q-13 0 -58.5 1t-74.5 1t-74.5 -1t-58.5 -1q-12 0 -12 12q0 8 13 11t28 4t28 14.5t13 40.5v247q0 30 -20 44t-40 19t-20 12q0 8 13.5 11l69 15t123.5 34zM110 688h78l124 -174h-50l-114 102l-114 -102
h-50z" />
    <glyph glyph-name="idieresis" unicode="&#xef;" horiz-adv-x="296" 
d="M211 462v-382q0 -27 13 -40.5t28 -14.5t28 -4t13 -11q0 -12 -12 -12q-13 0 -58.5 1t-74.5 1t-74.5 -1t-58.5 -1q-12 0 -12 12q0 8 13 11t28 4t28 14.5t13 40.5v247q0 30 -20 44t-40 19t-20 12q0 8 13.5 11l69 15t123.5 34zM192 587q0 24 17 41.5t42 17.5t42 -17.5
t17 -41.5t-17 -41.5t-42 -17.5t-42 17.5t-17 41.5zM-14 587q0 24 17 41.5t42 17.5t42 -17.5t17 -41.5t-17 -41.5t-42 -17.5t-42 17.5t-17 41.5z" />
    <glyph glyph-name="eth" unicode="&#xf0;" horiz-adv-x="574" 
d="M171 227q0 -217 116 -217t116 217t-116 217t-116 -217zM289 588l-143 -82v40l120 68q-2 3 -8 9q-22 22 -43 39t-35 25.5t-26 14t-19 7.5t-10.5 4.5t-3.5 6.5q0 10 11 10q36 0 90.5 -21.5t105.5 -58.5l140 80v-40l-111 -63q83 -70 135.5 -166.5t52.5 -210.5
q0 -122 -75 -190t-183 -68q-112 0 -185 69t-73 166t73 166t185 69q42 0 76 -10q-18 68 -74 136z" />
    <glyph glyph-name="ntilde" unicode="&#xf1;" 
d="M208 462v-73q65 41 102.5 57t84.5 16q50 0 82.5 -29t32.5 -85v-268q0 -27 11 -40.5t24 -14.5t24 -4t11 -11q0 -12 -12 -12q-10 0 -50.5 1t-70.5 1t-70.5 -1t-50.5 -1q-12 0 -12 12q0 8 11 11t24 4t24 14.5t11 40.5v262q0 72 -64 72q-42 0 -112 -48v-286q0 -27 11 -40.5
t24 -14.5t24 -4t11 -11q0 -12 -12 -12q-10 0 -50.5 1t-70.5 1t-70.5 -1t-50.5 -1q-12 0 -12 12q0 8 11 11t24 4t24 14.5t11 40.5v251q0 30 -17.5 45t-35 19.5t-17.5 10.5q0 8 10.5 11t64.5 14t121 31zM437 654h36q-17 -65 -45 -91.5t-69 -26.5q-35 0 -83 24t-65 24
q-20 0 -35.5 -13.5t-18.5 -34.5h-36q7 57 39 87.5t75 30.5q30 0 78.5 -24t68.5 -24q38 0 55 48z" />
    <glyph glyph-name="ograve" unicode="&#xf2;" horiz-adv-x="574" 
d="M29 227q0 97 73 166t185 69t185 -69t73 -166t-73 -166t-185 -69t-185 69t-73 166zM171 227q0 -217 116 -217t116 217t-116 217t-116 -217zM367 514h-50l-154 96q-32 20 -32 43q0 18 13 29.5t29 11.5q27 0 52 -26z" />
    <glyph glyph-name="oacute" unicode="&#xf3;" horiz-adv-x="574" 
d="M29 227q0 97 73 166t185 69t185 -69t73 -166t-73 -166t-185 -69t-185 69t-73 166zM171 227q0 -217 116 -217t116 217t-116 217t-116 -217zM257 514h-50l142 154q25 26 52 26q16 0 29 -11.5t13 -29.5q0 -23 -32 -43z" />
    <glyph glyph-name="ocircumflex" unicode="&#xf4;" horiz-adv-x="574" 
d="M29 227q0 97 73 166t185 69t185 -69t73 -166t-73 -166t-185 -69t-185 69t-73 166zM171 227q0 -217 116 -217t116 217t-116 217t-116 -217zM249 688h78l124 -174h-50l-114 102l-114 -102h-50z" />
    <glyph glyph-name="otilde" unicode="&#xf5;" horiz-adv-x="574" 
d="M29 227q0 97 73 166t185 69t185 -69t73 -166t-73 -166t-185 -69t-185 69t-73 166zM171 227q0 -217 116 -217t116 217t-116 217t-116 -217zM427 654h36q-17 -65 -45 -91.5t-69 -26.5q-35 0 -83 24t-65 24q-20 0 -35.5 -13.5t-18.5 -34.5h-36q7 57 39 87.5t75 30.5
q30 0 78.5 -24t68.5 -24q38 0 55 48z" />
    <glyph glyph-name="odieresis" unicode="&#xf6;" horiz-adv-x="574" 
d="M29 227q0 97 73 166t185 69t185 -69t73 -166t-73 -166t-185 -69t-185 69t-73 166zM171 227q0 -217 116 -217t116 217t-116 217t-116 -217zM331 587q0 24 17 41.5t42 17.5t42 -17.5t17 -41.5t-17 -41.5t-42 -17.5t-42 17.5t-17 41.5zM125 587q0 24 17 41.5t42 17.5
t42 -17.5t17 -41.5t-17 -41.5t-42 -17.5t-42 17.5t-17 41.5z" />
    <glyph glyph-name="divide" unicode="&#xf7;" horiz-adv-x="600" 
d="M527 176h-454v102h454v-102zM228 416q0 30 21.5 51.5t51.5 21.5q31 0 52 -21.5t21 -51.5q0 -31 -21 -52t-52 -21q-30 0 -51.5 21t-21.5 52zM228 38q0 30 21.5 51.5t51.5 21.5q31 0 52 -21.5t21 -51.5q0 -31 -21 -52t-52 -21q-30 0 -51.5 21t-21.5 52z" />
    <glyph glyph-name="oslash" unicode="&#xf8;" horiz-adv-x="574" 
d="M187 96l178 309q-30 39 -78 39q-116 0 -116 -217q0 -81 16 -131zM386 362l-178 -310q27 -42 79 -42q116 0 116 217q0 86 -17 135zM184 11l-49 -85h-46l59 102q-56 31 -87.5 84t-31.5 115q0 97 73 166t185 69q55 0 100 -18l38 66h46l-48 -83q57 -31 89.5 -84t32.5 -116
q0 -97 -73 -166t-185 -69q-59 0 -103 19z" />
    <glyph glyph-name="ugrave" unicode="&#xf9;" 
d="M510 462v-339q0 -30 17.5 -45t35 -19.5t17.5 -10.5q0 -8 -10.5 -11t-64.5 -14t-121 -31v78q-45 -39 -84 -58.5t-97 -19.5q-63 0 -92 27.5t-29 82.5v229q0 30 -17.5 45t-35 19.5t-17.5 10.5q0 8 10.5 11t64.5 14t121 31v-354q0 -36 15.5 -52t51.5 -16q60 0 109 58v233
q0 30 -17.5 45t-35 19.5t-17.5 10.5q0 8 10.5 11t64.5 14t121 31zM377 514h-50l-154 96q-32 20 -32 43q0 18 13 29.5t29 11.5q27 0 52 -26z" />
    <glyph glyph-name="uacute" unicode="&#xfa;" 
d="M510 462v-339q0 -30 17.5 -45t35 -19.5t17.5 -10.5q0 -8 -10.5 -11t-64.5 -14t-121 -31v78q-45 -39 -84 -58.5t-97 -19.5q-63 0 -92 27.5t-29 82.5v229q0 30 -17.5 45t-35 19.5t-17.5 10.5q0 8 10.5 11t64.5 14t121 31v-354q0 -36 15.5 -52t51.5 -16q60 0 109 58v233
q0 30 -17.5 45t-35 19.5t-17.5 10.5q0 8 10.5 11t64.5 14t121 31zM267 514h-50l142 154q25 26 52 26q16 0 29 -11.5t13 -29.5q0 -23 -32 -43z" />
    <glyph glyph-name="ucircumflex" unicode="&#xfb;" 
d="M510 462v-339q0 -30 17.5 -45t35 -19.5t17.5 -10.5q0 -8 -10.5 -11t-64.5 -14t-121 -31v78q-45 -39 -84 -58.5t-97 -19.5q-63 0 -92 27.5t-29 82.5v229q0 30 -17.5 45t-35 19.5t-17.5 10.5q0 8 10.5 11t64.5 14t121 31v-354q0 -36 15.5 -52t51.5 -16q60 0 109 58v233
q0 30 -17.5 45t-35 19.5t-17.5 10.5q0 8 10.5 11t64.5 14t121 31zM259 688h78l124 -174h-50l-114 102l-114 -102h-50z" />
    <glyph glyph-name="udieresis" unicode="&#xfc;" 
d="M510 462v-339q0 -30 17.5 -45t35 -19.5t17.5 -10.5q0 -8 -10.5 -11t-64.5 -14t-121 -31v78q-45 -39 -84 -58.5t-97 -19.5q-63 0 -92 27.5t-29 82.5v229q0 30 -17.5 45t-35 19.5t-17.5 10.5q0 8 10.5 11t64.5 14t121 31v-354q0 -36 15.5 -52t51.5 -16q60 0 109 58v233
q0 30 -17.5 45t-35 19.5t-17.5 10.5q0 8 10.5 11t64.5 14t121 31zM341 587q0 24 17 41.5t42 17.5t42 -17.5t17 -41.5t-17 -41.5t-42 -17.5t-42 17.5t-17 41.5zM135 587q0 24 17 41.5t42 17.5t42 -17.5t17 -41.5t-17 -41.5t-42 -17.5t-42 17.5t-17 41.5z" />
    <glyph glyph-name="yacute" unicode="&#xfd;" horiz-adv-x="500" 
d="M244 -6l-173 386q-14 31 -33 43t-30.5 13.5t-11.5 10.5t16 9q19 0 56 -1t55 -1t54.5 1t54.5 1q12 0 12 -9q0 -5 -11 -8t-22 -10t-11 -23q0 -7 14 -40l96 -218l55 129q19 43 19 89q0 37 -17.5 52.5t-35 18t-17.5 9.5q0 10 12 10q15 0 45 -1t45 -1t45 1t45 1q10 0 10 -8
q0 -6 -3.5 -8t-14.5 -6t-21 -11q-39 -28 -77 -116l-193 -447q-31 -72 -89 -72q-28 0 -48 19t-20 46q0 28 15 44.5t42 16.5q31 0 50 -29l6.5 -11t4.5 -8t3.5 -4t6.5 -2q13 0 22 25zM220 514h-50l142 154q25 26 52 26q16 0 29 -11.5t13 -29.5q0 -23 -32 -43z" />
    <glyph glyph-name="thorn" unicode="&#xfe;" 
d="M205 730v-350l2 -1q70 83 169 83q81 0 134.5 -66.5t53.5 -153.5q0 -103 -73.5 -176.5t-186.5 -73.5q-43 0 -99 16v-120q0 -27 13 -40.5t28 -14.5t28 -4t13 -11q0 -12 -12 -12q-13 0 -58.5 1t-74.5 1t-74.5 -1t-58.5 -1q-12 0 -12 12q0 8 13 11t28 4t28 14.5t13 40.5v707
q0 30 -20 44t-40 19t-20 12q0 8 13.5 11l69 15t123.5 34zM205 354v-238q0 -46 26 -76t68 -30q59 0 96 48t37 146q0 89 -41 143.5t-101 54.5q-45 0 -85 -48z" />
    <glyph glyph-name="ydieresis" unicode="&#xff;" horiz-adv-x="500" 
d="M244 -6l-173 386q-14 31 -33 43t-30.5 13.5t-11.5 10.5t16 9q19 0 56 -1t55 -1t54.5 1t54.5 1q12 0 12 -9q0 -5 -11 -8t-22 -10t-11 -23q0 -7 14 -40l96 -218l55 129q19 43 19 89q0 37 -17.5 52.5t-35 18t-17.5 9.5q0 10 12 10q15 0 45 -1t45 -1t45 1t45 1q10 0 10 -8
q0 -6 -3.5 -8t-14.5 -6t-21 -11q-39 -28 -77 -116l-193 -447q-31 -72 -89 -72q-28 0 -48 19t-20 46q0 28 15 44.5t42 16.5q31 0 50 -29l6.5 -11t4.5 -8t3.5 -4t6.5 -2q13 0 22 25zM300 587q0 24 17 41.5t42 17.5t42 -17.5t17 -41.5t-17 -41.5t-42 -17.5t-42 17.5t-17 41.5z
M94 587q0 24 17 41.5t42 17.5t42 -17.5t17 -41.5t-17 -41.5t-42 -17.5t-42 17.5t-17 41.5z" />
    <glyph glyph-name="dotlessi" unicode="&#x131;" horiz-adv-x="296" 
d="M211 462v-382q0 -27 13 -40.5t28 -14.5t28 -4t13 -11q0 -12 -12 -12q-13 0 -58.5 1t-74.5 1t-74.5 -1t-58.5 -1q-12 0 -12 12q0 8 13 11t28 4t28 14.5t13 40.5v247q0 30 -20 44t-40 19t-20 12q0 8 13.5 11l69 15t123.5 34z" />
    <glyph glyph-name="Lslash" unicode="&#x141;" horiz-adv-x="630" 
d="M458 434l-200 -81v-261q0 -36 18 -53t64 -17q85 0 150 59.5t94 150.5l2.5 7.5t2 6.5t1.5 5t2 4t2 2.5t2.5 2t3.5 0.5q10 0 10 -11q0 -7 -4 -29l-44 -222q-210 2 -377 2q-19 0 -65.5 -1t-73.5 -1q-20 0 -20 13q0 9 13.5 11.5t29.5 3t29.5 14t13.5 40.5v214l-112 -46v44
l112 46v260q0 27 -13.5 40.5t-29.5 14t-29.5 3t-13.5 11.5q0 13 20 13q27 0 73.5 -1t65.5 -1t65.5 1t73.5 1q20 0 20 -13q0 -9 -13.5 -11.5t-29.5 -3t-29.5 -14t-13.5 -40.5v-200l200 82v-46z" />
    <glyph glyph-name="lslash" unicode="&#x142;" horiz-adv-x="296" 
d="M312 452l-101 -53v-319q0 -27 13 -40.5t28 -14.5t28 -4t13 -11q0 -12 -12 -12q-13 0 -58.5 1t-74.5 1t-74.5 -1t-58.5 -1q-12 0 -12 12q0 8 13 11t28 4t28 14.5t13 40.5v253l-101 -53v44l101 53v218q0 30 -20 44t-40 19t-20 12q0 8 13.5 11l69 15t123.5 34v-287l101 53
v-44z" />
    <glyph glyph-name="OE" unicode="&#x152;" horiz-adv-x="1130" 
d="M596 -2v42l-65 -30t-56 -17t-79 -9q-107 0 -192 50t-130.5 130.5t-45.5 174.5t45.5 174.5t130.5 130.5t192 50q41 0 79 -9t56 -17l65 -30v42q150 -2 216 -2q65 0 217 2l50 -191q6 -22 6 -26q0 -8 -10 -8q-4 0 -7 5.5t-13.5 27.5t-26.5 49q-37 61 -91 90t-141 29h-54v-288
h25q52 0 87 35t38 89q1 25 14 25q10 0 10 -14v-306q0 -14 -10 -14q-13 0 -14 25q-3 65 -37 100.5t-88 35.5h-25v-252q0 -36 18 -53t64 -17q107 0 175.5 62t95.5 148l2.5 7.5t2 6.5t1.5 5t2 4t2 2.5t2.5 2t3.5 0.5q10 0 10 -11q0 -7 -4 -29l-44 -222q-156 2 -236 2
q-75 0 -241 -2zM192 339q0 -156 55 -243.5t149 -87.5q197 0 200 331q1 176 -54 253.5t-146 77.5q-94 0 -149 -87.5t-55 -243.5z" />
    <glyph glyph-name="oe" unicode="&#x153;" horiz-adv-x="889" 
d="M171 227q0 -119 32 -168t90 -49q123 0 123 217t-123 217q-58 0 -90 -49t-32 -168zM856 252h-320q1 -87 48.5 -134.5t114.5 -47.5q75 0 122 52q9 9 14.5 19.5l8 15t6.5 4.5q6 0 6 -7q0 -14 -10.5 -38.5t-32.5 -53.5t-66.5 -49.5t-101.5 -20.5q-106 0 -166 71
q-74 -71 -186 -71q-116 0 -190 68.5t-74 166.5t74 166.5t190 68.5q114 0 188 -72q64 72 164 72q88 0 148 -55t63 -155zM536 276h200q-1 94 -24 131t-68 37q-48 0 -77.5 -44.5t-30.5 -123.5z" />
    <glyph glyph-name="Scaron" unicode="&#x160;" 
d="M52 5v278q0 15 10 15q3 0 5 -1.5t3 -5.5t2 -7t2 -10.5t2 -11.5q10 -53 24.5 -94t39 -79.5t64.5 -59.5t92 -21q75 0 117.5 35t42.5 94q0 41 -22 70t-57.5 45t-78 29.5t-85 28.5t-78 35t-57.5 56.5t-22 86.5q0 88 65 147t159 59q55 0 110.5 -20t61.5 -20q20 0 25.5 14
t12.5 14q11 0 12 -18l18 -189q3 -29 3 -33q0 -10 -8 -10q-5 0 -7.5 5.5t-8 23.5t-11.5 32q-36 90 -83 133.5t-126 43.5q-57 0 -92 -26.5t-35 -80.5q0 -33 22.5 -56t58 -37t79 -26t87 -28t79 -38.5t58 -63t22.5 -95.5q0 -100 -75 -167.5t-188 -67.5q-57 0 -115 23t-70 23
q-17 0 -25.5 -8.5t-13.5 -17t-11 -8.5q-8 0 -8 9zM331 721h-78l-126 174h50l114 -102l114 102h50z" />
    <glyph glyph-name="scaron" unicode="&#x161;" horiz-adv-x="426" 
d="M40 21v148q0 9 8 9q4 0 6 -3t6.5 -16t10.5 -26q25 -55 59 -89t89 -34q45 0 68 20t23 55q0 31 -27.5 51.5t-67 34t-79 29.5t-67 48t-27.5 80q0 55 47 94.5t126 39.5q41 0 83.5 -11.5t65.5 -26.5v-115q0 -7 -6 -7q-4 0 -6.5 5t-8 19t-12.5 27q-22 41 -51.5 66t-77.5 25
q-32 0 -51 -16t-19 -46q0 -27 27.5 -45t67 -30.5t79 -28t67 -46.5t27.5 -78q0 -77 -52.5 -119.5t-138.5 -42.5q-88 0 -169 29zM253 514h-78l-126 174h50l114 -102l114 102h50z" />
    <glyph glyph-name="Ydieresis" unicode="&#x178;" horiz-adv-x="630" 
d="M258 561l118 -221l78 138q36 64 36 118q0 29 -15.5 43.5t-31 19.5t-15.5 10q0 11 20 11q15 0 45 -1t51 -1q16 0 47 1t46 1q11 0 11 -10q0 -4 -4 -7t-11.5 -5.5t-20 -11.5t-27.5 -22.5t-36 -41t-43 -64.5l-118 -197v-241q0 -27 13.5 -40.5t29.5 -14t29.5 -3t13.5 -11.5
q0 -13 -20 -13q-27 0 -73.5 1t-65.5 1t-65.5 -1t-73.5 -1q-20 0 -20 13q0 9 13.5 11.5t29.5 3t29.5 14t13.5 40.5v222l-161 293q-15 27 -33.5 42t-32.5 17t-23.5 5t-9.5 10q0 11 17 11q25 0 72 -1t70 -1t70 1t70 1q22 0 22 -10q0 -7 -10 -9.5t-21.5 -3.5t-21.5 -11t-10 -29
q0 -21 18 -56zM371 794q0 24 17 41.5t42 17.5t42 -17.5t17 -41.5t-17 -41.5t-42 -17.5t-42 17.5t-17 41.5zM165 794q0 24 17 41.5t42 17.5t42 -17.5t17 -41.5t-17 -41.5t-42 -17.5t-42 17.5t-17 41.5z" />
    <glyph glyph-name="Zcaron" unicode="&#x17d;" 
d="M184 22h82q147 0 227 115q19 26 30.5 58t17 48.5t12.5 16.5q9 0 9 -11q0 -7 -7 -40l-41 -211q-160 2 -244 2q-41 0 -123 -1t-123 -1q-12 0 -12 9q0 5 11 24l373 625h-60q-157 0 -230 -119q-12 -19 -20.5 -35t-11.5 -24t-5.5 -14t-4.5 -7.5t-6 -1.5q-8 0 -8 8q0 3 6 26
l50 191q36 0 109 -1t110 -1t111 1t112 1q16 0 16 -8q0 -4 -15 -30zM349 721h-78l-126 174h50l114 -102l114 102h50z" />
    <glyph glyph-name="zcaron" unicode="&#x17e;" horiz-adv-x="500" 
d="M298 438h-8q-116 0 -192 -93q-13 -16 -22.5 -31t-13 -23.5l-6 -15t-4.5 -9t-6 -2.5q-6 0 -6 6q0 9 7 34l39 152q124 -2 184 -2q56 0 190 2l-284 -440h8q76 0 137.5 42t97.5 110q6 12 11.5 24.5t7.5 20t4.5 14t5 9t5.5 2.5q7 0 7 -6q0 -8 -6 -36l-40 -198q-132 2 -199 2
t-199 -2zM296 514h-78l-126 174h50l114 -102l114 102h50z" />
    <glyph glyph-name="florin" unicode="&#x192;" 
d="M492 454l-18 -54h-92l-13.5 -76.5t-22 -102t-32 -119t-42 -114.5t-53 -102.5t-65.5 -69.5t-79 -28q-42 0 -63.5 19.5t-21.5 53.5q0 27 16.5 43t42.5 16q25 0 39.5 -12t19 -27t14.5 -27t26 -12q41 0 52.5 78.5t20 228t35.5 251.5h-64q28 18 59 62t59.5 91.5t61 93.5
t75 75.5t89.5 29.5q33 0 60.5 -23t27.5 -53q0 -27 -18 -45.5t-44 -18.5q-43 0 -52 48q-5 30 -14 40t-26 10q-27 0 -42.5 -20.5t-24.5 -76t-13 -159.5h102z" />
    <glyph glyph-name="circumflex" unicode="&#x2c6;" horiz-adv-x="296" 
d="M110 688h78l124 -174h-50l-114 102l-114 -102h-50z" />
    <glyph glyph-name="caron" unicode="&#x2c7;" horiz-adv-x="296" 
d="M188 514h-78l-126 174h50l114 -102l114 102h50z" />
    <glyph glyph-name="uni02C9" unicode="&#x2c9;" horiz-adv-x="296" 
d="M-14 554v66h324v-66h-324z" />
    <glyph glyph-name="breve" unicode="&#x2d8;" horiz-adv-x="296" 
d="M256 678h40q0 -68 -42.5 -116t-105.5 -48q-74 0 -111 46t-37 118h40q2 -41 30 -67.5t78 -26.5q47 0 76.5 27t31.5 67z" />
    <glyph glyph-name="dotaccent" unicode="&#x2d9;" horiz-adv-x="296" 
d="M89 587q0 24 17 41.5t42 17.5t42 -17.5t17 -41.5t-17 -41.5t-42 -17.5t-42 17.5t-17 41.5z" />
    <glyph glyph-name="ring" unicode="&#x2da;" horiz-adv-x="296" 
d="M46 618q0 44 29 73t73 29t73 -29t29 -73t-29 -73t-73 -29t-73 29t-29 73zM88 618q0 -25 17.5 -42.5t42.5 -17.5t42.5 17.5t17.5 42.5t-17.5 42.5t-42.5 17.5t-42.5 -17.5t-17.5 -42.5z" />
    <glyph glyph-name="ogonek" unicode="&#x2db;" horiz-adv-x="296" 
d="M258 20v-12q-64 -20 -106.5 -54t-42.5 -69q0 -20 15 -34.5t34 -14.5q39 0 102 40l18 -32q-71 -46 -106 -55q-23 -7 -46 -7q-44 0 -72.5 27t-28.5 61q0 110 233 150z" />
    <glyph glyph-name="tilde" unicode="&#x2dc;" horiz-adv-x="296" 
d="M288 654h36q-17 -65 -45 -91.5t-69 -26.5q-35 0 -83 24t-65 24q-20 0 -35.5 -13.5t-18.5 -34.5h-36q7 57 39 87.5t75 30.5q30 0 78.5 -24t68.5 -24q38 0 55 48z" />
    <glyph glyph-name="hungarumlaut" unicode="&#x2dd;" horiz-adv-x="296" 
d="M38 514h-46l135 153q24 27 47 27q16 0 29 -11.5t13 -29.5q0 -22 -32 -43zM198 514h-50l142 154q25 26 52 26q16 0 29 -11.5t13 -29.5q0 -23 -32 -43z" />
    <glyph glyph-name="uni03A9" unicode="&#x3a9;" horiz-adv-x="776" 
d="M740 161l-29 -161h-263l-9 23l27 50q28 50 36.5 70l27 65t26 84t7.5 78q-1 140 -50 206t-127 66q-174 0 -174 -276q0 -47 10 -93t33 -97t36 -76l42 -77l-8 -23h-264l-26 161l32 1q16 -45 32.5 -58.5t50.5 -13.5h101q-35 25 -59 46t-55 57t-47.5 81.5t-16.5 98.5
q0 138 89 221.5t227 83.5q139 0 225.5 -80.5t86.5 -216.5q0 -47 -15.5 -90t-47 -81t-56.5 -62.5t-65 -57.5h111q34 0 48.5 13t30.5 59z" />
    <glyph glyph-name="uni03BC" unicode="&#x3bc;" 
d="M208 462v-354q0 -36 15.5 -52t51.5 -16q60 0 109 58v233q0 30 -17.5 45t-35 19.5t-17.5 10.5q0 8 10.5 11t64.5 14t121 31v-339q0 -30 17.5 -45t35 -19.5t17.5 -10.5q0 -8 -10.5 -11t-64.5 -14t-121 -31v78q-45 -40 -83.5 -58.5t-90.5 -19.5q0 -15 2 -48.5t2 -53.5
q0 -102 -70 -102q-68 0 -68 102q0 33 3 110.5t3 133.5v197q0 30 -17.5 45t-35 19.5t-17.5 10.5q0 8 10.5 11t64.5 14t121 31z" />
    <glyph glyph-name="pi" unicode="&#x3c0;" horiz-adv-x="606" 
d="M551 473l28 -9q-4 -30 -16 -64t-23 -47q-20 -6 -68 -6q-5 -51 -5 -202q1 -85 43 -85q21 0 47 23l13 -26q-19 -31 -52.5 -50t-66.5 -19q-104 0 -104 130q0 77 11 231q-120 2 -143 2v-12q0 -102 -14.5 -181t-27.5 -109.5t-25 -43.5q-40 -16 -68 -17l-8 20q50 64 73 161.5
t23 183.5q-44 1 -70 -8.5t-62 -32.5l-17 28q1 2 11.5 15t13.5 16t13 14.5t16 15.5t18 13t22.5 12.5l24.5 8t30.5 6t34.5 1.5q240 -3 285 -3q25 0 38 6.5t25 27.5z" />
    <glyph glyph-name="endash" unicode="&#x2013;" horiz-adv-x="500" 
d="M0 188v78h500v-78h-500z" />
    <glyph glyph-name="emdash" unicode="&#x2014;" horiz-adv-x="1000" 
d="M0 188v78h1000v-78h-1000z" />
    <glyph glyph-name="quoteleft" unicode="&#x2018;" horiz-adv-x="241" 
d="M41 576q0 64 46 113t69 49q6 0 6 -6q0 -2 -2.5 -4.5t-6 -5t-11.5 -9t-16 -14.5q-36 -36 -37 -89l10.5 2.5t9.5 1.5q14 2 21 2q32 0 51.5 -18t19.5 -53q0 -34 -20 -54.5t-53 -20.5q-36 0 -61.5 29t-25.5 77z" />
    <glyph glyph-name="quoteright" unicode="&#x2019;" horiz-adv-x="241" 
d="M200 624q0 -64 -46 -113t-69 -49q-6 0 -6 6q0 2 2.5 4.5t6 5t11.5 9t16 14.5q36 36 37 89l-10.5 -2.5t-9.5 -1.5q-14 -2 -21 -2q-32 0 -51.5 18t-19.5 53q0 34 20 54.5t53 20.5q36 0 61.5 -29t25.5 -77z" />
    <glyph glyph-name="quotesinglbase" unicode="&#x201a;" horiz-adv-x="241" 
d="M200 32q0 -64 -46 -113t-69 -49q-6 0 -6 6q0 2 2.5 4.5t6 5t11.5 9t16 14.5q36 36 37 89l-10.5 -2.5t-9.5 -1.5q-14 -2 -21 -2q-32 0 -51.5 18t-19.5 53q0 34 20 54.5t53 20.5q36 0 61.5 -29t25.5 -77z" />
    <glyph glyph-name="quotedblleft" unicode="&#x201c;" horiz-adv-x="444" 
d="M31 576q0 64 46 113t69 49q6 0 6 -6q0 -2 -2.5 -4.5t-6 -5t-11.5 -9t-16 -14.5q-36 -36 -37 -89l10.5 2.5t9.5 1.5q14 2 21 2q32 0 51.5 -18t19.5 -53q0 -34 -20 -54.5t-53 -20.5q-36 0 -61.5 29t-25.5 77zM254 576q0 64 46 113t69 49q6 0 6 -6q0 -2 -2.5 -4.5t-6 -5
t-11.5 -9t-16 -14.5q-36 -36 -37 -89l10.5 2.5t9.5 1.5q14 2 21 2q32 0 51.5 -18t19.5 -53q0 -34 -20 -54.5t-53 -20.5q-36 0 -61.5 29t-25.5 77z" />
    <glyph glyph-name="quotedblright" unicode="&#x201d;" horiz-adv-x="444" 
d="M413 624q0 -64 -46 -113t-69 -49q-6 0 -6 6q0 2 2.5 4.5t6 5t11.5 9t16 14.5q36 36 37 89l-10.5 -2.5t-9.5 -1.5q-14 -2 -21 -2q-32 0 -51.5 18t-19.5 53q0 34 20 54.5t53 20.5q36 0 61.5 -29t25.5 -77zM190 624q0 -64 -46 -113t-69 -49q-6 0 -6 6q0 2 2.5 4.5t6 5
t11.5 9t16 14.5q36 36 37 89l-10.5 -2.5t-9.5 -1.5q-14 -2 -21 -2q-32 0 -51.5 18t-19.5 53q0 34 20 54.5t53 20.5q36 0 61.5 -29t25.5 -77z" />
    <glyph glyph-name="quotedblbase" unicode="&#x201e;" horiz-adv-x="444" 
d="M413 32q0 -64 -46 -113t-69 -49q-6 0 -6 6q0 2 2.5 4.5t6 5t11.5 9t16 14.5q36 36 37 89l-10.5 -2.5t-9.5 -1.5q-14 -2 -21 -2q-32 0 -51.5 18t-19.5 53q0 34 20 54.5t53 20.5q36 0 61.5 -29t25.5 -77zM190 32q0 -64 -46 -113t-69 -49q-6 0 -6 6q0 2 2.5 4.5t6 5t11.5 9
t16 14.5q36 36 37 89q-4 -1 -11 -2.5t-9 -1.5q-14 -2 -21 -2q-32 0 -51.5 18t-19.5 53q0 34 20 54.5t53 20.5q36 0 61.5 -29t25.5 -77z" />
    <glyph glyph-name="dagger" unicode="&#x2020;" horiz-adv-x="500" 
d="M268 -106h-36q0 220 -10.5 311.5t-35.5 114.5q19 17 32.5 48t13.5 51q0 27 -23 27q-10 0 -48 -21q-40 -21 -60 -21q-59 0 -59 60q0 28 16.5 44t45.5 16q24 0 58 -21q38 -21 53 -21q17 0 17 17q0 15 -24 57.5t-24 71.5q0 30 19 48t47 18t47 -18t19 -48q0 -29 -24 -71.5
t-24 -57.5q0 -17 17 -17t53 21t58 21q29 0 45.5 -16t16.5 -44q0 -60 -59 -60q-20 0 -60 21q-38 21 -48 21q-23 0 -23 -27q0 -20 13.5 -51t32.5 -48q-25 -23 -35.5 -114.5t-10.5 -311.5z" />
    <glyph glyph-name="daggerdbl" unicode="&#x2021;" horiz-adv-x="500" 
d="M278 285q0 -34 24 -70q-34 -34 -34 -67q0 -24 23 -24q9 0 47.5 21t60.5 21q59 0 59 -60q0 -28 -16.5 -44t-45.5 -16q-22 0 -58 21t-53 21t-17 -17q0 -15 24 -57.5t24 -71.5q0 -30 -19 -48t-47 -18t-47 18t-19 48q0 29 24 71.5t24 57.5q0 17 -17 17t-53 -21t-58 -21
q-29 0 -45.5 16t-16.5 44q0 60 59 60q22 0 60.5 -21t47.5 -21q23 0 23 24q0 33 -34 67q24 36 24 70t-24 70q34 34 34 67q0 24 -23 24q-10 0 -48 -21q-40 -21 -60 -21q-59 0 -59 60q0 28 16.5 44t45.5 16q24 0 58 -21q38 -21 53 -21q17 0 17 17q0 15 -24 57.5t-24 71.5
q0 30 19 48t47 18t47 -18t19 -48q0 -29 -24 -71.5t-24 -57.5q0 -17 17 -17t53 21t58 21q29 0 45.5 -16t16.5 -44q0 -60 -59 -60q-20 0 -60 21q-38 21 -48 21q-23 0 -23 -24q0 -33 34 -67q-24 -36 -24 -70z" />
    <glyph glyph-name="bullet" unicode="&#x2022;" horiz-adv-x="500" 
d="M81 339q0 70 49.5 119.5t119.5 49.5t119.5 -49.5t49.5 -119.5t-49.5 -119.5t-119.5 -49.5t-119.5 49.5t-49.5 119.5z" />
    <glyph glyph-name="ellipsis" unicode="&#x2026;" horiz-adv-x="1000" 
d="M93 65q0 30 21.5 51.5t51.5 21.5q31 0 52 -21.5t21 -51.5q0 -31 -21 -52t-52 -21q-30 0 -51.5 21t-21.5 52zM427 65q0 30 21.5 51.5t51.5 21.5q31 0 52 -21.5t21 -51.5q0 -31 -21 -52t-52 -21q-30 0 -51.5 21t-21.5 52zM761 65q0 30 21.5 51.5t51.5 21.5q31 0 52 -21.5
t21 -51.5q0 -31 -21 -52t-52 -21q-30 0 -51.5 21t-21.5 52z" />
    <glyph glyph-name="perthousand" unicode="&#x2030;" horiz-adv-x="1167" 
d="M899 186q0 -176 74 -176t74 176t-74 176t-74 -176zM569 686h56l-410 -694h-56zM119 492q0 -176 74 -176t74 176t-74 176t-74 -176zM803 186q0 92 49 143t121 51t121 -51t49 -143t-49 -143t-121 -51t-121 51t-49 143zM23 492q0 92 49 143t121 51t121 -51t49 -143t-49 -143
t-121 -51t-121 51t-49 143zM429 186q0 92 49 143t121 51t121 -51t49 -143t-49 -143t-121 -51t-121 51t-49 143zM525 186q0 -176 74 -176t74 176t-74 176t-74 -176z" />
    <glyph glyph-name="guilsinglleft" unicode="&#x2039;" horiz-adv-x="333" 
d="M260 390l-102 -163l102 -163q10 -15 10 -20q0 -8 -8 -8q-5 0 -25 18l-156 149q-17 17 -17 24t17 24l156 149q20 18 25 18q8 0 8 -8q0 -5 -10 -20z" />
    <glyph glyph-name="guilsinglright" unicode="&#x203a;" horiz-adv-x="333" 
d="M73 64l102 163l-102 163q-10 15 -10 20q0 8 8 8q5 0 25 -18l156 -149q17 -17 17 -24t-17 -24l-156 -149q-20 -18 -25 -18q-8 0 -8 8q0 5 10 20z" />
    <glyph glyph-name="fraction" unicode="&#x2044;" horiz-adv-x="167" 
d="M-83 -8h-84l417 694h84z" />
    <glyph glyph-name="Euro" unicode="&#x20ac;" 
d="M430 270h-211q16 -260 153 -260q102 0 163 187q1 4 2.5 9.5t2.5 8.5t2.5 7t2.5 6l2.5 5t2.5 4.5t2.5 3t3.5 2t4 0.5q9 0 9 -15v-227q0 -17 -11 -17q-7 0 -13 26q-6 29 -25 29q-9 0 -59 -23.5t-103 -23.5q-108 0 -182 77t-92 201h-75v48h70v21q0 32 2 47h-72v48h80
q25 111 100 181.5t169 70.5q52 0 102 -26q6 -3 17 -9t17.5 -9t14.5 -6t15 -3q13 0 19 21q6 20 12 20q11 0 11 -14v-216q0 -19 -11 -19q-8 0 -14 18q-2 5 -9.5 32.5t-16.5 53.5q-22 63 -62.5 100.5t-85.5 37.5q-126 0 -146 -233h209v-48h-212q-1 -15 -1 -47v-21h213v-48z" />
    <glyph glyph-name="afii61289" unicode="&#x2113;" horiz-adv-x="453" 
d="M412 141l23 -22q-70 -126 -189 -126q-77 0 -114 40q-21 23 -30.5 54.5t-9.5 93.5v62l-61 -40l-14 30l75 53v130q0 109 11.5 161t43.5 91q47 58 111 58q52 0 79 -39t27 -97q0 -80 -39 -145t-118 -136v-78q0 -91 21.5 -129t68.5 -38q60 0 115 77zM207 473v-111
q88 100 88 226q0 102 -44 102q-26 0 -35 -45.5t-9 -171.5z" />
    <glyph glyph-name="trademark" unicode="&#x2122;" horiz-adv-x="1000" 
d="M252 654v-305q0 -27 7 -34t43 -9v-24h-206v24q36 2 43 9t7 34v305h-44q-49 0 -62 -62h-24v86h366v-86h-24q-13 62 -63 62h-43zM654 282l-131 278h-2v-184q0 -42 8 -55t42 -15v-24h-132v24q34 2 42 15t8 55v226q-23 52 -69 52v24h148l131 -270l138 270h131v-24
q-34 -1 -42.5 -10t-8.5 -33v-262q0 -27 6.5 -34t42.5 -9v-24h-205v24q36 2 43 9t7 34v212h-2l-141 -279h-14z" />
    <glyph glyph-name="Omega" unicode="&#x2126;" horiz-adv-x="776" 
d="M740 161l-29 -161h-263l-9 23l27 50q28 50 36.5 70l27 65t26 84t7.5 78q-1 140 -50 206t-127 66q-174 0 -174 -276q0 -47 10 -93t33 -97t36 -76l42 -77l-8 -23h-264l-26 161l32 1q16 -45 32.5 -58.5t50.5 -13.5h101q-35 25 -59 46t-55 57t-47.5 81.5t-16.5 98.5
q0 138 89 221.5t227 83.5q139 0 225.5 -80.5t86.5 -216.5q0 -47 -15.5 -90t-47 -81t-56.5 -62.5t-65 -57.5h111q34 0 48.5 13t30.5 59z" />
    <glyph glyph-name="estimated" unicode="&#x212e;" horiz-adv-x="835" 
d="M802 329h-623q-5 0 -5 -4v-189q0 -11 8 -21q98 -103 236 -103q148 0 248 115h55q-53 -62 -133 -98t-171 -36q-159 0 -272 101t-113 244q0 144 113 245t272 101q160 0 272.5 -101t112.5 -245v-9zM661 353v190q0 13 -10 23q-100 98 -233 98q-136 0 -235 -102q-9 -9 -9 -23
v-186q0 -6 5 -6h478q4 0 4 6z" />
    <glyph glyph-name="partialdiff" unicode="&#x2202;" horiz-adv-x="571" 
d="M276 429h1q37 0 73.5 -16.5t58.5 -46.5q10 60 11 106q2 91 -26 149q-16 32 -47.5 53.5t-70.5 21.5q-69 0 -151 -67q-15 -1 -32 31t-8 51q70 41 152 41q147 0 228 -141q55 -96 55 -227q0 -143 -53 -241q-75 -149 -226 -149q-90 0 -144 54t-54 145q0 95 63 165
q66 71 170 71zM307 382h-1q-62 0 -100 -55q-44 -72 -44 -188q0 -50 21.5 -79.5t60.5 -29.5q61 0 105 99q35 73 51 190q-11 23 -36.5 43t-56.5 20z" />
    <glyph glyph-name="Delta" unicode="&#x2206;" horiz-adv-x="678" 
d="M641 0h-605v33l270 631l55 14l280 -645v-33zM491 58l-196 466l-192 -466h388z" />
    <glyph glyph-name="product" unicode="&#x220f;" horiz-adv-x="740" 
d="M711 677v-31q-66 -5 -80.5 -18.5t-14.5 -66.5v-518q0 -58 14.5 -72.5t78.5 -19.5v-32h-297v32q58 5 70 18t12 73v560q0 23 -7 29t-31 6h-176q-23 0 -29 -5.5t-6 -26.5v-563q0 -59 10.5 -73t64.5 -18v-32h-291v32q63 4 78 19t15 72v519q0 53 -15 66.5t-81 18.5v31h685z
" />
    <glyph glyph-name="summation" unicode="&#x2211;" horiz-adv-x="589" 
d="M565 124l-48 -212h-490v32l226 316l-220 385v32h483q4 -76 13 -174l-33 -8q-15 69 -38 107q-13 22 -33.5 29.5t-74.5 7.5h-169l175 -302l-228 -325h255q69 0 91.5 17.5t57.5 103.5z" />
    <glyph glyph-name="minus" unicode="&#x2212;" horiz-adv-x="600" 
d="M527 176h-454v102h454v-102z" />
    <glyph glyph-name="uni2215" unicode="&#x2215;" horiz-adv-x="167" 
d="M-83 -8h-84l417 694h84z" />
    <glyph glyph-name="uni2219" unicode="&#x2219;" horiz-adv-x="296" 
d="M75 227q0 30 21.5 51.5t51.5 21.5q31 0 52 -21.5t21 -51.5q0 -31 -21 -52t-52 -21q-30 0 -51.5 21t-21.5 52z" />
    <glyph glyph-name="radical" unicode="&#x221a;" horiz-adv-x="575" 
d="M564 851l-177 -1002l-29 -13l-221 529l-90 -42l-13 39l182 83l159 -396h2l139 812z" />
    <glyph glyph-name="infinity" unicode="&#x221e;" horiz-adv-x="766" 
d="M718 277v-1q0 -77 -47 -123.5t-111 -46.5q-92 0 -177 111q-45 -54 -86 -82.5t-95 -28.5q-63 0 -109.5 46.5t-46.5 118.5q0 74 47 121t117 47q52 0 94 -28t84 -81q50 58 77 76q46 34 100 33q66 0 109.5 -45t43.5 -117zM210 174h2q25 0 52 16.5t41.5 32t39.5 45.5
q-21 29 -30.5 40.5t-28.5 30.5t-37.5 26t-41.5 7q-41 0 -65.5 -28.5t-24.5 -73.5q0 -40 26.5 -68t66.5 -28zM558 372h-1q-12 0 -24 -3t-23.5 -10.5l-20 -13.5t-19.5 -17.5l-17 -18t-16.5 -19t-13.5 -16.5q46 -57 75 -78.5t64 -21.5q39 0 62 30.5t23 66.5q0 44 -24.5 72.5
t-64.5 28.5z" />
    <glyph glyph-name="integral" unicode="&#x222b;" horiz-adv-x="405" 
d="M165 -4l-21 389q-5 102 3 180.5t25.5 124.5t43 75t50 39t51.5 10t49.5 -14.5t23.5 -39.5q0 -26 -16.5 -41t-38.5 -15q-16 0 -25.5 15t-16 30t-15.5 15q-40 0 -31 -152l19 -364q12 -238 -39.5 -345.5t-137.5 -107.5q-31 0 -52 17t-21 40q-1 24 20 41.5t45 17.5
q17 0 30 -32.5t22 -32.5q40 0 32 150z" />
    <glyph glyph-name="approxequal" unicode="&#x2248;" horiz-adv-x="557" 
d="M471 437l47 -44q-59 -99 -139 -99q-47 0 -113 39q-53 32 -86 32q-21 0 -40 -11t-30.5 -24t-27.5 -35l-47 44q23 43 64 70.5t86 27.5q43 0 106 -35q3 -2 10.5 -6.5t10 -5.5t9 -5t8.5 -5t7.5 -3.5t8.5 -3.5l7.5 -2.5t8 -2t8 -1t9.5 -0.5q47 0 93 70zM471 255l47 -45
q-58 -99 -139 -99q-45 0 -113 39q-52 32 -86 32q-31 0 -52 -17.5t-46 -52.5l-47 44q23 43 64 71t86 28q12 0 23.5 -2t19 -4t18.5 -6.5t15.5 -7l15.5 -8.5t13 -7q4 -3 17 -10.5l18.5 -10.5t15.5 -7.5t18.5 -6t18.5 -1.5q27 0 47.5 17t45.5 54z" />
    <glyph glyph-name="notequal" unicode="&#x2260;" horiz-adv-x="557" 
d="M409 495l-39 -85h138v-73h-167l-59 -131h226v-73h-255l-51 -113l-58 25l39 88h-135v73h165l58 131h-223v73h253l49 110z" />
    <glyph glyph-name="lessequal" unicode="&#x2264;" horiz-adv-x="557" 
d="M506 101l-454 217v78l454 216v-84l-378 -170v-2l378 -171v-84zM509 -9h-460v74h460v-74z" />
    <glyph glyph-name="greaterequal" unicode="&#x2265;" horiz-adv-x="557" 
d="M54 612l453 -216v-79l-453 -216v84l377 171v2l-377 170v84zM506 -9h-457v74h457v-74z" />
    <glyph glyph-name="lozenge" unicode="&#x25ca;" horiz-adv-x="589" 
d="M543 323l-205 -395h-88l-204 395l206 397h87zM458 323l-161 322h-4l-162 -322l163 -323h3z" />
    </font>
</defs>
</svg>
