<?xml version="1.0" standalone="no"?>
<!DOCTYPE svg PUBLIC "-//W3C//DTD SVG 1.1//EN" "http://www.w3.org/Graphics/SVG/1.1/DTD/svg11.dtd" >
<svg>
<metadata>
Created by FontForge 20090622 at Thu Aug  6 21:39:16 2015
 By deploy user
Copyright &#194;&#169; 1990, 2001 Adobe Systems Incorporated.  All Rights Reserved.
</metadata>
<defs>
<font id="Caslon224Std-Medium" horiz-adv-x="574" >
  <font-face 
    font-family="ITC Caslon 224 Std Medium"
    font-weight="500"
    font-stretch="normal"
    units-per-em="1000"
    panose-1="2 3 6 3 7 5 6 2 4 4"
    ascent="730"
    descent="-270"
    x-height="456"
    cap-height="680"
    bbox="-167 -216 1139 920"
    underline-thickness="50"
    underline-position="-50"
    unicode-range="U+0020-U+FB02"
  />
<missing-glyph horiz-adv-x="500" 
d="M0 0v700h500v-700h-500zM250 395l170 255h-340zM280 350l170 -255v510zM80 50h340l-170 255zM50 605v-510l170 255z" />
    <glyph glyph-name="fi" unicode="fi" 
d="M331 402h-139v-335q0 -22 11.5 -33t25.5 -11.5t25.5 -3.5t11.5 -11q0 -10 -20 -10q-22 0 -58 1t-51 1t-51 -1t-58 -1q-20 0 -20 10q0 8 11.5 11t25.5 3.5t25.5 11.5t11.5 33v335h-52q29 21 52 66t39.5 91.5t38 91t59 73t90.5 28.5t93.5 -30.5t40.5 -84.5q0 -27 -15 -46.5
t-44 -19.5q-55 0 -55 62q0 9 2 27t2 26q0 22 -13 32t-32 10q-54 0 -75 -51.5t-21 -161.5v-61h156q45 0 144 8v-395q0 -22 11.5 -33t25.5 -11.5t25.5 -3.5t11.5 -11q0 -10 -20 -10q-22 0 -58 1t-51 1t-51 -1t-58 -1q-20 0 -20 10q0 8 11.5 11t25.5 3.5t25.5 11.5t11.5 33v286
q0 30 -10.5 39.5t-40.5 9.5z" />
    <glyph glyph-name="fl" unicode="fl" 
d="M492 730v-663q0 -22 11.5 -33t25.5 -11.5t25.5 -3.5t11.5 -11q0 -10 -20 -10q-22 0 -58 1t-51 1t-51 -1t-58 -1q-20 0 -20 10q0 8 11.5 11t25.5 3.5t25.5 11.5t11.5 33v503q-53 6 -53 63q0 9 2 27t2 26q0 22 -13 32t-32 10q-54 0 -75 -51.5t-21 -161.5v-61h113l-22 -52
h-91v-335q0 -22 11.5 -33t25.5 -11.5t25.5 -3.5t11.5 -11q0 -10 -20 -10q-22 0 -58 1t-51 1t-51 -1t-58 -1q-20 0 -20 10q0 8 11.5 11t25.5 3.5t25.5 11.5t11.5 33v335h-52q29 21 52 66t39.5 91.5t38 91t59 73t90.5 28.5q35 0 68 -14t47 -40z" />
    <glyph glyph-name=".notdef" horiz-adv-x="500" 
d="M0 0v700h500v-700h-500zM250 395l170 255h-340zM280 350l170 -255v510zM80 50h340l-170 255zM50 605v-510l170 255z" />
    <glyph glyph-name=".null" horiz-adv-x="0" 
 />
    <glyph glyph-name="nonmarkingreturn" horiz-adv-x="333" 
 />
    <glyph glyph-name="space" unicode=" " horiz-adv-x="287" 
 />
    <glyph glyph-name="exclam" unicode="!" horiz-adv-x="407" 
d="M203 198q-9 0 -12 35q-7 76 -29 179.5t-22 163.5q0 118 63 118t63 -118q0 -60 -22 -163.5t-29 -179.5q-3 -35 -12 -35zM203 128q30 0 51 -21t21 -51t-21 -51t-51 -21t-51 21t-21 51t21 51t51 21z" />
    <glyph glyph-name="quotedbl" unicode="&#x22;" horiz-adv-x="333" 
d="M86 694q19 0 29.5 -13.5t10.5 -32.5q0 -28 -7 -116t-11 -123q-4 -31 -22 -31t-22 31q-4 35 -11 123t-7 116q0 19 10.5 32.5t29.5 13.5zM247 694q19 0 29.5 -13.5t10.5 -32.5q0 -28 -7 -116t-11 -123q-4 -31 -22 -31t-22 31q-4 35 -11 123t-7 116q0 19 10.5 32.5
t29.5 13.5z" />
    <glyph glyph-name="numbersign" unicode="#" 
d="M504 268v-58h-103l-31 -210h-64l31 210h-127l-31 -210h-64l31 210h-105v58h113l21 142h-105v58h113l29 210h65l-30 -210h127l29 210h65l-30 -210h95v-58h-103l-21 -142h95zM366 410h-127l-21 -142h127z" />
    <glyph glyph-name="dollar" unicode="$" 
d="M413 538l-64 -147q69 -26 111 -76.5t42 -118.5q0 -86 -64.5 -137t-150.5 -51q-53 0 -96 20l-45 -106h-24l47 114q-18 9 -33 9q-22 0 -36 -21t-45 -99h-22q49 121 49 192v149q0 37 10 37q9 0 12.5 -15l11 -48.5t23.5 -64.5l65 149q-115 72 -115 161q0 78 52.5 129.5
t126.5 51.5q21 0 80 -11l31 67h24l-32 -74q29 -11 36 -11q10 0 18 4.5t14.5 15t10.5 18.5t10 23.5t9 21.5h25l-24 -62q-5 -14 -5 -31l1 -25q2 -43 3.5 -82t2.5 -56.5t1 -21.5q0 -10 -10 -10q-6 0 -10.5 13l-14.5 40.5t-25 52.5zM251 433l84 192q-32 23 -67 23
q-45 0 -75 -28.5t-30 -74.5q0 -78 88 -112zM299 280l-92 -212q38 -42 88 -42q51 0 86 31.5t35 86.5q0 29 -11.5 52.5t-33 40t-35.5 24.5t-37 19zM354 609l-82 -185l55 -24l71 160q-16 23 -44 49zM191 89l88 200l-54 25l-74 -165q6 -14 40 -60z" />
    <glyph glyph-name="percent" unicode="%" horiz-adv-x="759" 
d="M181 668q-67 0 -67 -173t67 -173t67 173t-67 173zM612 686l-425 -694h-41l424 694h42zM578 10q67 0 67 173t-67 173t-67 -173t67 -173zM332 495q0 -77 -43.5 -134t-107.5 -57t-107.5 57t-43.5 134t43.5 134t107.5 57t107.5 -57t43.5 -134zM729 183q0 -77 -43.5 -134
t-107.5 -57t-107.5 57t-43.5 134t43.5 134t107.5 57t107.5 -57t43.5 -134z" />
    <glyph glyph-name="ampersand" unicode="&#x26;" horiz-adv-x="796" 
d="M30 182q0 60 44.5 114.5t116.5 77.5q-65 58 -65 142q0 66 50 122t137 56q74 0 121.5 -47t47.5 -107q0 -99 -122 -154q68 -46 107 -83.5t82 -101.5q39 69 39 123q0 36 -13.5 55.5t-29 23t-29 7t-13.5 9.5q0 13 25 13q18 0 53 -1t52 -1t51.5 1t52.5 1q25 0 25 -12
q0 -8 -7.5 -11t-18.5 -4t-27 -9.5t-30 -23.5q-12 -13 -23.5 -29t-24.5 -38.5l-21.5 -37.5l-25 -45.5l-23.5 -43.5q41 -73 75 -107.5t76 -34.5q28 0 49 16.5t26 41.5q4 23 12 23q11 0 11 -12q0 -15 -7 -33.5t-22 -39.5t-47.5 -34.5t-75.5 -13.5q-49 0 -90 21t-85 75
q-96 -96 -237 -96q-93 0 -154.5 57t-61.5 141zM140 232q0 -90 54 -148t123 -58q87 0 152 74q-24 36 -46 64.5t-37 46t-41 40.5t-38 32.5l-49.5 37.5l-54.5 41q-63 -30 -63 -130zM428 538q0 56 -27.5 94t-81.5 38q-46 0 -72.5 -30.5t-26.5 -82.5q0 -76 121 -156
q41 12 64 52.5t23 84.5z" />
    <glyph glyph-name="quotesingle" unicode="'" horiz-adv-x="222" 
d="M111 694q19 0 29.5 -13.5t10.5 -32.5q0 -28 -7 -116t-11 -123q-4 -31 -22 -31t-22 31q-4 35 -11 123t-7 116q0 19 10.5 32.5t29.5 13.5z" />
    <glyph glyph-name="parenleft" unicode="(" horiz-adv-x="407" 
d="M174 259q0 -333 146 -430l19.5 -12t14.5 -8.5t8.5 -5t5 -4.5t1.5 -5q0 -6 -8 -6q-22 0 -56 18t-74 57.5t-74.5 93t-57.5 133.5t-23 169t23 169t57.5 133.5t74.5 93t74 57.5t56 18q8 0 8 -6q0 -3 -1.5 -5t-5 -4.5t-8.5 -5t-14.5 -8.5l-19.5 -12q-146 -97 -146 -430z" />
    <glyph glyph-name="parenright" unicode=")" horiz-adv-x="407" 
d="M233 259q0 333 -146 430l-19.5 12t-14.5 8.5t-8.5 5t-5 4.5t-1.5 5q0 6 8 6q22 0 56 -18t74 -57.5t74.5 -93t57.5 -133.5t23 -169t-23 -169t-57.5 -133.5t-74.5 -93t-74 -57.5t-56 -18q-8 0 -8 6q0 3 1.5 5t5 4.5t8.5 5t14.5 8.5l19.5 12q146 97 146 430z" />
    <glyph glyph-name="asterisk" unicode="*" horiz-adv-x="500" 
d="M251 323q-20 0 -32.5 14t-12.5 35q0 17 18 51.5t26 62.5q8 -28 26 -62.5t18 -51.5q0 -21 -12 -35t-31 -14zM422 576q0 -3 -0.5 -7t-4.5 -12.5t-10.5 -14.5t-21.5 -11t-35 -5q-44 0 -70 -5l-2 2q14 13 31 39t31.5 41t33.5 15q22 0 35 -12t13 -30zM78 434q0 3 0.5 7
t4.5 12.5t10.5 14.5t21.5 11t35 5q44 0 70 5l2 -2q-14 -13 -31 -39t-31.5 -41t-33.5 -15q-22 0 -35 12t-13 30zM422 434q0 -18 -13 -30t-35 -12q-19 0 -33.5 14.5t-31.5 41.5t-31 41q28 -5 72 -5q20 0 35 -5t21.5 -11t10.5 -14.5t4.5 -12.5t0.5 -7zM78 576q0 18 13 30t35 12
q19 0 33.5 -14.5t31.5 -41.5t31 -41q-28 5 -72 5q-20 0 -35 5t-21.5 11t-10.5 14.5t-4.5 12.5t-0.5 7zM251 694q19 0 31 -14t12 -35q0 -17 -18 -51.5t-26 -62.5q-8 28 -26 62.5t-18 51.5q0 21 12.5 35t32.5 14z" />
    <glyph glyph-name="plus" unicode="+" horiz-adv-x="600" 
d="M259 268v186h82v-186h186v-82h-186v-186h-82v186h-186v82h186z" />
    <glyph glyph-name="comma" unicode="," horiz-adv-x="287" 
d="M143 128q35 0 53.5 -24t18.5 -60q0 -64 -40.5 -115t-62.5 -51q-6 0 -6 6q0 3 1.5 5t8.5 7.5t14 12.5q41 41 41 78q0 8 -5 8q-1 0 -3.5 -0.5t-4.5 -0.5q-8 -2 -13 -2q-32 0 -53 18.5t-21 50.5q0 26 19 46.5t53 20.5z" />
    <glyph glyph-name="hyphen" unicode="-" horiz-adv-x="333" 
d="M289 181h-246v92h246v-92z" />
    <glyph glyph-name="period" unicode="." horiz-adv-x="287" 
d="M71 64q0 30 21 51t51 21t51 -21t21 -51t-21 -51t-51 -21t-51 21t-21 51z" />
    <glyph glyph-name="slash" unicode="/" horiz-adv-x="278" 
d="M299 694l-240 -710h-80l240 710h80z" />
    <glyph glyph-name="zero" unicode="0" 
d="M287 16q64 0 100 72.5t36 250.5t-36 250.5t-100 72.5t-100 -72.5t-36 -250.5t36 -250.5t100 -72.5zM287 686q106 0 178 -103.5t72 -243.5t-72 -243.5t-178 -103.5t-178 103.5t-72 243.5t72 243.5t178 103.5z" />
    <glyph glyph-name="one" unicode="1" 
d="M239 97v471q0 22 -21 22h-127q-13 0 -13 11q0 8 19 9t68 7.5t102 26.5q22 8 38 16.5t22.5 13.5t11.5 8.5t10 3.5q10 0 10 -30v-559q0 -49 23 -62t95 -13q29 0 29 -13q0 -11 -16 -11q-20 0 -85 1t-110 1q-46 0 -110 -1t-80 -1q-22 0 -22 11q0 13 25 13q87 0 109 12.5
t22 62.5z" />
    <glyph glyph-name="two" unicode="2" 
d="M448 0h-396q2 63 37 116.5t83.5 91.5l96 74t81 82.5t33.5 99.5q0 62 -43 105t-102 43q-40 0 -70.5 -13t-46.5 -32t-27 -37.5t-17 -31.5t-10 -13q-8 0 -8 10t7 30t25 48t42.5 53t64 42.5t86.5 17.5q95 0 154 -62.5t59 -131.5q0 -60 -28.5 -103.5t-75 -71.5t-96 -53
t-100.5 -63t-80 -85h256q29 0 49.5 7.5t30 19t15.5 22.5t10.5 18.5t9.5 7.5q7 0 7 -10q0 -4 -2 -10z" />
    <glyph glyph-name="three" unicode="3" 
d="M34 128q0 27 15 46t42 19q33 0 50 -19t22.5 -45.5l11 -53.5t25.5 -46t58 -19q66 0 105.5 45t39.5 121q0 79 -42.5 123.5t-102.5 44.5q-31 0 -31 8q0 10 11 10q40 0 78.5 35t38.5 98q0 52 -30.5 86.5t-89.5 34.5q-54 0 -94 -40q-11 -11 -19 -22t-11 -14t-7 -3q-7 0 -7 8
q0 10 11.5 31.5t32.5 46.5t59.5 44t83.5 19q73 0 129 -47t56 -117q0 -61 -60 -117q108 -68 108 -177q0 -37 -17.5 -77t-49.5 -76.5t-87 -59.5t-122 -23q-96 0 -151.5 40.5t-55.5 95.5z" />
    <glyph glyph-name="four" unicode="4" 
d="M413 678v-437h121l-21 -52h-100v-101q0 -31 15 -46.5t33.5 -17t33.5 -4.5t15 -11q0 -7 -4.5 -9t-18.5 -2q-20 0 -62 1t-64 1t-64 -1t-62 -1q-14 0 -18.5 2t-4.5 9q0 9 14 12t31.5 3t31.5 12t14 38v115h-268l-12 40l362 449h28zM303 241v293h-2l-237 -293h239z" />
    <glyph glyph-name="five" unicode="5" 
d="M453 562h-296l-17 -100h28q144 0 239 -70t95 -182q0 -86 -71 -152t-172 -66q-100 0 -153.5 42t-53.5 87q0 26 16.5 43t41.5 17q31 0 48 -20t27 -58q11 -44 33 -65.5t63 -21.5q67 0 98 42.5t31 98.5q0 31 -14 63t-42.5 63t-81.5 50t-122 19q-36 0 -55 -6q45 194 55 332
h284q23 0 32.5 8t12.5 15.5t9 7.5q8 0 8 -9q0 -5 -10 -35z" />
    <glyph glyph-name="six" unicode="6" 
d="M431 215q0 82 -36 126t-100 44q-41 0 -78.5 -22.5t-53.5 -54.5q-3 -14 -3 -94q0 -106 34 -152t104 -46q76 0 104.5 51t28.5 148zM317 409q102 0 165 -61t63 -154q0 -84 -69 -143t-174 -59q-112 0 -184 86t-72 201q0 66 22 124t57 98t78.5 73.5t85.5 53.5t79.5 33.5t59 19
t25.5 5.5q10 0 10 -7q0 -4 -4.5 -7t-18.5 -8t-20 -8q-100 -44 -164 -124.5t-88 -187.5l2 -2q65 67 147 67z" />
    <glyph glyph-name="seven" unicode="7" 
d="M507 678l23 -44q-87 -114 -135 -273t-48 -329v-38q-37 6 -75 6t-75 -6q12 157 73 281.5t183 286.5h-299q-28 0 -46 -8t-23.5 -17t-11 -17t-10.5 -8q-7 0 -7 10q0 6 4 16l52 140h395z" />
    <glyph glyph-name="eight" unicode="8" 
d="M500 523q0 -86 -91 -152q65 -28 95 -66.5t30 -108.5q0 -94 -72 -149t-179 -55q-99 0 -165.5 54.5t-66.5 127.5q0 112 126 176q-39 23 -66.5 62.5t-27.5 86.5q0 81 64 134t153 53q87 0 143.5 -49.5t56.5 -113.5zM428 148q0 31 -14 55.5t-42 43.5t-53.5 32.5t-65 31
t-60.5 28.5q-78 -53 -78 -145q0 -80 42.5 -129t120.5 -49q65 0 107.5 33t42.5 99zM310 662q-58 0 -94.5 -29.5t-36.5 -73.5q0 -21 6 -39t12.5 -31t25 -27l29 -21.5t40 -20.5t42 -18l50.5 -20q27 18 43.5 54.5t16.5 84.5q0 62 -32.5 101.5t-101.5 39.5z" />
    <glyph glyph-name="nine" unicode="9" 
d="M143 463q0 -82 36 -126t100 -44q41 0 78.5 22.5t53.5 54.5q3 14 3 94q0 106 -34 152t-104 46q-76 0 -104.5 -51t-28.5 -148zM257 269q-102 0 -165 61t-63 154q0 84 69 143t174 59q112 0 184 -86t72 -201q0 -66 -22 -124t-57 -98t-78.5 -73.5t-85.5 -53.5t-79.5 -33.5
t-59 -19t-25.5 -5.5q-10 0 -10 7q0 4 4.5 7t18.5 8t20 8q100 44 164 124.5t88 187.5l-2 2q-65 -67 -147 -67z" />
    <glyph glyph-name="colon" unicode=":" horiz-adv-x="287" 
d="M71 64q0 30 21 51t51 21t51 -21t21 -51t-21 -51t-51 -21t-51 21t-21 51zM71 322q0 30 21 51t51 21t51 -21t21 -51t-21 -51t-51 -21t-51 21t-21 51z" />
    <glyph glyph-name="semicolon" unicode=";" horiz-adv-x="287" 
d="M143 128q35 0 53.5 -24t18.5 -60q0 -64 -40.5 -115t-62.5 -51q-6 0 -6 6q0 3 1.5 5t8.5 7.5t14 12.5q41 41 41 78q0 8 -5 8q-1 0 -3.5 -0.5t-4.5 -0.5q-8 -2 -13 -2q-32 0 -53 18.5t-21 50.5q0 26 19 46.5t53 20.5zM71 322q0 30 21 51t51 21t51 -21t21 -51t-21 -51
t-51 -21t-51 21t-21 51z" />
    <glyph glyph-name="less" unicode="&#x3c;" horiz-adv-x="600" 
d="M527 76v-83l-454 202v64l454 202v-83l-339 -151z" />
    <glyph glyph-name="equal" unicode="=" horiz-adv-x="600" 
d="M527 96h-454v82h454v-82zM527 276h-454v82h454v-82z" />
    <glyph glyph-name="greater" unicode="&#x3e;" horiz-adv-x="600" 
d="M73 -7v83l339 151l-339 151v83l454 -202v-64z" />
    <glyph glyph-name="question" unicode="?" 
d="M182 389l25 15q30 -25 49.5 -34t50.5 -9q75 0 113.5 47t38.5 110q0 56 -40.5 99t-95.5 43q-35 0 -58 -17t-34.5 -41t-21 -47.5t-26 -40.5t-41.5 -17q-29 0 -43.5 18t-14.5 47q0 54 54 93t125 39q111 0 179.5 -68t68.5 -161q0 -88 -58.5 -147t-147.5 -59q-17 0 -34 3v-71
l-35 -8q-27 124 -54 206zM253 128q30 0 51 -21t21 -51t-21 -51t-51 -21t-51 21t-21 51t21 51t51 21z" />
    <glyph glyph-name="at" unicode="@" horiz-adv-x="800" 
d="M334 282q0 -42 16 -63t42 -21q39 0 78 68.5t39 140.5q0 67 -43 67q-42 0 -87 -56t-45 -136zM528 472l11 38h72l-62 -251q-6 -24 -6 -29q0 -44 38 -44q51 0 86 66.5t35 137.5q0 44 -19.5 89t-54.5 83t-90 62t-120 24q-115 0 -196.5 -87t-81.5 -248q0 -112 83.5 -195.5
t205.5 -83.5q61 0 105 12.5t99 37.5l11 -39q-122 -61 -214 -61q-96 0 -173 33t-121.5 85t-68 109t-23.5 112q0 163 109.5 267t264.5 104q143 0 240.5 -86.5t97.5 -216.5q0 -55 -21.5 -110t-66.5 -95t-103 -40q-45 0 -69 28t-23 46h-2q-11 -20 -47 -46t-72 -26
q-14 0 -28.5 4.5t-31.5 16.5t-27.5 39t-10.5 65q0 32 12.5 73t36 82t64 68.5t89.5 27.5q10 0 18 -1.5t15 -5t11 -6t9 -9.5l6.5 -9t6.5 -11t6 -10z" />
    <glyph glyph-name="A" unicode="A" horiz-adv-x="667" 
d="M406 244h-222q-5 -15 -14 -39.5t-12 -33.5l-7.5 -23t-5.5 -22t-1 -17q0 -34 13 -54t28.5 -24.5t28.5 -9.5t13 -12q0 -8 -3.5 -9.5t-12.5 -1.5q-5 0 -39 1t-74 1q-16 0 -49.5 -1t-51.5 -1q-13 0 -13 12q0 8 10.5 10.5t27.5 7t29 14.5q44 37 86 143q137 343 137 345
q0 3 -12 17t-12 21q0 5 3.5 9.5t8.5 9.5t14.5 19t18.5 34q6 12 10 23t5.5 16.5t3.5 10.5t4 6.5t6 1.5q6 0 10 -10.5l20.5 -55.5t41.5 -99l213 -471q9 -20 22.5 -30t24.5 -10t19 -2.5t8 -9.5q0 -12 -17 -12q-20 0 -60 1t-60 1t-59.5 -1t-60.5 -1q-16 0 -16 12q0 8 11 11t24 3
t24 9t11 27t-17 54zM396 268l-108 246l-94 -246h202z" />
    <glyph glyph-name="B" unicode="B" horiz-adv-x="648" 
d="M118 72v534q0 23 -13 34t-28.5 12t-28.5 3.5t-13 10.5q0 9 4.5 11.5t17.5 2.5q14 0 51 -1t70 -1q26 0 78.5 1t78.5 1q122 0 187.5 -45.5t65.5 -120.5q0 -143 -236 -156v-2q142 -2 206 -46.5t64 -131.5q0 -180 -241 -180q-31 0 -98 1t-105 1q-33 0 -70 -1t-51 -1
q-13 0 -17.5 2.5t-4.5 11.5q0 8 13 10.5t28.5 3.5t28.5 12t13 34zM237 342v-256q0 -35 21.5 -49.5t77.5 -14.5q89 0 127.5 40.5t38.5 117.5q0 162 -195 162h-70zM238 656v-290h60q91 0 130.5 36t39.5 108q0 71 -41.5 108.5t-113.5 37.5h-75z" />
    <glyph glyph-name="C" unicode="C" horiz-adv-x="741" 
d="M652 663v-248q0 -19 -9 -19q-7 0 -9 5.5t-6 24.5q-20 94 -85 169t-159 75q-92 0 -152.5 -86.5t-60.5 -244.5q0 -162 60.5 -246.5t154.5 -84.5q85 0 157 72t89 166q5 23 15 23q9 0 9 -19v-247q0 -19 -14 -19q-8 0 -12 7.5t-5.5 16.5t-9 16.5t-21.5 7.5t-44.5 -12
t-77.5 -24t-100 -12q-138 0 -235.5 102.5t-97.5 252.5q0 98 51.5 181t130 128.5t159.5 45.5q53 0 99.5 -15t76 -29.5t42.5 -14.5q12 0 18.5 7.5t8 16t5.5 16t11 7.5q11 0 11 -19z" />
    <glyph glyph-name="D" unicode="D" horiz-adv-x="741" 
d="M118 72v534q0 23 -13 34t-28.5 12t-28.5 3.5t-13 10.5q0 9 4.5 11.5t17.5 2.5q14 0 51 -1t70 -1q19 0 66 1t76 1q176 0 279 -94.5t103 -249.5q0 -147 -89 -242.5t-251 -95.5q-34 0 -95 1t-89 1q-33 0 -70 -1t-51 -1q-13 0 -17.5 2.5t-4.5 11.5q0 8 13 10.5t28.5 3.5
t28.5 12t13 34zM238 656v-544q0 -47 27 -68.5t82 -21.5q37 0 67 7t60 27.5t50.5 54t33 89t12.5 129.5q0 148 -59 237.5t-170 89.5h-103z" />
    <glyph glyph-name="E" unicode="E" horiz-adv-x="667" 
d="M118 72v534q0 23 -13 34t-28.5 12t-28.5 3.5t-13 10.5q0 9 4.5 11.5t17.5 2.5q14 0 51 -1t70 -1q129 0 239.5 1t127.5 1l48 -187q1 -5 2.5 -11t2.5 -9.5t1 -5.5q0 -10 -8 -10q-5 0 -8.5 7.5l-16 33t-33.5 54.5q-43 61 -105 82.5t-160 21.5h-30v-294h22q151 0 151 135
q0 19 12 19t12 -19v-299q0 -18 -12 -18t-12 18q0 140 -151 140h-22v-260q0 -29 20 -42.5t64 -13.5q66 0 119 20t87 54t54.5 70t32.5 77q7 20 15 20q9 0 9 -10q0 -15 -3 -29l-42 -226q-21 0 -146 1t-270 1q-33 0 -70 -1t-51 -1q-13 0 -17.5 2.5t-4.5 11.5q0 8 13 10.5
t28.5 3.5t28.5 12t13 34z" />
    <glyph glyph-name="F" unicode="F" horiz-adv-x="611" 
d="M118 72v534q0 23 -13 34t-28.5 12t-28.5 3.5t-13 10.5q0 9 4.5 11.5t17.5 2.5q14 0 51 -1t70 -1q130 0 238.5 1t120.5 1l48 -187q1 -5 2.5 -11t2.5 -9.5t1 -5.5q0 -10 -8 -10q-5 0 -8.5 7.5l-16 33t-33.5 54.5q-43 61 -105 82.5t-160 21.5h-22v-294h22q151 0 151 135
q0 19 12 19t12 -19v-299q0 -18 -12 -18t-12 18q0 140 -151 140h-22v-266q0 -23 13 -34t28.5 -12t28.5 -3.5t13 -10.5q0 -9 -4.5 -11.5t-17.5 -2.5q-14 0 -51 1t-70 1t-70 -1t-51 -1q-13 0 -17.5 2.5t-4.5 11.5q0 8 13 10.5t28.5 3.5t28.5 12t13 34z" />
    <glyph glyph-name="G" unicode="G" horiz-adv-x="796" 
d="M687 0h-36l-30 56q-88 -72 -234 -72q-61 0 -121.5 23.5t-111.5 66.5t-83 112.5t-32 152.5q0 146 106.5 250.5t241.5 104.5q49 0 99 -15t84 -29.5t44 -14.5q17 0 23 11.5t8.5 23.5t10.5 12q10 0 10 -19v-248q0 -19 -9 -19q-2 0 -3.5 0.5t-3 2t-2 2.5t-1.5 4.5t-1.5 5.5
t-1.5 7t-2 8q-25 105 -90.5 174.5t-160.5 69.5q-94 0 -157 -84.5t-63 -246.5t63.5 -246.5t163.5 -84.5q86 0 127.5 39t41.5 95v90q0 23 -13 34t-28.5 12t-28.5 3.5t-13 10.5q0 9 4.5 11.5t17.5 2.5q14 0 51 -1t70 -1t70 1t51 1q13 0 17.5 -2.5t4.5 -11.5q0 -8 -13 -10.5
t-28.5 -3.5t-28.5 -12t-13 -34v-232z" />
    <glyph glyph-name="H" unicode="H" horiz-adv-x="759" 
d="M524 346h-289v-274q0 -23 13 -34t28.5 -12t28.5 -3.5t13 -10.5q0 -9 -4.5 -11.5t-17.5 -2.5q-14 0 -51 1t-70 1t-70 -1t-51 -1q-13 0 -17.5 2.5t-4.5 11.5q0 8 13 10.5t28.5 3.5t28.5 12t13 34v534q0 23 -13 34t-28.5 12t-28.5 3.5t-13 10.5q0 9 4.5 11.5t17.5 2.5
q14 0 51 -1t70 -1t70 1t51 1q13 0 17.5 -2.5t4.5 -11.5q0 -8 -13 -10.5t-28.5 -3.5t-28.5 -12t-13 -34v-236h289v236q0 23 -13 34t-28.5 12t-28.5 3.5t-13 10.5q0 9 4.5 11.5t17.5 2.5q14 0 51 -1t70 -1t70 1t51 1q13 0 17.5 -2.5t4.5 -11.5q0 -8 -13 -10.5t-28.5 -3.5
t-28.5 -12t-13 -34v-534q0 -23 13 -34t28.5 -12t28.5 -3.5t13 -10.5q0 -9 -4.5 -11.5t-17.5 -2.5q-14 0 -51 1t-70 1t-70 -1t-51 -1q-13 0 -17.5 2.5t-4.5 11.5q0 8 13 10.5t28.5 3.5t28.5 12t13 34v274z" />
    <glyph glyph-name="I" unicode="I" horiz-adv-x="370" 
d="M125 72v534q0 23 -13 34t-28.5 12t-28.5 3.5t-13 10.5q0 9 4.5 11.5t17.5 2.5q14 0 51 -1t70 -1t70 1t51 1q13 0 17.5 -2.5t4.5 -11.5q0 -8 -13 -10.5t-28.5 -3.5t-28.5 -12t-13 -34v-534q0 -23 13 -34t28.5 -12t28.5 -3.5t13 -10.5q0 -9 -4.5 -11.5t-17.5 -2.5
q-14 0 -51 1t-70 1t-70 -1t-51 -1q-13 0 -17.5 2.5t-4.5 11.5q0 8 13 10.5t28.5 3.5t28.5 12t13 34z" />
    <glyph glyph-name="J" unicode="J" horiz-adv-x="463" 
d="M244 88v518q0 23 -13 34t-28.5 12t-28.5 3.5t-13 10.5q0 9 4.5 11.5t17.5 2.5q14 0 51 -1t70 -1t70 1t51 1q13 0 17.5 -2.5t4.5 -11.5q0 -8 -13 -10.5t-28.5 -3.5t-28.5 -12t-13 -34v-402q0 -98 -44.5 -159t-144.5 -61q-77 0 -118 35t-41 81q0 26 18.5 44t43.5 18
q26 0 42 -16.5t16 -39.5q0 -12 -5 -27.5t-5 -32.5q0 -44 51 -44q34 0 50.5 20t16.5 66z" />
    <glyph glyph-name="K" unicode="K" horiz-adv-x="667" 
d="M316 366l-78 -92v-202q0 -23 13 -34t28.5 -12t28.5 -3.5t13 -10.5q0 -9 -4.5 -11.5t-17.5 -2.5q-14 0 -51 1t-70 1t-70 -1t-51 -1q-13 0 -17.5 2.5t-4.5 11.5q0 8 13 10.5t28.5 3.5t28.5 12t13 34v534q0 23 -13 34t-28.5 12t-28.5 3.5t-13 10.5q0 9 4.5 11.5t17.5 2.5
q14 0 51 -1t70 -1t70 1t51 1q13 0 17.5 -2.5t4.5 -11.5q0 -8 -13 -10.5t-28.5 -3.5t-28.5 -12t-13 -34v-299h2l158 196q37 45 49 67t12 43q0 25 -13.5 34.5t-27 11.5t-13.5 9q0 12 21 12q26 0 56 -1t39 -1q11 0 38 1t46 1q14 0 19 -0.5t9 -3.5t4 -9q0 -5 -6 -7.5t-19 -5.5
t-29 -9t-39.5 -23.5t-46.5 -44.5l-104 -119l193 -356q19 -34 40 -52.5t34.5 -21.5t23 -7t9.5 -13q0 -10 -22 -10q-13 0 -62.5 1t-97.5 1z" />
    <glyph glyph-name="L" unicode="L" horiz-adv-x="630" 
d="M118 72v534q0 23 -13 34t-28.5 12t-28.5 3.5t-13 10.5q0 9 4.5 11.5t17.5 2.5q14 0 51 -1t70 -1t70 1t51 1q13 0 17.5 -2.5t4.5 -11.5q0 -8 -13 -10.5t-28.5 -3.5t-28.5 -12t-13 -34v-513q0 -41 18 -56t58 -15q56 0 104 20t80.5 53.5t54 70.5t33.5 77q7 20 15 20
q9 0 9 -10q0 -15 -3 -29l-42 -226q-21 0 -139.5 1t-247.5 1q-33 0 -70 -1t-51 -1q-13 0 -17.5 2.5t-4.5 11.5q0 8 13 10.5t28.5 3.5t28.5 12t13 34z" />
    <glyph glyph-name="M" unicode="M" horiz-adv-x="870" 
d="M226 678l212 -511l215 511h46q33 0 70 1t51 1q13 0 17.5 -2.5t4.5 -11.5q0 -8 -13 -10.5t-28.5 -3.5t-28.5 -12t-13 -34v-534q0 -23 13 -34t28.5 -12t28.5 -3.5t13 -10.5q0 -9 -4.5 -11.5t-17.5 -2.5q-14 0 -51 1t-70 1t-70 -1t-51 -1q-13 0 -17.5 2.5t-4.5 11.5
q0 8 13 10.5t28.5 3.5t28.5 12t13 34v520h-2l-233 -571q-9 -21 -15 -21q-5 0 -13 21l-228 563h-2v-419q0 -117 67 -138q7 -2 14 -3.5t11 -2.5t7 -2t4.5 -3.5t1.5 -6.5q0 -11 -22 -11q-12 0 -42.5 1t-52.5 1q-36 0 -69 -1t-37 -1q-23 0 -23 10q0 6 2.5 9t6 3.5t12.5 2.5t16 4
q49 14 64.5 65t15.5 154v338q0 30 -16 46.5t-35.5 19t-35.5 5.5t-16 11q0 9 4.5 11.5t17.5 2.5q14 0 51 -1t70 -1h64z" />
    <glyph glyph-name="N" unicode="N" horiz-adv-x="704" 
d="M567 172v341q0 59 -21.5 93.5t-53.5 44.5q-7 2 -14 3.5t-11 2.5t-7 2t-4.5 3.5t-1.5 6.5q0 11 22 11q17 0 50 -1t55 -1t55 1t50 1q22 0 22 -11q0 -4 -1.5 -6.5t-4.5 -3.5t-7 -2t-11 -2.5t-14 -3.5q-32 -10 -53.5 -44.5t-21.5 -93.5v-515q0 -14 -12 -14q-13 0 -20 10
l-424 564h-2v-393q0 -59 21.5 -93.5t53.5 -44.5q7 -2 14 -3.5t11 -2.5t7 -2t4.5 -3.5t1.5 -6.5q0 -11 -22 -11q-17 0 -50 1t-55 1t-55 -1t-50 -1q-22 0 -22 11q0 4 1.5 6.5t4.5 3.5t7 2t11 2.5t14 3.5q32 10 53.5 44.5t21.5 93.5v428q-25 36 -53.5 50t-43.5 15.5t-15 7.5
q0 14 22 14q11 0 35 -1t41 -1h93l377 -506h2z" />
    <glyph glyph-name="O" unicode="O" horiz-adv-x="796" 
d="M625 339q0 163 -62 247t-165 84t-165 -84t-62 -247t62 -247t165 -84t165 84t62 247zM398 694q87 0 168 -41t136 -124t55 -190t-55 -190t-136 -124t-168 -41t-168 41t-136 124t-55 190t55 190t136 124t168 41z" />
    <glyph glyph-name="P" unicode="P" horiz-adv-x="593" 
d="M238 300v-228q0 -23 15 -34t32.5 -12t32.5 -3.5t15 -10.5q0 -14 -26 -14q-19 0 -58 1t-71 1q-33 0 -70 -1t-51 -1q-13 0 -17.5 2.5t-4.5 11.5q0 8 13 10.5t28.5 3.5t28.5 12t13 34v534q0 23 -13 34t-28.5 12t-28.5 3.5t-13 10.5q0 9 4.5 11.5t17.5 2.5q14 0 51 -1t70 -1
q21 0 60 1t60 1q145 0 214.5 -54.5t69.5 -135.5q0 -98 -82.5 -144t-223.5 -46h-38zM238 656v-332h52q93 0 132.5 41.5t39.5 127.5q0 80 -40.5 121.5t-113.5 41.5h-70z" />
    <glyph glyph-name="Q" unicode="Q" horiz-adv-x="796" 
d="M625 339q0 163 -62 247t-165 84t-165 -84t-62 -247t62 -247t165 -84t165 84t62 247zM757 339q0 -145 -94.5 -240.5t-220.5 -110.5v-2q14 -3 106 -29.5t131 -26.5q40 0 66 12.5t33.5 27l14 27t11.5 12.5q8 0 8 -9q0 -44 -61.5 -92t-149.5 -48q-61 0 -128.5 28l-129 56
t-107.5 28q-31 0 -56 -13t-35 -36q-2 -4 -4 -11.5t-4 -10.5t-6 -3q-10 0 -10 10q0 34 38.5 67t91.5 39v2q-94 42 -153 125.5t-59 197.5q0 107 55 190t136 124t168 41t168 -41t136 -124t55 -190z" />
    <glyph glyph-name="R" unicode="R" horiz-adv-x="667" 
d="M118 72v534q0 23 -13 34t-28.5 12t-28.5 3.5t-13 10.5q0 9 4.5 11.5t17.5 2.5q14 0 51 -1t70 -1q29 0 71.5 1t60.5 1q136 0 203.5 -52.5t67.5 -125.5q0 -74 -66 -119.5t-176 -53.5v-2q78 -9 116 -32.5t74 -95.5l55 -112q14 -29 35.5 -44.5t38 -17t29 -4.5t12.5 -11
q0 -12 -20 -12q-6 0 -28.5 0.5t-65.5 1t-78 0.5l-87 162q-53 99 -81.5 125.5t-84.5 26.5h-16v-242q0 -23 13 -34t28.5 -12t28.5 -3.5t13 -10.5q0 -9 -4.5 -11.5t-17.5 -2.5q-14 0 -51 1t-70 1t-70 -1t-51 -1q-13 0 -17.5 2.5t-4.5 11.5q0 8 13 10.5t28.5 3.5t28.5 12t13 34z
M238 656v-318h46q83 0 124 38t41 123q0 83 -39 120t-113 37h-59z" />
    <glyph glyph-name="S" unicode="S" horiz-adv-x="556" 
d="M60 0v275q0 12 10 12t14 -30q7 -50 20.5 -91.5t37 -78.5t60.5 -58t84 -21q71 0 108 36.5t37 91.5q0 41 -20.5 70.5t-53 47.5t-72.5 33t-79.5 31.5t-72 38t-53 58.5t-20.5 87q0 78 62.5 135t147.5 57q51 0 100 -20t62 -20q16 0 21.5 16t13.5 16q9 0 10 -15
q17 -183 17 -222q0 -14 -11 -14q-6 0 -13 24q-29 98 -76 154.5t-125 56.5q-56 0 -88.5 -30t-32.5 -78q0 -43 27.5 -74t68.5 -48l89.5 -38.5t89.5 -43t68.5 -63t27.5 -98.5q0 -87 -62 -150t-177 -63q-42 0 -100.5 19t-65.5 19q-14 0 -21.5 -5.5t-9 -11.5t-5 -11.5t-9.5 -5.5
q-9 0 -9 12z" />
    <glyph glyph-name="T" unicode="T" horiz-adv-x="685" 
d="M403 654v-582q0 -23 15.5 -34t34 -12t34 -3.5t15.5 -10.5q0 -14 -26 -14q-22 0 -61.5 1t-71.5 1t-71.5 -1t-61.5 -1q-26 0 -26 14q0 8 15.5 10.5t34 3.5t34 12t15.5 34l-1 582q-71 0 -132.5 -51t-94.5 -119q-17 -36 -22 -36q-9 0 -9 8t10 55l32 164q3 19 11 19q3 0 13 -8
q12 -8 36 -8h433q24 0 36 8q10 8 13 8q8 0 11 -19l32 -164q10 -47 10 -55t-9 -8q-5 0 -22 36q-33 68 -94.5 119t-132.5 51z" />
    <glyph glyph-name="U" unicode="U" horiz-adv-x="722" 
d="M107 183v423q0 23 -13 34t-28.5 12t-28.5 3.5t-13 10.5q0 9 4.5 11.5t17.5 2.5q14 0 51 -1t70 -1t70 1t51 1q13 0 17.5 -2.5t4.5 -11.5q0 -8 -13 -10.5t-28.5 -3.5t-28.5 -12t-13 -34v-424q0 -78 49.5 -123t132.5 -45q88 0 133.5 49.5t45.5 140.5v309q0 59 -21.5 93.5
t-53.5 44.5q-7 2 -14 3.5t-11 2.5t-7 2t-4.5 3.5t-1.5 6.5q0 11 22 11q17 0 50 -1t55 -1t55 1t50 1q22 0 22 -11q0 -4 -1.5 -6.5t-4.5 -3.5t-7 -2t-11 -2.5t-14 -3.5q-32 -10 -53.5 -44.5t-21.5 -93.5v-307q0 -106 -60.5 -164t-176.5 -58q-133 0 -202.5 55t-69.5 144z" />
    <glyph glyph-name="V" unicode="V" horiz-adv-x="667" 
d="M214 573l166 -438l125 336q23 61 23 106q0 32 -13.5 50t-30 21t-30 7t-13.5 13q0 12 20 12q9 0 41 -1t55 -1q22 0 56.5 1t49.5 1q20 0 25.5 -2t5.5 -10q0 -6 -6.5 -9.5t-17 -6t-25.5 -11t-30.5 -22t-33.5 -41.5t-33 -67l-198 -512q-5 -15 -15 -15t-15 15l-240 594
q-12 28 -28 43t-28.5 16.5t-21.5 4.5t-9 11q0 12 24 12q6 0 41.5 -1t57.5 -1q33 0 76.5 1t62.5 1q23 0 23 -12q0 -10 -18.5 -11t-37 -9.5t-18.5 -35.5q0 -13 10 -39z" />
    <glyph glyph-name="W" unicode="W" horiz-adv-x="907" 
d="M346 160l94 279q4 12 4 19q0 14 -51 145q-12 32 -31 43.5t-31.5 12.5t-12.5 9q0 12 15 12t56 -1t67 -1q18 0 55 1t57 1q13 0 17 -3t4 -11q0 -6 -11 -8.5t-24.5 -4t-24.5 -11.5t-11 -30q0 -18 15 -63l126 -392h2l98 314q20 63 20 104q0 39 -21 58t-42 24t-21 11
q0 12 17 12q20 0 58 -1t65 -1q21 0 48 1t33 1q17 0 17 -9q0 -7 -12.5 -12.5t-30 -12t-40 -34t-38.5 -73.5l-186 -540q-5 -15 -14 -15t-14 15l-141 426h-2l-145 -426q-5 -15 -14 -15t-14 15l-200 593q-10 30 -26.5 45t-30 16.5t-24 4t-10.5 9.5q0 13 16 13q19 0 61 -1t59 -1
q25 0 65.5 1t60.5 1q12 0 15.5 -2.5t3.5 -9.5t-10.5 -10t-23.5 -4t-23.5 -9.5t-10.5 -26.5q0 -20 8 -45l132 -413h2z" />
    <glyph glyph-name="X" unicode="X" horiz-adv-x="685" 
d="M438 102l-121 207q-79 -116 -101 -155.5t-22 -71.5q0 -28 12.5 -42.5t27 -15.5t27 -4t12.5 -11q0 -11 -23 -11q-15 0 -57.5 1t-61.5 1q-17 0 -57 -1t-64 -1t-24 10q0 7 11 10t31.5 8t35.5 14q46 27 128 139l110 150l-168 270q-17 28 -37.5 42.5t-35 15.5t-24 3t-9.5 9
q0 11 18 11q29 0 71 -1t59 -1q19 0 62 1t62 1t19 -13q0 -6 -10 -8.5t-22 -3t-22 -7.5t-10 -21q0 -18 18 -46l105 -169l79 109q31 44 31 77q0 31 -17 44.5t-34.5 16.5t-17.5 9q0 8 4 10t15 2q22 0 55 -1t47 -1t45.5 1t49.5 1q25 0 25 -12q0 -5 -6.5 -7.5t-20 -6.5t-30 -12
t-41 -30t-49.5 -56l-122 -165l182 -295q32 -52 79 -69q9 -3 22 -5t18.5 -4.5t5.5 -8.5q0 -7 -2.5 -9t-11.5 -2q-31 0 -77.5 1t-65.5 1q-33 0 -78 -1t-57 -1q-24 0 -24 12q0 8 11 10.5t23.5 3t23.5 9t11 26.5q0 20 -13 43z" />
    <glyph glyph-name="Y" unicode="Y" horiz-adv-x="630" 
d="M508 533l-133 -199v-262q0 -23 14 -34t31.5 -12t31.5 -3.5t14 -10.5q0 -14 -30 -14q-14 0 -51 1t-70 1t-70 -1t-51 -1q-26 0 -26 14q0 8 13.5 10.5t30 3.5t30 12t13.5 34v231l-163 292q-17 31 -41.5 45.5t-39 18t-14.5 10.5q0 11 15 11q23 0 68.5 -1t68.5 -1q19 0 56.5 1
t55.5 1q27 0 27 -14q0 -7 -16 -9.5t-32 -11t-16 -30.5q0 -25 16 -53l119 -216l75.5 111t41 74t18.5 67q0 33 -17.5 46t-35 15t-17.5 10q0 11 22 11q14 0 49 -1t50 -1q16 0 44.5 1t40.5 1q26 0 26 -12q0 -4 -4.5 -6.5t-13 -4.5t-21.5 -10t-28.5 -20t-37 -36.5t-43.5 -57.5z
" />
    <glyph glyph-name="Z" unicode="Z" horiz-adv-x="611" 
d="M163 22h83q66 0 119 20t87 54t54.5 70t32.5 77q7 20 15 20q9 0 9 -10q0 -15 -3 -29l-42 -226q-59 0 -138.5 1t-109.5 1q-33 0 -107 -1t-119 -1q-19 0 -19 9q0 3 1.5 5.5l3.5 6t7.5 12l11.5 17.5l378 608h-39q-98 0 -160 -21.5t-105 -82.5q-13 -19 -23.5 -36.5t-15 -27.5
l-8 -17.5t-6 -10.5t-5.5 -3q-8 0 -8 10l6 26l48 187q35 0 107 -1t107 -1q39 0 125.5 1t104.5 1t18 -7q0 -5 -16 -31z" />
    <glyph glyph-name="bracketleft" unicode="[" horiz-adv-x="407" 
d="M120 -175v868q0 19 21 19h141q15 0 15 -10q0 -6 -12 -8.5t-26.5 -4t-26.5 -15t-12 -39.5v-752q0 -26 12 -39.5t26.5 -15t26.5 -4t12 -8.5q0 -10 -15 -10h-141q-21 0 -21 19z" />
    <glyph glyph-name="backslash" unicode="\" horiz-adv-x="278" 
d="M219 -16l-240 710h80l240 -710h-80z" />
    <glyph glyph-name="bracketright" unicode="]" horiz-adv-x="407" 
d="M287 693v-868q0 -19 -21 -19h-141q-15 0 -15 10q0 6 12 8.5t26.5 4t26.5 15t12 39.5v752q0 33 -19.5 45.5t-38.5 13.5t-19 8q0 10 15 10h141q21 0 21 -19z" />
    <glyph glyph-name="asciicircum" unicode="^" horiz-adv-x="600" 
d="M192 350h-90l161 328h73l162 -326h-91l-107 222z" />
    <glyph glyph-name="underscore" unicode="_" horiz-adv-x="500" 
d="M500 -125h-500v50h500v-50z" />
    <glyph glyph-name="grave" unicode="`" horiz-adv-x="296" 
d="M224 510h-47l-142 90q-39 25 -39 50q0 16 11 27t25 11q10 0 20.5 -5.5t17 -12l21.5 -21.5z" />
    <glyph glyph-name="a" unicode="a" horiz-adv-x="500" 
d="M305 90v163q-82 -29 -123.5 -60t-41.5 -80q0 -32 13 -56.5t42 -24.5q23 0 49.5 13.5t43 26.5t17.5 18zM305 273v129q0 36 -38 36q-78 0 -96 -91q-8 -44 -24.5 -61.5t-51.5 -17.5q-23 0 -36.5 14t-13.5 35q0 51 77.5 98t170.5 47q122 0 122 -118v-286q0 -25 19 -25
q20 0 36.5 17.5t19.5 17.5q10 0 10 -8q0 -17 -34.5 -42.5t-72.5 -25.5q-43 0 -60 18t-25 54q-31 -22 -52.5 -35t-55 -25t-64.5 -12q-48 0 -77 23.5t-29 65.5q0 63 66 105.5t209 86.5z" />
    <glyph glyph-name="b" unicode="b" horiz-adv-x="556" 
d="M129 38l-32 -40q-4 -6 -12 -6q-9 0 -9 11v574q0 28 -12.5 44.5t-27.5 20t-27.5 7.5t-12.5 11q0 9 19.5 14l69.5 18.5t101 37.5v-320q61 52 134 52q85 0 143.5 -61t58.5 -154q0 -114 -75 -184.5t-171 -70.5q-86 0 -147 46zM186 382v-274q0 -39 22 -65.5t65 -26.5
q55 0 92 46t37 142q0 112 -35.5 165t-90.5 53q-26 0 -51.5 -13t-38.5 -27z" />
    <glyph glyph-name="c" unicode="c" horiz-adv-x="500" 
d="M138 265q0 -80 44 -139.5t122 -59.5q42 0 72.5 15t42.5 33t20.5 33t12.5 15q10 0 10 -9q0 -15 -10.5 -39t-32 -53t-63 -49t-93.5 -20q-50 0 -91 16t-65 40.5t-40.5 55t-22.5 57.5t-6 51q0 110 66.5 180t161.5 70q82 0 133.5 -44.5t51.5 -101.5q0 -66 -57 -66
q-30 0 -44.5 18t-14.5 43q0 7 1 25.5t1 33.5q0 68 -71 68q-128 0 -128 -173z" />
    <glyph glyph-name="d" unicode="d" horiz-adv-x="556" 
d="M480 730v-618q0 -23 16 -35.5t32 -17.5t16 -12t-11.5 -9.5t-57.5 -13.5t-103 -32v79h-2q-24 -31 -64 -55t-86 -24q-63 0 -107 33t-61.5 78.5t-17.5 97.5q0 119 75 190t181 71q8 0 80 -8v123q0 28 -12.5 44.5t-27.5 20t-27.5 7.5t-12.5 11q0 9 19.5 14l69.5 18.5t101 37.5
zM370 111v237q0 36 -23.5 63t-66.5 27q-62 0 -99 -53.5t-37 -148.5q0 -92 38 -142t93 -50q29 0 57.5 19t37.5 48z" />
    <glyph glyph-name="e" unicode="e" horiz-adv-x="500" 
d="M468 256h-328v-11q0 -70 46.5 -124.5t116.5 -54.5q79 0 120 42q10 11 17 22t9.5 17.5t6 10.5t7.5 4q7 0 7 -9q0 -11 -6.5 -29t-23 -41.5t-39.5 -43.5t-60.5 -33.5t-81.5 -13.5q-99 0 -164 65.5t-65 171.5q0 91 66.5 162t167.5 71q85 0 144.5 -53.5t59.5 -152.5zM140 280
h218v22q0 136 -98 136q-56 0 -87.5 -51t-32.5 -107z" />
    <glyph glyph-name="f" unicode="f" horiz-adv-x="296" 
d="M302 454l-15 -52h-95v-335q0 -22 11.5 -33t25.5 -11.5t25.5 -3.5t11.5 -11q0 -10 -20 -10q-22 0 -58 1t-51 1t-51 -1t-58 -1q-20 0 -20 10q0 8 11.5 11t25.5 3.5t25.5 11.5t11.5 33v335h-52q26 21 45 66t31 92t26.5 91t42 72.5t68.5 28.5q39 0 67 -26t28 -64
q0 -30 -17.5 -47.5t-40.5 -17.5q-51 0 -51 49q0 11 4.5 27.5t4.5 26.5q0 28 -25 28q-41 0 -41 -77q0 -41 9.5 -103.5t10.5 -93.5h110z" />
    <glyph glyph-name="g" unicode="g" horiz-adv-x="481" 
d="M178 175v2q-129 22 -129 136q0 66 50 106t130 43q5 20 8 33t12 33.5t19 32.5t27 21.5t38 9.5q63 0 63 -55q0 -47 -50 -47q-14 0 -34 8t-28 8q-32 0 -37 -44q93 -7 140.5 -43.5t47.5 -96.5q0 -62 -44 -104.5t-145 -47.5q-73 -3 -102 -17.5t-29 -47.5q0 -54 76 -55l137 -3
q151 -3 151 -121q0 -67 -57.5 -102.5t-197.5 -35.5q-105 0 -156.5 33t-51.5 77q0 50 72 68q-47 29 -47 90q0 55 41.5 85.5t95.5 33.5zM60 -96q0 -38 39 -68t131 -30q175 0 175 79q0 39 -48 47t-129 8.5t-127 19.5q-17 -5 -29 -22.5t-12 -33.5zM159 317q0 -129 83 -129
t83 127q0 129 -83 129t-83 -127z" />
    <glyph glyph-name="h" unicode="h" horiz-adv-x="593" 
d="M203 354v-287q0 -22 11.5 -33t25.5 -11.5t25.5 -3.5t11.5 -11q0 -10 -20 -10q-22 0 -58 1t-51 1t-51 -1t-58 -1q-20 0 -20 10q0 8 11.5 11t25.5 3.5t25.5 11.5t11.5 33v510q0 28 -12.5 44.5t-27.5 20t-27.5 7.5t-12.5 11q0 9 19.5 14l69.5 18.5t101 37.5v-348
q58 43 97.5 61.5t85.5 18.5q57 0 85.5 -29.5t28.5 -82.5v-283q0 -22 11.5 -33t25.5 -11.5t25.5 -3.5t11.5 -11q0 -10 -20 -10q-22 0 -58 1t-51 1t-51 -1t-58 -1q-20 0 -20 10q0 8 11.5 11t25.5 3.5t25.5 11.5t11.5 33v284q0 31 -19 48t-44 17q-54 0 -124 -62z" />
    <glyph glyph-name="i" unicode="i" horiz-adv-x="296" 
d="M203 462v-395q0 -22 11.5 -33t25.5 -11.5t25.5 -3.5t11.5 -11q0 -10 -20 -10q-22 0 -58 1t-51 1t-51 -1t-58 -1q-20 0 -20 10q0 8 11.5 11t25.5 3.5t25.5 11.5t11.5 33v248q0 25 -12.5 40t-27.5 19t-27.5 8t-12.5 10q0 8 15 12.5l65.5 19t109.5 38.5zM77 602
q0 28 19.5 48t48.5 20t48.5 -20t19.5 -48t-19.5 -48t-48.5 -20t-48.5 20t-19.5 48z" />
    <glyph glyph-name="j" unicode="j" horiz-adv-x="296" 
d="M220 462v-460q0 -96 -44.5 -155t-136.5 -59q-50 0 -84.5 23.5t-34.5 57.5q0 27 18.5 42.5t47.5 15.5q55 0 58 -64q2 -28 8.5 -39.5t24.5 -11.5q20 0 39 13t19 37q0 17 -12.5 44.5t-12.5 48.5v354q0 28 -12.5 44.5t-27.5 20t-27.5 7.5t-12.5 11q0 9 19.5 14l69.5 18.5
t101 37.5zM94 602q0 28 20 48t48 20t48 -20t20 -48t-20 -48t-48 -20t-48 20t-20 48z" />
    <glyph glyph-name="k" unicode="k" horiz-adv-x="556" 
d="M93 67v510q0 28 -12.5 44.5t-27.5 20t-27.5 7.5t-12.5 11q0 9 19.5 14l69.5 18.5t101 37.5v-508q85 56 128 100.5t43 69.5q0 19 -11.5 28.5t-25 10t-25 3.5t-11.5 10q0 12 16 12q14 0 45.5 -1t47.5 -1q15 0 49.5 1t55.5 1q15 0 15 -11q0 -7 -5.5 -8.5t-22.5 -4t-35 -11.5
q-18 -8 -36.5 -23t-26.5 -23.5t-29 -33.5l-25 -30l150 -263q8 -14 21 -20.5t23.5 -6t18.5 -2.5t8 -12t-19 -9q-11 0 -44.5 1t-67.5 1q-13 0 -48 -1t-62 -1q-22 0 -22 11q0 8 9.5 11t21 3t21 6t9.5 21q0 11 -22 53l-74 143l-70 -49v-130q0 -22 11.5 -33t25.5 -11.5t25.5 -3.5
t11.5 -11q0 -10 -20 -10q-22 0 -58 1t-51 1t-51 -1t-58 -1q-20 0 -20 10q0 8 11.5 11t25.5 3.5t25.5 11.5t11.5 33z" />
    <glyph glyph-name="l" unicode="l" horiz-adv-x="296" 
d="M203 730v-663q0 -22 11.5 -33t25.5 -11.5t25.5 -3.5t11.5 -11q0 -10 -20 -10q-22 0 -58 1t-51 1t-51 -1t-58 -1q-20 0 -20 10q0 8 11.5 11t25.5 3.5t25.5 11.5t11.5 33v510q0 28 -12.5 44.5t-27.5 20t-27.5 7.5t-12.5 11q0 9 19.5 14l69.5 18.5t101 37.5z" />
    <glyph glyph-name="m" unicode="m" horiz-adv-x="889" 
d="M95 67v242q0 28 -12.5 44.5t-27.5 20t-27.5 7.5t-12.5 11q0 9 19.5 14l69.5 18.5t101 37.5v-80q58 44 96.5 62t84.5 18q55 0 79 -25.5t27 -62.5q100 88 184 88q63 0 90 -31.5t27 -98.5v-265q0 -22 11.5 -33t25.5 -11.5t25.5 -3.5t11.5 -11q0 -10 -20 -10q-22 0 -58 1
t-51 1t-51 -1t-58 -1q-20 0 -20 10q0 8 11.5 11t25.5 3.5t25.5 11.5t11.5 33v284q0 29 -18.5 47t-44.5 18q-55 0 -121 -70v-279q0 -22 11.5 -33t25.5 -11.5t25.5 -3.5t11.5 -11q0 -10 -20 -10q-22 0 -58 1t-51 1t-51 -1t-58 -1q-20 0 -20 10q0 8 11.5 11t25.5 3.5t25.5 11.5
t11.5 33v284q0 32 -18 48.5t-42 16.5q-54 0 -124 -62v-287q0 -22 11.5 -33t25.5 -11.5t25.5 -3.5t11.5 -11q0 -10 -20 -10q-22 0 -58 1t-51 1t-51 -1t-58 -1q-20 0 -20 10q0 8 11.5 11t25.5 3.5t25.5 11.5t11.5 33z" />
    <glyph glyph-name="n" unicode="n" horiz-adv-x="593" 
d="M203 354v-287q0 -22 11.5 -33t25.5 -11.5t25.5 -3.5t11.5 -11q0 -10 -20 -10q-22 0 -58 1t-51 1t-51 -1t-58 -1q-20 0 -20 10q0 8 11.5 11t25.5 3.5t25.5 11.5t11.5 33v242q0 28 -12.5 44.5t-27.5 20t-27.5 7.5t-12.5 11q0 9 19.5 14l69.5 18.5t101 37.5v-80
q58 43 97.5 61.5t85.5 18.5q57 0 85.5 -29.5t28.5 -82.5v-283q0 -22 11.5 -33t25.5 -11.5t25.5 -3.5t11.5 -11q0 -10 -20 -10q-22 0 -58 1t-51 1t-51 -1t-58 -1q-20 0 -20 10q0 8 11.5 11t25.5 3.5t25.5 11.5t11.5 33v284q0 31 -19 48t-44 17q-54 0 -124 -62z" />
    <glyph glyph-name="o" unicode="o" horiz-adv-x="556" 
d="M278 16q124 0 124 211t-124 211t-124 -211t124 -211zM278 462q101 0 172.5 -68.5t71.5 -166.5t-71.5 -166.5t-172.5 -68.5t-172.5 68.5t-71.5 166.5t71.5 166.5t172.5 68.5z" />
    <glyph glyph-name="p" unicode="p" horiz-adv-x="556" 
d="M76 -125v434q0 28 -12.5 44.5t-27.5 20t-27.5 7.5t-12.5 11q0 9 19.5 14l69.5 18.5t101 37.5v-72q50 39 86.5 55.5t79.5 16.5q74 0 122 -53.5t48 -152.5q0 -110 -70.5 -187t-184.5 -77q-24 0 -81 10v-127q0 -22 11.5 -33t25.5 -11.5t25.5 -3.5t11.5 -11q0 -10 -20 -10
q-22 0 -58 1t-51 1t-51 -1t-58 -1q-20 0 -20 10q0 8 11.5 11t25.5 3.5t25.5 11.5t11.5 33zM186 362v-221q0 -62 22.5 -93.5t61.5 -31.5q71 0 106.5 62t35.5 153q0 88 -37 133.5t-93 45.5q-44 0 -96 -48z" />
    <glyph glyph-name="q" unicode="q" horiz-adv-x="556" 
d="M480 462v-587q0 -22 11.5 -33t25.5 -11.5t25.5 -3.5t11.5 -11q0 -10 -20 -10q-22 0 -58 1t-51 1t-51 -1t-58 -1q-20 0 -20 10q0 8 11.5 11t25.5 3.5t25.5 11.5t11.5 33v192h-2q-21 -28 -62 -51.5t-93 -23.5q-91 0 -135 61.5t-44 148.5q0 111 72.5 185.5t174.5 74.5
q32 0 60.5 -8t42 -15t40.5 -24q26 30 56 47zM370 121v202q0 115 -95 115q-63 0 -97 -55t-34 -147q0 -84 34 -138t87 -54q81 0 105 77z" />
    <glyph glyph-name="r" unicode="r" horiz-adv-x="426" 
d="M100 67v254q0 26 -12.5 41t-27.5 18.5t-27.5 8.5t-12.5 13q0 6 16 8t64.5 14t106.5 38v-134h2q19 57 56 95.5t84 38.5q34 0 56.5 -20t22.5 -52q0 -26 -18 -41t-41 -15q-25 0 -44.5 24t-37.5 24q-28 0 -52.5 -44t-24.5 -129v-142q0 -22 11.5 -33t25.5 -11.5t25.5 -3.5
t11.5 -11q0 -10 -20 -10q-22 0 -58 1t-51 1t-51 -1t-58 -1q-20 0 -20 10q0 8 11.5 11t25.5 3.5t25.5 11.5t11.5 33z" />
    <glyph glyph-name="s" unicode="s" horiz-adv-x="426" 
d="M361 430v-117q0 -10 -8 -10q-4 0 -6 3.5t-8.5 19.5l-13.5 32q-37 80 -118 80q-34 0 -53.5 -15t-19.5 -36q0 -29 26.5 -49.5t64.5 -35t76 -32t64.5 -50t26.5 -78.5q0 -67 -49.5 -108.5t-136.5 -41.5q-76 0 -157 31v147q0 9 7 9q5 0 7 -5t7.5 -22t15.5 -37q26 -49 59 -74
t80 -25q38 0 61.5 19.5t23.5 51.5t-26.5 54.5t-64.5 37.5t-76 32t-64.5 48.5t-26.5 75.5q0 48 40 87.5t119 39.5q86 0 150 -32z" />
    <glyph glyph-name="t" unicode="t" horiz-adv-x="370" 
d="M100 113v289h-74q114 105 184 202v-150h137l-24 -52h-113v-258q0 -106 71 -106q37 0 66 34q4 5 7 10l4.5 7.5t3.5 4.5t4 2q6 0 6 -7q0 -26 -37.5 -61.5t-100.5 -35.5q-65 0 -99.5 33t-34.5 88z" />
    <glyph glyph-name="u" unicode="u" 
d="M378 -8v84q-89 -84 -183 -84q-45 0 -76.5 23.5t-31.5 72.5v233q0 26 -12.5 41.5t-27.5 19t-27.5 8.5t-12.5 14q0 6 20 8t69 13.5t101 36.5v-362q0 -31 16.5 -46.5t41.5 -15.5q37 0 73.5 20.5t48.5 42.5v220q0 26 -12.5 41.5t-27.5 19t-27.5 8.5t-12.5 14q0 6 20 8
t69 13.5t101 36.5v-337q0 -35 18.5 -50t37 -18t18.5 -9t-18.5 -9t-66 -14.5t-98.5 -32.5z" />
    <glyph glyph-name="v" unicode="v" horiz-adv-x="519" 
d="M195 374l104 -251q57 115 76 166t19 87q0 25 -9 38.5t-19.5 16t-19.5 6t-9 9.5q0 10 17 10q10 0 37 -1t48 -1q16 0 33 1t23 1q19 0 19 -10q0 -5 -11 -10t-32.5 -26.5t-41.5 -63.5l-163 -340q-8 -18 -16 -18t-16 18l-174 386q-8 19 -19 28.5t-18.5 11t-13 4.5t-5.5 10
q0 10 17 10q12 0 45.5 -1t55.5 -1q26 0 55.5 1t38.5 1q25 0 25 -10q0 -7 -13.5 -9t-26.5 -9.5t-13 -26.5q0 -11 7 -27z" />
    <glyph glyph-name="w" unicode="w" horiz-adv-x="759" 
d="M466 373l97 -241q61 150 73.5 186.5t12.5 65.5q0 23 -9.5 35.5t-21 14t-21 4.5t-9.5 8q0 10 17 10q15 0 39 -1t34 -1q12 0 40.5 1t36.5 1q14 0 14 -9q0 -5 -9 -9t-22.5 -9.5t-33.5 -31t-38 -68.5l-137 -325q-6 -16 -15 -16q-10 0 -16 16l-117 290l-130 -290
q-6 -16 -15 -16q-10 0 -16 16l-153 385q-10 25 -24.5 36.5t-24 14t-9.5 6.5q0 10 16 10q9 0 40.5 -1t56.5 -1q11 0 39 1t50 1q8 0 11 -0.5t5.5 -2.5t2.5 -7q0 -7 -11 -9.5t-21.5 -8.5t-10.5 -24q0 -15 7 -31l93 -234l83 177l-30 72q-11 26 -27 36.5t-26 12.5t-10 9
q0 10 19 10q28 0 58.5 -1t39.5 -1q28 0 57 1t36 1q23 0 23 -10q0 -8 -13 -10t-25.5 -7.5t-12.5 -22.5t7 -33z" />
    <glyph glyph-name="x" unicode="x" horiz-adv-x="556" 
d="M319 268l144 -207q17 -25 40 -33.5t36.5 -10t13.5 -9.5q0 -7 -3.5 -8.5t-13.5 -1.5q-16 0 -57 1t-67 1q-25 0 -68 -1t-57 -1q-17 0 -17 10q0 8 9 10.5t20.5 2t20.5 5t9 18.5q0 4 -1 8.5t-3 10t-4.5 10.5t-8 13.5l-10 15.5l-12.5 19l-14.5 21.5l-18.5 26t-21 30.5
q-70 -88 -70 -127q0 -27 14 -39t27.5 -15.5t13.5 -9.5q0 -7 -4 -8.5t-16 -1.5q-7 0 -35.5 1t-54.5 1q-11 0 -42.5 -1t-45.5 -1q-9 0 -12.5 0.5t-6 2.5t-2.5 6q0 10 13 11t41 12.5t55 45.5l113 139l-116 175q-13 20 -29 29.5t-27 10t-18.5 3.5t-7.5 12q0 11 23 11
q26 0 60.5 -1t47.5 -1q14 0 47 1t55 1q30 0 30 -11q0 -9 -13.5 -11.5t-26.5 -8t-13 -23.5q0 -5 1 -9.5t4 -11t6 -12t10 -15.5l13 -18l17.5 -24.5l20.5 -29.5q45 56 57.5 76t12.5 37q0 21 -12 29t-24 11t-12 11q0 10 25 10q9 0 34.5 -1t38.5 -1q16 0 39 1t31 1q26 0 26 -11
q0 -8 -11.5 -10.5t-38 -15t-53.5 -41.5z" />
    <glyph glyph-name="y" unicode="y" horiz-adv-x="519" 
d="M255 -15l-176 391q-11 25 -25 38.5t-23.5 16t-16.5 5.5t-7 10q0 10 20 10q25 0 56 -1t42 -1q12 0 40 1t45 1q29 0 29 -10q0 -9 -23.5 -15.5t-23.5 -25.5q0 -7 13 -37l106 -241q33 78 45.5 110t23 68t10.5 60q0 29 -12 45t-27 18t-27 5.5t-12 11.5q0 11 22 11t49 -1t36 -1
q8 0 36 1t52 1q19 0 19 -11q0 -8 -10 -12t-24 -8t-34 -26.5t-36 -61.5l-179 -428q-29 -70 -52.5 -95.5t-55.5 -25.5q-29 0 -49.5 19.5t-20.5 53.5q0 26 15 43.5t37 17.5t34.5 -13.5t19.5 -27t17 -13.5q15 0 26 24z" />
    <glyph glyph-name="z" unicode="z" horiz-adv-x="500" 
d="M465 456l-309 -440q99 0 173 54.5t104 131.5q13 32 16 34q2 1 5 1q8 0 8 -8q0 -3 -4 -25l-45 -206q-33 0 -98.5 1t-97.5 1q-33 0 -98.5 -1t-98.5 -1l313 440q-50 0 -95.5 -16t-76.5 -41t-51 -48t-31 -45q-2 -3 -4.5 -9l-4 -9.5t-4 -7.5t-5 -5.5t-5.5 -1.5q-7 0 -7 10
q0 3 13 50l37 141q32 0 93 -1t91 -1q31 0 91.5 1t90.5 1z" />
    <glyph glyph-name="braceleft" unicode="{" horiz-adv-x="407" 
d="M120 -64v202q0 53 -19 80t-73 41q54 14 73 41t19 80v202q0 89 45 118.5t145 29.5v-20q-49 -3 -69.5 -32t-20.5 -86v-196q0 -62 -19.5 -92.5t-79.5 -43.5v-2q60 -13 79.5 -44t19.5 -92v-196q0 -57 20.5 -86t69.5 -32v-20q-100 0 -145 29.5t-45 118.5z" />
    <glyph glyph-name="bar" unicode="|" horiz-adv-x="222" 
d="M70 0v730h82v-730h-82z" />
    <glyph glyph-name="braceright" unicode="}" horiz-adv-x="407" 
d="M287 582v-202q0 -53 19 -80t73 -41q-54 -14 -73 -41t-19 -80v-202q0 -89 -45 -118.5t-145 -29.5v20q49 3 69.5 32t20.5 86v196q0 62 19.5 92.5t79.5 43.5v2q-60 13 -79.5 44t-19.5 92v196q0 57 -20.5 86t-69.5 32v20q100 0 145 -29.5t45 -118.5z" />
    <glyph glyph-name="asciitilde" unicode="~" horiz-adv-x="600" 
d="M475 303l36 -72q-21 -27 -32 -39t-34.5 -25.5t-49.5 -13.5q-37 0 -91 30q-58 32 -103 32q-44 0 -76 -64l-36 70q49 78 116 78q34 0 100 -29q73 -31 91 -31q17 0 32.5 10.5t24 21.5t22.5 32z" />
    <glyph glyph-name="uni00A0" unicode="&#xa0;" horiz-adv-x="287" 
 />
    <glyph glyph-name="exclamdown" unicode="&#xa1;" horiz-adv-x="407" 
d="M204 284q9 0 12 -35q7 -76 29 -179.5t22 -163.5q0 -118 -63 -118t-63 118q0 60 22 163.5t29 179.5q3 35 12 35zM204 354q-30 0 -51 21t-21 51t21 51t51 21t51 -21t21 -51t-21 -51t-51 -21z" />
    <glyph glyph-name="cent" unicode="&#xa2;" 
d="M495 678l-79 -144q30 -17 49.5 -46.5t19.5 -62.5q0 -30 -18 -46.5t-41 -16.5q-26 0 -42.5 20t-18.5 49h-2l-110 -199q8 -11 36.5 -21.5t56.5 -10.5q39 0 67 12t39 27t19 27t12 12q7 0 7 -10q0 -9 -10 -30.5t-30 -50t-59 -49t-88 -20.5q-56 0 -100 23l-80 -143h-32l88 158
q-36 24 -64 74t-28 102q0 97 65.5 163.5t150.5 66.5q52 0 88 -18l73 134h31zM230 254l135 244q-10 46 -65 46t-87 -44t-32 -112q0 -86 49 -134z" />
    <glyph glyph-name="sterling" unicode="&#xa3;" 
d="M136 139q-24 0 -40.5 -15.5t-16.5 -38.5q0 -27 22 -48t54 -21q53 0 95 35q-40 51 -64.5 69.5t-49.5 18.5zM34 384h92q-39 55 -39 111q0 76 51.5 133.5t129.5 57.5q39 0 85.5 -19t60.5 -19q12 0 17.5 4.5t6 10.5t3 10.5t7.5 4.5q8 0 9 -16l22 -178q2 -16 2 -25
q0 -11 -8 -11q-4 0 -6 1.5t-4.5 6.5t-5 12t-8.5 21l-13 29q-32 67 -75.5 108.5t-95.5 41.5q-45 0 -72.5 -28.5t-27.5 -69.5q0 -31 10.5 -54t23.5 -36.5t46.5 -42.5t57.5 -53h127v-46h-100q20 -43 20 -94q0 -59 -32 -117q52 -35 92 -35q53 0 78 30.5t36 87.5q2 10 3.5 24.5
t3 18.5t7.5 4q12 0 12 -17q0 -109 -49.5 -182.5t-121.5 -73.5q-62 0 -113 49q-26 -17 -35.5 -22.5t-29 -12t-41.5 -6.5q-47 0 -76 25.5t-29 71.5q0 21 8 42.5t34.5 41.5t66.5 20q54 0 137 -55q7 14 7 24q0 46 -33.5 92t-97.5 84h-143v46z" />
    <glyph glyph-name="currency" unicode="&#xa4;" 
d="M482 583l49 -49l-53 -53q47 -53 47 -142q0 -88 -47 -144l53 -52l-49 -49l-54 54q-56 -47 -141 -47t-141 47l-54 -54l-49 49l53 52q-47 56 -47 144q0 89 47 142l-53 53l49 49l54 -54q58 48 141 48t141 -48zM287 167q69 0 117.5 51t48.5 120t-48.5 121t-117.5 52
t-117.5 -52t-48.5 -121t48.5 -120t117.5 -51z" />
    <glyph glyph-name="yen" unicode="&#xa5;" 
d="M387 392h129v-46h-159l-15 -22v-63h174v-46h-174v-143q0 -23 15 -34t33 -12t33 -3.5t15 -10.5q0 -14 -30 -14q-14 0 -51 1t-70 1t-70 -1t-51 -1q-26 0 -26 14q0 8 14.5 10.5t31.5 3.5t31.5 12t14.5 34v143h-168v46h168v50l-19 35h-149v46h123l-123 219q-15 27 -39 37.5
t-40 11.5t-16 7q0 8 5 10.5t21 2.5t59 -1t67 -1q19 0 56.5 1t55.5 1q19 0 19 -13q0 -7 -16 -9.5t-32 -11t-16 -31.5t26 -69l113 -204l34 50q74 109 93.5 144.5t19.5 69.5q0 30 -19.5 40.5t-39 12.5t-19.5 9q0 12 30 12q16 0 46 -1t45 -1q16 0 44.5 1t40.5 1q26 0 26 -12
q0 -4 -4.5 -6.5t-12.5 -5t-21 -10.5t-28.5 -20t-37 -36.5t-43.5 -57.5z" />
    <glyph glyph-name="brokenbar" unicode="&#xa6;" horiz-adv-x="222" 
d="M70 0v272h82v-272h-82zM70 458v272h82v-272h-82z" />
    <glyph glyph-name="section" unicode="&#xa7;" horiz-adv-x="500" 
d="M378 242q0 39 -39 73.5t-133 84.5q-32 -1 -55 -26.5t-23 -53.5q0 -41 34.5 -67.5t132.5 -74.5q22 -10 33 -16q50 29 50 80zM426 673v-162q0 -9 -9 -9q-5 0 -8.5 11l-11.5 36.5t-20 48.5q-19 33 -51.5 52.5t-69.5 19.5q-34 0 -58 -19.5t-24 -48.5q0 -32 29.5 -60t72 -50.5
l85 -46.5t72 -61t29.5 -83q0 -62 -28.5 -93.5t-80.5 -55.5q90 -43 90 -118q0 -23 -8.5 -47.5t-28.5 -50.5t-61 -43t-98 -17q-51 0 -99 20t-50 20q-10 0 -27 -15t-22 -15q-11 0 -11 13v185q0 14 8 14q2 0 4 -2t5 -7.5t5.5 -11.5l7 -17.5t9.5 -22.5q18 -38 36 -64.5t54 -49.5
t81 -23q51 0 73 25t22 55q0 33 -31 57.5t-74.5 42t-87.5 38.5t-75 58.5t-31 89.5q0 51 32.5 93t105.5 59q-59 42 -83.5 71.5t-24.5 76.5q0 56 44 92t119 36q47 0 91 -16t45 -16q13 0 28 12t17 12q8 0 8 -13z" />
    <glyph glyph-name="dieresis" unicode="&#xa8;" horiz-adv-x="296" 
d="M-6 579q0 22 15.5 37.5t37.5 15.5t37.5 -15.5t15.5 -37.5t-15.5 -37.5t-37.5 -15.5t-37.5 15.5t-15.5 37.5zM196 579q0 22 15.5 37.5t37.5 15.5t37.5 -15.5t15.5 -37.5t-15.5 -37.5t-37.5 -15.5t-37.5 15.5t-15.5 37.5z" />
    <glyph glyph-name="copyright" unicode="&#xa9;" horiz-adv-x="800" 
d="M400 -16q-147 0 -247.5 103t-100.5 252t100.5 252t247.5 103t247.5 -103t100.5 -252t-100.5 -252t-247.5 -103zM400 40q114 0 194 88.5t80 209.5q0 122 -80 211t-194 89t-194 -89t-80 -211q0 -121 80 -209.5t194 -88.5zM552 260h18l-16 -79q-2 -9 -46.5 -22t-87.5 -13
q-100 0 -159 52t-59 152q0 86 59.5 142t166.5 56q45 0 85.5 -12t40.5 -26v-74h-18q-26 88 -109 88q-52 0 -82.5 -42.5t-30.5 -126.5q0 -98 27.5 -141.5t87.5 -43.5q82 0 123 90z" />
    <glyph glyph-name="ordfeminine" unicode="&#xaa;" horiz-adv-x="300" 
d="M192 463v94q-53 -18 -79.5 -36t-26.5 -44q0 -49 35 -49q14 0 31.5 8t28 16t11.5 11zM192 573v73q0 22 -24 22q-52 0 -63 -51q-5 -27 -15.5 -37t-33.5 -10q-15 0 -24 8.5t-9 20.5q0 31 50.5 59t110.5 28q80 0 80 -71v-165q0 -16 12 -16q16 0 25 11q6 9 12 9q8 0 8 -9
q0 -11 -21.5 -26t-50.5 -15q-45 0 -55 38q-59 -38 -112 -38q-31 0 -49.5 14t-18.5 40q0 38 42.5 63t135.5 52z" />
    <glyph glyph-name="guillemotleft" unicode="&#xab;" horiz-adv-x="463" 
d="M154 207l98 -153q6 -10 6 -14q0 -6 -6 -6q-8 0 -16 10l-163 170q-7 7 -7 13t7 13l163 170q8 10 16 10q6 0 6 -6q0 -4 -6 -14l-98 -153q-12 -18 -12 -21q0 -1 12 -19zM293 207l98 -153q6 -10 6 -14q0 -6 -6 -6q-8 0 -16 10l-163 170q-7 7 -7 13t7 13l163 170q8 10 16 10
q6 0 6 -6q0 -4 -6 -14l-98 -153q-12 -18 -12 -21q0 -1 12 -19z" />
    <glyph glyph-name="logicalnot" unicode="&#xac;" horiz-adv-x="600" 
d="M445 96v180h-372v82h454v-262h-82z" />
    <glyph glyph-name="uni00AD" unicode="&#xad;" horiz-adv-x="333" 
d="M289 181h-246v92h246v-92z" />
    <glyph glyph-name="registered" unicode="&#xae;" horiz-adv-x="800" 
d="M234 517v18h190q49 0 82 -24.5t33 -71.5q0 -36 -21 -64.5t-53 -40.5l59 -83q40 -55 65 -80v-15h-74q-15 0 -30.5 20t-42 68.5t-45.5 77.5h-34v-103q0 -31 6 -37t41 -8v-18h-176v18q30 2 36.5 8.5t6.5 36.5v250q0 30 -6.5 37t-36.5 11zM363 511v-165h32q56 0 56 89
q0 42 -14 59t-42 17h-32zM400 -16q-147 0 -247.5 103t-100.5 252t100.5 252t247.5 103t247.5 -103t100.5 -252t-100.5 -252t-247.5 -103zM400 40q114 0 194 88.5t80 209.5q0 122 -80 211t-194 89t-194 -89t-80 -211q0 -121 80 -209.5t194 -88.5z" />
    <glyph glyph-name="macron" unicode="&#xaf;" horiz-adv-x="296" 
d="M306 550h-316v60h316v-60z" />
    <glyph glyph-name="degree" unicode="&#xb0;" horiz-adv-x="400" 
d="M200 450q36 0 62.5 28t26.5 65t-26.5 65t-62.5 28t-62.5 -28t-26.5 -65t26.5 -65t62.5 -28zM200 400q-60 0 -101.5 41.5t-41.5 101.5t41.5 101.5t101.5 41.5t101.5 -41.5t41.5 -101.5t-41.5 -101.5t-101.5 -41.5z" />
    <glyph glyph-name="plusminus" unicode="&#xb1;" horiz-adv-x="600" 
d="M259 325v129h82v-129h186v-82h-186v-129h-82v129h-186v82h186zM73 0v82h454v-82h-454z" />
    <glyph glyph-name="twosuperior" unicode="&#xb2;" horiz-adv-x="344" 
d="M284 274h-257q1 33 17 62.5t39 49l49.5 40l49 38t37.5 40.5t15 48q0 36 -25 59t-61 23q-30 0 -52 -11.5t-30 -25l-15.5 -25t-13.5 -11.5q-10 0 -10 10q0 8 8.5 25t24.5 38t47.5 36.5t70.5 15.5q61 0 99.5 -38t38.5 -79q0 -46 -27.5 -77t-63 -46t-79 -41.5t-65.5 -60.5
h148q21 0 36 7.5t20.5 17t11 17t10.5 7.5q8 0 8 -7q0 -2 -7 -30z" />
    <glyph glyph-name="threesuperior" unicode="&#xb3;" horiz-adv-x="344" 
d="M143 638q-23 0 -41.5 -12t-29 -24t-13.5 -12q-5 -1 -7.5 3t-1.5 8q0 9 13 28t44 38t69 19q48 0 84.5 -28.5t36.5 -70.5q0 -36 -39 -70q71 -40 71 -106q0 -50 -48.5 -96.5t-132.5 -46.5q-63 0 -99.5 24.5t-36.5 58.5q0 16 10 27.5t28 11.5q27 0 38.5 -16t13 -36t15 -36
t42.5 -16q38 0 63 26t25 68q0 51 -26.5 74t-64.5 23q-21 0 -21 8q0 10 11 10q25 0 47 19.5t22 56.5q0 27 -19 47t-53 20z" />
    <glyph glyph-name="acute" unicode="&#xb4;" horiz-adv-x="296" 
d="M119 510h-47l133 139l21.5 21.5t17 12t20.5 5.5q14 0 25 -11t11 -27q0 -25 -39 -50z" />
    <glyph glyph-name="mu" unicode="&#xb5;" 
d="M378 -8v84q-89 -84 -181 -84q0 -20 2 -62t2 -60q0 -41 -17 -61.5t-45 -20.5q-58 0 -58 78q0 17 3 106t3 153v196q0 26 -12.5 41.5t-27.5 19t-27.5 8.5t-12.5 14q0 6 20 8t69 13.5t101 36.5v-362q0 -31 16.5 -46.5t41.5 -15.5q37 0 73.5 20.5t48.5 42.5v220
q0 26 -12.5 41.5t-27.5 19t-27.5 8.5t-12.5 14q0 6 20 8t69 13.5t101 36.5v-337q0 -35 18.5 -50t37 -18t18.5 -9t-18.5 -9t-66 -14.5t-98.5 -32.5z" />
    <glyph glyph-name="paragraph" unicode="&#xb6;" horiz-adv-x="600" 
d="M378 -122v770h-59v-770h-82v389q-88 0 -134.5 58t-46.5 155q0 89 49 143.5t160 54.5h265v-24q-70 0 -70 -62v-714h-82z" />
    <glyph glyph-name="periodcentered" unicode="&#xb7;" horiz-adv-x="287" 
d="M71 227q0 30 21 51t51 21t51 -21t21 -51t-21 -51t-51 -21t-51 21t-21 51z" />
    <glyph glyph-name="cedilla" unicode="&#xb8;" horiz-adv-x="296" 
d="M130 0h37l-28 -64q18 4 33 4q38 0 59.5 -20t21.5 -51q0 -41 -31.5 -63t-91.5 -22q-19 0 -35 2t-23 4.5l-16.5 6t-12.5 4.5l14 33q28 -12 56 -12q62 0 62 40t-46 40q-17 0 -28 -6l-14 6z" />
    <glyph glyph-name="onesuperior" unicode="&#xb9;" horiz-adv-x="344" 
d="M136 337v270q0 13 -13 13h-77q-10 0 -10 10q0 7 14 9t46.5 6t62.5 15q14 5 24.5 10.5t14.5 8.5t7.5 5t7.5 2q9 0 9 -11v-338q0 -28 16 -36.5t61 -8.5q15 0 15 -10t-12 -10t-54 1t-71 1q-30 0 -72.5 -1t-55.5 -1q-10 0 -10 10t12 10q55 0 70 8t15 37z" />
    <glyph glyph-name="ordmasculine" unicode="&#xba;" horiz-adv-x="334" 
d="M86 545q0 -49 19 -86t62 -37t62 37t19 86q0 50 -18.5 86.5t-62.5 36.5t-62.5 -36.5t-18.5 -86.5zM167 686q66 0 112.5 -41t46.5 -100t-46.5 -100t-112.5 -41t-112.5 41t-46.5 100t46.5 100t112.5 41z" />
    <glyph glyph-name="guillemotright" unicode="&#xbb;" horiz-adv-x="463" 
d="M309 247l-98 153q-6 10 -6 14q0 6 6 6q8 0 16 -10l163 -170q7 -7 7 -13t-7 -13l-163 -170q-8 -10 -16 -10q-6 0 -6 6q0 4 6 14l98 153q12 18 12 21q0 1 -12 19zM170 247l-98 153q-6 10 -6 14q0 6 6 6q8 0 16 -10l163 -170q7 -7 7 -13t-7 -13l-163 -170q-8 -10 -16 -10
q-6 0 -6 6q0 4 6 14l98 153q12 18 12 21q0 1 -12 19z" />
    <glyph glyph-name="onequarter" unicode="&#xbc;" horiz-adv-x="861" 
d="M511 137l235 271h28v-258h79l-18 -42h-61v-50q0 -24 16 -32t32 -9t16 -7q0 -8 -3 -10t-12 -2q-16 0 -44 1t-42 1t-41.5 -1t-40.5 -1q-9 0 -12 2t-3 10q0 6 9 7.5t20 1.5t20 7.5t9 22.5v59h-169zM698 150v158h-2l-136 -158h138zM708 686l-428 -694h-73l430 694h71z
M128 335v272q0 13 -13 13h-77q-10 0 -10 10q0 7 14 9t46.5 6t62.5 15q14 5 24.5 10.5t14.5 8.5t7.5 5t7.5 2q9 0 9 -11v-340q0 -28 16 -36.5t61 -8.5q15 0 15 -10q0 -8 -12 -8t-54 1t-71 1q-30 0 -72.5 -1t-55.5 -1q-10 0 -10 8q0 10 12 10q55 0 70 8t15 37z" />
    <glyph glyph-name="onehalf" unicode="&#xbd;" horiz-adv-x="861" 
d="M684 686l-428 -694h-73l430 694h71zM128 335v272q0 13 -13 13h-77q-10 0 -10 10q0 7 14 9t46.5 6t62.5 15q14 5 24.5 10.5t14.5 8.5t7.5 5t7.5 2q9 0 9 -11v-340q0 -28 16 -36.5t61 -8.5q15 0 15 -10q0 -8 -12 -8t-54 1t-71 1q-30 0 -72.5 -1t-55.5 -1q-10 0 -10 8
q0 10 12 10q55 0 70 8t15 37zM808 -1h-257q1 33 17 62.5t39 49l49.5 40l49 38t37.5 40.5t15 48q0 36 -25 59t-61 23q-30 0 -52 -11.5t-30 -25l-15.5 -25t-13.5 -11.5q-10 0 -10 10q0 8 8.5 25t24.5 38t47.5 36.5t70.5 15.5q61 0 99.5 -38t38.5 -79q0 -46 -27.5 -77t-63 -46
t-79 -41.5t-65.5 -60.5h148q21 0 36 7.5t20.5 17t11 17t10.5 7.5q8 0 8 -7q0 -2 -7 -30z" />
    <glyph glyph-name="threequarters" unicode="&#xbe;" horiz-adv-x="861" 
d="M511 137l235 271h28v-258h79l-18 -42h-61v-50q0 -24 16 -32t32 -9t16 -7q0 -8 -3 -10t-12 -2q-16 0 -44 1t-42 1t-41.5 -1t-40.5 -1q-9 0 -12 2t-3 10q0 6 9 7.5t20 1.5t20 7.5t9 22.5v59h-169zM698 150v158h-2l-136 -158h138zM716 686l-428 -694h-73l430 694h71z
M157 638q-23 0 -41.5 -12t-29 -24t-13.5 -12q-5 -1 -7.5 3t-1.5 8q0 9 13 28t44 38t69 19q48 0 84.5 -28.5t36.5 -70.5q0 -36 -39 -70q71 -40 71 -106q0 -50 -48.5 -96.5t-132.5 -46.5q-63 0 -99.5 24.5t-36.5 58.5q0 16 10 27.5t28 11.5q27 0 38.5 -16t13 -36t15 -36
t42.5 -16q38 0 63 26t25 68q0 51 -26.5 74t-64.5 23q-21 0 -21 8q0 10 11 10q25 0 47 19.5t22 56.5q0 27 -19 47t-53 20z" />
    <glyph glyph-name="questiondown" unicode="&#xbf;" 
d="M392 93l-25 -15q-30 25 -49.5 34t-50.5 9q-75 0 -113.5 -47t-38.5 -110q0 -56 40.5 -99t95.5 -43q35 0 58 17t34.5 41t21 47.5t26 40.5t41.5 17q29 0 43.5 -18t14.5 -47q0 -54 -54 -93t-125 -39q-111 0 -179.5 68t-68.5 161q0 88 58.5 147t147.5 59q17 0 34 -3v71l35 8
q27 -124 54 -206zM321 354q-30 0 -51 21t-21 51t21 51t51 21t51 -21t21 -51t-21 -51t-51 -21z" />
    <glyph glyph-name="Agrave" unicode="&#xc0;" horiz-adv-x="667" 
d="M406 244h-222q-5 -15 -14 -39.5t-12 -33.5l-7.5 -23t-5.5 -22t-1 -17q0 -34 13 -54t28.5 -24.5t28.5 -9.5t13 -12q0 -8 -3.5 -9.5t-12.5 -1.5q-5 0 -39 1t-74 1q-16 0 -49.5 -1t-51.5 -1q-13 0 -13 12q0 8 10.5 10.5t27.5 7t29 14.5q44 37 86 143q137 343 137 345
q0 3 -12 17t-12 21q0 5 3.5 9.5t8.5 9.5t14.5 19t18.5 34q6 12 10 23t5.5 16.5t3.5 10.5t4 6.5t6 1.5q6 0 10 -10.5l20.5 -55.5t41.5 -99l213 -471q9 -20 22.5 -30t24.5 -10t19 -2.5t8 -9.5q0 -12 -17 -12q-20 0 -60 1t-60 1t-59.5 -1t-60.5 -1q-16 0 -16 12q0 8 11 11t24 3
t24 9t11 27t-17 54zM396 268l-108 246l-94 -246h202zM393 718h-47l-142 90q-39 25 -39 50q0 16 11 27t25 11q10 0 20.5 -5.5t17 -12l21.5 -21.5z" />
    <glyph glyph-name="Aacute" unicode="&#xc1;" horiz-adv-x="667" 
d="M406 244h-222q-5 -15 -14 -39.5t-12 -33.5l-7.5 -23t-5.5 -22t-1 -17q0 -34 13 -54t28.5 -24.5t28.5 -9.5t13 -12q0 -8 -3.5 -9.5t-12.5 -1.5q-5 0 -39 1t-74 1q-16 0 -49.5 -1t-51.5 -1q-13 0 -13 12q0 8 10.5 10.5t27.5 7t29 14.5q44 37 86 143q137 343 137 345
q0 3 -12 17t-12 21q0 5 3.5 9.5t8.5 9.5t14.5 19t18.5 34q6 12 10 23t5.5 16.5t3.5 10.5t4 6.5t6 1.5q6 0 10 -10.5l20.5 -55.5t41.5 -99l213 -471q9 -20 22.5 -30t24.5 -10t19 -2.5t8 -9.5q0 -12 -17 -12q-20 0 -60 1t-60 1t-59.5 -1t-60.5 -1q-16 0 -16 12q0 8 11 11t24 3
t24 9t11 27t-17 54zM396 268l-108 246l-94 -246h202zM288 718h-47l133 139l21.5 21.5t17 12t20.5 5.5q14 0 25 -11t11 -27q0 -25 -39 -50z" />
    <glyph glyph-name="Acircumflex" unicode="&#xc2;" horiz-adv-x="667" 
d="M406 244h-222q-5 -15 -14 -39.5t-12 -33.5l-7.5 -23t-5.5 -22t-1 -17q0 -34 13 -54t28.5 -24.5t28.5 -9.5t13 -12q0 -8 -3.5 -9.5t-12.5 -1.5q-5 0 -39 1t-74 1q-16 0 -49.5 -1t-51.5 -1q-13 0 -13 12q0 8 10.5 10.5t27.5 7t29 14.5q44 37 86 143q137 343 137 345
q0 3 -12 17t-12 21q0 5 3.5 9.5t8.5 9.5t14.5 19t18.5 34q6 12 10 23t5.5 16.5t3.5 10.5t4 6.5t6 1.5q6 0 10 -10.5l20.5 -55.5t41.5 -99l213 -471q9 -20 22.5 -30t24.5 -10t19 -2.5t8 -9.5q0 -12 -17 -12q-20 0 -60 1t-60 1t-59.5 -1t-60.5 -1q-16 0 -16 12q0 8 11 11t24 3
t24 9t11 27t-17 54zM396 268l-108 246l-94 -246h202zM283 886h68l124 -168h-43l-115 102l-115 -102h-43z" />
    <glyph glyph-name="Atilde" unicode="&#xc3;" horiz-adv-x="667" 
d="M406 244h-222q-5 -15 -14 -39.5t-12 -33.5l-7.5 -23t-5.5 -22t-1 -17q0 -34 13 -54t28.5 -24.5t28.5 -9.5t13 -12q0 -8 -3.5 -9.5t-12.5 -1.5q-5 0 -39 1t-74 1q-16 0 -49.5 -1t-51.5 -1q-13 0 -13 12q0 8 10.5 10.5t27.5 7t29 14.5q44 37 86 143q137 343 137 345
q0 3 -12 17t-12 21q0 5 3.5 9.5t8.5 9.5t14.5 19t18.5 34q6 12 10 23t5.5 16.5t3.5 10.5t4 6.5t6 1.5q6 0 10 -10.5l20.5 -55.5t41.5 -99l213 -471q9 -20 22.5 -30t24.5 -10t19 -2.5t8 -9.5q0 -12 -17 -12q-20 0 -60 1t-60 1t-59.5 -1t-60.5 -1q-16 0 -16 12q0 8 11 11t24 3
t24 9t11 27t-17 54zM396 268l-108 246l-94 -246h202zM178 742h-32q7 40 34.5 75t74.5 35q32 0 78 -24t68 -24q17 0 29.5 10t23.5 40h34q-19 -57 -42.5 -83.5t-67.5 -26.5q-34 0 -80 23q-44 23 -68 23q-17 0 -28.5 -9.5t-15.5 -17.5t-8 -21z" />
    <glyph glyph-name="Adieresis" unicode="&#xc4;" horiz-adv-x="667" 
d="M406 244h-222q-5 -15 -14 -39.5t-12 -33.5l-7.5 -23t-5.5 -22t-1 -17q0 -34 13 -54t28.5 -24.5t28.5 -9.5t13 -12q0 -8 -3.5 -9.5t-12.5 -1.5q-5 0 -39 1t-74 1q-16 0 -49.5 -1t-51.5 -1q-13 0 -13 12q0 8 10.5 10.5t27.5 7t29 14.5q44 37 86 143q137 343 137 345
q0 3 -12 17t-12 21q0 5 3.5 9.5t8.5 9.5t14.5 19t18.5 34q6 12 10 23t5.5 16.5t3.5 10.5t4 6.5t6 1.5q6 0 10 -10.5l20.5 -55.5t41.5 -99l213 -471q9 -20 22.5 -30t24.5 -10t19 -2.5t8 -9.5q0 -12 -17 -12q-20 0 -60 1t-60 1t-59.5 -1t-60.5 -1q-16 0 -16 12q0 8 11 11t24 3
t24 9t11 27t-17 54zM396 268l-108 246l-94 -246h202zM163 787q0 22 15.5 37.5t37.5 15.5t37.5 -15.5t15.5 -37.5t-15.5 -37.5t-37.5 -15.5t-37.5 15.5t-15.5 37.5zM365 787q0 22 15.5 37.5t37.5 15.5t37.5 -15.5t15.5 -37.5t-15.5 -37.5t-37.5 -15.5t-37.5 15.5t-15.5 37.5z
" />
    <glyph glyph-name="Aring" unicode="&#xc5;" horiz-adv-x="667" 
d="M406 244h-222q-5 -15 -14 -39.5t-12 -33.5l-7.5 -23t-5.5 -22t-1 -17q0 -34 13 -54t28.5 -24.5t28.5 -9.5t13 -12q0 -8 -3.5 -9.5t-12.5 -1.5q-5 0 -39 1t-74 1q-16 0 -49.5 -1t-51.5 -1q-13 0 -13 12q0 8 10.5 10.5t27.5 7t29 14.5q44 37 86 143q137 343 137 345
q0 3 -12 17t-12 21q0 5 3.5 9.5t8.5 9.5t14.5 19t18.5 34q6 12 10 23t5.5 16.5t3.5 10.5t4 6.5t6 1.5q6 0 10 -10.5l20.5 -55.5t41.5 -99l213 -471q9 -20 22.5 -30t24.5 -10t19 -2.5t8 -9.5q0 -12 -17 -12q-20 0 -60 1t-60 1t-59.5 -1t-60.5 -1q-16 0 -16 12q0 8 11 11t24 3
t24 9t11 27t-17 54zM396 268l-108 246l-94 -246h202zM216 820q0 41 30 70.5t71 29.5t71 -29.5t30 -70.5t-30 -71.5t-71 -30.5t-71 30.5t-30 71.5zM254 819q0 -27 18 -45t45 -18t45 18t18 45t-18 45t-45 18t-45 -18t-18 -45z" />
    <glyph glyph-name="AE" unicode="&#xc6;" horiz-adv-x="1000" 
d="M435 72v258h-199l-48 -78l-39 -64.5t-16 -37t-7 -45.5q0 -34 13 -53t28.5 -22.5t28.5 -8t13 -12.5t-5.5 -9.5t-22.5 -1.5q-7 0 -48.5 1t-72.5 1q-49 0 -90 -1t-46 -1q-16 0 -16 12q0 5 11 8.5t32.5 13t48 27t64 59t74.5 100.5l218 349q18 29 18 54q0 17 -11 25t-24.5 8.5
t-24.5 3.5t-11 12q0 7 4.5 8.5t23.5 1.5q52 0 143 -1t133 -1q45 0 131 1t124 1l48 -187q1 -5 2.5 -11t2.5 -9.5t1 -5.5q0 -10 -8 -10q-5 0 -8.5 7.5l-16 33t-33.5 54.5q-43 61 -105 82.5t-160 21.5h-30v-302h22q151 0 151 135q0 19 12 19t12 -19v-299q0 -18 -12 -18t-12 18
q0 140 -151 140h-22v-252q0 -29 20 -42.5t64 -13.5q66 0 119 20t87 54t54.5 70t32.5 77q7 20 15 20q9 0 9 -10q0 -15 -3 -29l-42 -226q-21 0 -147 1t-269 1q-33 0 -70 -1t-51 -1q-13 0 -17.5 2.5t-4.5 11.5q0 8 13 10.5t28.5 3.5t28.5 12t13 34zM435 354v296h-4l-179 -296
h183z" />
    <glyph glyph-name="Ccedilla" unicode="&#xc7;" horiz-adv-x="741" 
d="M652 663v-248q0 -19 -9 -19q-7 0 -9 5.5t-6 24.5q-20 94 -85 169t-159 75q-92 0 -152.5 -86.5t-60.5 -244.5q0 -162 60.5 -246.5t154.5 -84.5q85 0 157 72t89 166q5 23 15 23q9 0 9 -19v-247q0 -19 -14 -19q-8 0 -12 7.5t-5.5 16.5t-9 16.5t-21.5 7.5q-11 0 -74 -22
t-125 -25l-21 -49q18 4 33 4q38 0 59.5 -20t21.5 -51q0 -41 -31.5 -63t-91.5 -22q-19 0 -35 2t-23 4.5l-16.5 6t-12.5 4.5l14 33q28 -12 56 -12q62 0 62 40t-46 40q-18 0 -28 -6l-14 6l36 82q-133 6 -226 107.5t-93 247.5q0 98 51.5 181t130 128.5t159.5 45.5q53 0 99.5 -15
t76 -29.5t42.5 -14.5q12 0 18.5 7.5t8 16t5.5 16t11 7.5q11 0 11 -19z" />
    <glyph glyph-name="Egrave" unicode="&#xc8;" horiz-adv-x="667" 
d="M118 72v534q0 23 -13 34t-28.5 12t-28.5 3.5t-13 10.5q0 9 4.5 11.5t17.5 2.5q14 0 51 -1t70 -1q129 0 239.5 1t127.5 1l48 -187q1 -5 2.5 -11t2.5 -9.5t1 -5.5q0 -10 -8 -10q-5 0 -8.5 7.5l-16 33t-33.5 54.5q-43 61 -105 82.5t-160 21.5h-30v-294h22q151 0 151 135
q0 19 12 19t12 -19v-299q0 -18 -12 -18t-12 18q0 140 -151 140h-22v-260q0 -29 20 -42.5t64 -13.5q66 0 119 20t87 54t54.5 70t32.5 77q7 20 15 20q9 0 9 -10q0 -15 -3 -29l-42 -226q-21 0 -146 1t-270 1q-33 0 -70 -1t-51 -1q-13 0 -17.5 2.5t-4.5 11.5q0 8 13 10.5
t28.5 3.5t28.5 12t13 34zM398 718h-47l-142 90q-39 25 -39 50q0 16 11 27t25 11q10 0 20.5 -5.5t17 -12l21.5 -21.5z" />
    <glyph glyph-name="Eacute" unicode="&#xc9;" horiz-adv-x="667" 
d="M118 72v534q0 23 -13 34t-28.5 12t-28.5 3.5t-13 10.5q0 9 4.5 11.5t17.5 2.5q14 0 51 -1t70 -1q129 0 239.5 1t127.5 1l48 -187q1 -5 2.5 -11t2.5 -9.5t1 -5.5q0 -10 -8 -10q-5 0 -8.5 7.5l-16 33t-33.5 54.5q-43 61 -105 82.5t-160 21.5h-30v-294h22q151 0 151 135
q0 19 12 19t12 -19v-299q0 -18 -12 -18t-12 18q0 140 -151 140h-22v-260q0 -29 20 -42.5t64 -13.5q66 0 119 20t87 54t54.5 70t32.5 77q7 20 15 20q9 0 9 -10q0 -15 -3 -29l-42 -226q-21 0 -146 1t-270 1q-33 0 -70 -1t-51 -1q-13 0 -17.5 2.5t-4.5 11.5q0 8 13 10.5
t28.5 3.5t28.5 12t13 34zM293 718h-47l133 139l21.5 21.5t17 12t20.5 5.5q14 0 25 -11t11 -27q0 -25 -39 -50z" />
    <glyph glyph-name="Ecircumflex" unicode="&#xca;" horiz-adv-x="667" 
d="M118 72v534q0 23 -13 34t-28.5 12t-28.5 3.5t-13 10.5q0 9 4.5 11.5t17.5 2.5q14 0 51 -1t70 -1q129 0 239.5 1t127.5 1l48 -187q1 -5 2.5 -11t2.5 -9.5t1 -5.5q0 -10 -8 -10q-5 0 -8.5 7.5l-16 33t-33.5 54.5q-43 61 -105 82.5t-160 21.5h-30v-294h22q151 0 151 135
q0 19 12 19t12 -19v-299q0 -18 -12 -18t-12 18q0 140 -151 140h-22v-260q0 -29 20 -42.5t64 -13.5q66 0 119 20t87 54t54.5 70t32.5 77q7 20 15 20q9 0 9 -10q0 -15 -3 -29l-42 -226q-21 0 -146 1t-270 1q-33 0 -70 -1t-51 -1q-13 0 -17.5 2.5t-4.5 11.5q0 8 13 10.5
t28.5 3.5t28.5 12t13 34zM288 886h68l124 -168h-43l-115 102l-115 -102h-43z" />
    <glyph glyph-name="Edieresis" unicode="&#xcb;" horiz-adv-x="667" 
d="M118 72v534q0 23 -13 34t-28.5 12t-28.5 3.5t-13 10.5q0 9 4.5 11.5t17.5 2.5q14 0 51 -1t70 -1q129 0 239.5 1t127.5 1l48 -187q1 -5 2.5 -11t2.5 -9.5t1 -5.5q0 -10 -8 -10q-5 0 -8.5 7.5l-16 33t-33.5 54.5q-43 61 -105 82.5t-160 21.5h-30v-294h22q151 0 151 135
q0 19 12 19t12 -19v-299q0 -18 -12 -18t-12 18q0 140 -151 140h-22v-260q0 -29 20 -42.5t64 -13.5q66 0 119 20t87 54t54.5 70t32.5 77q7 20 15 20q9 0 9 -10q0 -15 -3 -29l-42 -226q-21 0 -146 1t-270 1q-33 0 -70 -1t-51 -1q-13 0 -17.5 2.5t-4.5 11.5q0 8 13 10.5
t28.5 3.5t28.5 12t13 34zM168 787q0 22 15.5 37.5t37.5 15.5t37.5 -15.5t15.5 -37.5t-15.5 -37.5t-37.5 -15.5t-37.5 15.5t-15.5 37.5zM370 787q0 22 15.5 37.5t37.5 15.5t37.5 -15.5t15.5 -37.5t-15.5 -37.5t-37.5 -15.5t-37.5 15.5t-15.5 37.5z" />
    <glyph glyph-name="Igrave" unicode="&#xcc;" horiz-adv-x="370" 
d="M125 72v534q0 23 -13 34t-28.5 12t-28.5 3.5t-13 10.5q0 9 4.5 11.5t17.5 2.5q14 0 51 -1t70 -1t70 1t51 1q13 0 17.5 -2.5t4.5 -11.5q0 -8 -13 -10.5t-28.5 -3.5t-28.5 -12t-13 -34v-534q0 -23 13 -34t28.5 -12t28.5 -3.5t13 -10.5q0 -9 -4.5 -11.5t-17.5 -2.5
q-14 0 -51 1t-70 1t-70 -1t-51 -1q-13 0 -17.5 2.5t-4.5 11.5q0 8 13 10.5t28.5 3.5t28.5 12t13 34zM261 718h-47l-142 90q-39 25 -39 50q0 16 11 27t25 11q10 0 20.5 -5.5t17 -12l21.5 -21.5z" />
    <glyph glyph-name="Iacute" unicode="&#xcd;" horiz-adv-x="370" 
d="M125 72v534q0 23 -13 34t-28.5 12t-28.5 3.5t-13 10.5q0 9 4.5 11.5t17.5 2.5q14 0 51 -1t70 -1t70 1t51 1q13 0 17.5 -2.5t4.5 -11.5q0 -8 -13 -10.5t-28.5 -3.5t-28.5 -12t-13 -34v-534q0 -23 13 -34t28.5 -12t28.5 -3.5t13 -10.5q0 -9 -4.5 -11.5t-17.5 -2.5
q-14 0 -51 1t-70 1t-70 -1t-51 -1q-13 0 -17.5 2.5t-4.5 11.5q0 8 13 10.5t28.5 3.5t28.5 12t13 34zM156 718h-47l133 139l21.5 21.5t17 12t20.5 5.5q14 0 25 -11t11 -27q0 -25 -39 -50z" />
    <glyph glyph-name="Icircumflex" unicode="&#xce;" horiz-adv-x="370" 
d="M125 72v534q0 23 -13 34t-28.5 12t-28.5 3.5t-13 10.5q0 9 4.5 11.5t17.5 2.5q14 0 51 -1t70 -1t70 1t51 1q13 0 17.5 -2.5t4.5 -11.5q0 -8 -13 -10.5t-28.5 -3.5t-28.5 -12t-13 -34v-534q0 -23 13 -34t28.5 -12t28.5 -3.5t13 -10.5q0 -9 -4.5 -11.5t-17.5 -2.5
q-14 0 -51 1t-70 1t-70 -1t-51 -1q-13 0 -17.5 2.5t-4.5 11.5q0 8 13 10.5t28.5 3.5t28.5 12t13 34zM151 886h68l124 -168h-43l-115 102l-115 -102h-43z" />
    <glyph glyph-name="Idieresis" unicode="&#xcf;" horiz-adv-x="370" 
d="M125 72v534q0 23 -13 34t-28.5 12t-28.5 3.5t-13 10.5q0 9 4.5 11.5t17.5 2.5q14 0 51 -1t70 -1t70 1t51 1q13 0 17.5 -2.5t4.5 -11.5q0 -8 -13 -10.5t-28.5 -3.5t-28.5 -12t-13 -34v-534q0 -23 13 -34t28.5 -12t28.5 -3.5t13 -10.5q0 -9 -4.5 -11.5t-17.5 -2.5
q-14 0 -51 1t-70 1t-70 -1t-51 -1q-13 0 -17.5 2.5t-4.5 11.5q0 8 13 10.5t28.5 3.5t28.5 12t13 34zM31 787q0 22 15.5 37.5t37.5 15.5t37.5 -15.5t15.5 -37.5t-15.5 -37.5t-37.5 -15.5t-37.5 15.5t-15.5 37.5zM233 787q0 22 15.5 37.5t37.5 15.5t37.5 -15.5t15.5 -37.5
t-15.5 -37.5t-37.5 -15.5t-37.5 15.5t-15.5 37.5z" />
    <glyph glyph-name="Eth" unicode="&#xd0;" horiz-adv-x="741" 
d="M118 370v236q0 23 -13 34t-28.5 12t-28.5 3.5t-13 10.5q0 9 4.5 11.5t17.5 2.5q14 0 51 -1t70 -1q19 0 66 1t76 1q176 0 279 -94.5t103 -249.5q0 -147 -89 -242.5t-251 -95.5q-34 0 -95 1t-89 1q-33 0 -70 -1t-51 -1q-13 0 -17.5 2.5t-4.5 11.5q0 8 13 10.5t28.5 3.5
t28.5 12t13 34v262h-93v36h93zM238 334v-222q0 -47 27 -68.5t82 -21.5q37 0 67 7t60 27.5t50.5 54t33 89t12.5 129.5q0 148 -59 237.5t-170 89.5h-103v-286h173v-36h-173z" />
    <glyph glyph-name="Ntilde" unicode="&#xd1;" horiz-adv-x="704" 
d="M567 172v341q0 59 -21.5 93.5t-53.5 44.5q-7 2 -14 3.5t-11 2.5t-7 2t-4.5 3.5t-1.5 6.5q0 11 22 11q17 0 50 -1t55 -1t55 1t50 1q22 0 22 -11q0 -4 -1.5 -6.5t-4.5 -3.5t-7 -2t-11 -2.5t-14 -3.5q-32 -10 -53.5 -44.5t-21.5 -93.5v-515q0 -14 -12 -14q-13 0 -20 10
l-424 564h-2v-393q0 -59 21.5 -93.5t53.5 -44.5q7 -2 14 -3.5t11 -2.5t7 -2t4.5 -3.5t1.5 -6.5q0 -11 -22 -11q-17 0 -50 1t-55 1t-55 -1t-50 -1q-22 0 -22 11q0 4 1.5 6.5t4.5 3.5t7 2t11 2.5t14 3.5q32 10 53.5 44.5t21.5 93.5v428q-25 36 -53.5 50t-43.5 15.5t-15 7.5
q0 14 22 14q11 0 35 -1t41 -1h93l377 -506h2zM219 742h-32q7 40 34.5 75t74.5 35q32 0 78 -24t68 -24q17 0 29.5 10t23.5 40h34q-19 -57 -42.5 -83.5t-67.5 -26.5q-34 0 -80 23q-44 23 -68 23q-17 0 -28.5 -9.5t-15.5 -17.5t-8 -21z" />
    <glyph glyph-name="Ograve" unicode="&#xd2;" horiz-adv-x="796" 
d="M625 339q0 163 -62 247t-165 84t-165 -84t-62 -247t62 -247t165 -84t165 84t62 247zM398 694q87 0 168 -41t136 -124t55 -190t-55 -190t-136 -124t-168 -41t-168 41t-136 124t-55 190t55 190t136 124t168 41zM474 718h-47l-142 90q-39 25 -39 50q0 16 11 27t25 11
q10 0 20.5 -5.5t17 -12l21.5 -21.5z" />
    <glyph glyph-name="Oacute" unicode="&#xd3;" horiz-adv-x="796" 
d="M625 339q0 163 -62 247t-165 84t-165 -84t-62 -247t62 -247t165 -84t165 84t62 247zM398 694q87 0 168 -41t136 -124t55 -190t-55 -190t-136 -124t-168 -41t-168 41t-136 124t-55 190t55 190t136 124t168 41zM369 718h-47l133 139l21.5 21.5t17 12t20.5 5.5q14 0 25 -11
t11 -27q0 -25 -39 -50z" />
    <glyph glyph-name="Ocircumflex" unicode="&#xd4;" horiz-adv-x="796" 
d="M625 339q0 163 -62 247t-165 84t-165 -84t-62 -247t62 -247t165 -84t165 84t62 247zM398 694q87 0 168 -41t136 -124t55 -190t-55 -190t-136 -124t-168 -41t-168 41t-136 124t-55 190t55 190t136 124t168 41zM364 886h68l124 -168h-43l-115 102l-115 -102h-43z" />
    <glyph glyph-name="Otilde" unicode="&#xd5;" horiz-adv-x="796" 
d="M625 339q0 163 -62 247t-165 84t-165 -84t-62 -247t62 -247t165 -84t165 84t62 247zM398 694q87 0 168 -41t136 -124t55 -190t-55 -190t-136 -124t-168 -41t-168 41t-136 124t-55 190t55 190t136 124t168 41zM259 742h-32q7 40 34.5 75t74.5 35q32 0 78 -24t68 -24
q17 0 29.5 10t23.5 40h34q-19 -57 -42.5 -83.5t-67.5 -26.5q-34 0 -80 23q-44 23 -68 23q-17 0 -28.5 -9.5t-15.5 -17.5t-8 -21z" />
    <glyph glyph-name="Odieresis" unicode="&#xd6;" horiz-adv-x="796" 
d="M625 339q0 163 -62 247t-165 84t-165 -84t-62 -247t62 -247t165 -84t165 84t62 247zM398 694q87 0 168 -41t136 -124t55 -190t-55 -190t-136 -124t-168 -41t-168 41t-136 124t-55 190t55 190t136 124t168 41zM244 787q0 22 15.5 37.5t37.5 15.5t37.5 -15.5t15.5 -37.5
t-15.5 -37.5t-37.5 -15.5t-37.5 15.5t-15.5 37.5zM446 787q0 22 15.5 37.5t37.5 15.5t37.5 -15.5t15.5 -37.5t-15.5 -37.5t-37.5 -15.5t-37.5 15.5t-15.5 37.5z" />
    <glyph glyph-name="multiply" unicode="&#xd7;" horiz-adv-x="600" 
d="M242 227l-169 169l58 58l169 -169l168 169l59 -58l-169 -169l169 -169l-59 -58l-168 169l-169 -169l-58 58z" />
    <glyph glyph-name="Oslash" unicode="&#xd8;" horiz-adv-x="796" 
d="M554 597l-285 -544q52 -45 129 -45q103 0 165 84t62 247q0 172 -71 258zM152 -83l62 118q-79 46 -127 124t-48 180q0 107 55 190t136 124t168 41q76 0 146 -32l44 84h44l-53 -101q80 -46 129 -124.5t49 -181.5q0 -107 -55 -190t-136 -124t-168 -41q-78 0 -148 33
l-52 -100h-46zM240 84l285 542q-51 44 -127 44q-103 0 -165 -84t-62 -247q0 -170 69 -255z" />
    <glyph glyph-name="Ugrave" unicode="&#xd9;" horiz-adv-x="722" 
d="M107 183v423q0 23 -13 34t-28.5 12t-28.5 3.5t-13 10.5q0 9 4.5 11.5t17.5 2.5q14 0 51 -1t70 -1t70 1t51 1q13 0 17.5 -2.5t4.5 -11.5q0 -8 -13 -10.5t-28.5 -3.5t-28.5 -12t-13 -34v-424q0 -78 49.5 -123t132.5 -45q88 0 133.5 49.5t45.5 140.5v309q0 59 -21.5 93.5
t-53.5 44.5q-7 2 -14 3.5t-11 2.5t-7 2t-4.5 3.5t-1.5 6.5q0 11 22 11q17 0 50 -1t55 -1t55 1t50 1q22 0 22 -11q0 -4 -1.5 -6.5t-4.5 -3.5t-7 -2t-11 -2.5t-14 -3.5q-32 -10 -53.5 -44.5t-21.5 -93.5v-307q0 -106 -60.5 -164t-176.5 -58q-133 0 -202.5 55t-69.5 144z
M446 718h-47l-142 90q-39 25 -39 50q0 16 11 27t25 11q10 0 20.5 -5.5t17 -12l21.5 -21.5z" />
    <glyph glyph-name="Uacute" unicode="&#xda;" horiz-adv-x="722" 
d="M107 183v423q0 23 -13 34t-28.5 12t-28.5 3.5t-13 10.5q0 9 4.5 11.5t17.5 2.5q14 0 51 -1t70 -1t70 1t51 1q13 0 17.5 -2.5t4.5 -11.5q0 -8 -13 -10.5t-28.5 -3.5t-28.5 -12t-13 -34v-424q0 -78 49.5 -123t132.5 -45q88 0 133.5 49.5t45.5 140.5v309q0 59 -21.5 93.5
t-53.5 44.5q-7 2 -14 3.5t-11 2.5t-7 2t-4.5 3.5t-1.5 6.5q0 11 22 11q17 0 50 -1t55 -1t55 1t50 1q22 0 22 -11q0 -4 -1.5 -6.5t-4.5 -3.5t-7 -2t-11 -2.5t-14 -3.5q-32 -10 -53.5 -44.5t-21.5 -93.5v-307q0 -106 -60.5 -164t-176.5 -58q-133 0 -202.5 55t-69.5 144z
M341 718h-47l133 139l21.5 21.5t17 12t20.5 5.5q14 0 25 -11t11 -27q0 -25 -39 -50z" />
    <glyph glyph-name="Ucircumflex" unicode="&#xdb;" horiz-adv-x="722" 
d="M107 183v423q0 23 -13 34t-28.5 12t-28.5 3.5t-13 10.5q0 9 4.5 11.5t17.5 2.5q14 0 51 -1t70 -1t70 1t51 1q13 0 17.5 -2.5t4.5 -11.5q0 -8 -13 -10.5t-28.5 -3.5t-28.5 -12t-13 -34v-424q0 -78 49.5 -123t132.5 -45q88 0 133.5 49.5t45.5 140.5v309q0 59 -21.5 93.5
t-53.5 44.5q-7 2 -14 3.5t-11 2.5t-7 2t-4.5 3.5t-1.5 6.5q0 11 22 11q17 0 50 -1t55 -1t55 1t50 1q22 0 22 -11q0 -4 -1.5 -6.5t-4.5 -3.5t-7 -2t-11 -2.5t-14 -3.5q-32 -10 -53.5 -44.5t-21.5 -93.5v-307q0 -106 -60.5 -164t-176.5 -58q-133 0 -202.5 55t-69.5 144z
M336 886h68l124 -168h-43l-115 102l-115 -102h-43z" />
    <glyph glyph-name="Udieresis" unicode="&#xdc;" horiz-adv-x="722" 
d="M107 183v423q0 23 -13 34t-28.5 12t-28.5 3.5t-13 10.5q0 9 4.5 11.5t17.5 2.5q14 0 51 -1t70 -1t70 1t51 1q13 0 17.5 -2.5t4.5 -11.5q0 -8 -13 -10.5t-28.5 -3.5t-28.5 -12t-13 -34v-424q0 -78 49.5 -123t132.5 -45q88 0 133.5 49.5t45.5 140.5v309q0 59 -21.5 93.5
t-53.5 44.5q-7 2 -14 3.5t-11 2.5t-7 2t-4.5 3.5t-1.5 6.5q0 11 22 11q17 0 50 -1t55 -1t55 1t50 1q22 0 22 -11q0 -4 -1.5 -6.5t-4.5 -3.5t-7 -2t-11 -2.5t-14 -3.5q-32 -10 -53.5 -44.5t-21.5 -93.5v-307q0 -106 -60.5 -164t-176.5 -58q-133 0 -202.5 55t-69.5 144z
M216 787q0 22 15.5 37.5t37.5 15.5t37.5 -15.5t15.5 -37.5t-15.5 -37.5t-37.5 -15.5t-37.5 15.5t-15.5 37.5zM418 787q0 22 15.5 37.5t37.5 15.5t37.5 -15.5t15.5 -37.5t-15.5 -37.5t-37.5 -15.5t-37.5 15.5t-15.5 37.5z" />
    <glyph glyph-name="Yacute" unicode="&#xdd;" horiz-adv-x="630" 
d="M508 533l-133 -199v-262q0 -23 14 -34t31.5 -12t31.5 -3.5t14 -10.5q0 -14 -30 -14q-14 0 -51 1t-70 1t-70 -1t-51 -1q-26 0 -26 14q0 8 13.5 10.5t30 3.5t30 12t13.5 34v231l-163 292q-17 31 -41.5 45.5t-39 18t-14.5 10.5q0 11 15 11q23 0 68.5 -1t68.5 -1q19 0 56.5 1
t55.5 1q27 0 27 -14q0 -7 -16 -9.5t-32 -11t-16 -30.5q0 -25 16 -53l119 -216l75.5 111t41 74t18.5 67q0 33 -17.5 46t-35 15t-17.5 10q0 11 22 11q14 0 49 -1t50 -1q16 0 44.5 1t40.5 1q26 0 26 -12q0 -4 -4.5 -6.5t-13 -4.5t-21.5 -10t-28.5 -20t-37 -36.5t-43.5 -57.5z
M280 718h-47l133 139l21.5 21.5t17 12t20.5 5.5q14 0 25 -11t11 -27q0 -25 -39 -50z" />
    <glyph glyph-name="Thorn" unicode="&#xde;" horiz-adv-x="593" 
d="M238 156v-84q0 -23 15 -34t32.5 -12t32.5 -3.5t15 -10.5q0 -14 -26 -14q-19 0 -58 1t-71 1q-33 0 -70 -1t-51 -1q-13 0 -17.5 2.5t-4.5 11.5q0 8 13 10.5t28.5 3.5t28.5 12t13 34v534q0 23 -13 34t-28.5 12t-28.5 3.5t-13 10.5q0 9 4.5 11.5t17.5 2.5q14 0 51 -1t70 -1
t70 1t51 1q13 0 17.5 -2.5t4.5 -11.5q0 -8 -13 -10.5t-28.5 -3.5t-28.5 -12t-13 -34v-71q21 1 60 1q145 0 214.5 -54.5t69.5 -135.5q0 -98 -82.5 -144t-223.5 -46h-38zM238 512v-332h52q93 0 132.5 41.5t39.5 127.5q0 80 -40.5 121.5t-113.5 41.5h-70z" />
    <glyph glyph-name="germandbls" unicode="&#xdf;" 
d="M100 67v330h-82q28 18 51.5 61.5t41.5 91t40 92.5t58.5 74.5t85.5 29.5q58 0 101 -47t43 -106q0 -37 -17 -65t-37 -41.5t-37 -29.5t-17 -31q0 -17 14 -27t47.5 -24t54.5 -26q42 -25 71.5 -70.5t29.5 -103.5q0 -83 -52 -133t-126 -50q-49 0 -83 26t-34 67q0 25 14.5 43
t37.5 18q21 0 34.5 -14.5t13.5 -38.5q0 -13 -7.5 -29.5t-7.5 -27.5t9 -18.5t25 -7.5q31 0 43.5 30t12.5 113q0 60 -12.5 102.5t-30 63.5t-35.5 36t-30.5 32t-12.5 41q0 22 9.5 39t21.5 29t21.5 43.5t9.5 78.5q0 104 -83 104q-42 0 -66.5 -33t-24.5 -85q0 -17 7.5 -78.5
t7.5 -119.5v-406h-55q-15 0 -51 -1t-58 -1q-20 0 -20 10q0 8 11.5 11t25.5 3.5t25.5 11.5t11.5 33z" />
    <glyph glyph-name="agrave" unicode="&#xe0;" horiz-adv-x="500" 
d="M305 90v163q-82 -29 -123.5 -60t-41.5 -80q0 -32 13 -56.5t42 -24.5q23 0 49.5 13.5t43 26.5t17.5 18zM305 273v129q0 36 -38 36q-78 0 -96 -91q-8 -44 -24.5 -61.5t-51.5 -17.5q-23 0 -36.5 14t-13.5 35q0 51 77.5 98t170.5 47q122 0 122 -118v-286q0 -25 19 -25
q20 0 36.5 17.5t19.5 17.5q10 0 10 -8q0 -17 -34.5 -42.5t-72.5 -25.5q-43 0 -60 18t-25 54q-31 -22 -52.5 -35t-55 -25t-64.5 -12q-48 0 -77 23.5t-29 65.5q0 63 66 105.5t209 86.5zM326 510h-47l-142 90q-39 25 -39 50q0 16 11 27t25 11q10 0 20.5 -5.5t17 -12l21.5 -21.5
z" />
    <glyph glyph-name="aacute" unicode="&#xe1;" horiz-adv-x="500" 
d="M305 90v163q-82 -29 -123.5 -60t-41.5 -80q0 -32 13 -56.5t42 -24.5q23 0 49.5 13.5t43 26.5t17.5 18zM305 273v129q0 36 -38 36q-78 0 -96 -91q-8 -44 -24.5 -61.5t-51.5 -17.5q-23 0 -36.5 14t-13.5 35q0 51 77.5 98t170.5 47q122 0 122 -118v-286q0 -25 19 -25
q20 0 36.5 17.5t19.5 17.5q10 0 10 -8q0 -17 -34.5 -42.5t-72.5 -25.5q-43 0 -60 18t-25 54q-31 -22 -52.5 -35t-55 -25t-64.5 -12q-48 0 -77 23.5t-29 65.5q0 63 66 105.5t209 86.5zM221 510h-47l133 139l21.5 21.5t17 12t20.5 5.5q14 0 25 -11t11 -27q0 -25 -39 -50z" />
    <glyph glyph-name="acircumflex" unicode="&#xe2;" horiz-adv-x="500" 
d="M305 90v163q-82 -29 -123.5 -60t-41.5 -80q0 -32 13 -56.5t42 -24.5q23 0 49.5 13.5t43 26.5t17.5 18zM305 273v129q0 36 -38 36q-78 0 -96 -91q-8 -44 -24.5 -61.5t-51.5 -17.5q-23 0 -36.5 14t-13.5 35q0 51 77.5 98t170.5 47q122 0 122 -118v-286q0 -25 19 -25
q20 0 36.5 17.5t19.5 17.5q10 0 10 -8q0 -17 -34.5 -42.5t-72.5 -25.5q-43 0 -60 18t-25 54q-31 -22 -52.5 -35t-55 -25t-64.5 -12q-48 0 -77 23.5t-29 65.5q0 63 66 105.5t209 86.5zM216 678h68l124 -168h-43l-115 102l-115 -102h-43z" />
    <glyph glyph-name="atilde" unicode="&#xe3;" horiz-adv-x="500" 
d="M305 90v163q-82 -29 -123.5 -60t-41.5 -80q0 -32 13 -56.5t42 -24.5q23 0 49.5 13.5t43 26.5t17.5 18zM305 273v129q0 36 -38 36q-78 0 -96 -91q-8 -44 -24.5 -61.5t-51.5 -17.5q-23 0 -36.5 14t-13.5 35q0 51 77.5 98t170.5 47q122 0 122 -118v-286q0 -25 19 -25
q20 0 36.5 17.5t19.5 17.5q10 0 10 -8q0 -17 -34.5 -42.5t-72.5 -25.5q-43 0 -60 18t-25 54q-31 -22 -52.5 -35t-55 -25t-64.5 -12q-48 0 -77 23.5t-29 65.5q0 63 66 105.5t209 86.5zM111 534h-32q7 40 34.5 75t74.5 35q32 0 78 -24t68 -24q17 0 29.5 10t23.5 40h34
q-19 -57 -42.5 -83.5t-67.5 -26.5q-34 0 -80 23q-44 23 -68 23q-17 0 -28.5 -9.5t-15.5 -17.5t-8 -21z" />
    <glyph glyph-name="adieresis" unicode="&#xe4;" horiz-adv-x="500" 
d="M305 90v163q-82 -29 -123.5 -60t-41.5 -80q0 -32 13 -56.5t42 -24.5q23 0 49.5 13.5t43 26.5t17.5 18zM305 273v129q0 36 -38 36q-78 0 -96 -91q-8 -44 -24.5 -61.5t-51.5 -17.5q-23 0 -36.5 14t-13.5 35q0 51 77.5 98t170.5 47q122 0 122 -118v-286q0 -25 19 -25
q20 0 36.5 17.5t19.5 17.5q10 0 10 -8q0 -17 -34.5 -42.5t-72.5 -25.5q-43 0 -60 18t-25 54q-31 -22 -52.5 -35t-55 -25t-64.5 -12q-48 0 -77 23.5t-29 65.5q0 63 66 105.5t209 86.5zM96 579q0 22 15.5 37.5t37.5 15.5t37.5 -15.5t15.5 -37.5t-15.5 -37.5t-37.5 -15.5
t-37.5 15.5t-15.5 37.5zM298 579q0 22 15.5 37.5t37.5 15.5t37.5 -15.5t15.5 -37.5t-15.5 -37.5t-37.5 -15.5t-37.5 15.5t-15.5 37.5z" />
    <glyph glyph-name="aring" unicode="&#xe5;" horiz-adv-x="500" 
d="M305 90v163q-82 -29 -123.5 -60t-41.5 -80q0 -32 13 -56.5t42 -24.5q23 0 49.5 13.5t43 26.5t17.5 18zM305 273v129q0 36 -38 36q-78 0 -96 -91q-8 -44 -24.5 -61.5t-51.5 -17.5q-23 0 -36.5 14t-13.5 35q0 51 77.5 98t170.5 47q122 0 122 -118v-286q0 -25 19 -25
q20 0 36.5 17.5t19.5 17.5q10 0 10 -8q0 -17 -34.5 -42.5t-72.5 -25.5q-43 0 -60 18t-25 54q-31 -22 -52.5 -35t-55 -25t-64.5 -12q-48 0 -77 23.5t-29 65.5q0 63 66 105.5t209 86.5zM149 612q0 41 30 70.5t71 29.5t71 -29.5t30 -70.5t-30 -71.5t-71 -30.5t-71 30.5
t-30 71.5zM187 611q0 -27 18 -45t45 -18t45 18t18 45t-18 45t-45 18t-45 -18t-18 -45z" />
    <glyph glyph-name="ae" unicode="&#xe6;" horiz-adv-x="759" 
d="M289 90v163q-82 -29 -123.5 -60t-41.5 -80q0 -32 13 -56.5t42 -24.5q23 0 49.5 13.5t43 26.5t17.5 18zM726 256h-327v-11q0 -70 46.5 -124.5t115.5 -54.5q79 0 120 42q10 11 17 22t9.5 17.5t6 10.5t7.5 4q7 0 7 -9q0 -11 -6.5 -29t-23 -41.5t-39.5 -43.5t-60.5 -33.5
t-81.5 -13.5q-61 0 -111 26.5t-80 74.5q-69 -57 -116 -79t-90 -22q-48 0 -77 23.5t-29 65.5q0 63 66 105.5t209 86.5v129q0 36 -38 36q-78 0 -96 -91q-8 -44 -24.5 -61.5t-51.5 -17.5q-23 0 -36.5 14t-13.5 35q0 51 77.5 98t170.5 47q76 0 106 -47q60 47 140 47
q89 0 145.5 -54.5t57.5 -151.5zM400 280h216v22q0 136 -97 136q-39 0 -67 -27.5t-40 -62t-12 -68.5z" />
    <glyph glyph-name="ccedilla" unicode="&#xe7;" horiz-adv-x="500" 
d="M138 265q0 -80 44 -139.5t122 -59.5q42 0 72.5 15t42.5 33t20.5 33t12.5 15q10 0 10 -9q0 -14 -10 -37.5t-30 -51.5t-59 -49t-88 -23l-25 -56q18 4 33 4q38 0 59.5 -20t21.5 -51q0 -41 -31.5 -63t-91.5 -22q-19 0 -35 2t-23 4.5l-16.5 6t-12.5 4.5l14 33q28 -12 56 -12
q62 0 62 40t-46 40q-18 0 -28 -6l-14 6l40 92q-55 5 -96.5 29.5t-62.5 59.5t-31 67.5t-10 61.5q0 110 66.5 180t161.5 70q82 0 133.5 -44.5t51.5 -101.5q0 -66 -57 -66q-30 0 -44.5 18t-14.5 43q0 7 1 25.5t1 33.5q0 68 -71 68q-128 0 -128 -173z" />
    <glyph glyph-name="egrave" unicode="&#xe8;" horiz-adv-x="500" 
d="M468 256h-328v-11q0 -70 46.5 -124.5t116.5 -54.5q79 0 120 42q10 11 17 22t9.5 17.5t6 10.5t7.5 4q7 0 7 -9q0 -11 -6.5 -29t-23 -41.5t-39.5 -43.5t-60.5 -33.5t-81.5 -13.5q-99 0 -164 65.5t-65 171.5q0 91 66.5 162t167.5 71q85 0 144.5 -53.5t59.5 -152.5zM140 280
h218v22q0 136 -98 136q-56 0 -87.5 -51t-32.5 -107zM338 510h-47l-142 90q-39 25 -39 50q0 16 11 27t25 11q10 0 20.5 -5.5t17 -12l21.5 -21.5z" />
    <glyph glyph-name="eacute" unicode="&#xe9;" horiz-adv-x="500" 
d="M468 256h-328v-11q0 -70 46.5 -124.5t116.5 -54.5q79 0 120 42q10 11 17 22t9.5 17.5t6 10.5t7.5 4q7 0 7 -9q0 -11 -6.5 -29t-23 -41.5t-39.5 -43.5t-60.5 -33.5t-81.5 -13.5q-99 0 -164 65.5t-65 171.5q0 91 66.5 162t167.5 71q85 0 144.5 -53.5t59.5 -152.5zM140 280
h218v22q0 136 -98 136q-56 0 -87.5 -51t-32.5 -107zM233 510h-47l133 139l21.5 21.5t17 12t20.5 5.5q14 0 25 -11t11 -27q0 -25 -39 -50z" />
    <glyph glyph-name="ecircumflex" unicode="&#xea;" horiz-adv-x="500" 
d="M468 256h-328v-11q0 -70 46.5 -124.5t116.5 -54.5q79 0 120 42q10 11 17 22t9.5 17.5t6 10.5t7.5 4q7 0 7 -9q0 -11 -6.5 -29t-23 -41.5t-39.5 -43.5t-60.5 -33.5t-81.5 -13.5q-99 0 -164 65.5t-65 171.5q0 91 66.5 162t167.5 71q85 0 144.5 -53.5t59.5 -152.5zM140 280
h218v22q0 136 -98 136q-56 0 -87.5 -51t-32.5 -107zM228 678h68l124 -168h-43l-115 102l-115 -102h-43z" />
    <glyph glyph-name="edieresis" unicode="&#xeb;" horiz-adv-x="500" 
d="M468 256h-328v-11q0 -70 46.5 -124.5t116.5 -54.5q79 0 120 42q10 11 17 22t9.5 17.5t6 10.5t7.5 4q7 0 7 -9q0 -11 -6.5 -29t-23 -41.5t-39.5 -43.5t-60.5 -33.5t-81.5 -13.5q-99 0 -164 65.5t-65 171.5q0 91 66.5 162t167.5 71q85 0 144.5 -53.5t59.5 -152.5zM140 280
h218v22q0 136 -98 136q-56 0 -87.5 -51t-32.5 -107zM108 579q0 22 15.5 37.5t37.5 15.5t37.5 -15.5t15.5 -37.5t-15.5 -37.5t-37.5 -15.5t-37.5 15.5t-15.5 37.5zM310 579q0 22 15.5 37.5t37.5 15.5t37.5 -15.5t15.5 -37.5t-15.5 -37.5t-37.5 -15.5t-37.5 15.5t-15.5 37.5z
" />
    <glyph glyph-name="igrave" unicode="&#xec;" horiz-adv-x="296" 
d="M203 462v-395q0 -22 11.5 -33t25.5 -11.5t25.5 -3.5t11.5 -11q0 -10 -20 -10q-22 0 -58 1t-51 1t-51 -1t-58 -1q-20 0 -20 10q0 8 11.5 11t25.5 3.5t25.5 11.5t11.5 33v248q0 25 -12.5 40t-27.5 19t-27.5 8t-12.5 10q0 8 15 12.5l65.5 19t109.5 38.5zM224 510h-47
l-142 90q-39 25 -39 50q0 16 11 27t25 11q10 0 20.5 -5.5t17 -12l21.5 -21.5z" />
    <glyph glyph-name="iacute" unicode="&#xed;" horiz-adv-x="296" 
d="M203 462v-395q0 -22 11.5 -33t25.5 -11.5t25.5 -3.5t11.5 -11q0 -10 -20 -10q-22 0 -58 1t-51 1t-51 -1t-58 -1q-20 0 -20 10q0 8 11.5 11t25.5 3.5t25.5 11.5t11.5 33v248q0 25 -12.5 40t-27.5 19t-27.5 8t-12.5 10q0 8 15 12.5l65.5 19t109.5 38.5zM119 510h-47
l133 139l21.5 21.5t17 12t20.5 5.5q14 0 25 -11t11 -27q0 -25 -39 -50z" />
    <glyph glyph-name="icircumflex" unicode="&#xee;" horiz-adv-x="296" 
d="M203 462v-395q0 -22 11.5 -33t25.5 -11.5t25.5 -3.5t11.5 -11q0 -10 -20 -10q-22 0 -58 1t-51 1t-51 -1t-58 -1q-20 0 -20 10q0 8 11.5 11t25.5 3.5t25.5 11.5t11.5 33v248q0 25 -12.5 40t-27.5 19t-27.5 8t-12.5 10q0 8 15 12.5l65.5 19t109.5 38.5zM114 678h68
l124 -168h-43l-115 102l-115 -102h-43z" />
    <glyph glyph-name="idieresis" unicode="&#xef;" horiz-adv-x="296" 
d="M203 462v-395q0 -22 11.5 -33t25.5 -11.5t25.5 -3.5t11.5 -11q0 -10 -20 -10q-22 0 -58 1t-51 1t-51 -1t-58 -1q-20 0 -20 10q0 8 11.5 11t25.5 3.5t25.5 11.5t11.5 33v248q0 25 -12.5 40t-27.5 19t-27.5 8t-12.5 10q0 8 15 12.5l65.5 19t109.5 38.5zM-6 579
q0 22 15.5 37.5t37.5 15.5t37.5 -15.5t15.5 -37.5t-15.5 -37.5t-37.5 -15.5t-37.5 15.5t-15.5 37.5zM196 579q0 22 15.5 37.5t37.5 15.5t37.5 -15.5t15.5 -37.5t-15.5 -37.5t-37.5 -15.5t-37.5 15.5t-15.5 37.5z" />
    <glyph glyph-name="eth" unicode="&#xf0;" horiz-adv-x="556" 
d="M278 16q124 0 124 211t-124 211t-124 -211t124 -211zM462 676l-122 -62q182 -152 182 -360q0 -121 -69.5 -191.5t-174.5 -70.5q-101 0 -172.5 68.5t-71.5 166.5t71.5 166.5t172.5 68.5q34 0 74 -10q-28 77 -71 130l-155 -76v34l134 67q-26 31 -66.5 59.5t-77.5 42.5
q-16 6 -16 12q0 9 9 9q31 0 97.5 -33.5t104.5 -60.5l151 74v-34z" />
    <glyph glyph-name="ntilde" unicode="&#xf1;" horiz-adv-x="593" 
d="M203 354v-287q0 -22 11.5 -33t25.5 -11.5t25.5 -3.5t11.5 -11q0 -10 -20 -10q-22 0 -58 1t-51 1t-51 -1t-58 -1q-20 0 -20 10q0 8 11.5 11t25.5 3.5t25.5 11.5t11.5 33v242q0 28 -12.5 44.5t-27.5 20t-27.5 7.5t-12.5 11q0 9 19.5 14l69.5 18.5t101 37.5v-80
q58 43 97.5 61.5t85.5 18.5q57 0 85.5 -29.5t28.5 -82.5v-283q0 -22 11.5 -33t25.5 -11.5t25.5 -3.5t11.5 -11q0 -10 -20 -10q-22 0 -58 1t-51 1t-51 -1t-58 -1q-20 0 -20 10q0 8 11.5 11t25.5 3.5t25.5 11.5t11.5 33v284q0 31 -19 48t-44 17q-54 0 -124 -62zM158 534h-32
q7 40 34.5 75t74.5 35q32 0 78 -24t68 -24q17 0 29.5 10t23.5 40h34q-19 -57 -42.5 -83.5t-67.5 -26.5q-34 0 -80 23q-44 23 -68 23q-17 0 -28.5 -9.5t-15.5 -17.5t-8 -21z" />
    <glyph glyph-name="ograve" unicode="&#xf2;" horiz-adv-x="556" 
d="M278 16q124 0 124 211t-124 211t-124 -211t124 -211zM278 462q101 0 172.5 -68.5t71.5 -166.5t-71.5 -166.5t-172.5 -68.5t-172.5 68.5t-71.5 166.5t71.5 166.5t172.5 68.5zM354 510h-47l-142 90q-39 25 -39 50q0 16 11 27t25 11q10 0 20.5 -5.5t17 -12l21.5 -21.5z" />
    <glyph glyph-name="oacute" unicode="&#xf3;" horiz-adv-x="556" 
d="M278 16q124 0 124 211t-124 211t-124 -211t124 -211zM278 462q101 0 172.5 -68.5t71.5 -166.5t-71.5 -166.5t-172.5 -68.5t-172.5 68.5t-71.5 166.5t71.5 166.5t172.5 68.5zM249 510h-47l133 139l21.5 21.5t17 12t20.5 5.5q14 0 25 -11t11 -27q0 -25 -39 -50z" />
    <glyph glyph-name="ocircumflex" unicode="&#xf4;" horiz-adv-x="556" 
d="M278 16q124 0 124 211t-124 211t-124 -211t124 -211zM278 462q101 0 172.5 -68.5t71.5 -166.5t-71.5 -166.5t-172.5 -68.5t-172.5 68.5t-71.5 166.5t71.5 166.5t172.5 68.5zM244 678h68l124 -168h-43l-115 102l-115 -102h-43z" />
    <glyph glyph-name="otilde" unicode="&#xf5;" horiz-adv-x="556" 
d="M278 16q124 0 124 211t-124 211t-124 -211t124 -211zM278 462q101 0 172.5 -68.5t71.5 -166.5t-71.5 -166.5t-172.5 -68.5t-172.5 68.5t-71.5 166.5t71.5 166.5t172.5 68.5zM139 534h-32q7 40 34.5 75t74.5 35q32 0 78 -24t68 -24q17 0 29.5 10t23.5 40h34
q-19 -57 -42.5 -83.5t-67.5 -26.5q-34 0 -80 23q-44 23 -68 23q-17 0 -28.5 -9.5t-15.5 -17.5t-8 -21z" />
    <glyph glyph-name="odieresis" unicode="&#xf6;" horiz-adv-x="556" 
d="M278 16q124 0 124 211t-124 211t-124 -211t124 -211zM278 462q101 0 172.5 -68.5t71.5 -166.5t-71.5 -166.5t-172.5 -68.5t-172.5 68.5t-71.5 166.5t71.5 166.5t172.5 68.5zM124 579q0 22 15.5 37.5t37.5 15.5t37.5 -15.5t15.5 -37.5t-15.5 -37.5t-37.5 -15.5t-37.5 15.5
t-15.5 37.5zM326 579q0 22 15.5 37.5t37.5 15.5t37.5 -15.5t15.5 -37.5t-15.5 -37.5t-37.5 -15.5t-37.5 15.5t-15.5 37.5z" />
    <glyph glyph-name="divide" unicode="&#xf7;" horiz-adv-x="600" 
d="M527 186h-454v82h454v-82zM300 106q27 0 46 -19t19 -46t-19 -46t-46 -19t-46 19t-19 46t19 46t46 19zM300 478q27 0 46 -19t19 -46t-19 -46t-46 -19t-46 19t-19 46t19 46t46 19z" />
    <glyph glyph-name="oslash" unicode="&#xf8;" horiz-adv-x="556" 
d="M376 375l-175 -327q28 -32 77 -32q124 0 124 211q0 101 -26 148zM180 79l174 328q-30 31 -76 31q-124 0 -124 -211q0 -98 26 -148zM373 443l39 73h39l-47 -88q54 -31 86 -84.5t32 -116.5q0 -98 -71.5 -166.5t-172.5 -68.5q-53 0 -96 20l-43 -80h-38l51 95
q-54 30 -86 83.5t-32 116.5q0 98 71.5 166.5t172.5 68.5q48 0 95 -19z" />
    <glyph glyph-name="ugrave" unicode="&#xf9;" 
d="M378 -8v84q-89 -84 -183 -84q-45 0 -76.5 23.5t-31.5 72.5v233q0 26 -12.5 41.5t-27.5 19t-27.5 8.5t-12.5 14q0 6 20 8t69 13.5t101 36.5v-362q0 -31 16.5 -46.5t41.5 -15.5q37 0 73.5 20.5t48.5 42.5v220q0 26 -12.5 41.5t-27.5 19t-27.5 8.5t-12.5 14q0 6 20 8
t69 13.5t101 36.5v-337q0 -35 18.5 -50t37 -18t18.5 -9t-18.5 -9t-66 -14.5t-98.5 -32.5zM363 510h-47l-142 90q-39 25 -39 50q0 16 11 27t25 11q10 0 20.5 -5.5t17 -12l21.5 -21.5z" />
    <glyph glyph-name="uacute" unicode="&#xfa;" 
d="M378 -8v84q-89 -84 -183 -84q-45 0 -76.5 23.5t-31.5 72.5v233q0 26 -12.5 41.5t-27.5 19t-27.5 8.5t-12.5 14q0 6 20 8t69 13.5t101 36.5v-362q0 -31 16.5 -46.5t41.5 -15.5q37 0 73.5 20.5t48.5 42.5v220q0 26 -12.5 41.5t-27.5 19t-27.5 8.5t-12.5 14q0 6 20 8
t69 13.5t101 36.5v-337q0 -35 18.5 -50t37 -18t18.5 -9t-18.5 -9t-66 -14.5t-98.5 -32.5zM258 510h-47l133 139l21.5 21.5t17 12t20.5 5.5q14 0 25 -11t11 -27q0 -25 -39 -50z" />
    <glyph glyph-name="ucircumflex" unicode="&#xfb;" 
d="M378 -8v84q-89 -84 -183 -84q-45 0 -76.5 23.5t-31.5 72.5v233q0 26 -12.5 41.5t-27.5 19t-27.5 8.5t-12.5 14q0 6 20 8t69 13.5t101 36.5v-362q0 -31 16.5 -46.5t41.5 -15.5q37 0 73.5 20.5t48.5 42.5v220q0 26 -12.5 41.5t-27.5 19t-27.5 8.5t-12.5 14q0 6 20 8
t69 13.5t101 36.5v-337q0 -35 18.5 -50t37 -18t18.5 -9t-18.5 -9t-66 -14.5t-98.5 -32.5zM253 678h68l124 -168h-43l-115 102l-115 -102h-43z" />
    <glyph glyph-name="udieresis" unicode="&#xfc;" 
d="M378 -8v84q-89 -84 -183 -84q-45 0 -76.5 23.5t-31.5 72.5v233q0 26 -12.5 41.5t-27.5 19t-27.5 8.5t-12.5 14q0 6 20 8t69 13.5t101 36.5v-362q0 -31 16.5 -46.5t41.5 -15.5q37 0 73.5 20.5t48.5 42.5v220q0 26 -12.5 41.5t-27.5 19t-27.5 8.5t-12.5 14q0 6 20 8
t69 13.5t101 36.5v-337q0 -35 18.5 -50t37 -18t18.5 -9t-18.5 -9t-66 -14.5t-98.5 -32.5zM133 579q0 22 15.5 37.5t37.5 15.5t37.5 -15.5t15.5 -37.5t-15.5 -37.5t-37.5 -15.5t-37.5 15.5t-15.5 37.5zM335 579q0 22 15.5 37.5t37.5 15.5t37.5 -15.5t15.5 -37.5t-15.5 -37.5
t-37.5 -15.5t-37.5 15.5t-15.5 37.5z" />
    <glyph glyph-name="yacute" unicode="&#xfd;" horiz-adv-x="519" 
d="M255 -15l-176 391q-11 25 -25 38.5t-23.5 16t-16.5 5.5t-7 10q0 10 20 10q25 0 56 -1t42 -1q12 0 40 1t45 1q29 0 29 -10q0 -9 -23.5 -15.5t-23.5 -25.5q0 -7 13 -37l106 -241q33 78 45.5 110t23 68t10.5 60q0 29 -12 45t-27 18t-27 5.5t-12 11.5q0 11 22 11t49 -1t36 -1
q8 0 36 1t52 1q19 0 19 -11q0 -8 -10 -12t-24 -8t-34 -26.5t-36 -61.5l-179 -428q-29 -70 -52.5 -95.5t-55.5 -25.5q-29 0 -49.5 19.5t-20.5 53.5q0 26 15 43.5t37 17.5t34.5 -13.5t19.5 -27t17 -13.5q15 0 26 24zM231 510h-47l133 139l21.5 21.5t17 12t20.5 5.5
q14 0 25 -11t11 -27q0 -25 -39 -50z" />
    <glyph glyph-name="thorn" unicode="&#xfe;" horiz-adv-x="556" 
d="M76 -125v702q0 28 -12.5 44.5t-27.5 20t-27.5 7.5t-12.5 11q0 9 19.5 14l69.5 18.5t101 37.5v-340q50 39 86.5 55.5t79.5 16.5q74 0 122 -53.5t48 -152.5q0 -110 -70.5 -187t-184.5 -77q-24 0 -81 10v-127q0 -22 11.5 -33t25.5 -11.5t25.5 -3.5t11.5 -11q0 -10 -20 -10
q-22 0 -58 1t-51 1t-51 -1t-58 -1q-20 0 -20 10q0 8 11.5 11t25.5 3.5t25.5 11.5t11.5 33zM186 362v-221q0 -62 22.5 -93.5t61.5 -31.5q71 0 106.5 62t35.5 153q0 88 -37 133.5t-93 45.5q-44 0 -96 -48z" />
    <glyph glyph-name="ydieresis" unicode="&#xff;" horiz-adv-x="519" 
d="M255 -15l-176 391q-11 25 -25 38.5t-23.5 16t-16.5 5.5t-7 10q0 10 20 10q25 0 56 -1t42 -1q12 0 40 1t45 1q29 0 29 -10q0 -9 -23.5 -15.5t-23.5 -25.5q0 -7 13 -37l106 -241q33 78 45.5 110t23 68t10.5 60q0 29 -12 45t-27 18t-27 5.5t-12 11.5q0 11 22 11t49 -1t36 -1
q8 0 36 1t52 1q19 0 19 -11q0 -8 -10 -12t-24 -8t-34 -26.5t-36 -61.5l-179 -428q-29 -70 -52.5 -95.5t-55.5 -25.5q-29 0 -49.5 19.5t-20.5 53.5q0 26 15 43.5t37 17.5t34.5 -13.5t19.5 -27t17 -13.5q15 0 26 24zM106 579q0 22 15.5 37.5t37.5 15.5t37.5 -15.5t15.5 -37.5
t-15.5 -37.5t-37.5 -15.5t-37.5 15.5t-15.5 37.5zM308 579q0 22 15.5 37.5t37.5 15.5t37.5 -15.5t15.5 -37.5t-15.5 -37.5t-37.5 -15.5t-37.5 15.5t-15.5 37.5z" />
    <glyph glyph-name="dotlessi" unicode="&#x131;" horiz-adv-x="296" 
d="M203 462v-395q0 -22 11.5 -33t25.5 -11.5t25.5 -3.5t11.5 -11q0 -10 -20 -10q-22 0 -58 1t-51 1t-51 -1t-58 -1q-20 0 -20 10q0 8 11.5 11t25.5 3.5t25.5 11.5t11.5 33v248q0 25 -12.5 40t-27.5 19t-27.5 8t-12.5 10q0 8 15 12.5l65.5 19t109.5 38.5z" />
    <glyph glyph-name="Lslash" unicode="&#x141;" horiz-adv-x="630" 
d="M238 388l206 83v-40l-206 -82v-256q0 -41 18 -56t58 -15q56 0 104 20t80.5 53.5t54 70.5t33.5 77q7 20 15 20q9 0 9 -10q0 -15 -3 -29l-42 -226q-21 0 -139.5 1t-247.5 1q-33 0 -70 -1t-51 -1q-13 0 -17.5 2.5t-4.5 11.5q0 8 13 10.5t28.5 3.5t28.5 12t13 34v229
l-114 -45v38l114 46v266q0 23 -13 34t-28.5 12t-28.5 3.5t-13 10.5q0 9 4.5 11.5t17.5 2.5q14 0 51 -1t70 -1t70 1t51 1q13 0 17.5 -2.5t4.5 -11.5q0 -8 -13 -10.5t-28.5 -3.5t-28.5 -12t-13 -34v-218z" />
    <glyph glyph-name="lslash" unicode="&#x142;" horiz-adv-x="296" 
d="M307 473l-104 -53v-353q0 -22 11.5 -33t25.5 -11.5t25.5 -3.5t11.5 -11q0 -10 -20 -10q-22 0 -58 1t-51 1t-51 -1t-58 -1q-20 0 -20 10q0 8 11.5 11t25.5 3.5t25.5 11.5t11.5 33v296l-104 -54v32l104 54v182q0 28 -12.5 44.5t-27.5 20t-27.5 7.5t-12.5 11q0 9 19.5 14
l69.5 18.5t101 37.5v-278l104 53v-32z" />
    <glyph glyph-name="OE" unicode="&#x152;" horiz-adv-x="1167" 
d="M625 339q0 164 -63.5 247.5t-171.5 83.5q-97 0 -158 -84t-61 -247t61 -247t158 -84q108 0 171.5 83.5t63.5 247.5zM618 614v64q287 0 427 2l48 -187q1 -5 2.5 -11t2.5 -9.5t1 -5.5q0 -10 -8 -10q-5 0 -8.5 7.5l-16 33t-33.5 54.5q-43 61 -105 82.5t-160 21.5h-30v-294h22
q151 0 151 135q0 19 12 19t12 -19v-299q0 -18 -12 -18t-12 18q0 140 -151 140h-22v-260q0 -29 20 -42.5t64 -13.5q66 0 119 20t87 54t54.5 70t32.5 77q7 20 15 20q9 0 9 -10q0 -15 -3 -29l-42 -226q-246 2 -476 2v64q-105 -80 -228 -80q-61 0 -123 24.5t-113 68.5t-83 112.5
t-32 149.5t32 149.5t83 112.5t113 68.5t123 24.5q123 0 228 -80z" />
    <glyph glyph-name="oe" unicode="&#x153;" horiz-adv-x="889" 
d="M150 227q0 -113 34 -162t100 -49t100.5 49t34.5 162t-34.5 162t-100.5 49t-100 -49t-34 -162zM856 256h-327v-11q0 -70 46.5 -124.5t115.5 -54.5q79 0 120 42q10 11 17 22t9.5 17.5t6 10.5t7.5 4q7 0 7 -9q0 -11 -6.5 -29t-23 -41.5t-39.5 -43.5t-60.5 -33.5t-81.5 -13.5
q-115 0 -180 85q-74 -85 -193 -85q-101 0 -172.5 68.5t-71.5 166.5t71.5 166.5t172.5 68.5q123 0 196 -89q72 89 183 89q89 0 145.5 -54.5t57.5 -151.5zM530 280h216v22q0 136 -97 136q-39 0 -67 -27.5t-40 -62t-12 -68.5z" />
    <glyph glyph-name="Scaron" unicode="&#x160;" horiz-adv-x="556" 
d="M60 0v275q0 12 10 12t14 -30q7 -50 20.5 -91.5t37 -78.5t60.5 -58t84 -21q71 0 108 36.5t37 91.5q0 41 -20.5 70.5t-53 47.5t-72.5 33t-79.5 31.5t-72 38t-53 58.5t-20.5 87q0 78 62.5 135t147.5 57q51 0 100 -20t62 -20q16 0 21.5 16t13.5 16q9 0 10 -15
q17 -183 17 -222q0 -14 -11 -14q-6 0 -13 24q-29 98 -76 154.5t-125 56.5q-56 0 -88.5 -30t-32.5 -78q0 -43 27.5 -74t68.5 -48l89.5 -38.5t89.5 -43t68.5 -63t27.5 -98.5q0 -87 -62 -150t-177 -63q-42 0 -100.5 19t-65.5 19q-14 0 -21.5 -5.5t-9 -11.5t-5 -11.5t-9.5 -5.5
q-9 0 -9 12zM306 718h-68l-124 168h43l115 -102l115 102h43z" />
    <glyph glyph-name="scaron" unicode="&#x161;" horiz-adv-x="426" 
d="M361 430v-117q0 -10 -8 -10q-4 0 -6 3.5t-8.5 19.5l-13.5 32q-37 80 -118 80q-34 0 -53.5 -15t-19.5 -36q0 -29 26.5 -49.5t64.5 -35t76 -32t64.5 -50t26.5 -78.5q0 -67 -49.5 -108.5t-136.5 -41.5q-76 0 -157 31v147q0 9 7 9q5 0 7 -5t7.5 -22t15.5 -37q26 -49 59 -74
t80 -25q38 0 61.5 19.5t23.5 51.5t-26.5 54.5t-64.5 37.5t-76 32t-64.5 48.5t-26.5 75.5q0 48 40 87.5t119 39.5q86 0 150 -32zM247 510h-68l-124 168h43l115 -102l115 102h43z" />
    <glyph glyph-name="Ydieresis" unicode="&#x178;" horiz-adv-x="630" 
d="M508 533l-133 -199v-262q0 -23 14 -34t31.5 -12t31.5 -3.5t14 -10.5q0 -14 -30 -14q-14 0 -51 1t-70 1t-70 -1t-51 -1q-26 0 -26 14q0 8 13.5 10.5t30 3.5t30 12t13.5 34v231l-163 292q-17 31 -41.5 45.5t-39 18t-14.5 10.5q0 11 15 11q23 0 68.5 -1t68.5 -1q19 0 56.5 1
t55.5 1q27 0 27 -14q0 -7 -16 -9.5t-32 -11t-16 -30.5q0 -25 16 -53l119 -216l75.5 111t41 74t18.5 67q0 33 -17.5 46t-35 15t-17.5 10q0 11 22 11q14 0 49 -1t50 -1q16 0 44.5 1t40.5 1q26 0 26 -12q0 -4 -4.5 -6.5t-13 -4.5t-21.5 -10t-28.5 -20t-37 -36.5t-43.5 -57.5z
M173 787q0 22 15.5 37.5t37.5 15.5t37.5 -15.5t15.5 -37.5t-15.5 -37.5t-37.5 -15.5t-37.5 15.5t-15.5 37.5zM375 787q0 22 15.5 37.5t37.5 15.5t37.5 -15.5t15.5 -37.5t-15.5 -37.5t-37.5 -15.5t-37.5 15.5t-15.5 37.5z" />
    <glyph glyph-name="Zcaron" unicode="&#x17d;" horiz-adv-x="611" 
d="M163 22h83q66 0 119 20t87 54t54.5 70t32.5 77q7 20 15 20q9 0 9 -10q0 -15 -3 -29l-42 -226q-59 0 -138.5 1t-109.5 1q-33 0 -107 -1t-119 -1q-19 0 -19 9q0 3 1.5 5.5l3.5 6t7.5 12l11.5 17.5l378 608h-39q-98 0 -160 -21.5t-105 -82.5q-13 -19 -23.5 -36.5t-15 -27.5
l-8 -17.5t-6 -10.5t-5.5 -3q-8 0 -8 10l6 26l48 187q35 0 107 -1t107 -1q39 0 125.5 1t104.5 1t18 -7q0 -5 -16 -31zM352 718h-68l-124 168h43l115 -102l115 102h43z" />
    <glyph glyph-name="zcaron" unicode="&#x17e;" horiz-adv-x="500" 
d="M465 456l-309 -440q99 0 173 54.5t104 131.5q13 32 16 34q2 1 5 1q8 0 8 -8q0 -3 -4 -25l-45 -206q-33 0 -98.5 1t-97.5 1q-33 0 -98.5 -1t-98.5 -1l313 440q-50 0 -95.5 -16t-76.5 -41t-51 -48t-31 -45q-2 -3 -4.5 -9l-4 -9.5t-4 -7.5t-5 -5.5t-5.5 -1.5q-7 0 -7 10
q0 3 13 50l37 141q32 0 93 -1t91 -1q31 0 91.5 1t90.5 1zM284 510h-68l-124 168h43l115 -102l115 102h43z" />
    <glyph glyph-name="florin" unicode="&#x192;" 
d="M251 394h-67q28 18 58 60t57 87.5t57.5 89t73 71.5t91.5 28q46 0 69.5 -23t23.5 -52q0 -27 -15.5 -46t-44.5 -19q-28 0 -40.5 16t-13 36t-8.5 36t-28 16q-43 0 -64 -55.5t-26 -184.5h83l-22 -60h-71q-8 -48 -17 -91.5t-27 -117t-42 -132t-54.5 -115t-72 -88.5t-88.5 -32
q-40 0 -62.5 22.5t-22.5 56.5q0 24 15.5 41.5t43.5 17.5q26 0 41.5 -12t19.5 -27t13 -27t24 -12q18 0 29.5 9t17.5 28.5t8 33.5t4 40q21 258 57 405z" />
    <glyph glyph-name="circumflex" unicode="&#x2c6;" horiz-adv-x="296" 
d="M114 678h68l124 -168h-43l-115 102l-115 -102h-43z" />
    <glyph glyph-name="caron" unicode="&#x2c7;" horiz-adv-x="296" 
d="M182 510h-68l-124 168h43l115 -102l115 102h43z" />
    <glyph glyph-name="uni02C9" unicode="&#x2c9;" horiz-adv-x="296" 
d="M306 550h-316v60h316v-60z" />
    <glyph glyph-name="breve" unicode="&#x2d8;" horiz-adv-x="296" 
d="M258 668h36q-6 -77 -45 -117.5t-101 -40.5t-101 40.5t-45 117.5h36q18 -96 110 -96t110 96z" />
    <glyph glyph-name="dotaccent" unicode="&#x2d9;" horiz-adv-x="296" 
d="M95 579q0 22 15.5 37.5t37.5 15.5t37.5 -15.5t15.5 -37.5t-15.5 -37.5t-37.5 -15.5t-37.5 15.5t-15.5 37.5z" />
    <glyph glyph-name="ring" unicode="&#x2da;" horiz-adv-x="296" 
d="M47 612q0 41 30 70.5t71 29.5t71 -29.5t30 -70.5t-30 -71.5t-71 -30.5t-71 30.5t-30 71.5zM85 611q0 -27 18 -45t45 -18t45 18t18 45t-18 45t-45 18t-45 -18t-18 -45z" />
    <glyph glyph-name="ogonek" unicode="&#x2db;" horiz-adv-x="296" 
d="M258 20v-9q-150 -63 -150 -122q0 -23 14 -37t35 -14q44 0 103 40l17 -32q-89 -58 -148 -58q-42 0 -70.5 24.5t-28.5 62.5q0 51 61 88.5t167 56.5z" />
    <glyph glyph-name="tilde" unicode="&#x2dc;" horiz-adv-x="296" 
d="M9 534h-32q7 40 34.5 75t74.5 35q32 0 78 -24t68 -24q17 0 29.5 10t23.5 40h34q-19 -57 -42.5 -83.5t-67.5 -26.5q-34 0 -80 23q-44 23 -68 23q-17 0 -28.5 -9.5t-15.5 -17.5t-8 -21z" />
    <glyph glyph-name="hungarumlaut" unicode="&#x2dd;" horiz-adv-x="296" 
d="M195 510h-47l133 139l21.5 21.5t17 12t20.5 5.5q14 0 25 -11t11 -27q0 -25 -39 -50zM43 510h-43l122 138q19 22 31 31t27 9q14 0 25 -11t11 -27q0 -24 -39 -50z" />
    <glyph glyph-name="uni03A9" unicode="&#x3a9;" horiz-adv-x="751" 
d="M716 149l-27 -149h-248l-7 20q3 7 28.5 51t36.5 68l29.5 66.5t26 82.5t7.5 80q-1 144 -54 211t-134 67q-85 0 -135 -67t-50 -216q0 -47 10 -93t34.5 -98t36.5 -74.5t44 -76.5l-8 -21h-247l-24 149l27 1q16 -46 31.5 -60t47.5 -14h104q-34 27 -56.5 48.5t-53 59.5
t-46.5 85.5t-16 101.5q0 139 86 223.5t217 84.5q133 0 216.5 -81t83.5 -219q0 -48 -15.5 -93t-45 -84.5t-54.5 -66t-62 -59.5h112q32 0 46 13t30 61z" />
    <glyph glyph-name="uni03BC" unicode="&#x3bc;" 
d="M378 -8v84q-89 -84 -181 -84q0 -20 2 -62t2 -60q0 -41 -17 -61.5t-45 -20.5q-58 0 -58 78q0 17 3 106t3 153v196q0 26 -12.5 41.5t-27.5 19t-27.5 8.5t-12.5 14q0 6 20 8t69 13.5t101 36.5v-362q0 -31 16.5 -46.5t41.5 -15.5q37 0 73.5 20.5t48.5 42.5v220
q0 26 -12.5 41.5t-27.5 19t-27.5 8.5t-12.5 14q0 6 20 8t69 13.5t101 36.5v-337q0 -35 18.5 -50t37 -18t18.5 -9t-18.5 -9t-66 -14.5t-98.5 -32.5z" />
    <glyph glyph-name="pi" unicode="&#x3c0;" horiz-adv-x="581" 
d="M528 466l25 -9q-12 -67 -37 -97q-20 -5 -68 -5q-6 -73 -4 -217q0 -87 43 -87q22 0 49 27l13 -23q-19 -31 -49 -49t-61 -18q-45 0 -69.5 28.5t-24.5 98.5q0 94 10 242q-118 2 -151 2v-15q0 -101 -14.5 -181.5t-27.5 -112.5t-24 -45q-34 -14 -63 -17l-7 18q50 62 72 163
t22 192q-44 0 -69.5 -10t-59.5 -34l-16 25q37 45 57 60q47 35 118 34q35 0 129.5 -1.5t145.5 -1.5q23 0 36 6.5t25 26.5z" />
    <glyph glyph-name="endash" unicode="&#x2013;" horiz-adv-x="500" 
d="M0 264h500v-74h-500v74z" />
    <glyph glyph-name="emdash" unicode="&#x2014;" horiz-adv-x="1000" 
d="M0 264h1000v-74h-1000v74z" />
    <glyph glyph-name="quoteleft" unicode="&#x2018;" horiz-adv-x="241" 
d="M129 478q-37 0 -64.5 25.5t-27.5 72.5q0 72 75 130q42 32 53 32q8 0 8 -8q0 -3 -4 -6.5t-15.5 -11.5t-22.5 -17q-34 -28 -34 -66q0 -19 7.5 -25t32.5 -6q68 0 68 -58q0 -25 -19.5 -43.5t-56.5 -18.5z" />
    <glyph glyph-name="quoteright" unicode="&#x2019;" horiz-adv-x="241" 
d="M112 730q37 0 64.5 -25.5t27.5 -72.5q0 -72 -75 -130q-42 -32 -53 -32q-8 0 -8 8q0 3 4 6.5t15.5 11.5t22.5 17q34 28 34 66q0 19 -7.5 25t-32.5 6q-68 0 -68 58q0 25 19.5 43.5t56.5 18.5z" />
    <glyph glyph-name="quotesinglbase" unicode="&#x201a;" horiz-adv-x="241" 
d="M112 120q37 0 64.5 -25.5t27.5 -72.5q0 -72 -75 -130q-42 -32 -53 -32q-8 0 -8 8q0 3 4 6.5t15.5 11.5t22.5 17q34 28 34 66q0 19 -7.5 25t-32.5 6q-68 0 -68 58q0 25 19.5 43.5t56.5 18.5z" />
    <glyph glyph-name="quotedblleft" unicode="&#x201c;" horiz-adv-x="537" 
d="M156 478q-37 0 -64.5 25.5t-27.5 72.5q0 72 75 130q42 32 53 32q8 0 8 -8q0 -3 -4 -6.5t-15.5 -11.5t-22.5 -17q-34 -28 -34 -66q0 -19 7.5 -25t32.5 -6q68 0 68 -58q0 -25 -19.5 -43.5t-56.5 -18.5zM397 478q-37 0 -64.5 25.5t-27.5 72.5q0 72 75 130q42 32 53 32
q8 0 8 -8q0 -3 -4 -6.5t-15.5 -11.5t-22.5 -17q-34 -28 -34 -66q0 -19 7.5 -25t32.5 -6q68 0 68 -58q0 -25 -19.5 -43.5t-56.5 -18.5z" />
    <glyph glyph-name="quotedblright" unicode="&#x201d;" horiz-adv-x="537" 
d="M381 730q37 0 64.5 -25.5t27.5 -72.5q0 -72 -75 -130q-42 -32 -53 -32q-8 0 -8 8q0 3 4 6.5t15.5 11.5t22.5 17q34 28 34 66q0 19 -7.5 25t-32.5 6q-68 0 -68 58q0 25 19.5 43.5t56.5 18.5zM140 730q37 0 64.5 -25.5t27.5 -72.5q0 -72 -75 -130q-42 -32 -53 -32
q-8 0 -8 8q0 3 4 6.5t15.5 11.5t22.5 17q34 28 34 66q0 19 -7.5 25t-32.5 6q-68 0 -68 58q0 25 19.5 43.5t56.5 18.5z" />
    <glyph glyph-name="quotedblbase" unicode="&#x201e;" horiz-adv-x="537" 
d="M381 120q37 0 64.5 -25.5t27.5 -72.5q0 -72 -75 -130q-42 -32 -53 -32q-8 0 -8 8q0 3 4 6.5t15.5 11.5t22.5 17q34 28 34 66q0 19 -7.5 25t-32.5 6q-68 0 -68 58q0 25 19.5 43.5t56.5 18.5zM140 120q37 0 64.5 -25.5t27.5 -72.5q0 -72 -75 -130q-42 -32 -53 -32
q-8 0 -8 8q0 3 4 6.5t15.5 11.5t22.5 17q34 28 34 66q0 19 -7.5 25t-32.5 6q-68 0 -68 58q0 25 19.5 43.5t56.5 18.5z" />
    <glyph glyph-name="dagger" unicode="&#x2020;" horiz-adv-x="500" 
d="M264 -104h-28l-6 281q-1 79 -30 143q36 72 36 92q0 40 -21 40q-13 0 -49 -20t-69 -20q-25 0 -40 14.5t-15 37.5t15 37.5t40 14.5q33 0 69 -20t49 -20q22 0 22 21q0 11 -22.5 57.5t-22.5 74.5q0 27 15 46t43 19t43 -19t15 -46q0 -28 -22.5 -74.5t-22.5 -57.5q0 -21 22 -21
q13 0 49 20t69 20q25 0 40 -14.5t15 -37.5t-15 -37.5t-40 -14.5q-33 0 -69 20t-49 20q-21 0 -21 -40q0 -20 36 -92q-29 -64 -30 -143z" />
    <glyph glyph-name="daggerdbl" unicode="&#x2021;" horiz-adv-x="500" 
d="M220 288q0 36 -24 71q39 42 39 66q0 12 -7 19.5t-13 7.5q-13 0 -49 -20t-69 -20q-25 0 -40 14.5t-15 37.5t15 37.5t40 14.5q33 0 69 -20t49 -20q22 0 22 21q0 11 -22.5 57.5t-22.5 74.5q0 27 15 46t43 19t43 -19t15 -46q0 -28 -22.5 -74.5t-22.5 -57.5q0 -21 22 -21
q13 0 49 20t69 20q25 0 40 -14.5t15 -37.5t-15 -37.5t-40 -14.5q-33 0 -69 20t-49 20q-9 0 -17.5 -7.5t-8.5 -19.5q0 -23 40 -66q-25 -36 -25 -71t25 -71q-40 -43 -40 -66q0 -12 8.5 -19.5t17.5 -7.5q13 0 49 20t69 20q25 0 40 -14.5t15 -37.5t-15 -37.5t-40 -14.5
q-33 0 -69 20t-49 20q-22 0 -22 -21q0 -11 22.5 -57.5t22.5 -74.5q0 -27 -15 -46t-43 -19t-43 19t-15 46q0 28 22.5 74.5t22.5 57.5q0 21 -22 21q-13 0 -49 -20t-69 -20q-25 0 -40 14.5t-15 37.5t15 37.5t40 14.5q33 0 69 -20t49 -20q6 0 13 7.5t7 19.5q0 24 -39 66
q24 35 24 71z" />
    <glyph glyph-name="bullet" unicode="&#x2022;" horiz-adv-x="500" 
d="M81 339q0 70 49.5 119.5t119.5 49.5t119.5 -49.5t49.5 -119.5t-49.5 -119.5t-119.5 -49.5t-119.5 49.5t-49.5 119.5z" />
    <glyph glyph-name="ellipsis" unicode="&#x2026;" horiz-adv-x="1000" 
d="M95 64q0 30 21 51t51 21t51 -21t21 -51t-21 -51t-51 -21t-51 21t-21 51zM761 64q0 30 21 51t51 21t51 -21t21 -51t-21 -51t-51 -21t-51 21t-21 51zM428 64q0 30 21 51t51 21t51 -21t21 -51t-21 -51t-51 -21t-51 21t-21 51z" />
    <glyph glyph-name="perthousand" unicode="&#x2030;" horiz-adv-x="1130" 
d="M942 10q67 0 67 173t-67 173t-67 -173t67 -173zM612 686l-425 -694h-41l424 694h42zM188 668q-67 0 -67 -173t67 -173t67 173t-67 173zM1093 183q0 -77 -43.5 -134t-107.5 -57t-107.5 57t-43.5 134t43.5 134t107.5 57t107.5 -57t43.5 -134zM339 495q0 -77 -43.5 -134
t-107.5 -57t-107.5 57t-43.5 134t43.5 134t107.5 57t107.5 -57t43.5 -134zM578 10q67 0 67 173t-67 173t-67 -173t67 -173zM729 183q0 -77 -43.5 -134t-107.5 -57t-107.5 57t-43.5 134t43.5 134t107.5 57t107.5 -57t43.5 -134z" />
    <glyph glyph-name="guilsinglleft" unicode="&#x2039;" horiz-adv-x="333" 
d="M158 207l98 -153q6 -10 6 -14q0 -6 -6 -6q-8 0 -16 10l-163 170q-7 7 -7 13t7 13l163 170q8 10 16 10q6 0 6 -6q0 -4 -6 -14l-98 -153q-12 -18 -12 -21q0 -1 12 -19z" />
    <glyph glyph-name="guilsinglright" unicode="&#x203a;" horiz-adv-x="333" 
d="M175 247l-98 153q-6 10 -6 14q0 6 6 6q8 0 16 -10l163 -170q7 -7 7 -13t-7 -13l-163 -170q-8 -10 -16 -10q-6 0 -6 6q0 4 6 14l98 153q12 18 12 21q0 1 -12 19z" />
    <glyph glyph-name="fraction" unicode="&#x2044;" horiz-adv-x="167" 
d="M334 686l-428 -694h-73l430 694h71z" />
    <glyph glyph-name="Euro" unicode="&#x20ac;" 
d="M391 276h-189q7 -129 42.5 -194.5t91.5 -65.5q60 0 109.5 58.5t63.5 143.5q3 23 15 23q10 0 10 -19v-211q0 -19 -10 -19q-7 0 -9.5 12t-8 23.5t-18.5 11.5q-10 0 -33.5 -11.5t-59.5 -23.5t-75 -12q-93 0 -159 79.5t-81 204.5h-66v40h62v23q0 24 3 48h-65v40h71
q23 113 93.5 186t152.5 73q39 0 73.5 -14.5t56 -29t30.5 -14.5q14 0 19.5 23t12.5 23q8 0 8 -18v-213q0 -18 -10 -18q-13 0 -17 29q-12 82 -61.5 145t-108.5 63q-54 0 -88 -60t-43 -175h188v-40h-190q-1 -15 -1 -48v-23h191v-40z" />
    <glyph glyph-name="afii61289" unicode="&#x2113;" horiz-adv-x="426" 
d="M388 129l21 -19q-64 -116 -175 -116q-71 0 -106 38q-37 43 -37 144v72l-60 -42l-13 26l73 55v127q0 116 10.5 168t42.5 89q41 51 97 51q47 0 71.5 -38t24.5 -94q0 -80 -38 -146.5t-113 -138.5v-83q0 -93 22 -130t68 -37q61 0 112 74zM186 472v-118q93 107 93 234
q0 45 -11.5 73.5t-33.5 28.5q-27 0 -37.5 -47.5t-10.5 -170.5z" />
    <glyph glyph-name="trademark" unicode="&#x2122;" horiz-adv-x="990" 
d="M242 654v-289q0 -37 5.5 -43t43.5 -10v-24h-177v24q37 4 42.5 10t5.5 43v289h-38q-51 0 -68 -67h-24v91h339v-91h-24q-15 67 -66 67h-39zM665 284l-152 297h-2v-208q0 -32 10.5 -45t41.5 -16v-24h-136v24q31 3 40.5 15.5t9.5 45.5v232q0 21 -19 35t-41 14v24h125
l147 -285l154 285h114v-24q-31 -1 -43.5 -15t-12.5 -41v-233q0 -37 5.5 -43t43.5 -10v-24h-175v24q36 4 41 10.5t5 48.5v189h-2l-145 -276h-9z" />
    <glyph glyph-name="Omega" unicode="&#x2126;" horiz-adv-x="751" 
d="M716 149l-27 -149h-248l-7 20q3 7 28.5 51t36.5 68l29.5 66.5t26 82.5t7.5 80q-1 144 -54 211t-134 67q-85 0 -135 -67t-50 -216q0 -47 10 -93t34.5 -98t36.5 -74.5t44 -76.5l-8 -21h-247l-24 149l27 1q16 -46 31.5 -60t47.5 -14h104q-34 27 -56.5 48.5t-53 59.5
t-46.5 85.5t-16 101.5q0 139 86 223.5t217 84.5q133 0 216.5 -81t83.5 -219q0 -48 -15.5 -93t-45 -84.5t-54.5 -66t-62 -59.5h112q32 0 46 13t30 61z" />
    <glyph glyph-name="estimated" unicode="&#x212e;" horiz-adv-x="835" 
d="M802 329h-623q-5 0 -5 -4v-189q0 -11 8 -21q98 -103 236 -103q148 0 248 115h55q-53 -62 -133 -98t-171 -36q-159 0 -272 101t-113 244q0 144 113 245t272 101q160 0 272.5 -101t112.5 -245v-9zM661 353v190q0 13 -10 23q-100 98 -233 98q-136 0 -235 -102q-9 -9 -9 -23
v-186q0 -6 5 -6h478q4 0 4 6z" />
    <glyph glyph-name="partialdiff" unicode="&#x2202;" horiz-adv-x="546" 
d="M268 427h1q37 0 74 -17.5t60 -49.5q8 61 9 104q4 86 -26 153q-16 35 -50 60.5t-76 25.5q-69 0 -143 -62q-14 -1 -28 25.5t-6 44.5q68 41 146 41q137 0 215 -139q51 -93 51 -226q0 -145 -49 -244q-74 -149 -214 -149q-85 0 -137 53.5t-52 143.5q0 98 61 164q64 72 164 72z
M294 385h-1q-66 0 -106 -56q-45 -68 -45 -184q0 -52 24.5 -85t67.5 -33q64 0 111 101q33 69 50 188q-11 24 -39 46.5t-62 22.5z" />
    <glyph glyph-name="Delta" unicode="&#x2206;" horiz-adv-x="652" 
d="M616 0h-581v28l263 638l46 12l272 -650v-28zM491 51l-200 492l-196 -492h396z" />
    <glyph glyph-name="product" unicode="&#x220f;" horiz-adv-x="707" 
d="M679 674v-28q-65 -5 -79 -17t-14 -58v-542q0 -52 14 -65.5t77 -17.5v-28h-274v28q59 5 71 16.5t12 66.5v576q0 22 -6.5 27.5t-29.5 5.5h-196q-22 0 -27.5 -5t-5.5 -25v-579q0 -53 10.5 -66t64.5 -17v-28h-266v28q61 4 75.5 17.5t14.5 65.5v542q0 47 -14.5 58.5
t-79.5 16.5v28h653z" />
    <glyph glyph-name="summation" unicode="&#x2211;" horiz-adv-x="568" 
d="M544 109l-45 -196h-472v27l225 327l-219 379v28h465q0 -8 2.5 -34t5.5 -65.5l5 -66.5l-29 -6q-15 71 -36 104q-11 20 -31 26.5t-74 6.5h-184l182 -308l-225 -333h257q68 0 89.5 17t53.5 102z" />
    <glyph glyph-name="minus" unicode="&#x2212;" horiz-adv-x="600" 
d="M527 190h-454v74h454v-74z" />
    <glyph glyph-name="uni2215" unicode="&#x2215;" horiz-adv-x="167" 
d="M334 686l-428 -694h-73l430 694h71z" />
    <glyph glyph-name="uni2219" unicode="&#x2219;" horiz-adv-x="287" 
d="M71 227q0 30 21 51t51 21t51 -21t21 -51t-21 -51t-51 -21t-51 21t-21 51z" />
    <glyph glyph-name="radical" unicode="&#x221a;" horiz-adv-x="559" 
d="M544 855l-170 -1001l-24 -12l-218 532l-88 -42l-12 35l166 77l164 -415h2l138 836z" />
    <glyph glyph-name="infinity" unicode="&#x221e;" horiz-adv-x="754" 
d="M706 277v-1q0 -73 -45.5 -117.5t-107.5 -44.5q-85 0 -175 112q-46 -55 -87 -83.5t-94 -28.5q-61 0 -105.5 45t-44.5 113q0 70 45 115.5t113 45.5q87 0 177 -110l14 16q14 16 16.5 18t15.5 16t18.5 17t18 13t21 13t21.5 8.5t25.5 7t26.5 1.5q64 0 105.5 -43.5t41.5 -112.5
zM204 173h2q20 0 38.5 7.5t40 27t29 27.5l31.5 35l-32.5 40t-29 30t-40 27.5t-43.5 7.5q-42 0 -67 -29.5t-24 -74.5q-1 -41 26 -69.5t69 -28.5zM553 375h-1q-17 0 -33.5 -6t-34 -20.5t-25.5 -22t-27 -29t-20 -22.5q49 -58 78.5 -80t64.5 -22q40 0 64.5 30.5t24.5 68.5
q0 46 -25.5 74.5t-65.5 28.5z" />
    <glyph glyph-name="integral" unicode="&#x222b;" horiz-adv-x="384" 
d="M161 6l-19 394q-5 99 2 174.5t22 120.5t38 73.5t46.5 38.5t50.5 10q23 0 43.5 -13t21.5 -36q0 -23 -14 -35.5t-34 -12.5q-18 0 -31 26t-23 26q-44 0 -37 -159l19 -369q6 -125 -4.5 -214.5t-35.5 -137.5t-55 -69t-67 -21q-28 0 -46.5 15t-18.5 36q-1 21 16.5 36t39.5 15
q15 0 27.5 -28t22.5 -28q22 0 31.5 43t4.5 115z" />
    <glyph glyph-name="approxequal" unicode="&#x2248;" horiz-adv-x="546" 
d="M465 427l40 -37q-54 -96 -132 -96q-44 0 -112 40q-56 32 -86 32t-51.5 -18t-44.5 -53l-41 37q23 43 61 69t81 26q13 0 25.5 -2t25 -7t19 -8t20 -10.5t16.5 -8.5l32 -18.5t25 -10.5t30 -5q27 0 48 17t44 53zM465 253l40 -37q-52 -96 -132 -96q-42 0 -112 39q-53 33 -86 33
q-30 0 -51 -18t-45 -53l-41 36q23 43 61 69.5t81 26.5q14 0 26.5 -2t24.5 -7l19 -8t20 -10t16 -9l17 -10l17.5 -10t15 -7.5t18.5 -6t19 -1.5q27 0 47.5 17t44.5 54z" />
    <glyph glyph-name="notequal" unicode="&#x2260;" horiz-adv-x="546" 
d="M396 489l-40 -88h141v-63h-166l-61 -134h227v-62h-252l-51 -113l-50 22l41 91h-137v62h163l60 134h-223v63h248l50 110z" />
    <glyph glyph-name="lessequal" unicode="&#x2264;" horiz-adv-x="546" 
d="M495 97l-442 216v67l442 215v-73l-377 -174v-2l377 -176v-73zM498 -3h-449v63h449v-63z" />
    <glyph glyph-name="greaterequal" unicode="&#x2265;" horiz-adv-x="546" 
d="M54 595l442 -216v-66l-442 -216v73l377 175v2l-377 175v73zM496 -3h-447v63h447v-63z" />
    <glyph glyph-name="lozenge" unicode="&#x25ca;" horiz-adv-x="569" 
d="M521 323l-200 -393h-74l-200 393l201 396h73zM449 323l-162 329h-4l-164 -328l164 -330h3z" />
    </font>
</defs>
</svg>
