<?xml version="1.0" standalone="no"?>
<!DOCTYPE svg PUBLIC "-//W3C//DTD SVG 1.1//EN" "http://www.w3.org/Graphics/SVG/1.1/DTD/svg11.dtd" >
<svg>
<metadata>
Created by FontForge 20090622 at Thu Aug  6 21:41:22 2015
 By deploy user
Copyright &#194;&#169; 1990, 2001 Adobe Systems Incorporated.  All Rights Reserved.
</metadata>
<defs>
<font id="Caslon224Std-BlackItalic" horiz-adv-x="611" >
  <font-face 
    font-family="ITC Caslon 224 Std Black"
    font-weight="900"
    font-style="italic"
    font-stretch="normal"
    units-per-em="1000"
    panose-1="2 3 9 3 8 7 6 9 4 4"
    ascent="730"
    descent="-270"
    x-height="462"
    cap-height="680"
    bbox="-196 -230 1209 937"
    underline-thickness="50"
    underline-position="-50"
    slope="-13"
    unicode-range="U+0020-U+FB02"
  />
<missing-glyph horiz-adv-x="632" 
d="M132 0v700h500v-700h-500zM382 395l170 255h-340zM412 350l170 -255v510zM212 50h340l-170 255zM182 605v-510l170 255z" />
    <glyph glyph-name="fi" unicode="fi" horiz-adv-x="648" 
d="M133 400h-69q43 47 86 106.5l69.5 98.5t59.5 75t74.5 54t96.5 18q68 0 105.5 -27t37.5 -69q0 -32 -24.5 -59.5t-60.5 -27.5q-27 0 -45 17t-18 43q0 20 11 43t11 29q0 27 -39 27q-53 0 -83 -75t-30 -188v-2v-9h173q73 0 104.5 -22t31.5 -81q0 -30 -30.5 -140.5
t-30.5 -130.5q0 -22 15 -22q22 0 48 53q4 7 7.5 15l5.5 12.5t4 8t4 5t5 1.5q9 0 9 -10q0 -8 -9 -30t-25.5 -50.5t-48 -49.5t-68.5 -21q-48 0 -80.5 31t-32.5 79q0 39 30.5 143.5t30.5 121.5q0 33 -59 33h-95q-22 -145 -61.5 -259.5t-83 -182t-93.5 -112t-90 -60.5t-75 -16
q-42 0 -69.5 24.5t-27.5 58.5q0 30 21.5 47t51.5 17q29 0 49 -13.5t28.5 -30t20 -30t25.5 -13.5q44 0 55.5 53.5t26 210.5t51.5 306z" />
    <glyph glyph-name="fl" unicode="fl" horiz-adv-x="648" 
d="M574 702l156 28l-117 -420t-45.5 -174t-7.5 -51q0 -27 18 -27q16 0 31 27t25 54.5t15 27.5q11 0 11 -11q0 -8 -8 -31.5t-23.5 -54.5t-48 -54.5t-73.5 -23.5q-47 0 -80 29t-33 77q0 34 18 105t99 365q-31 3 -48 20.5t-17 46.5q0 21 9.5 37.5t9.5 24.5q0 31 -39 31
q-60 0 -84 -68.5t-27 -205.5h112l-26 -54h-97q-22 -145 -61.5 -259.5t-83 -182t-93.5 -112t-90 -60.5t-75 -16q-42 0 -69.5 24.5t-27.5 58.5q0 30 21.5 47t51.5 17q29 0 49 -13.5t28.5 -30t20 -30t25.5 -13.5q44 0 55.5 53.5t26 210.5t51.5 306h-69q44 52 89.5 115l71.5 100
t58.5 71.5t68.5 50t83 15.5q84 0 139 -50z" />
    <glyph glyph-name=".notdef" horiz-adv-x="632" 
d="M132 0v700h500v-700h-500zM382 395l170 255h-340zM412 350l170 -255v510zM212 50h340l-170 255zM182 605v-510l170 255z" />
    <glyph glyph-name=".null" horiz-adv-x="0" 
 />
    <glyph glyph-name="nonmarkingreturn" horiz-adv-x="333" 
 />
    <glyph glyph-name="space" unicode=" " horiz-adv-x="305" 
 />
    <glyph glyph-name="exclam" unicode="!" horiz-adv-x="407" 
d="M102 80q0 34 30.5 69t79.5 35q41 0 65.5 -26t24.5 -63q0 -34 -31 -68.5t-80 -34.5q-41 0 -65 25.5t-24 62.5zM335 694q37 0 60.5 -25t23.5 -61q0 -50 -32.5 -111.5t-74.5 -126.5t-55 -104q-3 -8 -5.5 -17l-4 -14t-3.5 -11t-3.5 -9.5l-3 -7t-2.5 -5t-2.5 -3t-3.5 -2
t-4 -0.5q-12 0 -12 15q0 5 1 25t1 38q0 55 -13 122t-13 99q0 87 41 142.5t105 55.5z" />
    <glyph glyph-name="quotedbl" unicode="&#x22;" horiz-adv-x="333" 
d="M167 694q26 0 38.5 -16.5t12.5 -39.5q0 -90 -20 -272q-4 -36 -31 -36t-31 36q-20 182 -20 272q0 23 12.5 39.5t38.5 16.5zM342 694q26 0 38.5 -16.5t12.5 -39.5q0 -90 -20 -272q-4 -36 -31 -36t-31 36q-20 182 -20 272q0 23 12.5 39.5t38.5 16.5z" />
    <glyph glyph-name="numbersign" unicode="#" 
d="M559 284v-94h-88l-27 -190h-96l26 190h-88l-27 -190h-96l26 190h-83v94h96l16 110h-83v94h95l26 190h97l-26 -190h88l26 190h97l-26 -190h75v-94h-87l-16 -110h75zM403 394h-88l-16 -110h88z" />
    <glyph glyph-name="dollar" unicode="$" 
d="M181 208l75 113q-77 57 -77 139q0 74 64.5 139t148.5 65q42 0 82 -16l50 74h34l-58 -86q36 -17 44 -17q19 0 29 15l59 88h34l-60 -90l-39 -193q-2 -13 -11 -13q-6 0 -8.5 11t-6.5 35.5t-12 44.5l-70 -105q48 -29 76 -69.5t28 -104.5q0 -82 -69 -154t-171 -72
q-57 0 -113 28l-76 -114h-34l84 126q-26 11 -38 11q-28 0 -37 -13l-83 -124h-34l105 157l52 214q4 17 16 17q9 0 9 -12q0 -2 -0.5 -10.5t-0.5 -17.5q0 -31 8 -66zM358 473l97 146q-26 21 -58 21q-37 0 -63 -24t-26 -60q0 -48 50 -83zM355 257l-117 -175q36 -46 83 -46
q46 0 74 36t28 80q0 58 -68 105zM435 427l80 119q-17 30 -39 54l-95 -142q9 -6 29 -17t25 -14zM220 106l112 167q-38 22 -53 33l-89 -133q13 -38 30 -67z" />
    <glyph glyph-name="percent" unicode="%" horiz-adv-x="796" 
d="M327 668q-29 0 -43 -22.5t-28 -74.5q-38 -141 -38 -213q0 -20 7.5 -29t25.5 -9q29 0 43 22t28 73q38 141 38 214q0 21 -7.5 30t-25.5 9zM833 686l-696 -694h-63l693 694h66zM652 358q-29 0 -43 -22.5t-28 -74.5q-38 -141 -38 -213q0 -20 7.5 -29t25.5 -9q29 0 43 22
t28 73q38 141 38 214q0 21 -7.5 30t-25.5 9zM327 686q69 0 113 -43t44 -106q0 -90 -75.5 -162.5t-158.5 -72.5q-75 0 -115.5 42.5t-40.5 106.5q0 90 75 162.5t158 72.5zM652 376q69 0 113 -43t44 -106q0 -90 -75.5 -162.5t-158.5 -72.5q-75 0 -115.5 42.5t-40.5 106.5
q0 90 75 162.5t158 72.5z" />
    <glyph glyph-name="ampersand" unicode="&#x26;" horiz-adv-x="815" 
d="M52 148q0 72 54 135.5t157 84.5q-42 62 -42 110q0 84 70.5 150t168.5 66q16 0 36.5 -5t46 -17t42.5 -39.5t17 -65.5q0 -44 -34.5 -88t-96.5 -59q58 -52 87 -84.5t65 -90.5q34 54 34 101q0 31 -11 47t-23.5 17t-23.5 4.5t-11 13.5q0 15 31 15q7 0 39 -1t66 -1q35 0 70.5 1
t36.5 1q28 0 28 -12q0 -2 -0.5 -4t-1.5 -3.5t-2 -2l-4 -2t-5 -2t-6.5 -2l-7.5 -2.5q-56 -18 -96 -56.5t-101 -133.5q14 -26 29.5 -62.5l23.5 -55t21 -33t30 -14.5q38 0 60 50q14 30 17 31q2 1 4 1q11 0 11 -12q0 -5 -5 -19.5t-19.5 -36t-34.5 -41t-55 -33.5t-77 -14
q-90 0 -147 72q-39 -33 -99 -52.5t-123 -19.5q-93 0 -156 43.5t-63 120.5zM242 198q0 -66 33 -112t103 -46q59 0 102 33q-5 7 -21 32.5l-19 30l-15.5 23.5t-16 23.5t-14.5 20.5t-17.5 23.5t-18 22.5t-23.5 28l-26.5 30l-33.5 38q-20 -49 -26.5 -75.5t-6.5 -71.5zM532 587
q0 83 -67 83q-40 0 -65 -31.5t-25 -69.5q0 -80 84 -136q29 19 51 62.5t22 91.5z" />
    <glyph glyph-name="quotesingle" unicode="'" horiz-adv-x="222" 
d="M211 694q26 0 38.5 -16.5t12.5 -39.5q0 -90 -20 -272q-4 -36 -31 -36t-31 36q-20 182 -20 272q0 23 12.5 39.5t38.5 16.5z" />
    <glyph glyph-name="parenleft" unicode="(" horiz-adv-x="463" 
d="M139 124q0 142 65.5 285t162.5 232t186 89q18 0 18 -9q0 -6 -10.5 -7.5t-34 -12t-46.5 -34.5q-82 -84 -143.5 -305.5t-61.5 -362.5q0 -59 10 -98.5t24.5 -55t28.5 -22.5t24 -10.5t10 -10.5q0 -8 -13 -8q-28 0 -64 20.5t-71.5 58.5t-60 104.5t-24.5 146.5z" />
    <glyph glyph-name="parenright" unicode=")" horiz-adv-x="463" 
d="M421 400q0 -142 -65.5 -285t-162.5 -232t-186 -89q-18 0 -18 9q0 6 10.5 7.5t34 12t46.5 34.5q82 84 143.5 305.5t61.5 362.5q0 59 -10 98.5t-24 55t-28.5 22.5t-24.5 10.5t-10 10.5q0 8 13 8q28 0 64 -20.5t71.5 -58.5t60 -104.5t24.5 -146.5z" />
    <glyph glyph-name="asterisk" unicode="*" horiz-adv-x="500" 
d="M368 506l-3 8q20 9 54.5 46.5t66.5 37.5q20 0 34 -14t14 -32q0 -50 -80 -50q-14 0 -41 2t-45 2zM353 532l-12 3q0 22 -9.5 53t-9.5 55q0 23 13.5 37t34.5 14q20 0 34 -14t14 -33q0 -26 -31 -60t-34 -55zM309 499l4 -12q-22 -12 -41.5 -34.5t-37 -36t-42.5 -13.5
q-20 0 -34 13.5t-14 32.5q0 24 18 37t49 13q6 0 21 -2.5t34 -2.5t43 5zM328 473l12 -3q0 -22 9.5 -53t9.5 -55q0 -20 -14 -35.5t-34 -15.5t-34 14t-14 33q0 27 29.5 59t35.5 56zM360 473l8 10q15 -11 52 -18t60.5 -21.5t23.5 -47.5q0 -19 -13.5 -32t-30.5 -13
q-31 0 -49.5 27t-29 58.5t-21.5 36.5zM322 526l-8 -10q-16 10 -54.5 20t-61 24t-22.5 41q0 17 14.5 32t34.5 15q22 0 37 -16.5t21.5 -37t16 -41.5t22.5 -27z" />
    <glyph glyph-name="plus" unicode="+" horiz-adv-x="600" 
d="M273 287v167h120v-167h167v-120h-167v-167h-120v167h-167v120h167z" />
    <glyph glyph-name="comma" unicode="," horiz-adv-x="305" 
d="M187 192q50 0 80 -33.5t30 -91.5q0 -40 -32 -97t-75 -100q-36 -36 -77 -63t-53 -27q-11 0 -11 13q0 6 6 10.5t29 19.5t49 36q72 58 72 115q0 16 -10 28q-47 -10 -59 -10q-34 0 -55.5 24t-21.5 57q0 46 38.5 82.5t89.5 36.5z" />
    <glyph glyph-name="hyphen" unicode="-" horiz-adv-x="333" 
d="M311 170h-262l26 114h262z" />
    <glyph glyph-name="period" unicode="." horiz-adv-x="305" 
d="M188 206q35 0 57 -25.5t22 -57.5q0 -55 -38 -93t-84 -38q-42 0 -66 24t-24 56q0 51 38 92.5t95 41.5z" />
    <glyph glyph-name="slash" unicode="/" horiz-adv-x="278" 
d="M42 -16h-122l420 710h122z" />
    <glyph glyph-name="zero" unicode="0" 
d="M74 271q0 102 47.5 198t128 156.5t170.5 60.5q89 0 155 -81.5t66 -197.5q0 -102 -47.5 -198t-128.5 -156.5t-171 -60.5q-89 0 -154.5 81.5t-65.5 197.5zM232 74q0 -58 58 -58q28 0 46.5 19t41.5 80t53 183q52 210 52 306q0 58 -58 58q-28 0 -46.5 -19t-41.5 -80t-53 -183
q-52 -210 -52 -306z" />
    <glyph glyph-name="one" unicode="1" 
d="M285 575h-59q-12 0 -12 11q0 10 12 12t61 9t109 24q36 10 68 25.5t48.5 25.5t18.5 10q8 0 8 -11q0 -2 -8 -34.5t-29 -124.5t-45 -209q-6 -31 -14 -67t-11.5 -53.5l-8 -39t-6 -31t-3.5 -21t-2.5 -18.5t-0.5 -14q0 -24 16.5 -33.5t35.5 -8t35.5 -1.5t16.5 -15q0 -9 -4 -11
t-20 -2q-18 0 -81 1t-112 1q-63 0 -123.5 -1t-65.5 -1q-12 0 -16.5 0.5t-7.5 3t-3 8.5q0 17 29 17.5t61.5 6.5t39.5 37l59.5 263.5l37.5 164.5t9 46q0 30 -33 30z" />
    <glyph glyph-name="two" unicode="2" 
d="M491 0h-461q16 52 52 98.5t78 78.5l87.5 65.5l82 62.5t60 67.5t23.5 80.5q0 43 -30.5 68t-82.5 25q-40 0 -69 -14t-41.5 -31.5l-22.5 -31.5t-16 -14q-10 0 -10 12q0 15 20 48.5t54 73t90.5 68.5t118.5 29q77 0 128 -45t51 -119q0 -68 -43 -132.5t-131 -107.5
q-21 -10 -114 -48t-123 -66v-2h229q42 0 69 12t35.5 26.5t17 26.5t17.5 12q5 0 8.5 -4.5t3.5 -8.5q0 -2 -0.5 -4.5t-3 -9.5t-6 -16l-10 -27l-14.5 -39.5l-20.5 -57z" />
    <glyph glyph-name="three" unicode="3" 
d="M243 -8q-92 0 -143.5 35.5t-51.5 89.5q0 41 34 74.5t74 33.5q36 0 59 -21.5t23 -53.5q0 -17 -8 -48t-8 -41q0 -25 11 -35t37 -10q59 0 94 41.5t35 117.5q0 78 -39 120t-98 42q-41 0 -41 12t50 12q60 0 98.5 35t38.5 93q0 40 -23.5 63.5t-68.5 23.5q-32 0 -58 -16
t-40.5 -31.5t-17.5 -15.5q-10 0 -10 11q0 14 17 39.5t46 53.5t78.5 48.5t105.5 20.5q74 0 117.5 -36t43.5 -100q0 -94 -84 -147q32 -16 53.5 -52.5t21.5 -83.5q0 -75 -52.5 -139.5t-132 -100t-161.5 -35.5z" />
    <glyph glyph-name="four" unicode="4" 
d="M600 686l-88 -419h107l-43 -88h-81q-19 -95 -19 -113q0 -21 11 -30.5t24.5 -9.5t24.5 -3t11 -12q0 -13 -22 -13q-18 0 -67.5 1t-87.5 1q-35 0 -89.5 -1t-72.5 -1q-15 0 -17 11q-1 11 11 14.5t28 4t32 12.5t22 38l22 101h-232l-20 52l407 455h139zM325 267l60 268l-2 2
l-244 -270h186z" />
    <glyph glyph-name="five" unicode="5" 
d="M247 512l-22 -68q38 7 95 7q129 0 196.5 -57.5t67.5 -144.5q0 -106 -82.5 -181.5t-219.5 -75.5q-85 0 -141.5 41t-56.5 94q0 42 29.5 71t71.5 29q41 0 65 -26t24 -66q0 -11 -1 -29t-1 -28q0 -62 58 -62q44 0 76 34t32 87q0 55 -54 99.5t-138 44.5q-75 0 -122 -9
q31 54 60.5 135t42 129l35.5 142h302q45 0 58 21q7 9 13 9q9 0 9 -6q0 -8 -2 -12l-82 -178h-313z" />
    <glyph glyph-name="six" unicode="6" 
d="M619 245q0 -107 -87.5 -180t-206.5 -73q-104 0 -173.5 67t-69.5 175q0 88 35.5 164t91 127.5t125 89t137 54.5t126.5 17q17 0 17 -10q0 -4 -4 -6.5t-14 -6l-13 -4.5q-97 -41 -165.5 -112.5t-100.5 -152.5q54 20 109 20q87 0 140 -48t53 -121zM429 307q0 71 -72 71
q-25 0 -49 -10q-22 -57 -37 -135t-15 -138q0 -79 56 -79q30 0 51 19.5t35 67.5q13 42 22 103.5t9 100.5z" />
    <glyph glyph-name="seven" unicode="7" 
d="M649 678l28 -52q-118 -135 -201.5 -302t-94.5 -330q-72 6 -121 6q-67 0 -113 -6q17 83 52.5 154.5t91 134.5t116.5 115t147 112v2h-306q-31 0 -51 -9t-27 -20t-13.5 -20t-13.5 -9q-9 0 -9 9q0 7 27 59l82 156h406z" />
    <glyph glyph-name="eight" unicode="8" 
d="M612 242q0 -106 -88.5 -178t-219.5 -72q-117 0 -183.5 50.5t-66.5 124.5q0 69 50 119t113 68q-59 54 -59 120q0 80 71.5 146t193.5 66q91 0 146.5 -41.5t55.5 -113.5q0 -45 -36 -81.5t-87 -51.5q48 -25 79 -65.5t31 -90.5zM442 146q0 48 -28.5 77.5t-89 62t-88.5 54.5
q-36 -27 -57 -85.5t-21 -102.5q0 -63 38 -99.5t107 -36.5q67 0 103 42t36 88zM543 564q0 46 -27.5 72t-77.5 26q-46 0 -78 -31.5t-32 -71.5q0 -43 33 -72.5t124 -76.5q58 71 58 154z" />
    <glyph glyph-name="nine" unicode="9" 
d="M285 377q0 -75 61 -75q19 0 43 9.5t30 19.5q39 118 42 254q1 43 -10 60t-38 17q-39 0 -64 -37q-20 -29 -42 -114.5t-22 -133.5zM95 429q0 97 92 177t222 80q112 0 169 -63t57 -159q0 -72 -39 -153t-108 -146q-62 -59 -151.5 -102t-143.5 -57t-73 -14q-9 0 -9 10
q0 4 18 13q90 41 163.5 115t115.5 170l-1 2q-70 -36 -145 -36q-83 0 -125 44t-42 119z" />
    <glyph glyph-name="colon" unicode=":" horiz-adv-x="305" 
d="M239 458q35 0 57 -25.5t22 -57.5q0 -55 -38 -93t-84 -38q-42 0 -66 24t-24 56q0 51 38 92.5t95 41.5zM188 206q35 0 57 -25.5t22 -57.5q0 -55 -38 -93t-84 -38q-42 0 -66 24t-24 56q0 51 38 92.5t95 41.5z" />
    <glyph glyph-name="semicolon" unicode=";" horiz-adv-x="305" 
d="M187 192q50 0 80 -33.5t30 -91.5q0 -40 -32 -97t-75 -100q-36 -36 -77 -63t-53 -27q-11 0 -11 13q0 6 6 10.5t29 19.5t49 36q72 58 72 115q0 16 -10 28q-47 -10 -59 -10q-34 0 -55.5 24t-21.5 57q0 46 38.5 82.5t89.5 36.5zM239 458q35 0 57 -25.5t22 -57.5
q0 -55 -38 -93t-84 -38q-42 0 -66 24t-24 56q0 51 38 92.5t95 41.5z" />
    <glyph glyph-name="less" unicode="&#x3c;" horiz-adv-x="600" 
d="M564 104v-118l-454 193v96l454 192v-117l-301 -123z" />
    <glyph glyph-name="equal" unicode="=" horiz-adv-x="600" 
d="M560 385v-120h-454v120h454zM560 189v-120h-454v120h454z" />
    <glyph glyph-name="greater" unicode="&#x3e;" horiz-adv-x="600" 
d="M128 -14v118l301 123l-301 123v117l454 -192v-96z" />
    <glyph glyph-name="question" unicode="?" horiz-adv-x="556" 
d="M270 269l-10 -55l-45 2q7 50 7 94q0 16 -9 97l60 36q29 -31 75 -31q62 0 110 49.5t48 103.5q0 36 -20 60.5t-51 24.5q-29 0 -52.5 -15t-40.5 -37l-34 -43.5t-41 -36.5t-53 -15q-24 0 -39.5 15t-15.5 38q0 42 56 90t147 48q86 0 144 -53.5t58 -140.5q0 -94 -68.5 -169
t-160.5 -75q-42 0 -65 13zM117 80q0 34 30.5 69t79.5 35q41 0 65.5 -26t24.5 -63q0 -34 -31 -68.5t-80 -34.5q-41 0 -65 25.5t-24 62.5z" />
    <glyph glyph-name="at" unicode="@" horiz-adv-x="800" 
d="M456 209q39 0 74 63t35 129q0 65 -42 65q-41 0 -75.5 -56.5t-34.5 -129.5q0 -71 43 -71zM588 478l10 34h78l-57 -238q-4 -16 -4 -27q0 -51 32 -51q36 0 65 68.5t29 125.5q0 99 -78.5 162.5t-181.5 63.5q-107 0 -178.5 -82t-71.5 -206q0 -123 80 -194.5t180 -71.5
q112 0 204 50l9 -63q-57 -33 -105.5 -49t-123.5 -16q-161 0 -265.5 94t-104.5 246q0 165 105.5 267.5t270.5 102.5q143 0 240.5 -86.5t97.5 -216.5q0 -55 -21.5 -110t-66.5 -95t-103 -40q-45 0 -69.5 28t-23.5 47h-2q-7 -18 -41.5 -46t-73.5 -28q-49 0 -76 37t-27 96
q0 100 55.5 174t138.5 74q50 0 79 -50z" />
    <glyph glyph-name="A" unicode="A" horiz-adv-x="685" 
d="M405 248h-190q-63 -104 -63 -151q0 -28 10.5 -45t22.5 -21t22.5 -9.5t10.5 -12.5t-5.5 -9t-27.5 -2t-57 1t-50 1q-14 0 -51.5 -1t-65.5 -1q-13 0 -17 2t-4 10q0 7 8.5 9.5l25 7.5t37.5 14.5t50 37t57 68.5t87 136.5l106 174.5t47 82q0 9 -17 24.5t-17 19.5q0 3 12 9
t42.5 23t62.5 41q22 16 37 31.5l20.5 21.5t10.5 6q6 0 16 -45q9 -47 107 -590q5 -28 19 -42t27.5 -14.5t24 -3.5t10.5 -12q0 -11 -25 -11q-32 0 -82.5 1t-72.5 1t-71 -1t-79 -1h-14t-8 1t-5.5 3t-1.5 6q0 10 12 13.5t26 3.5t26 10.5t12 31.5q0 22 -25 181zM402 272l-36 231
h-2l-136 -231h174z" />
    <glyph glyph-name="B" unicode="B" horiz-adv-x="741" 
d="M495 362v-2q110 -4 172.5 -44t62.5 -116q0 -84 -79.5 -143t-226.5 -59q-26 0 -104.5 1t-139.5 1q-43 0 -94.5 -1t-59.5 -1q-26 0 -26 13q0 12 12 15.5t27.5 3.5t32 12.5t22.5 39.5l93 394q32 133 32 149q0 14 -10.5 20t-23.5 6t-23.5 3.5t-10.5 12.5q0 13 27 13
q23 0 75 -1t81 -1q33 0 93 1t93 1q126 0 185.5 -39t59.5 -108q0 -79 -71.5 -125t-198.5 -46zM413 346h-56l-31.5 -137.5t-24 -104t-6.5 -42.5q0 -23 15 -31.5t48 -8.5q96 0 123 87q31 106 31 163q0 41 -20 57.5t-79 16.5zM428 656l-65 -286h40q51 0 81 18t48 66
q27 73 27 145q0 29 -15.5 43t-52.5 14h-63z" />
    <glyph glyph-name="C" unicode="C" horiz-adv-x="759" 
d="M306 186q0 -178 130 -178q67 0 136.5 61.5t107.5 123.5q13 22 22.5 43.5t13 28.5t9.5 7q9 0 9 -9q0 -3 -45 -241q-5 -25 -7.5 -31.5t-9.5 -6.5q-8 0 -11 18t-20 18q-3 0 -76 -18t-126 -18q-158 0 -251.5 96t-93.5 224q0 106 57.5 196.5t149 142t192.5 51.5
q62 0 113.5 -18t85 -36t53.5 -18q22 0 32 25t18 25q12 0 12 -9t-54 -266q-5 -23 -13 -23q-7 0 -8.5 5.5t-2.5 22.5q-7 92 -72.5 180t-143.5 88q-53 0 -95 -52.5t-65 -132t-35 -157.5t-12 -142z" />
    <glyph glyph-name="D" unicode="D" horiz-adv-x="778" 
d="M806 402q0 -46 -12.5 -97.5t-52.5 -117t-102 -111.5q-104 -78 -297 -78q-18 0 -70.5 1t-86.5 1q-30 0 -89 -1t-75 -1q-13 0 -17.5 2.5t-4.5 11.5q0 10 12.5 13.5t28.5 3.5t31.5 10t20.5 31l45.5 200.5l34.5 151.5l22 98t14 65t4 27q0 19 -10.5 28t-22.5 9.5t-22.5 4
t-10.5 11.5q0 15 32 15q19 0 64.5 -1t68.5 -1q27 0 86.5 1t100.5 1q139 0 223.5 -73.5t84.5 -204.5zM426 656l-122 -553q-6 -30 -6 -48t12.5 -25.5t41.5 -7.5q74 0 117.5 44.5t74.5 138.5q26 80 41 168t15 141q0 81 -33 111.5t-103 30.5h-38z" />
    <glyph glyph-name="E" unicode="E" horiz-adv-x="704" 
d="M428 656l-61 -274q55 1 106 34t72 75q3 6 5.5 11.5t4 9.5t3.5 7.5t3 6t2.5 5t2.5 3.5t2.5 2t2.5 1.5t3 0.5q9 0 9 -12q0 -5 -4.5 -24l-22.5 -98l-41 -186q-7 -35 -18 -35q-12 0 -12 14q0 3 1 15t1 22q0 49 -30.5 82t-95.5 42l-25 -114.5l-17.5 -78.5l-10.5 -45.5t-6 -31
t-1 -20.5q0 -26 14 -36t48 -10q61 0 125 29.5t106 73.5q24 25 42.5 49.5t27.5 40.5l16 29t11.5 19t10.5 6q11 0 11 -11q0 -4 -1 -8t-4.5 -13t-8 -19.5l-14 -32l-19.5 -44l-27 -62l-35 -81.5q-40 0 -190 1t-226 1q-44 0 -97 -1t-59 -1q-24 0 -24 12q0 10 12 13t27 3.5
t30.5 12.5t20.5 38l51.5 240.5l35.5 159.5l20.5 88t11 47.5t2.5 17.5q0 13 -9 18t-20 4t-20 2t-9 13q0 8 5.5 10.5t25.5 2.5q24 0 114.5 -1t150.5 -1q43 0 128 1t128 1q15 -210 15 -228q0 -15 -13 -15q-7 0 -9.5 14.5t-13.5 47t-36 64.5q-37 49 -90 70t-138 23z" />
    <glyph glyph-name="F" unicode="F" horiz-adv-x="685" 
d="M436 656l-65 -286q57 1 110.5 36t73.5 84q17 35 23 37q11 0 11 -11q0 -6 -8.5 -42.5l-26.5 -117.5l-35 -165q-3 -19 -17 -19t-14 14q0 4 1.5 18t1.5 24q0 48 -32.5 79.5t-93.5 38.5l-25.5 -116l-23 -106.5t-7.5 -45.5q0 -26 12.5 -38.5t27 -13t27 -3t12.5 -11.5t-5 -11.5
t-21 -2.5q-20 0 -79 1t-82 1q-32 0 -92 -1t-75 -1q-13 0 -17.5 2.5t-4.5 11.5t12.5 12.5t28.5 4.5t32.5 16t23.5 45l31 136.5l25 110.5l19.5 85.5l15 66l10.5 47.5l7.5 34.5t4.5 22t2.5 15.5t0.5 9q0 17 -10 25.5t-22.5 10t-22.5 4t-10 8.5q0 11 5 13t25 2q11 0 56.5 -1
t93.5 -1q94 0 219.5 1t160.5 1q9 -135 9 -228q0 -15 -11 -15q-10 0 -13 24q-7 50 -32.5 88.5t-63.5 61.5t-81.5 34t-91.5 11z" />
    <glyph glyph-name="G" unicode="G" horiz-adv-x="833" 
d="M675 0l-23 58q-40 -32 -99.5 -53t-120.5 -21q-142 0 -240 91.5t-98 237.5q0 67 28.5 134t79 122.5t130 90t172.5 34.5q45 0 91.5 -13t77.5 -26t39 -13q18 0 27 11.5t14.5 23t12.5 11.5q11 0 11 -12q0 -13 -15 -98t-30 -153q-5 -22 -16 -22q-8 0 -9 17.5t-8 56.5t-27 78
q-58 115 -156 115q-51 0 -93 -50t-66.5 -126.5t-37.5 -157t-13 -150.5q0 -75 32 -126.5t98 -51.5q53 0 89 39.5t50 94t14 120.5q0 17 -9 26t-20 9.5t-20 4t-9 10.5q0 12 22 12t66.5 -1t66.5 -1t67 1t67 1q24 0 31 -1.5t7 -7.5q0 -8 -9 -11t-21 -5t-25 -15.5t-19 -38.5
l-58 -245h-51z" />
    <glyph glyph-name="H" unicode="H" horiz-adv-x="796" 
d="M360 380h203q52 220 52 241q0 15 -9 22t-20 7t-20 3.5t-9 12.5q0 14 23 14q17 0 71.5 -1t78.5 -1q23 0 69.5 1t69.5 1q20 0 27.5 -2.5t7.5 -11.5q0 -10 -12 -13.5t-27.5 -4t-31.5 -14.5t-22 -43l-47 -211l-33.5 -151l-20 -89.5t-12 -57t-2.5 -23.5q0 -19 9.5 -27t21 -7
t21 -1.5t9.5 -11.5t-4 -11.5t-22 -2.5q-13 0 -64.5 1t-65.5 1q-36 0 -94 -1t-75 -1q-16 0 -19.5 2t-3.5 9q0 10 11 13t25 3t28.5 11t19.5 34l67 286h-204l-26 -116t-19 -81.5t-12 -49.5t-7 -32.5t-2 -17.5q0 -16 10 -24t21.5 -9t21.5 -4t10 -11q0 -13 -29 -13q-27 0 -75.5 1
t-70.5 1t-70.5 -1t-77.5 -1q-28 0 -28 11q0 10 12 14t27.5 4t30 8.5t18.5 26.5l32.5 146l26.5 118l21 91.5l16 70.5l11.5 50.5l8.5 36t5 22.5t2.5 14.5t0.5 7.5q0 18 -9.5 25.5t-21 7t-21 2.5t-9.5 12q0 14 22 14q18 0 65 -1t88 -1q25 0 77.5 1t64.5 1q21 0 27 -2.5t6 -11.5
t-12 -12.5t-27.5 -5t-31.5 -15.5t-22 -40z" />
    <glyph glyph-name="I" unicode="I" horiz-adv-x="407" 
d="M218 619q0 16 -10 23.5t-22.5 8t-22.5 4t-10 11.5q0 9 6 11.5t26 2.5q16 0 57.5 -1t89.5 -1q21 0 71 1t82 1q15 0 20.5 -2.5t5.5 -11.5t-12 -12t-27.5 -3.5t-32 -15.5t-22.5 -45l-38 -175.5l-28.5 -132l-20 -91.5l-14 -63l-8 -37.5t-4.5 -22.5t-1 -11q0 -17 11 -25
t23.5 -9t23.5 -4t11 -11q0 -10 -30 -10q-14 0 -62 1t-91 1t-91.5 -1t-65.5 -1q-26 0 -26 9q0 11 13 14.5t29.5 2.5t32.5 9.5t21 33.5l64 304l41.5 187t10.5 61z" />
    <glyph glyph-name="J" unicode="J" horiz-adv-x="556" 
d="M21 108q0 49 30.5 81.5t74.5 32.5q38 0 61.5 -22.5t23.5 -55.5q0 -32 -26 -62.5t-26 -41.5q0 -32 35 -32q34 0 52 29t30 87l47 230q50 244 50 264q0 16 -10 23t-21.5 7t-21.5 3t-10 11q0 11 6.5 14.5t24.5 3.5q14 0 68.5 -1t79.5 -1q42 0 93 1t68 1q18 0 18 -14
q0 -10 -12.5 -13t-28 -4.5t-32.5 -19t-24 -52.5l-22 -109l-19 -93.5l-14.5 -72t-13.5 -61.5l-11.5 -44t-12 -38t-11.5 -25q-41 -74 -116 -112t-158 -38q-79 0 -125.5 34t-46.5 90z" />
    <glyph glyph-name="K" unicode="K" horiz-adv-x="759" 
d="M515 0l-113 340l-48 -42l-20 -96t-20.5 -99t-6.5 -44q0 -18 12 -25t26 -6.5t26 -3t12 -13.5q0 -9 -6 -11t-29 -2q-28 0 -78.5 1t-74.5 1q-22 0 -74.5 -1t-87.5 -1q-15 0 -20 1.5t-5 9.5q0 12 13.5 15.5t31 3.5t34.5 12t22 37q113 528 113 545q0 20 -37 25t-37 17
q0 16 36 16q24 0 76.5 -1t75.5 -1q22 0 71 1t79 1q29 0 29 -10q0 -9 -13 -13.5t-29.5 -7t-33 -18t-22.5 -43.5l-52 -236l3 -2q161 136 208 185.5t47 83.5q0 16 -12.5 23.5t-25 12t-12.5 11.5q0 14 21 14q14 0 53 -1t57 -1q19 0 60.5 1t57.5 1q25 0 25 -14q0 -5 -3 -8t-11 -5
t-18.5 -4t-28 -8.5t-35.5 -15.5q-74 -36 -197 -152l150 -423q5 -14 16 -19.5t20.5 -4.5t17 -2t7.5 -14q0 -12 -21 -12q-7 0 -76.5 1t-152.5 1z" />
    <glyph glyph-name="L" unicode="L" horiz-adv-x="648" 
d="M298 56q0 -34 40 -34q61 0 124 36.5t118 97.5q25 28 40.5 52.5t20 36.5t9 19t12.5 7q12 0 12 -12q0 -10 -95 -261q-37 0 -167 1t-210 1q-59 0 -116.5 -1t-61.5 -1q-16 0 -16 12q0 9 12 12.5t27.5 4.5t31.5 16.5t22 45.5l46.5 222l31.5 144l18 78.5t10 49.5t2 34
q0 17 -10 24t-22.5 7t-22.5 3t-10 12q0 17 28 17q14 0 70 -1t81 -1q21 0 71.5 1t82.5 1q25 0 25 -14q0 -11 -12.5 -14t-28 -3t-31.5 -14t-22 -44l-45.5 -219.5l-32.5 -151.5t-19 -88t-10.5 -53.5t-2.5 -22.5z" />
    <glyph glyph-name="M" unicode="M" horiz-adv-x="889" 
d="M403 678l85 -429l247 429q53 0 123.5 1t83.5 1q25 0 33 -2.5t8 -11.5q0 -10 -11 -13t-25 -3.5t-28 -11.5t-19 -34l-49.5 -235.5l-33.5 -157l-19.5 -87t-10.5 -48.5t-2 -19q0 -16 11.5 -22.5t26 -6.5t26 -3.5t11.5 -12.5q0 -14 -30 -14q-17 0 -73 1t-80 1q-21 0 -71.5 -1
t-83.5 -1q-24 0 -24 14q0 12 12 15.5t26.5 2t30 9.5t21.5 36l102 464l-2 2l-137 -234.5l-93.5 -163.5l-53.5 -95t-31 -52.5t-12 -11.5q-7 0 -10 12.5t-16 80.5q-39 212 -91 458h-2l-29 -129l-23.5 -106t-15.5 -74.5t-11 -65.5t-3 -48q0 -38 13.5 -58.5t29.5 -23t29.5 -6.5
t13.5 -14q0 -8 -5.5 -10t-26.5 -2q-19 0 -51 1t-46 1q-12 0 -48 -1t-66 -1q-17 0 -17 12q0 9 18 15t41 13t48.5 40.5t38.5 90.5l25 111l20 89l15.5 68l12 52t8 37l5.5 26t3.5 17t2 12t0.5 8q0 26 -11 40.5t-24.5 17.5t-24.5 8t-11 14q0 11 30 11q21 0 87 -1t133 -1z" />
    <glyph glyph-name="N" unicode="N" horiz-adv-x="704" 
d="M376 678l246 -394q5 24 17 76l19.5 84.5t13.5 69.5t6 56q0 35 -15 53.5t-33 21.5t-33 7t-15 14q0 14 21 14q15 0 54.5 -1t59.5 -1q26 0 64 1t45 1q18 0 22 -2.5t4 -12.5q0 -9 -11.5 -12.5t-30 -8.5t-38.5 -15.5t-39 -40t-29 -75.5l-111 -514q-4 -15 -9 -15t-15 16
l-336 537l-31 -148.5l-24 -112.5l-15.5 -73.5t-10 -55t-2.5 -33.5q0 -39 14 -60t30.5 -24.5t30.5 -7t14 -10.5q0 -14 -19 -14q-29 0 -65.5 1t-49.5 1t-49.5 -1t-63.5 -1q-20 0 -20 11q0 8 14 11.5t33 6t42.5 21t38.5 53.5q12 27 30.5 104t80.5 364l-39 56q-10 15 -25 21.5
t-24 9.5t-9 9q0 15 26 15q14 0 80 -1t156 -1z" />
    <glyph glyph-name="O" unicode="O" horiz-adv-x="815" 
d="M513 694q53 0 108.5 -19t106 -55t83 -98t32.5 -140q0 -104 -61 -196.5t-161.5 -147t-211.5 -54.5q-53 0 -108.5 19t-106 55t-82.5 98t-32 140q0 104 61 196.5t161 147t211 54.5zM292 170q0 -79 26 -120.5t94 -41.5q55 0 98 50.5t64.5 117.5t35.5 146t17.5 123.5t3.5 62.5
q0 79 -26 120.5t-94 41.5q-55 0 -98 -50.5t-64.5 -117.5t-35.5 -146t-17.5 -123.5t-3.5 -62.5z" />
    <glyph glyph-name="P" unicode="P" horiz-adv-x="667" 
d="M416 656l-72 -354q89 0 122 49q25 38 41 105.5t16 121.5q0 46 -21 61.5t-86 16.5zM729 510q0 -64 -41.5 -121.5t-118.5 -84.5q-77 -26 -232 -26q-41 -203 -41 -214q0 -20 10.5 -29t22.5 -9t22.5 -2.5t10.5 -11.5q0 -14 -28 -14q-30 0 -79.5 1t-71.5 1q-20 0 -72 -1
t-88 -1q-19 0 -19 12q0 10 12 12.5t27 2t30.5 9.5t20.5 33l94.5 436t19.5 119q0 19 -14 25t-28 7.5t-14 10.5q0 15 31 15q21 0 64 -1t67 -1q26 0 81.5 1t95.5 1q238 0 238 -170z" />
    <glyph glyph-name="Q" unicode="Q" horiz-adv-x="815" 
d="M513 694q53 0 108.5 -19t106 -55t83 -98t32.5 -140q0 -112 -66.5 -205t-168 -143t-211.5 -50v-2q42 -11 89.5 -28.5t79 -26.5t61.5 -9q36 0 61 12t34.5 26l18 26t15.5 12q9 0 9 -14q0 -6 -10 -23.5t-33.5 -43t-55 -49t-82.5 -40t-109 -16.5q-53 0 -97.5 17.5t-100.5 51.5
q-86 54 -111 63q-17 5 -32 5q-23 0 -37.5 -8t-18.5 -17t-9 -17t-12 -8q-12 0 -12 10q0 8 10.5 25.5t30.5 38.5t58 36.5t84 15.5h30v2q-78 35 -128 104t-50 169q0 104 61 196.5t161 147t211 54.5zM631 508q0 79 -26 120.5t-94 41.5q-55 0 -98 -50.5t-64.5 -117.5t-35.5 -146
t-17.5 -123.5t-3.5 -62.5q0 -79 26 -120.5t94 -41.5q55 0 98 50.5t64.5 117.5t35.5 146t17.5 123.5t3.5 62.5z" />
    <glyph glyph-name="R" unicode="R" horiz-adv-x="741" 
d="M512 0l-71 288q-7 29 -16 36t-44 7h-22q-53 -238 -53 -261q0 -24 10 -35t22.5 -10.5t22.5 -1.5t10 -11q0 -14 -24 -14q-22 0 -77 1t-78 1q-44 0 -96 -1t-60 -1q-19 0 -19 11q0 9 11 12t25.5 3.5t28.5 10.5t19 31l35.5 157l29.5 127l21.5 94l16 73.5l10.5 49t6.5 36
t1.5 20.5q0 15 -11 21.5t-24 6.5t-24 3t-11 12q0 8 6.5 11t25.5 3q18 0 69.5 -1t92.5 -1q47 0 100 1t78 1q109 0 161.5 -38.5t52.5 -99.5q0 -83 -72 -136.5t-210 -58.5v-2q95 -9 138 -34.5t63 -94.5l46 -160q5 -18 17 -25.5t23 -7t19.5 -2.5t8.5 -12q0 -11 -25 -11
q-42 0 -119.5 1t-114.5 1zM428 656l-65 -301q57 -1 85.5 11t45.5 46q19 38 28.5 87t9.5 80q0 44 -13 60.5t-49 16.5h-42z" />
    <glyph glyph-name="S" unicode="S" horiz-adv-x="648" 
d="M152 460q0 91 85 162.5t186 71.5q43 0 88 -14t74.5 -28t35.5 -14q17 0 23.5 20t15.5 20q11 0 11 -13q0 -3 -4.5 -25.5l-15 -78.5t-21.5 -122q-2 -11 -10 -11q-7 0 -9.5 6.5t-6.5 27.5q-3 20 -6 33q-15 71 -57.5 123t-112.5 52q-54 0 -86 -28.5t-32 -74.5q0 -35 34 -62
t82.5 -46.5t97 -42.5t82.5 -63.5t34 -96.5q0 -104 -86 -188t-227 -84q-55 0 -98 13.5t-71 27.5t-46 14q-15 0 -23 -9.5t-12.5 -19.5t-10.5 -10q-8 0 -8 8q0 17 16 113.5t29 161.5q3 17 13 17t12 -35q3 -42 15.5 -85t35 -82.5t60.5 -64.5t84 -25q56 0 97.5 40.5t41.5 100.5
q0 40 -32 68t-77.5 46.5t-91 40t-77.5 61t-32 95.5z" />
    <glyph glyph-name="T" unicode="T" horiz-adv-x="722" 
d="M258 77l127 577q-46 -7 -106 -46t-102 -92q-11 -14 -20 -27.5l-14 -21.5l-9 -14.5t-7 -9.5t-6 -3q-11 0 -11 9q0 13 97 239q7 16 13 16q3 0 8.5 -6.5t19.5 -13t37 -6.5h387q31 0 50 4t24 9t8.5 9t7.5 4q8 0 8 -18q0 -37 -2 -111t-2 -111q0 -24 -11 -24t-13 23
q-5 60 -40.5 113t-118.5 78l-46.5 -220l-35.5 -163.5t-22 -103t-13.5 -73t-3.5 -38.5q0 -16 11 -22.5t24 -5.5t24 -2.5t11 -13.5q0 -14 -22 -14q-35 0 -90.5 1t-81.5 1q-49 0 -99 -1t-58 -1q-25 0 -25 13q0 12 13.5 15.5t31 2t34.5 10t23 38.5z" />
    <glyph glyph-name="U" unicode="U" horiz-adv-x="722" 
d="M725 498l-62 -293q-24 -111 -103 -166t-195 -55q-133 0 -199 45t-66 108q0 36 49.5 244.5t49.5 231.5q0 25 -13.5 32.5t-27.5 9t-14 11.5q0 14 32 14q22 0 68 -1t69 -1q40 0 86 1t54 1q29 0 29 -14q0 -7 -10.5 -10.5t-24.5 -6.5t-29.5 -20.5t-22.5 -49.5
q-95 -392 -95 -456q0 -44 30 -72.5t86 -28.5q80 0 137 51t77 145q70 329 70 361q0 30 -12 47.5t-26 21.5l-26 7.5t-12 9.5q0 15 25 15q23 0 55 -1t44 -1q13 0 41.5 1t45.5 1q31 0 31 -13q0 -7 -17 -12.5t-39 -13.5t-47 -45t-38 -98z" />
    <glyph glyph-name="V" unicode="V" horiz-adv-x="648" 
d="M367 605q0 -13 9.5 -69.5l27.5 -158.5l25 -144l87 142.5l60.5 97t33 55.5t19 42t3.5 33q0 23 -10 35t-22.5 13t-22.5 4t-10 11q0 14 26 14q23 0 54.5 -1t43.5 -1q15 0 52 1t46 1q25 0 25 -11q0 -10 -12.5 -15t-32 -9.5t-51 -31.5t-61.5 -74l-197 -308
q-116 -183 -138 -215t-29 -32t-12 17t-20 98l-100 504q-6 32 -24 42t-32.5 11t-14.5 11q0 9 5 11t22 2q30 0 77.5 -1t67.5 -1t69 1t82 1q13 0 17.5 -3t4.5 -12q0 -7 -17 -9.5t-34 -13t-17 -37.5z" />
    <glyph glyph-name="W" unicode="W" horiz-adv-x="852" 
d="M380 269l98 187l-28 165q-3 15 -10 22.5t-14 8.5t-12.5 4t-5.5 11q0 9 7 11t25 2q22 0 58 -1t52 -1q15 0 54.5 1t68.5 1q20 0 20 -10q0 -9 -7.5 -13t-16 -5.5t-16 -10.5t-7.5 -27q0 -3 44 -347h2q124 247 137 281q11 31 11 58q0 26 -15 36t-30.5 13.5t-15.5 12.5
q0 12 21 12q24 0 54 -1t40 -1q9 0 40.5 1t57.5 1q16 0 16 -11q0 -7 -13.5 -12.5l-34 -13.5t-53 -43.5t-63.5 -93.5l-271 -511q-5 -11 -11 -11q-8 0 -11 19l-65 409h-2l-226 -417q-6 -11 -11 -11q-8 0 -11 19l-92 595q-5 33 -20 44.5t-27.5 13t-12.5 11.5q0 13 19 13
q17 0 61.5 -1t68.5 -1q18 0 56 1t61 1q32 0 32 -13q0 -9 -12 -12t-24 -10.5t-12 -27.5q0 -14 44 -348h2z" />
    <glyph glyph-name="X" unicode="X" horiz-adv-x="704" 
d="M499 412l120 -327q10 -27 25.5 -40.5t28 -15t22 -4.5t9.5 -13t-4 -12t-24 -2q-32 0 -83 1t-73 1q-36 0 -94.5 -1t-68.5 -1q-22 0 -22 14q0 11 11.5 14t26 2.5t26 9t11.5 31.5q0 4 -0.5 8.5t-3 12.5t-5.5 16.5l-9.5 26l-13 35.5l-18.5 50.5l-24 65.5l-85 -103
q-55 -65 -55 -107q0 -25 13 -36t25.5 -14.5t12.5 -11.5q0 -14 -26 -14q-23 0 -59.5 1t-52.5 1q-15 0 -52.5 -1t-62.5 -1q-9 0 -12.5 0.5t-6.5 3.5t-3 9q0 10 7.5 13t28.5 8.5t42 17.5q44 26 91.5 68.5t78 76l105.5 118.5l-105 286q-9 24 -23 36.5t-25.5 13.5t-19.5 4t-8 12
q0 15 29 15q21 0 69.5 -1t70.5 -1q21 0 71 1t71 1q27 0 27 -13q0 -8 -8.5 -11t-19 -3t-19 -8t-8.5 -25q0 -8 2.5 -19t9 -28l13 -33.5l18 -46l20.5 -54.5l55.5 65t33 42t23 38t4.5 28t-7.5 23.5t-17 11t-17 7t-7.5 11.5q0 15 34 15q17 0 45 -1t41 -1t39.5 1t40.5 1
q39 0 39 -10q0 -9 -8 -13.5t-26 -10t-32 -14.5q-37 -23 -75.5 -56.5t-58.5 -55l-55.5 -62t-41.5 -46.5z" />
    <glyph glyph-name="Y" unicode="Y" horiz-adv-x="630" 
d="M258 332l-94 270q-8 22 -21 33.5t-24.5 13.5t-20 5.5t-8.5 12.5t7 11t28 2q27 0 75.5 -1t71.5 -1q27 0 86 1t69 1q12 0 16.5 -0.5t8 -3.5t3.5 -9q0 -9 -12 -13.5t-27 -6.5t-27 -13t-12 -31q0 -7 2 -15.5t7.5 -26.5t13 -39.5t22 -66.5l29.5 -96q99 131 126 177t27 75
q0 21 -13.5 30.5t-27 13t-13.5 11.5q0 14 30 14q14 0 42.5 -1t42.5 -1t42.5 1t42.5 1q30 0 30 -14q0 -6 -4.5 -9t-11 -4.5t-19 -6.5t-24.5 -13q-21 -14 -59 -50.5t-77 -89.5l-63.5 -85l-42.5 -53.5t-19.5 -27t-10.5 -24.5q-44 -224 -44 -243q0 -17 10.5 -24.5t23 -8t23 -4
t10.5 -12.5t-6 -11t-24 -2q-29 0 -79 1t-72 1q-39 0 -89 -1t-72 -1q-18 0 -18 10q0 9 12 12t27 4t30.5 14.5t21.5 40.5z" />
    <glyph glyph-name="Z" unicode="Z" horiz-adv-x="685" 
d="M751 680l-478 -658q94 9 168 37t114 61t66 64.5t40.5 52.5t22.5 21q10 0 10 -12q0 -8 -104 -248q-48 0 -144 1t-145 1q-48 0 -144 -1t-144 -1l489 658q-84 -6 -150 -31.5t-102 -57t-60.5 -62t-37.5 -51t-19 -20.5q-10 0 -10 12q0 5 3.5 14t12.5 28.5l19.5 42l30 64.5
l39.5 85q43 0 130.5 -1t131.5 -1t131 1t130 1z" />
    <glyph glyph-name="bracketleft" unicode="[" horiz-adv-x="463" 
d="M95 -148l189 820q5 24 10 32.5t19 8.5h166q17 0 23 -1.5t6 -9.5q0 -10 -11.5 -13t-26 -3t-29.5 -12.5t-21 -38.5l-167 -727q-7 -28 -7 -41q0 -16 12.5 -24t27.5 -8t27.5 -3t12.5 -10q0 -11 -24 -11h-198q-16 0 -16 15z" />
    <glyph glyph-name="backslash" unicode="\" horiz-adv-x="278" 
d="M380 -16h-122l-256 710h122z" />
    <glyph glyph-name="bracketright" unicode="]" horiz-adv-x="463" 
d="M453 672l-189 -820q-5 -24 -10 -32.5t-19 -8.5h-166q-17 0 -23 1.5t-6 9.5q0 10 11.5 13t26 3t29.5 12.5t21 38.5l167 727q7 28 7 41q0 16 -12.5 24t-27.5 8t-27.5 3t-12.5 10q0 11 24 11h198q16 0 16 -15z" />
    <glyph glyph-name="asciicircum" unicode="^" horiz-adv-x="600" 
d="M569 350h-117l-91 196l-91 -196h-117l156 328h104z" />
    <glyph glyph-name="underscore" unicode="_" horiz-adv-x="500" 
d="M500 -125h-500v50h500v-50z" />
    <glyph glyph-name="grave" unicode="`" horiz-adv-x="333" 
d="M344 524h-50l-133 85q-37 24 -37 52q0 19 15 33t38 14q32 0 59 -36z" />
    <glyph glyph-name="a" unicode="a" 
d="M353 105h-2q-33 -56 -57 -78q-41 -35 -96 -35q-67 0 -110.5 46t-43.5 120q0 116 90.5 210t192.5 94q81 0 93 -76q32 35 88.5 55.5t87.5 20.5q15 0 15 -8q0 -5 -11.5 -18.5t-16.5 -33.5q-63 -303 -63 -320q0 -24 19 -24q26 0 53 74q12 32 18 32q10 0 10 -11q0 -5 -4 -20
t-15 -40t-27 -47t-44 -38t-63 -16q-30 0 -51 9t-33.5 29.5t-17 32t-10.5 35.5q-1 5 -2 7zM255 38q31 0 64.5 56.5t55 134.5t21.5 140q0 29 -12.5 49t-32.5 20q-39 0 -75 -100q-54 -152 -54 -253q0 -47 33 -47z" />
    <glyph glyph-name="b" unicode="b" horiz-adv-x="574" 
d="M363 730l-92 -379l2 -2q21 49 61.5 81t89.5 32q72 0 116.5 -48.5t44.5 -123.5q0 -61 -37 -129t-107.5 -118.5t-152.5 -50.5q-94 0 -155 55t-61 148q0 45 47.5 233.5t47.5 200.5q0 14 -7.5 21.5t-16.5 9.5t-16.5 6t-7.5 11q0 12 21.5 13t85.5 8.5t137 31.5zM276 16
q28 0 47 29.5t46 109.5q17 50 27.5 107t10.5 87q0 69 -38 69q-30 0 -64 -53.5t-56.5 -132t-22.5 -147.5t50 -69z" />
    <glyph glyph-name="c" unicode="c" horiz-adv-x="500" 
d="M50 186q0 115 84 195.5t200 80.5q83 0 129.5 -42t46.5 -100q0 -39 -22.5 -68t-64.5 -29q-30 0 -50.5 21.5t-20.5 51.5q0 25 18 57t18 52q0 15 -11 24t-28 9q-50 0 -85.5 -72.5t-35.5 -147.5q0 -69 30 -110.5t94 -41.5q25 0 48 10t35.5 22l23 22t13.5 10q12 0 12 -12
q0 -4 -9 -17t-29 -32t-46.5 -36t-67 -29t-84.5 -12q-88 0 -143 55t-55 139z" />
    <glyph glyph-name="d" unicode="d" horiz-adv-x="593" 
d="M622 730l-101 -561q-10 -52 -10 -85q0 -26 16 -26q12 0 25 18t22 45l4 12t3.5 9.5t3 7.5t2 6.5t2 4.5t2 3.5t2 2t2.5 1t3 0.5q11 0 11 -14q0 -7 -8 -30t-24 -54t-48 -54.5t-73 -23.5q-93 0 -110 110h-2q-52 -110 -143 -110q-75 0 -116 50t-41 116q0 58 26 115t66 97.5
t87.5 66t89.5 25.5q27 0 47 -9.5t27 -17t18 -23.5l25 157q7 47 7 60q0 14 -7.5 21.5t-16.5 9.5t-16.5 6t-7.5 11q0 12 20 13t81 8.5t132 31.5zM385 373q0 29 -12 47t-31 18q-25 0 -44 -35t-42 -117q-34 -122 -34 -201q0 -49 31 -49q48 0 90 119t42 218z" />
    <glyph glyph-name="e" unicode="e" horiz-adv-x="500" 
d="M514 352q0 -64 -76.5 -106t-209.5 -42q0 -52 27.5 -85t89.5 -33q37 0 64 12t42 24t22 12q8 0 8 -9q0 -16 -40 -57q-74 -76 -199 -76q-89 0 -140.5 52t-51.5 129q0 128 88 208.5t203 80.5q80 0 126.5 -29.5t46.5 -80.5zM228 228h15q43 0 75.5 30.5t46 68t13.5 70.5
q0 41 -32 41q-39 0 -78.5 -69t-39.5 -141z" />
    <glyph glyph-name="f" unicode="f" horiz-adv-x="352" 
d="M133 400h-69q33 35 71 88l67.5 95.5t63 83t72 63t81.5 22.5q34 0 62 -24.5t28 -56.5q0 -33 -25.5 -68t-68.5 -35q-24 0 -40 14t-16 40q0 15 9 39t9 36q0 17 -18 17q-21 0 -38.5 -23.5t-17.5 -63.5q0 -21 5.5 -73t4.5 -100h111l-23 -54h-97q-22 -145 -61.5 -259.5
t-83 -182t-93.5 -112t-90 -60.5t-75 -16q-42 0 -69.5 24.5t-27.5 58.5q0 30 21.5 47t51.5 17q29 0 49 -13.5t28.5 -30t20 -30t25.5 -13.5q44 0 55.5 53.5t26 210.5t51.5 306z" />
    <glyph glyph-name="g" unicode="g" horiz-adv-x="556" 
d="M55 -128q0 -35 51 -56.5t152 -21.5q81 0 116.5 19t35.5 45q0 20 -13.5 30.5t-42 16t-61.5 8.5t-83 11.5t-95 21.5q-26 -8 -43 -28t-17 -46zM264 237q0 -58 51 -58q50 0 73 90q26 94 24 124q-2 45 -49 45q-30 0 -50 -23q-19 -22 -34 -81t-15 -97zM243 178v2
q-151 23 -151 127q0 64 64.5 109.5t177.5 45.5h42q7 63 46.5 109.5t79.5 46.5q29 0 45.5 -16.5t16.5 -44.5q0 -27 -17.5 -48t-47.5 -21q-15 0 -32.5 5t-30.5 5q-31 0 -40 -38q92 -7 140 -46.5t48 -89.5q0 -72 -77.5 -117t-192.5 -45q-96 0 -127.5 -6t-31.5 -30
q0 -22 38.5 -33.5t93.5 -18t110.5 -17t94 -40t38.5 -78.5q0 -73 -78.5 -121t-196.5 -48t-190 29t-72 79q0 64 98 80v2q-21 9 -35.5 33t-14.5 53q0 52 50.5 92t151.5 40z" />
    <glyph glyph-name="h" unicode="h" 
d="M378 736l-87 -392l2 -2q58 120 153 120q60 0 97.5 -33.5t37.5 -92.5q0 -25 -28 -131.5t-28 -124.5q0 -22 15 -22q22 0 48 53q4 7 7.5 15l5.5 12.5t4 8t4 5t5 1.5q9 0 9 -10q0 -8 -9 -30t-25.5 -50.5t-48 -49.5t-68.5 -21q-54 0 -83.5 30.5t-29.5 82.5q0 37 28 147.5
t28 126.5q0 33 -28 33q-24 0 -55 -44t-52 -108q-36 -112 -65 -268q-34 28 -85 28q-37 0 -85 -28l56.5 252.5l40.5 174.5l24 102.5t14 68t3 40.5q0 13 -7 21.5t-15 11t-15 7t-7 10.5q0 12 40 14q100 5 199 42z" />
    <glyph glyph-name="i" unicode="i" horiz-adv-x="352" 
d="M328 349q0 -31 -30.5 -139.5t-30.5 -129.5q0 -22 15 -22q22 0 48 53q4 7 7.5 15l5.5 12.5t4 8t4 5t5 1.5q9 0 9 -10q0 -8 -9 -30t-25.5 -50.5t-48 -49.5t-68.5 -21q-54 0 -83.5 30t-29.5 82q0 39 30.5 149t30.5 121q0 22 -15 22q-21 0 -48 -53q-4 -7 -7.5 -15l-5.5 -12.5
t-4 -8t-4 -5t-5 -1.5q-9 0 -9 10q0 8 9 30t25.5 50.5t48 49.5t68.5 21q54 0 83.5 -30.5t29.5 -82.5zM316 736q40 0 66 -25t26 -61q0 -44 -33.5 -75t-73.5 -31q-41 0 -67 24.5t-26 61.5q0 44 33.5 75t74.5 31z" />
    <glyph glyph-name="j" unicode="j" horiz-adv-x="333" 
d="M325 352q0 -42 -73 -365q-17 -77 -58 -127t-89 -70t-104 -20q-61 0 -100 27.5t-39 68.5q0 30 21.5 52t54.5 22q38 0 59.5 -20.5t27 -44.5t17.5 -44.5t35 -20.5q16 0 27.5 12.5t11.5 28.5q0 18 -16.5 46t-16.5 69q0 21 38 200.5t38 207.5q0 22 -15 22q-22 0 -48 -53
q-4 -7 -7 -14.5t-4.5 -13t-3.5 -10t-3 -7.5t-3 -5t-5 -2q-9 0 -9 10q0 11 9 35t25.5 53.5t48 51t68.5 21.5q48 0 80.5 -31t32.5 -79zM293 736q40 0 66 -25t26 -61q0 -44 -33.5 -75t-73.5 -31q-41 0 -67 24.5t-26 61.5q0 44 33.5 75t74.5 31z" />
    <glyph glyph-name="k" unicode="k" horiz-adv-x="593" 
d="M384 730l-105 -444l2 -1q41 80 97 128.5t111 48.5q44 0 70.5 -24t26.5 -61q0 -64 -81 -107.5t-181 -49.5v-2q48 -4 82 -18.5t50 -31.5t26.5 -33.5t20.5 -27.5t23 -11q23 0 39 43q1 4 3 9.5t3.5 9l3 7t3.5 5t4 1.5q9 0 9 -8q0 -46 -50 -108.5t-120 -62.5q-50 0 -79.5 36
t-33.5 103q-4 83 -42 86q-39 -139 -55 -225q-36 28 -83 28q-48 0 -87 -28l138 574q9 37 9 63q0 14 -7.5 21.5t-16.5 9.5t-16.5 6t-7.5 11q0 12 21.5 13t85.5 8.5t137 31.5zM272 230h14q51 0 96.5 30.5t45.5 70.5q0 33 -36 33q-65 0 -120 -134z" />
    <glyph glyph-name="l" unicode="l" horiz-adv-x="333" 
d="M234 89q0 -31 18 -31q22 0 51 69q17 36 21 38q10 0 10 -12q0 -4 -4 -19.5t-15.5 -40t-27.5 -46.5t-44 -38.5t-62 -16.5q-47 0 -80 30.5t-33 82.5q0 43 56 276t56 248q0 14 -7.5 21.5t-16.5 9.5t-16.5 6t-7.5 11q0 12 21.5 13t85.5 8.5t137 31.5q-142 -614 -142 -641z" />
    <glyph glyph-name="m" unicode="m" horiz-adv-x="907" 
d="M297 322h2q11 27 22.5 47t31 43.5t47 36.5t60.5 13q63 0 97 -35.5t37 -88.5h2q51 124 155 124q57 0 92 -35t35 -91q0 -32 -26.5 -135t-26.5 -121q0 -22 15 -22q22 0 48 53q4 7 7.5 15l5.5 12.5t4 8t4 5t5 1.5q9 0 9 -10q0 -8 -9 -30t-25.5 -50.5t-48 -49.5t-68.5 -21
q-54 0 -83.5 30.5t-29.5 82.5q0 32 30.5 143t30.5 129q0 17 -8.5 26t-21.5 9q-88 0 -164 -420q-52 27 -86 27q-42 0 -88 -27q76 340 76 385q0 35 -29 35q-43 0 -87 -120t-76 -300q-48 28 -84 28q-41 0 -87 -28q76 352 76 380q0 24 -16 24q-23 0 -49 -54q-22 -48 -28 -48
q-11 0 -11 11q0 7 9.5 30t27 52.5t49.5 52t70 22.5q61 0 82.5 -37t21.5 -103z" />
    <glyph glyph-name="n" unicode="n" horiz-adv-x="630" 
d="M64 -8l75 328q10 42 10 55q0 21 -16 21q-23 0 -51 -57q-3 -5 -6.5 -12.5t-5.5 -11l-4.5 -7.5t-4.5 -5.5t-5 -1.5q-10 0 -10 11q0 7 10 29t27.5 50t48.5 49.5t67 21.5q24 0 42.5 -6t29.5 -19.5t18 -23t11 -30.5t4.5 -26.5t2.5 -25.5h2q14 27 24.5 44.5t30.5 40.5
t47.5 34.5t61.5 11.5q58 0 95 -33.5t37 -92.5q0 -25 -28 -131.5t-28 -124.5q0 -22 15 -22q22 0 48 53q4 7 7.5 15l5.5 12.5t4 8t4 5t5 1.5q9 0 9 -10q0 -8 -9 -30t-25.5 -50.5t-48 -49.5t-68.5 -21q-54 0 -83.5 30.5t-29.5 82.5q0 37 28 147.5t28 126.5q0 33 -28 33
q-24 0 -55 -44t-52 -108q-36 -112 -65 -268q-37 28 -87 28q-35 0 -88 -28z" />
    <glyph glyph-name="o" unicode="o" horiz-adv-x="556" 
d="M557 262q0 -122 -81.5 -196t-200.5 -74q-86 0 -155.5 57.5t-69.5 142.5q0 122 82 196t201 74q86 0 155 -57.5t69 -142.5zM343 438q-23 0 -40 -18t-32 -62q-24 -68 -39.5 -148t-15.5 -132q0 -62 48 -62q23 0 40 18.5t32 62.5q24 68 39.5 148t15.5 132q0 61 -48 61z" />
    <glyph glyph-name="p" unicode="p" horiz-adv-x="593" 
d="M235 8l-53 -238q-31 29 -82 29q-36 0 -85 -29l120 539q10 43 10 66q0 21 -20 21q-17 0 -32 -25t-25.5 -50.5t-15.5 -25.5q-10 0 -10 11q0 8 7.5 30t23.5 52t48 52t72 22q104 0 104 -131h2q26 61 60.5 96t91.5 35q67 0 110 -47t43 -114q0 -109 -83.5 -209t-201.5 -100
q-34 0 -84 16zM259 83q0 -67 42 -67q27 0 46.5 36t46.5 135q13 46 22.5 106.5t9.5 83.5q0 41 -29 41t-62.5 -64.5t-54.5 -143.5t-21 -127z" />
    <glyph glyph-name="q" unicode="q" horiz-adv-x="593" 
d="M565 298l-113 -528q-30 30 -79 30q-39 0 -91 -30l72 343l-2 2v-3q-15 -28 -26 -44.5t-30 -36.5t-44 -29.5t-57 -9.5q-73 0 -114.5 43t-41.5 115q0 122 94 217t182 95q55 0 77.5 -27t24.5 -75q49 45 117 73.5t94 28.5q7 0 7 -5q0 -2 -2 -4.5t-6 -6t-7 -6.5
q-32 -37 -55 -142zM251 36q45 0 95.5 111.5t50.5 210.5q0 39 -14 59.5t-36 20.5q-20 0 -35 -18.5t-32 -64.5q-29 -76 -46 -153.5t-17 -108.5q0 -17 1 -26.5t9 -20t24 -10.5z" />
    <glyph glyph-name="r" unicode="r" horiz-adv-x="500" 
d="M310 341v-21l2 -2q59 144 152 144q37 0 57.5 -19.5t20.5 -54.5q0 -44 -30.5 -77t-72.5 -33q-25 0 -39.5 16t-21.5 32t-14 16q-48 0 -94 -241l-21 -109q-48 28 -84 28q-44 0 -91 -28l19 85l16 72l13 57t10.5 48l7.5 37t5.5 31t3.5 23.5t2.5 21.5t0.5 18q0 23 -14 23
q-21 0 -50 -58l-8.5 -17t-6.5 -14t-4 -9t-4 -5.5t-5 -1.5q-8 0 -8 8q0 7 9.5 29.5t26.5 50.5t48.5 49.5t68.5 21.5q51 0 78 -31t27 -90z" />
    <glyph glyph-name="s" unicode="s" horiz-adv-x="481" 
d="M26 113q0 30 17.5 49t44.5 19q32 0 54.5 -26t25.5 -60q4 -47 17 -63t47 -16q36 0 60 17.5t24 50.5q0 20 -21.5 37t-52.5 31.5t-62 32.5t-53 48.5t-23 70.5q-1 62 58.5 110t153.5 48q73 0 124 -28t51 -79q0 -22 -16.5 -41t-46.5 -19q-27 0 -43 21t-16 60q0 36 -11 49
t-50 13q-36 0 -57 -15t-21 -41q0 -19 23.5 -36.5t57.5 -34t68 -35.5t57.5 -49t23.5 -67q0 -72 -67 -120t-175 -48q-91 0 -141.5 36t-50.5 85z" />
    <glyph glyph-name="t" unicode="t" horiz-adv-x="389" 
d="M431 448l-28 -54h-96l-59 -251q-11 -44 -11 -63q0 -18 10 -28t25 -10q51 0 88 85q4 8 8 18l6 15l4 10t4.5 7t5.5 2q10 0 10 -12q0 -9 -8.5 -33.5t-26.5 -58t-55 -58.5t-84 -25q-67 0 -110 35.5t-43 94.5q0 40 25 138l35 134h-80q99 50 155 92t146 128l-35 -166h114z" />
    <glyph glyph-name="u" unicode="u" horiz-adv-x="630" 
d="M625 462l-69 -295q-17 -72 -17 -87q0 -22 18 -22q21 0 48 53q4 7 7.5 15l5.5 12.5t4 8t4 5t5 1.5q9 0 9 -10q0 -8 -9 -30t-25.5 -50.5t-48 -49.5t-68.5 -21q-29 0 -49.5 10.5t-30.5 22.5t-17 36t-8 34.5t-3 34.5h-2q-14 -28 -25 -46.5t-31 -42.5t-47 -36.5t-61 -12.5
q-63 0 -97 37.5t-34 88.5q0 32 30.5 136.5t30.5 119.5q0 22 -15 22q-22 0 -48 -53q-4 -7 -7.5 -15l-5.5 -12.5t-4 -8t-4 -5t-5 -1.5q-9 0 -9 10q0 8 9 30t25.5 50.5t48 49.5t68.5 21q54 0 83.5 -30.5t29.5 -82.5q0 -38 -30.5 -144.5t-30.5 -134.5t24 -28q95 0 178 420
q47 -28 81 -28q43 0 92 28z" />
    <glyph glyph-name="v" unicode="v" horiz-adv-x="556" 
d="M153 125q0 32 10 61.5t30 56t36.5 43.5t43.5 41l-2 1q-14 -2 -21 -2q-43 0 -80.5 29.5t-65.5 30.5q-17 1 -29.5 -9t-12.5 -27q0 -22 38 -22q67 0 67 -50q0 -20 -16 -37t-46 -17q-31 0 -52 24.5t-21 57.5q0 61 45.5 108.5t111.5 47.5q29 0 72.5 -13t79.5 -13q13 0 24 4
q-94 -94 -94 -179q0 -54 34 -93.5t83 -39.5q42 0 72.5 26t30.5 65q0 19 -13.5 36t-29 29t-29 35t-13.5 53q0 40 22 65t54 25q39 0 58.5 -29t19.5 -72q0 -50 -22.5 -113.5t-58.5 -120.5t-89 -96t-108 -39q-65 0 -97 41.5t-32 91.5z" />
    <glyph glyph-name="w" unicode="w" horiz-adv-x="833" 
d="M100 390q-19 0 -31 -11t-12 -26q0 -24 55 -27q25 -1 39 -15.5t14 -35.5q0 -23 -16 -38t-43 -15q-32 0 -55.5 23.5t-23.5 62.5q0 61 50.5 107.5t119.5 46.5q33 0 80.5 -14t88.5 -13q-27 -20 -57 -74t-30 -103q0 -60 30 -98t76 -38q7 0 17 2q-3 24 -3 48q0 63 26 131.5
t66 113.5t77 45q28 0 44 -19t16 -51q0 -47 -27 -107t-68 -110q54 -47 119 -47q58 0 90 24.5t32 67.5q0 20 -11.5 33t-27.5 22t-32 19t-27.5 29.5t-11.5 47.5q0 39 23 65t56 26q37 0 61 -36.5t24 -88.5q0 -32 -9.5 -74.5t-31.5 -90.5t-52 -88t-76 -66t-99 -26q-74 0 -134 60
q-26 -19 -42.5 -29t-46.5 -20.5t-60 -10.5q-52 0 -89 34.5t-37 91.5q0 61 40 117t80 81l-2 2q-10 -2 -14 -2q-29 0 -52.5 11.5t-36 25.5t-30 25.5t-36.5 11.5zM471 316q0 -80 49 -130q36 43 36 109q0 40 -12.5 67.5t-32.5 27.5q-18 0 -29 -21.5t-11 -52.5z" />
    <glyph glyph-name="x" unicode="x" horiz-adv-x="593" 
d="M254 167h-2q-39 -94 -74.5 -134.5t-81.5 -40.5q-36 0 -56.5 21.5t-20.5 55.5q0 47 35 98q32 48 42 48q8 0 8 -8q0 -3 -8.5 -20t-8.5 -40q0 -24 13.5 -42.5t42.5 -18.5q54 0 101 118q-21 108 -30 136t-24 28q-13 0 -23.5 -13t-18.5 -26t-15 -13q-10 0 -10 11q0 24 57 79.5
t105 55.5q52 0 70.5 -33.5t39.5 -142.5h2q29 72 68.5 124t83.5 52q29 0 46.5 -18t17.5 -54q0 -28 -16 -60.5t-33.5 -52.5t-23.5 -20q-11 0 -11 10q0 4 12 21.5t12 35.5q0 52 -44 52q-30 0 -61 -40.5t-46 -84.5q28 -128 35 -144q9 -21 26 -21q14 0 27.5 14t19 25l16.5 34
q12 26 19 26q8 0 8 -10q0 -7 -10 -33.5t-29 -61.5t-54.5 -61.5t-78.5 -26.5q-79 0 -107 84q-7 22 -20 91z" />
    <glyph glyph-name="y" unicode="y" horiz-adv-x="537" 
d="M308 317l90 -232q2 2 10.5 15l12 18.5l11.5 18t11.5 20.5t8.5 18.5t7 19.5t2 17q0 26 -14 50.5t-30.5 41.5t-30.5 40.5t-14 48.5q0 29 21.5 49t58.5 20q39 0 65.5 -23.5t26.5 -68.5q0 -68 -48.5 -162t-154.5 -234q-94 -124 -140 -164t-104 -40q-39 0 -61 18.5t-22 50.5
q0 35 22 54t48 19t63 -24t52 -24q24 0 49 26t25 51q0 5 -0.5 9t-2 10.5t-3.5 13t-7 19.5l-9.5 25.5t-13.5 35l-18 45l-23.5 59.5l-28.5 73q-28 73 -42 97t-28 24q-17 0 -38 -47q-12 -25 -19 -25q-8 0 -8 10q0 6 10.5 31.5t28.5 58t50 57.5t67 25q42 0 64.5 -29.5
t55.5 -115.5z" />
    <glyph glyph-name="z" unicode="z" horiz-adv-x="500" 
d="M79 79l228 206q-38 4 -63 26t-34 46.5t-23 44.5t-32 20q-13 0 -21 -8t-8 -19t10.5 -21.5t22.5 -19t22.5 -24.5t10.5 -37q0 -27 -18 -45.5t-42 -18.5q-31 0 -50.5 26.5t-19.5 70.5q0 48 47 92t118 44q47 0 113 -28.5t89 -28.5q21 0 38 28.5t33 28.5q8 0 13.5 -4.5
t5.5 -10.5q0 -12 -7 -19t-29 -21t-42 -32l-219 -194q40 -6 63.5 -23t30.5 -37t12.5 -39t18.5 -31.5t39 -12.5q20 0 32.5 11.5t12.5 26.5q0 19 -14.5 34.5t-31.5 25t-31.5 28t-14.5 42.5q0 23 16 38.5t45 15.5q39 0 65 -31t26 -72q0 -67 -60 -120t-148 -53q-37 0 -67.5 12.5
t-46.5 27.5t-33 27.5t-30 12.5t-22.5 -10t-15 -22t-17.5 -22t-29 -10q-22 0 -22 21q0 18 17 29.5t38 18.5t24 10z" />
    <glyph glyph-name="braceleft" unicode="{" horiz-adv-x="463" 
d="M236 386l43 193q21 93 77.5 122t186.5 29l-3 -24q-49 -12 -75.5 -43.5t-40.5 -89.5l-41 -171q-15 -62 -41 -93.5t-87 -46.5v-2q42 -9 58 -28.5t16 -54.5q0 -21 -8 -53l-42 -180q-6 -24 -6 -59q0 -50 63 -67l-3 -24q-105 0 -153.5 18.5t-48.5 73.5q0 32 6 61l43 193
q7 28 7 42q0 32 -15.5 51t-53.5 29q56 15 81 42.5t37 81.5z" />
    <glyph glyph-name="bar" unicode="|" horiz-adv-x="222" 
d="M102 0v730h120v-730h-120z" />
    <glyph glyph-name="braceright" unicode="}" horiz-adv-x="463" 
d="M316 138l-43 -193q-21 -93 -77.5 -122t-186.5 -29l3 24q49 12 75.5 43.5t40.5 89.5l41 171q15 62 41 93.5t87 46.5v2q-42 9 -58 28.5t-16 54.5q0 21 8 53l42 180q6 24 6 59q0 50 -63 67l3 24q105 0 153.5 -18.5t48.5 -73.5q0 -32 -6 -61l-43 -193q-7 -28 -7 -42
q0 -32 15.5 -51t53.5 -29q-56 -15 -81 -42.5t-37 -81.5z" />
    <glyph glyph-name="asciitilde" unicode="~" horiz-adv-x="600" 
d="M513 319l33 -103q-17 -24 -29.5 -38t-35 -26.5t-48.5 -12.5q-33 0 -93 30q-60 32 -101 32q-45 0 -76 -66l-33 102q43 78 113 78q36 0 103.5 -30.5t87.5 -30.5q24 0 42 17t37 48z" />
    <glyph glyph-name="uni00A0" unicode="&#xa0;" horiz-adv-x="305" 
 />
    <glyph glyph-name="exclamdown" unicode="&#xa1;" horiz-adv-x="407" 
d="M374 384q0 -34 -30.5 -69t-79.5 -35q-41 0 -65.5 26t-24.5 63q0 34 31 68.5t80 34.5q41 0 65 -25.5t24 -62.5zM141 -230q-37 0 -60.5 25t-23.5 61q0 50 32.5 111.5t74.5 126.5t55 104q3 8 5.5 17l4 14t3.5 11t3.5 9.5l3 7t2.5 5t2.5 3t3.5 2t4 0.5q12 0 12 -15
q0 -5 -1 -25t-1 -38q0 -55 13 -122t13 -99q0 -87 -41 -142.5t-105 -55.5z" />
    <glyph glyph-name="cent" unicode="&#xa2;" 
d="M314 319l111 176q5 13 5 24t-9.5 20.5t-25.5 9.5q-37 0 -65 -44.5t-28 -120.5q0 -36 12 -65zM579 678l-82 -131q26 -12 45.5 -42t19.5 -63q0 -43 -26.5 -70t-59.5 -27q-57 0 -73 53l-70 -112q35 -48 97 -48q34 0 57.5 12t34.5 24.5t14 12.5q8 0 8 -8q0 -6 -6.5 -22
t-22.5 -39.5t-38.5 -44t-60 -35t-81.5 -14.5q-54 0 -92 20l-92 -144h-39l102 160q-36 26 -57 69t-21 86q0 106 82 182t177 76q41 0 72 -12l73 117h39z" />
    <glyph glyph-name="sterling" unicode="&#xa3;" 
d="M424 393h114l-16 -50h-96q-7 -93 -71 -151q62 -22 111 -22q37 0 63.5 13.5t37 30l18.5 30t12 13.5q13 0 13 -12q0 -15 -15.5 -53.5t-42 -84.5t-72.5 -80.5t-97 -34.5t-116 60q-65 -60 -136 -60q-39 0 -64.5 22.5t-25.5 61.5q0 62 57.5 103t127.5 41q29 0 83 -14
q-2 27 -13 43t-34.5 40t-41.5 54h-131l21 52h81q-15 37 -15 71q0 77 84 148.5t187 71.5q45 0 80 -14t55.5 -27.5t30.5 -13.5q17 0 26 20t15 20q11 0 11 -13q0 -3 -43 -195q-5 -23 -9 -30t-11 -7q-9 0 -10.5 19.5t-4 55t-13.5 61.5q-16 39 -50 69.5t-79 30.5q-35 0 -63 -26.5
t-28 -65.5q0 -35 31.5 -83t38.5 -94zM133 16q62 0 115 53q-1 1 -10.5 12t-13.5 15l-13.5 14t-16 14.5t-16 10.5t-19 8.5t-18.5 2.5q-30 0 -51 -20.5t-21 -49.5q0 -26 17.5 -43t46.5 -17z" />
    <glyph glyph-name="currency" unicode="&#xa4;" 
d="M355 201q57 0 95.5 40.5t38.5 97.5t-38.5 97.5t-95.5 40.5t-95.5 -40.5t-38.5 -97.5t38.5 -97.5t95.5 -40.5zM615 537l-57 -57q45 -62 45 -141t-45 -141l57 -57l-63 -63l-57 57q-63 -44 -140 -44t-140 44l-57 -57l-63 63l57 57q-45 62 -45 141t45 141l-57 57l63 63
l57 -57q63 44 140 44t140 -44l57 57z" />
    <glyph glyph-name="yen" unicode="&#xa5;" 
d="M597 276l-9 -50h-166q-29 -148 -29 -166q0 -17 10.5 -24.5t23 -8t23 -4t10.5 -12.5t-5.5 -11t-24.5 -2q-31 0 -78 1t-62 1q-39 0 -89 -1t-72 -1q-18 0 -18 10q0 9 12 12t27 4t30.5 14.5t21.5 40.5l33 147h-140l9 50h142l12 56l-7 21h-132l9 50h106l-70 199
q-8 22 -21 33.5t-24.5 13.5t-20 5.5t-8.5 12.5t7 11t28 2q20 0 65.5 -1t69.5 -1q27 0 86 1t69 1q12 0 16.5 -0.5t8 -3.5t3.5 -9q0 -9 -12 -13.5t-27 -6.5t-27 -13t-12 -31q0 -7 2 -15.5t7.5 -26.5t13 -39.5t22 -66.5l29.5 -96q98 130 125 176.5t27 75.5q0 15 -8.5 24
t-18 11.5t-18 7t-8.5 12.5q0 14 30 14q14 0 42.5 -1t42.5 -1t42.5 1t42.5 1q30 0 30 -14q0 -6 -4.5 -9t-11 -4.5t-19 -6.5t-24.5 -13q-21 -14 -59 -50.5t-77 -89.5l-66 -90h113l-9 -50h-146q-24 -33 -28 -50q0 -1 -2 -10t-3 -17h165z" />
    <glyph glyph-name="brokenbar" unicode="&#xa6;" horiz-adv-x="222" 
d="M102 0v278h120v-278h-120zM102 452v278h120v-278h-120z" />
    <glyph glyph-name="section" unicode="&#xa7;" horiz-adv-x="500" 
d="M151 547q0 61 50.5 104t129.5 43q40 0 93.5 -16t65.5 -16q16 0 27 8t14 8q12 0 12 -12q0 -7 -2.5 -20l-9 -48.5t-12.5 -73.5q-4 -28 -5.5 -33.5t-7.5 -5.5q-7 0 -9 3t-3 14q-5 69 -35 118.5t-88 49.5q-36 0 -56 -19t-20 -49q0 -29 23.5 -56.5t57 -51.5l67 -50.5t57 -63.5
t23.5 -80q0 -66 -45 -102.5t-102 -43.5q75 -62 75 -130q0 -71 -57.5 -111.5t-160.5 -40.5q-47 0 -99.5 16t-62.5 16q-15 0 -28.5 -9.5t-18.5 -9.5q-10 0 -10 12q0 1 5 28l13 72t14 82q4 26 15 26q13 0 13 -25t6 -53t20.5 -59.5t44.5 -51.5t71 -20q43 0 67 23.5t24 53.5
q0 24 -24.5 50.5t-59.5 52l-70 53.5t-59.5 65t-24.5 77q0 60 45 95t106 49q-69 54 -69 132zM397 236q0 18 -6.5 33t-24 31t-32 27t-46.5 33t-52 37q-41 -19 -41 -62q0 -34 22 -55.5t109 -82.5q22 -15 34 -24q37 13 37 63z" />
    <glyph glyph-name="dieresis" unicode="&#xa8;" horiz-adv-x="333" 
d="M299 603q0 30 21 51t51 21t51 -21t21 -51t-21 -51t-51 -21t-51 21t-21 51zM83 603q0 30 21 51t51 21t51 -21t21 -51t-21 -51t-51 -21t-51 21t-21 51z" />
    <glyph glyph-name="copyright" unicode="&#xa9;" horiz-adv-x="800" 
d="M440 -16q-151 0 -249.5 101t-98.5 253t98.5 254t249.5 102t249.5 -102t98.5 -254t-98.5 -253t-249.5 -101zM440 56q110 0 181 81.5t71 202.5t-71 202.5t-181 81.5t-181 -81.5t-71 -202.5t71 -202.5t181 -81.5zM581 264h31l-17 -86q-63 -34 -131 -34q-109 0 -168 53
t-59 152t59 152t168 53q83 0 130 -31v-83h-30q-31 90 -94 90q-89 0 -89 -181t89 -181q67 0 111 96z" />
    <glyph glyph-name="ordfeminine" unicode="&#xaa;" horiz-adv-x="367" 
d="M281 472h-1q-8 -14 -13 -21t-17.5 -20.5t-30 -20t-38.5 -6.5q-44 0 -72.5 27.5t-28.5 72.5q0 70 59 126t126 56q58 0 64 -42q18 19 54.5 30.5t55.5 11.5q10 0 10 -5q0 -2 -7.5 -10t-10.5 -21q-41 -180 -41 -192q0 -14 12 -14q16 0 35 44q7 19 12 19q6 0 6 -6q0 -8 -7 -28
t-31.5 -44.5t-60.5 -24.5q-10 0 -18 1.5t-14.5 4.5t-11.5 6t-9 8.5t-6.5 8.5t-5.5 10.5t-4 9.5t-3.5 10t-2.5 9zM280 672q-26 0 -49 -60q-35 -89 -35 -152q0 -22 22 -22q30 0 60.5 68t30.5 124q0 18 -8 30t-21 12z" />
    <glyph glyph-name="guillemotleft" unicode="&#xab;" horiz-adv-x="481" 
d="M316 385l-140 -167l61 -158q2 -4 0 -13q-2 -5 -11 -5q-7 0 -17 12l-135 160q-6 8 -6 13q0 6 16 18l209 155q15 12 23 12q10 0 10 -10q0 -4 -10 -17zM482 385l-140 -167l61 -158q2 -4 0 -13q-2 -5 -11 -5q-7 0 -17 12l-135 160q-6 8 -6 13q0 6 16 18l209 155q15 12 23 12
q10 0 10 -10q0 -4 -10 -17z" />
    <glyph glyph-name="logicalnot" unicode="&#xac;" horiz-adv-x="600" 
d="M440 69v196h-334v120h454v-316h-120z" />
    <glyph glyph-name="uni00AD" unicode="&#xad;" horiz-adv-x="333" 
d="M311 170h-262l26 114h262z" />
    <glyph glyph-name="registered" unicode="&#xae;" horiz-adv-x="800" 
d="M270 516v24h216q50 0 80.5 -26t30.5 -76q0 -32 -21 -60.5t-56 -42.5l107 -154v-26h-92q-13 0 -29 25.5t-38.5 73t-35.5 70.5h-16v-105q0 -14 0.5 -19t5 -11t13 -7.5t24.5 -2.5v-24h-189v24q25 1 30.5 8t5.5 32v257q0 14 -0.5 19t-4 11t-10.5 7.5t-21 2.5zM416 516v-168
h18q45 0 45 86q0 39 -12 60.5t-28 21.5h-23zM440 -16q-151 0 -249.5 101t-98.5 253t98.5 254t249.5 102t249.5 -102t98.5 -254t-98.5 -253t-249.5 -101zM440 56q110 0 181 81.5t71 202.5t-71 202.5t-181 81.5t-181 -81.5t-71 -202.5t71 -202.5t181 -81.5z" />
    <glyph glyph-name="macron" unicode="&#xaf;" horiz-adv-x="333" 
d="M418 563h-336l19 76h335z" />
    <glyph glyph-name="degree" unicode="&#xb0;" horiz-adv-x="400" 
d="M273 460q33 0 56 25t23 58t-23 58t-56 25t-56 -25t-23 -58t23 -58t56 -25zM273 400q-60 0 -101.5 41.5t-41.5 101.5t41.5 101.5t101.5 41.5t101.5 -41.5t41.5 -101.5t-41.5 -101.5t-101.5 -41.5z" />
    <glyph glyph-name="plusminus" unicode="&#xb1;" horiz-adv-x="600" 
d="M273 371v83h120v-83h167v-120h-167v-87h-120v87h-167v120h167zM106 0v120h454v-120h-454z" />
    <glyph glyph-name="twosuperior" unicode="&#xb2;" horiz-adv-x="366" 
d="M355 274h-299q10 38 39 71.5t62.5 56l66 44t53.5 47t21 53.5q0 50 -67 50q-26 0 -45 -8.5t-27 -18t-14.5 -18t-10.5 -8.5q-10 0 -10 11q0 9 12.5 29.5t34 44t60 41t81.5 17.5q50 0 83 -27.5t33 -71.5q0 -95 -107 -144q-20 -9 -52 -21.5t-55 -23t-41 -22.5v-2h129
q27 0 44.5 8t23.5 17t12.5 17t13.5 8q12 0 12 -12q0 -2 -2.5 -9t-17 -42.5t-33.5 -86.5z" />
    <glyph glyph-name="threesuperior" unicode="&#xb3;" horiz-adv-x="366" 
d="M416 434q0 -68 -70.5 -117t-154.5 -49q-61 0 -95 21.5t-34 54.5q0 28 21.5 48t48.5 20q26 0 43 -13.5t17 -34.5q0 -10 -5.5 -28.5t-5.5 -24.5q0 -19 28 -19q35 0 56 21.5t21 65.5q0 43 -24.5 68t-58.5 25q-30 0 -30 11q0 13 36 13q38 0 60.5 19.5t22.5 51.5q0 47 -54 47
q-20 0 -37 -9t-26.5 -18t-11.5 -9q-10 0 -10 10q0 9 10 24t28.5 32t52 29.5t73.5 12.5q48 0 76.5 -22t28.5 -60q0 -56 -55 -88q21 -9 35 -31t14 -51z" />
    <glyph glyph-name="acute" unicode="&#xb4;" horiz-adv-x="333" 
d="M228 524h-56l130 144q20 22 33.5 31t32.5 9q20 0 36.5 -15t16.5 -36q0 -19 -12 -30.5t-41 -26.5z" />
    <glyph glyph-name="mu" unicode="&#xb5;" horiz-adv-x="630" 
d="M625 462l-69 -295q-17 -72 -17 -87q0 -22 18 -22q21 0 48 53q4 7 7.5 15l5.5 12.5t4 8t4 5t5 1.5q9 0 9 -10q0 -8 -9 -30t-25.5 -50.5t-48 -49.5t-68.5 -21q-29 0 -49.5 10.5t-30.5 22.5t-17 36t-8 34.5t-3 34.5h-2q-14 -28 -24.5 -46.5t-30 -42.5t-44.5 -36.5t-55 -12.5
q-8 -24 -15.5 -61t-13.5 -61.5t-17 -49.5t-31.5 -37.5t-50.5 -12.5q-31 0 -51 20t-22 50q-2 39 28 157l55 217q38 148 38 160q0 22 -15 22q-22 0 -48 -53q-4 -7 -7.5 -15l-5.5 -12.5t-4 -8t-4 -5t-5 -1.5q-9 0 -9 10q0 8 9 30t25.5 50.5t48 49.5t68.5 21q54 0 83.5 -30.5
t29.5 -82.5q0 -38 -30.5 -144.5t-30.5 -134.5t24 -28q95 0 178 420q47 -28 81 -28q43 0 92 28z" />
    <glyph glyph-name="paragraph" unicode="&#xb6;" horiz-adv-x="620" 
d="M510 648h-59l-175 -770h-120l89 390q-60 0 -91.5 38.5t-31.5 101.5q0 116 66.5 193t191.5 77h332l-7 -28q-41 0 -60.5 -12.5t-28.5 -51.5l-160 -708h-120z" />
    <glyph glyph-name="periodcentered" unicode="&#xb7;" horiz-adv-x="305" 
d="M92 227q0 41 29 69.5t69 28.5t69 -28.5t29 -69.5t-29 -69.5t-69 -28.5t-69 28.5t-29 69.5z" />
    <glyph glyph-name="cedilla" unicode="&#xb8;" horiz-adv-x="333" 
d="M134 3h47l-50 -63l2 -2q8 3 26 3q43 0 68.5 -19t25.5 -54q0 -40 -36 -64t-96 -24q-62 0 -112 28l22 32q43 -18 70 -18q25 0 39.5 11.5t14.5 29.5q0 14 -10.5 25t-31.5 11q-12 0 -32 -4l-16 17z" />
    <glyph glyph-name="onesuperior" unicode="&#xb9;" horiz-adv-x="366" 
d="M203 615h-34q-12 0 -12 11q0 9 7 11t37.5 5.5t64.5 11.5q29 7 52 16.5t34 15.5t15 6q9 0 9 -9q0 -2 -49 -221q-30 -132 -30 -141q0 -13 9.5 -19t20.5 -5.5t20.5 -2t9.5 -10.5q0 -12 -16 -12q-12 0 -53 1t-72 1q-41 0 -80.5 -1t-42.5 -1q-18 0 -18 11t18 12t38 5t25 23
q67 266 67 278q0 14 -20 14z" />
    <glyph glyph-name="ordmasculine" unicode="&#xba;" horiz-adv-x="334" 
d="M414 566q0 -73 -53 -117.5t-130 -44.5q-56 0 -101.5 34.5t-45.5 85.5q0 73 53.5 117.5t130.5 44.5q56 0 101 -34.5t45 -85.5zM192 456q0 -36 32 -36q29 0 46 47q36 94 36 168q0 35 -31 35q-29 0 -47 -46q-36 -94 -36 -168z" />
    <glyph glyph-name="guillemotright" unicode="&#xbb;" horiz-adv-x="481" 
d="M212 69l140 167l-61 158q-2 4 0 13q2 5 11 5q7 0 17 -12l135 -160q6 -8 6 -13q0 -6 -16 -18l-209 -155q-15 -12 -23 -12q-10 0 -10 10q0 4 10 17zM46 69l140 167l-61 158q-2 4 0 13q2 5 11 5q7 0 17 -12l135 -160q6 -8 6 -13q0 -6 -16 -18l-209 -155q-15 -12 -23 -12
q-10 0 -10 10q0 4 10 17z" />
    <glyph glyph-name="onequarter" unicode="&#xbc;" horiz-adv-x="916" 
d="M932 412l-57 -251h63l-30 -60h-46l-11 -55q0 -13 7.5 -19t16 -5.5t16 -2t7.5 -9.5q0 -12 -16 -12q-15 0 -48 1t-57 1q-22 0 -58.5 -1t-51.5 -1q-12 0 -12 10q-1 8 7 11t18 3.5t20.5 8t14.5 22.5l11 48h-139l-16 38l265 273h96zM737 161l35 136l-2 2l-132 -138h99z
M786 686l-397 -694h-104l397 694h104zM203 615h-34q-12 0 -12 11q0 9 7 11t37.5 5.5t64.5 11.5q29 7 52 16.5t34 15.5t15 6q9 0 9 -9q0 -2 -49 -221q-30 -132 -30 -141q0 -13 9.5 -19t20.5 -5.5t20.5 -2t9.5 -10.5q0 -12 -16 -12q-12 0 -53 1t-72 1q-41 0 -80.5 -1t-42.5 -1
q-18 0 -18 11t18 12t38 5t25 23q67 266 67 278q0 14 -20 14z" />
    <glyph glyph-name="onehalf" unicode="&#xbd;" horiz-adv-x="916" 
d="M762 686l-397 -694h-104l397 694h104zM191 615h-34q-12 0 -12 11q0 9 7 11t37.5 5.5t64.5 11.5q29 7 52 16.5t34 15.5t15 6q9 0 9 -9q0 -2 -49 -221q-30 -132 -30 -141q0 -13 9.5 -19t20.5 -5.5t20.5 -2t9.5 -10.5q0 -12 -16 -12q-12 0 -53 1t-72 1q-41 0 -80.5 -1
t-42.5 -1q-18 0 -18 11t18 12t38 5t25 23q67 266 67 278q0 14 -20 14zM867 0h-299q10 38 39 71.5t62.5 56l66 44t53.5 47t21 53.5q0 50 -67 50q-26 0 -45 -8.5t-27 -18t-14.5 -18t-10.5 -8.5q-10 0 -10 11q0 9 12.5 29.5t34 44t60 41t81.5 17.5q50 0 83 -27.5t33 -71.5
q0 -95 -107 -144q-20 -9 -52 -21.5t-55 -23t-41 -22.5v-2h129q27 0 44.5 8t23.5 17t12.5 17t13.5 8q12 0 12 -12q0 -2 -2.5 -9t-17 -42.5t-33.5 -86.5z" />
    <glyph glyph-name="threequarters" unicode="&#xbe;" horiz-adv-x="916" 
d="M932 412l-57 -251h63l-30 -60h-46l-11 -55q0 -13 7.5 -19t16 -5.5t16 -2t7.5 -9.5q0 -12 -16 -12q-15 0 -48 1t-57 1q-22 0 -58.5 -1t-51.5 -1q-12 0 -12 10q-1 8 7 11t18 3.5t20.5 8t14.5 22.5l11 48h-139l-16 38l265 273h96zM737 161l35 136l-2 2l-132 -138h99z
M432 434q0 -68 -70.5 -117t-154.5 -49q-61 0 -95 21.5t-34 54.5q0 28 21.5 48t48.5 20q26 0 43 -13.5t17 -34.5q0 -10 -5.5 -28.5t-5.5 -24.5q0 -19 28 -19q35 0 56 21.5t21 65.5q0 43 -24.5 68t-58.5 25q-30 0 -30 11q0 13 36 13q38 0 60.5 19.5t22.5 51.5q0 47 -54 47
q-20 0 -37 -9t-26.5 -18t-11.5 -9q-10 0 -10 10q0 9 10 24t28.5 32t52 29.5t73.5 12.5q48 0 76.5 -22t28.5 -60q0 -56 -55 -88q21 -9 35 -31t14 -51zM786 686l-397 -694h-104l397 694h104z" />
    <glyph glyph-name="questiondown" unicode="&#xbf;" horiz-adv-x="556" 
d="M362 195l10 55l45 -2q-7 -50 -7 -94q0 -16 9 -97l-60 -36q-29 31 -75 31q-62 0 -110 -49.5t-48 -103.5q0 -36 20 -60.5t51 -24.5q29 0 52.5 15t40.5 37l34 43.5t41 36.5t53 15q24 0 39.5 -15t15.5 -38q0 -42 -56 -90t-147 -48q-86 0 -144 53.5t-58 140.5q0 94 68.5 169
t160.5 75q42 0 65 -13zM515 384q0 -34 -30.5 -69t-79.5 -35q-41 0 -65.5 26t-24.5 63q0 34 31 68.5t80 34.5q41 0 65 -25.5t24 -62.5z" />
    <glyph glyph-name="Agrave" unicode="&#xc0;" horiz-adv-x="685" 
d="M405 248h-190q-63 -104 -63 -151q0 -28 10.5 -45t22.5 -21t22.5 -9.5t10.5 -12.5t-5.5 -9t-27.5 -2t-57 1t-50 1q-14 0 -51.5 -1t-65.5 -1q-13 0 -17 2t-4 10q0 7 8.5 9.5l25 7.5t37.5 14.5t50 37t57 68.5t87 136.5l106 174.5t47 82q0 9 -17 24.5t-17 19.5q0 3 12 9
t42.5 23t62.5 41q22 16 37 31.5l20.5 21.5t10.5 6q6 0 16 -45q9 -47 107 -590q5 -28 19 -42t27.5 -14.5t24 -3.5t10.5 -12q0 -11 -25 -11q-32 0 -82.5 1t-72.5 1t-71 -1t-79 -1h-14t-8 1t-5.5 3t-1.5 6q0 10 12 13.5t26 3.5t26 10.5t12 31.5q0 22 -25 181zM402 272l-36 231
h-2l-136 -231h174zM589 721h-50l-133 85q-37 24 -37 52q0 19 15 33t38 14q32 0 59 -36z" />
    <glyph glyph-name="Aacute" unicode="&#xc1;" horiz-adv-x="685" 
d="M405 248h-190q-63 -104 -63 -151q0 -28 10.5 -45t22.5 -21t22.5 -9.5t10.5 -12.5t-5.5 -9t-27.5 -2t-57 1t-50 1q-14 0 -51.5 -1t-65.5 -1q-13 0 -17 2t-4 10q0 7 8.5 9.5l25 7.5t37.5 14.5t50 37t57 68.5t87 136.5l106 174.5t47 82q0 9 -17 24.5t-17 19.5q0 3 12 9
t42.5 23t62.5 41q22 16 37 31.5l20.5 21.5t10.5 6q6 0 16 -45q9 -47 107 -590q5 -28 19 -42t27.5 -14.5t24 -3.5t10.5 -12q0 -11 -25 -11q-32 0 -82.5 1t-72.5 1t-71 -1t-79 -1h-14t-8 1t-5.5 3t-1.5 6q0 10 12 13.5t26 3.5t26 10.5t12 31.5q0 22 -25 181zM402 272l-36 231
h-2l-136 -231h174zM463 721h-56l130 144q20 22 33.5 31t32.5 9q20 0 36.5 -15t16.5 -36q0 -19 -12 -30.5t-41 -26.5z" />
    <glyph glyph-name="Acircumflex" unicode="&#xc2;" horiz-adv-x="685" 
d="M405 248h-190q-63 -104 -63 -151q0 -28 10.5 -45t22.5 -21t22.5 -9.5t10.5 -12.5t-5.5 -9t-27.5 -2t-57 1t-50 1q-14 0 -51.5 -1t-65.5 -1q-13 0 -17 2t-4 10q0 7 8.5 9.5l25 7.5t37.5 14.5t50 37t57 68.5t87 136.5l106 174.5t47 82q0 9 -17 24.5t-17 19.5q0 3 12 9
t42.5 23t62.5 41q22 16 37 31.5l20.5 21.5t10.5 6q6 0 16 -45q9 -47 107 -590q5 -28 19 -42t27.5 -14.5t24 -3.5t10.5 -12q0 -11 -25 -11q-32 0 -82.5 1t-72.5 1t-71 -1t-79 -1h-14t-8 1t-5.5 3t-1.5 6q0 10 12 13.5t26 3.5t26 10.5t12 31.5q0 22 -25 181zM402 272l-36 231
h-2l-136 -231h174zM382 721h-65l159 176h100l83 -176h-56l-92 91z" />
    <glyph glyph-name="Atilde" unicode="&#xc3;" horiz-adv-x="685" 
d="M405 248h-190q-63 -104 -63 -151q0 -28 10.5 -45t22.5 -21t22.5 -9.5t10.5 -12.5t-5.5 -9t-27.5 -2t-57 1t-50 1q-14 0 -51.5 -1t-65.5 -1q-13 0 -17 2t-4 10q0 7 8.5 9.5l25 7.5t37.5 14.5t50 37t57 68.5t87 136.5l106 174.5t47 82q0 9 -17 24.5t-17 19.5q0 3 12 9
t42.5 23t62.5 41q22 16 37 31.5l20.5 21.5t10.5 6q6 0 16 -45q9 -47 107 -590q5 -28 19 -42t27.5 -14.5t24 -3.5t10.5 -12q0 -11 -25 -11q-32 0 -82.5 1t-72.5 1t-71 -1t-79 -1h-14t-8 1t-5.5 3t-1.5 6q0 10 12 13.5t26 3.5t26 10.5t12 31.5q0 22 -25 181zM402 272l-36 231
h-2l-136 -231h174zM362 743h-45q10 52 42 89t84 37q32 0 81.5 -20t68.5 -20q34 0 51 40h45q-10 -57 -44 -91.5t-78 -34.5q-29 0 -85 22t-71 22q-16 0 -27.5 -10t-14 -15.5t-7.5 -18.5z" />
    <glyph glyph-name="Adieresis" unicode="&#xc4;" horiz-adv-x="685" 
d="M405 248h-190q-63 -104 -63 -151q0 -28 10.5 -45t22.5 -21t22.5 -9.5t10.5 -12.5t-5.5 -9t-27.5 -2t-57 1t-50 1q-14 0 -51.5 -1t-65.5 -1q-13 0 -17 2t-4 10q0 7 8.5 9.5l25 7.5t37.5 14.5t50 37t57 68.5t87 136.5l106 174.5t47 82q0 9 -17 24.5t-17 19.5q0 3 12 9
t42.5 23t62.5 41q22 16 37 31.5l20.5 21.5t10.5 6q6 0 16 -45q9 -47 107 -590q5 -28 19 -42t27.5 -14.5t24 -3.5t10.5 -12q0 -11 -25 -11q-32 0 -82.5 1t-72.5 1t-71 -1t-79 -1h-14t-8 1t-5.5 3t-1.5 6q0 10 12 13.5t26 3.5t26 10.5t12 31.5q0 22 -25 181zM402 272l-36 231
h-2l-136 -231h174zM544 800q0 30 21 51t51 21t51 -21t21 -51t-21 -51t-51 -21t-51 21t-21 51zM328 800q0 30 21 51t51 21t51 -21t21 -51t-21 -51t-51 -21t-51 21t-21 51z" />
    <glyph glyph-name="Aring" unicode="&#xc5;" horiz-adv-x="685" 
d="M405 248h-190q-63 -104 -63 -151q0 -28 10.5 -45t22.5 -21t22.5 -9.5t10.5 -12.5t-5.5 -9t-27.5 -2t-57 1t-50 1q-14 0 -51.5 -1t-65.5 -1q-13 0 -17 2t-4 10q0 7 8.5 9.5l25 7.5t37.5 14.5t50 37t57 68.5t87 136.5l106 174.5t47 82q0 9 -17 24.5t-17 19.5q0 3 12 9
t42.5 23t62.5 41q22 16 37 31.5l20.5 21.5t10.5 6q6 0 16 -45q9 -47 107 -590q5 -28 19 -42t27.5 -14.5t24 -3.5t10.5 -12q0 -11 -25 -11q-32 0 -82.5 1t-72.5 1t-71 -1t-79 -1h-14t-8 1t-5.5 3t-1.5 6q0 10 12 13.5t26 3.5t26 10.5t12 31.5q0 22 -25 181zM402 272l-36 231
h-2l-136 -231h174zM405 829q0 45 31.5 76.5t76.5 31.5t75.5 -31.5t30.5 -76.5t-30.5 -75.5t-75.5 -30.5t-76.5 30.5t-31.5 75.5zM459 830q0 -22 15.5 -37.5t37.5 -15.5t37.5 15.5t15.5 37.5t-15.5 37.5t-37.5 15.5t-37.5 -15.5t-15.5 -37.5z" />
    <glyph glyph-name="AE" unicode="&#xc6;" horiz-adv-x="1111" 
d="M520 338h-165q-128 -181 -142.5 -208t-14.5 -55q0 -24 11.5 -36t25.5 -13t25.5 -3.5t11.5 -9.5q0 -15 -22 -15q-10 0 -57 1t-83 1q-33 0 -82 -1t-62 -1q-12 0 -15 2t-3 10q0 6 13 9.5t38.5 11t57.5 23t77 56t90 99.5q193 255 242 325.5t49 90.5q0 19 -18.5 24.5
t-37.5 6.5t-19 10t5.5 11.5t20.5 2.5q45 0 150.5 -1t154.5 -1q48 0 145.5 1t147.5 1q2 -31 6 -77l6.5 -77t2.5 -50q0 -15 -13 -15q-7 0 -10.5 6.5t-6.5 17.5t-13.5 32.5t-27.5 43.5q-32 42 -95.5 67.5t-128.5 27.5l-61 -294q55 1 106 34t72 75q4 8 7.5 16.5l5.5 13.5
t4.5 9.5t4.5 6t5 1.5q11 0 11 -12q0 -5 -4.5 -24l-22.5 -98l-41 -186q-8 -35 -20 -35q-10 0 -10 14q0 4 1 14t1 15q0 114 -126 132l-22 -105.5t-15.5 -74.5t-9 -43.5t-5.5 -29.5t-1 -17q0 -26 14 -36t48 -10q61 0 125 29.5t106 73.5q23 24 41 47t26.5 37.5l15 26t10.5 16.5
t9 5q11 0 11 -12q0 -9 -47 -118l-56 -129q-53 0 -194 1t-181 1q-62 0 -118.5 -1t-75.5 -1q-18 0 -22.5 3t-4.5 12q0 8 12 11t27.5 3.5t30.5 10t19 29.5zM377 362h148l62 288l-2 2z" />
    <glyph glyph-name="Ccedilla" unicode="&#xc7;" horiz-adv-x="759" 
d="M306 186q0 -178 130 -178q67 0 136.5 61.5t107.5 123.5q13 22 22.5 43.5t13 28.5t9.5 7q9 0 9 -9q0 -3 -45 -241q-5 -25 -7.5 -31.5t-9.5 -6.5q-8 0 -11 18t-20 18q-3 0 -75.5 -18t-125.5 -18h-12l-35 -44l2 -2q8 3 26 3q43 0 68.5 -19t25.5 -54q0 -40 -36 -64t-96 -24
q-62 0 -112 28l22 32q43 -18 70 -18q25 0 39.5 11.5t14.5 29.5q0 14 -10.5 25t-31.5 11q-12 0 -32 -4l-16 17l57 76q-134 17 -212 108.5t-78 207.5q0 106 57.5 196.5t149 142t192.5 51.5q62 0 113.5 -18t85 -36t53.5 -18q22 0 32 25t18 25q12 0 12 -9t-54 -266
q-5 -23 -13 -23q-7 0 -8.5 5.5t-2.5 22.5q-7 92 -72.5 180t-143.5 88q-53 0 -95 -52.5t-65 -132t-35 -157.5t-12 -142z" />
    <glyph glyph-name="Egrave" unicode="&#xc8;" horiz-adv-x="704" 
d="M428 656l-61 -274q55 1 106 34t72 75q3 6 5.5 11.5t4 9.5t3.5 7.5t3 6t2.5 5t2.5 3.5t2.5 2t2.5 1.5t3 0.5q9 0 9 -12q0 -5 -4.5 -24l-22.5 -98l-41 -186q-7 -35 -18 -35q-12 0 -12 14q0 3 1 15t1 22q0 49 -30.5 82t-95.5 42l-25 -114.5l-17.5 -78.5l-10.5 -45.5t-6 -31
t-1 -20.5q0 -26 14 -36t48 -10q61 0 125 29.5t106 73.5q24 25 42.5 49.5t27.5 40.5l16 29t11.5 19t10.5 6q11 0 11 -11q0 -4 -1 -8t-4.5 -13t-8 -19.5l-14 -32l-19.5 -44l-27 -62l-35 -81.5q-40 0 -190 1t-226 1q-44 0 -97 -1t-59 -1q-24 0 -24 12q0 10 12 13t27 3.5
t30.5 12.5t20.5 38l51.5 240.5l35.5 159.5l20.5 88t11 47.5t2.5 17.5q0 13 -9 18t-20 4t-20 2t-9 13q0 8 5.5 10.5t25.5 2.5q24 0 114.5 -1t150.5 -1q43 0 128 1t128 1q15 -210 15 -228q0 -15 -13 -15q-7 0 -9.5 14.5t-13.5 47t-36 64.5q-37 49 -90 70t-138 23zM565 721h-50
l-133 85q-37 24 -37 52q0 19 15 33t38 14q32 0 59 -36z" />
    <glyph glyph-name="Eacute" unicode="&#xc9;" horiz-adv-x="704" 
d="M428 656l-61 -274q55 1 106 34t72 75q3 6 5.5 11.5t4 9.5t3.5 7.5t3 6t2.5 5t2.5 3.5t2.5 2t2.5 1.5t3 0.5q9 0 9 -12q0 -5 -4.5 -24l-22.5 -98l-41 -186q-7 -35 -18 -35q-12 0 -12 14q0 3 1 15t1 22q0 49 -30.5 82t-95.5 42l-25 -114.5l-17.5 -78.5l-10.5 -45.5t-6 -31
t-1 -20.5q0 -26 14 -36t48 -10q61 0 125 29.5t106 73.5q24 25 42.5 49.5t27.5 40.5l16 29t11.5 19t10.5 6q11 0 11 -11q0 -4 -1 -8t-4.5 -13t-8 -19.5l-14 -32l-19.5 -44l-27 -62l-35 -81.5q-40 0 -190 1t-226 1q-44 0 -97 -1t-59 -1q-24 0 -24 12q0 10 12 13t27 3.5
t30.5 12.5t20.5 38l51.5 240.5l35.5 159.5l20.5 88t11 47.5t2.5 17.5q0 13 -9 18t-20 4t-20 2t-9 13q0 8 5.5 10.5t25.5 2.5q24 0 114.5 -1t150.5 -1q43 0 128 1t128 1q15 -210 15 -228q0 -15 -13 -15q-7 0 -9.5 14.5t-13.5 47t-36 64.5q-37 49 -90 70t-138 23zM449 721h-56
l130 144q20 22 33.5 31t32.5 9q20 0 36.5 -15t16.5 -36q0 -19 -12 -30.5t-41 -26.5z" />
    <glyph glyph-name="Ecircumflex" unicode="&#xca;" horiz-adv-x="704" 
d="M428 656l-61 -274q55 1 106 34t72 75q3 6 5.5 11.5t4 9.5t3.5 7.5t3 6t2.5 5t2.5 3.5t2.5 2t2.5 1.5t3 0.5q9 0 9 -12q0 -5 -4.5 -24l-22.5 -98l-41 -186q-7 -35 -18 -35q-12 0 -12 14q0 3 1 15t1 22q0 49 -30.5 82t-95.5 42l-25 -114.5l-17.5 -78.5l-10.5 -45.5t-6 -31
t-1 -20.5q0 -26 14 -36t48 -10q61 0 125 29.5t106 73.5q24 25 42.5 49.5t27.5 40.5l16 29t11.5 19t10.5 6q11 0 11 -11q0 -4 -1 -8t-4.5 -13t-8 -19.5l-14 -32l-19.5 -44l-27 -62l-35 -81.5q-40 0 -190 1t-226 1q-44 0 -97 -1t-59 -1q-24 0 -24 12q0 10 12 13t27 3.5
t30.5 12.5t20.5 38l51.5 240.5l35.5 159.5l20.5 88t11 47.5t2.5 17.5q0 13 -9 18t-20 4t-20 2t-9 13q0 8 5.5 10.5t25.5 2.5q24 0 114.5 -1t150.5 -1q43 0 128 1t128 1q15 -210 15 -228q0 -15 -13 -15q-7 0 -9.5 14.5t-13.5 47t-36 64.5q-37 49 -90 70t-138 23zM358 721h-65
l159 176h100l83 -176h-56l-92 91z" />
    <glyph glyph-name="Edieresis" unicode="&#xcb;" horiz-adv-x="704" 
d="M428 656l-61 -274q55 1 106 34t72 75q3 6 5.5 11.5t4 9.5t3.5 7.5t3 6t2.5 5t2.5 3.5t2.5 2t2.5 1.5t3 0.5q9 0 9 -12q0 -5 -4.5 -24l-22.5 -98l-41 -186q-7 -35 -18 -35q-12 0 -12 14q0 3 1 15t1 22q0 49 -30.5 82t-95.5 42l-25 -114.5l-17.5 -78.5l-10.5 -45.5t-6 -31
t-1 -20.5q0 -26 14 -36t48 -10q61 0 125 29.5t106 73.5q24 25 42.5 49.5t27.5 40.5l16 29t11.5 19t10.5 6q11 0 11 -11q0 -4 -1 -8t-4.5 -13t-8 -19.5l-14 -32l-19.5 -44l-27 -62l-35 -81.5q-40 0 -190 1t-226 1q-44 0 -97 -1t-59 -1q-24 0 -24 12q0 10 12 13t27 3.5
t30.5 12.5t20.5 38l51.5 240.5l35.5 159.5l20.5 88t11 47.5t2.5 17.5q0 13 -9 18t-20 4t-20 2t-9 13q0 8 5.5 10.5t25.5 2.5q24 0 114.5 -1t150.5 -1q43 0 128 1t128 1q15 -210 15 -228q0 -15 -13 -15q-7 0 -9.5 14.5t-13.5 47t-36 64.5q-37 49 -90 70t-138 23zM520 800
q0 30 21 51t51 21t51 -21t21 -51t-21 -51t-51 -21t-51 21t-21 51zM304 800q0 30 21 51t51 21t51 -21t21 -51t-21 -51t-51 -21t-51 21t-21 51z" />
    <glyph glyph-name="Igrave" unicode="&#xcc;" horiz-adv-x="407" 
d="M218 619q0 16 -10 23.5t-22.5 8t-22.5 4t-10 11.5q0 9 6 11.5t26 2.5q16 0 57.5 -1t89.5 -1q21 0 71 1t82 1q15 0 20.5 -2.5t5.5 -11.5t-12 -12t-27.5 -3.5t-32 -15.5t-22.5 -45l-38 -175.5l-28.5 -132l-20 -91.5l-14 -63l-8 -37.5t-4.5 -22.5t-1 -11q0 -17 11 -25
t23.5 -9t23.5 -4t11 -11q0 -10 -30 -10q-14 0 -62 1t-91 1t-91.5 -1t-65.5 -1q-26 0 -26 9q0 11 13 14.5t29.5 2.5t32.5 9.5t21 33.5l64 304l41.5 187t10.5 61zM439 721h-50l-133 85q-37 24 -37 52q0 19 15 33t38 14q32 0 59 -36z" />
    <glyph glyph-name="Iacute" unicode="&#xcd;" horiz-adv-x="407" 
d="M218 619q0 16 -10 23.5t-22.5 8t-22.5 4t-10 11.5q0 9 6 11.5t26 2.5q16 0 57.5 -1t89.5 -1q21 0 71 1t82 1q15 0 20.5 -2.5t5.5 -11.5t-12 -12t-27.5 -3.5t-32 -15.5t-22.5 -45l-38 -175.5l-28.5 -132l-20 -91.5l-14 -63l-8 -37.5t-4.5 -22.5t-1 -11q0 -17 11 -25
t23.5 -9t23.5 -4t11 -11q0 -10 -30 -10q-14 0 -62 1t-91 1t-91.5 -1t-65.5 -1q-26 0 -26 9q0 11 13 14.5t29.5 2.5t32.5 9.5t21 33.5l64 304l41.5 187t10.5 61zM323 721h-56l130 144q20 22 33.5 31t32.5 9q20 0 36.5 -15t16.5 -36q0 -19 -12 -30.5t-41 -26.5z" />
    <glyph glyph-name="Icircumflex" unicode="&#xce;" horiz-adv-x="407" 
d="M218 619q0 16 -10 23.5t-22.5 8t-22.5 4t-10 11.5q0 9 6 11.5t26 2.5q16 0 57.5 -1t89.5 -1q21 0 71 1t82 1q15 0 20.5 -2.5t5.5 -11.5t-12 -12t-27.5 -3.5t-32 -15.5t-22.5 -45l-38 -175.5l-28.5 -132l-20 -91.5l-14 -63l-8 -37.5t-4.5 -22.5t-1 -11q0 -17 11 -25
t23.5 -9t23.5 -4t11 -11q0 -10 -30 -10q-14 0 -62 1t-91 1t-91.5 -1t-65.5 -1q-26 0 -26 9q0 11 13 14.5t29.5 2.5t32.5 9.5t21 33.5l64 304l41.5 187t10.5 61zM232 721h-65l159 176h100l83 -176h-56l-92 91z" />
    <glyph glyph-name="Idieresis" unicode="&#xcf;" horiz-adv-x="407" 
d="M218 619q0 16 -10 23.5t-22.5 8t-22.5 4t-10 11.5q0 9 6 11.5t26 2.5q16 0 57.5 -1t89.5 -1q21 0 71 1t82 1q15 0 20.5 -2.5t5.5 -11.5t-12 -12t-27.5 -3.5t-32 -15.5t-22.5 -45l-38 -175.5l-28.5 -132l-20 -91.5l-14 -63l-8 -37.5t-4.5 -22.5t-1 -11q0 -17 11 -25
t23.5 -9t23.5 -4t11 -11q0 -10 -30 -10q-14 0 -62 1t-91 1t-91.5 -1t-65.5 -1q-26 0 -26 9q0 11 13 14.5t29.5 2.5t32.5 9.5t21 33.5l64 304l41.5 187t10.5 61zM394 800q0 30 21 51t51 21t51 -21t21 -51t-21 -51t-51 -21t-51 21t-21 51zM178 800q0 30 21 51t51 21t51 -21
t21 -51t-21 -51t-51 -21t-51 21t-21 51z" />
    <glyph glyph-name="Eth" unicode="&#xd0;" horiz-adv-x="778" 
d="M78 356l9 36h78q47 204 47 220q0 19 -10.5 28t-22.5 9.5t-22.5 4t-10.5 11.5q0 15 32 15q19 0 64.5 -1t68.5 -1q27 0 86.5 1t100.5 1q139 0 223.5 -73.5t84.5 -204.5q0 -46 -12.5 -97.5t-52.5 -117t-102 -111.5q-104 -78 -297 -78q-18 0 -70.5 1t-86.5 1q-30 0 -89 -1
t-75 -1q-13 0 -17.5 2.5t-4.5 11.5q0 10 12.5 13.5t28.5 3.5t31.5 10t20.5 31q62 274 65 286h-79zM498 392l-7 -36h-130l-57 -253q-6 -30 -6 -48t12.5 -25.5t41.5 -7.5q74 0 117.5 44.5t74.5 138.5q26 80 41 168t15 141q0 81 -33 111.5t-103 30.5h-38l-58 -264h130z" />
    <glyph glyph-name="Ntilde" unicode="&#xd1;" horiz-adv-x="704" 
d="M376 678l246 -394q5 24 17 76l19.5 84.5t13.5 69.5t6 56q0 35 -15 53.5t-33 21.5t-33 7t-15 14q0 14 21 14q15 0 54.5 -1t59.5 -1q26 0 64 1t45 1q18 0 22 -2.5t4 -12.5q0 -9 -11.5 -12.5t-30 -8.5t-38.5 -15.5t-39 -40t-29 -75.5l-111 -514q-4 -15 -9 -15t-15 16
l-336 537l-31 -148.5l-24 -112.5l-15.5 -73.5t-10 -55t-2.5 -33.5q0 -39 14 -60t30.5 -24.5t30.5 -7t14 -10.5q0 -14 -19 -14q-29 0 -65.5 1t-49.5 1t-49.5 -1t-63.5 -1q-20 0 -20 11q0 8 14 11.5t33 6t42.5 21t38.5 53.5q12 27 30.5 104t80.5 364l-39 56q-10 15 -25 21.5
t-24 9.5t-9 9q0 15 26 15q14 0 80 -1t156 -1zM377 743h-45q10 52 42 89t84 37q32 0 81.5 -20t68.5 -20q34 0 51 40h45q-10 -57 -44 -91.5t-78 -34.5q-29 0 -85 22t-71 22q-16 0 -27.5 -10t-14 -15.5t-7.5 -18.5z" />
    <glyph glyph-name="Ograve" unicode="&#xd2;" horiz-adv-x="815" 
d="M513 694q53 0 108.5 -19t106 -55t83 -98t32.5 -140q0 -104 -61 -196.5t-161.5 -147t-211.5 -54.5q-53 0 -108.5 19t-106 55t-82.5 98t-32 140q0 104 61 196.5t161 147t211 54.5zM292 170q0 -79 26 -120.5t94 -41.5q55 0 98 50.5t64.5 117.5t35.5 146t17.5 123.5t3.5 62.5
q0 79 -26 120.5t-94 41.5q-55 0 -98 -50.5t-64.5 -117.5t-35.5 -146t-17.5 -123.5t-3.5 -62.5zM649 721h-50l-133 85q-37 24 -37 52q0 19 15 33t38 14q32 0 59 -36z" />
    <glyph glyph-name="Oacute" unicode="&#xd3;" horiz-adv-x="815" 
d="M513 694q53 0 108.5 -19t106 -55t83 -98t32.5 -140q0 -104 -61 -196.5t-161.5 -147t-211.5 -54.5q-53 0 -108.5 19t-106 55t-82.5 98t-32 140q0 104 61 196.5t161 147t211 54.5zM292 170q0 -79 26 -120.5t94 -41.5q55 0 98 50.5t64.5 117.5t35.5 146t17.5 123.5t3.5 62.5
q0 79 -26 120.5t-94 41.5q-55 0 -98 -50.5t-64.5 -117.5t-35.5 -146t-17.5 -123.5t-3.5 -62.5zM533 721h-56l130 144q20 22 33.5 31t32.5 9q20 0 36.5 -15t16.5 -36q0 -19 -12 -30.5t-41 -26.5z" />
    <glyph glyph-name="Ocircumflex" unicode="&#xd4;" horiz-adv-x="815" 
d="M513 694q53 0 108.5 -19t106 -55t83 -98t32.5 -140q0 -104 -61 -196.5t-161.5 -147t-211.5 -54.5q-53 0 -108.5 19t-106 55t-82.5 98t-32 140q0 104 61 196.5t161 147t211 54.5zM292 170q0 -79 26 -120.5t94 -41.5q55 0 98 50.5t64.5 117.5t35.5 146t17.5 123.5t3.5 62.5
q0 79 -26 120.5t-94 41.5q-55 0 -98 -50.5t-64.5 -117.5t-35.5 -146t-17.5 -123.5t-3.5 -62.5zM442 721h-65l159 176h100l83 -176h-56l-92 91z" />
    <glyph glyph-name="Otilde" unicode="&#xd5;" horiz-adv-x="815" 
d="M513 694q53 0 108.5 -19t106 -55t83 -98t32.5 -140q0 -104 -61 -196.5t-161.5 -147t-211.5 -54.5q-53 0 -108.5 19t-106 55t-82.5 98t-32 140q0 104 61 196.5t161 147t211 54.5zM292 170q0 -79 26 -120.5t94 -41.5q55 0 98 50.5t64.5 117.5t35.5 146t17.5 123.5t3.5 62.5
q0 79 -26 120.5t-94 41.5q-55 0 -98 -50.5t-64.5 -117.5t-35.5 -146t-17.5 -123.5t-3.5 -62.5zM432 743h-45q10 52 42 89t84 37q32 0 81.5 -20t68.5 -20q34 0 51 40h45q-10 -57 -44 -91.5t-78 -34.5q-29 0 -85 22t-71 22q-16 0 -27.5 -10t-14 -15.5t-7.5 -18.5z" />
    <glyph glyph-name="Odieresis" unicode="&#xd6;" horiz-adv-x="815" 
d="M513 694q53 0 108.5 -19t106 -55t83 -98t32.5 -140q0 -104 -61 -196.5t-161.5 -147t-211.5 -54.5q-53 0 -108.5 19t-106 55t-82.5 98t-32 140q0 104 61 196.5t161 147t211 54.5zM292 170q0 -79 26 -120.5t94 -41.5q55 0 98 50.5t64.5 117.5t35.5 146t17.5 123.5t3.5 62.5
q0 79 -26 120.5t-94 41.5q-55 0 -98 -50.5t-64.5 -117.5t-35.5 -146t-17.5 -123.5t-3.5 -62.5zM604 800q0 30 21 51t51 21t51 -21t21 -51t-21 -51t-51 -21t-51 21t-21 51zM388 800q0 30 21 51t51 21t51 -21t21 -51t-21 -51t-51 -21t-51 21t-21 51z" />
    <glyph glyph-name="multiply" unicode="&#xd7;" horiz-adv-x="600" 
d="M248 227l-142 142l85 85l142 -142l142 142l85 -85l-142 -142l142 -142l-85 -85l-142 142l-142 -142l-85 85z" />
    <glyph glyph-name="Oslash" unicode="&#xd8;" horiz-adv-x="815" 
d="M631 497l-335 -387q16 -102 116 -102q54 0 96 47.5t64 112t36.5 140.5t18.5 122t4 67zM294 181l333 386q-16 103 -116 103q-45 0 -82 -32.5t-59.5 -85t-38.5 -109t-24 -115.5t-11.5 -93t-3.5 -52zM783 748h64l-114 -132q110 -87 110 -234q0 -104 -61 -196.5t-161.5 -147
t-211.5 -54.5q-94 0 -178 50l-101 -116h-64l124 144q-110 87 -110 234q0 104 61 196.5t161 147t211 54.5q94 0 180 -51z" />
    <glyph glyph-name="Ugrave" unicode="&#xd9;" horiz-adv-x="722" 
d="M725 498l-62 -293q-24 -111 -103 -166t-195 -55q-133 0 -199 45t-66 108q0 36 49.5 244.5t49.5 231.5q0 25 -13.5 32.5t-27.5 9t-14 11.5q0 14 32 14q22 0 68 -1t69 -1q40 0 86 1t54 1q29 0 29 -14q0 -7 -10.5 -10.5t-24.5 -6.5t-29.5 -20.5t-22.5 -49.5
q-95 -392 -95 -456q0 -44 30 -72.5t86 -28.5q80 0 137 51t77 145q70 329 70 361q0 30 -12 47.5t-26 21.5l-26 7.5t-12 9.5q0 15 25 15q23 0 55 -1t44 -1q13 0 41.5 1t45.5 1q31 0 31 -13q0 -7 -17 -12.5t-39 -13.5t-47 -45t-38 -98zM608 721h-50l-133 85q-37 24 -37 52
q0 19 15 33t38 14q32 0 59 -36z" />
    <glyph glyph-name="Uacute" unicode="&#xda;" horiz-adv-x="722" 
d="M725 498l-62 -293q-24 -111 -103 -166t-195 -55q-133 0 -199 45t-66 108q0 36 49.5 244.5t49.5 231.5q0 25 -13.5 32.5t-27.5 9t-14 11.5q0 14 32 14q22 0 68 -1t69 -1q40 0 86 1t54 1q29 0 29 -14q0 -7 -10.5 -10.5t-24.5 -6.5t-29.5 -20.5t-22.5 -49.5
q-95 -392 -95 -456q0 -44 30 -72.5t86 -28.5q80 0 137 51t77 145q70 329 70 361q0 30 -12 47.5t-26 21.5l-26 7.5t-12 9.5q0 15 25 15q23 0 55 -1t44 -1q13 0 41.5 1t45.5 1q31 0 31 -13q0 -7 -17 -12.5t-39 -13.5t-47 -45t-38 -98zM492 721h-56l130 144q20 22 33.5 31
t32.5 9q20 0 36.5 -15t16.5 -36q0 -19 -12 -30.5t-41 -26.5z" />
    <glyph glyph-name="Ucircumflex" unicode="&#xdb;" horiz-adv-x="722" 
d="M725 498l-62 -293q-24 -111 -103 -166t-195 -55q-133 0 -199 45t-66 108q0 36 49.5 244.5t49.5 231.5q0 25 -13.5 32.5t-27.5 9t-14 11.5q0 14 32 14q22 0 68 -1t69 -1q40 0 86 1t54 1q29 0 29 -14q0 -7 -10.5 -10.5t-24.5 -6.5t-29.5 -20.5t-22.5 -49.5
q-95 -392 -95 -456q0 -44 30 -72.5t86 -28.5q80 0 137 51t77 145q70 329 70 361q0 30 -12 47.5t-26 21.5l-26 7.5t-12 9.5q0 15 25 15q23 0 55 -1t44 -1q13 0 41.5 1t45.5 1q31 0 31 -13q0 -7 -17 -12.5t-39 -13.5t-47 -45t-38 -98zM401 721h-65l159 176h100l83 -176h-56
l-92 91z" />
    <glyph glyph-name="Udieresis" unicode="&#xdc;" horiz-adv-x="722" 
d="M725 498l-62 -293q-24 -111 -103 -166t-195 -55q-133 0 -199 45t-66 108q0 36 49.5 244.5t49.5 231.5q0 25 -13.5 32.5t-27.5 9t-14 11.5q0 14 32 14q22 0 68 -1t69 -1q40 0 86 1t54 1q29 0 29 -14q0 -7 -10.5 -10.5t-24.5 -6.5t-29.5 -20.5t-22.5 -49.5
q-95 -392 -95 -456q0 -44 30 -72.5t86 -28.5q80 0 137 51t77 145q70 329 70 361q0 30 -12 47.5t-26 21.5l-26 7.5t-12 9.5q0 15 25 15q23 0 55 -1t44 -1q13 0 41.5 1t45.5 1q31 0 31 -13q0 -7 -17 -12.5t-39 -13.5t-47 -45t-38 -98zM563 800q0 30 21 51t51 21t51 -21t21 -51
t-21 -51t-51 -21t-51 21t-21 51zM347 800q0 30 21 51t51 21t51 -21t21 -51t-21 -51t-51 -21t-51 21t-21 51z" />
    <glyph glyph-name="Yacute" unicode="&#xdd;" horiz-adv-x="630" 
d="M258 332l-94 270q-8 22 -21 33.5t-24.5 13.5t-20 5.5t-8.5 12.5t7 11t28 2q27 0 75.5 -1t71.5 -1q27 0 86 1t69 1q12 0 16.5 -0.5t8 -3.5t3.5 -9q0 -9 -12 -13.5t-27 -6.5t-27 -13t-12 -31q0 -7 2 -15.5t7.5 -26.5t13 -39.5t22 -66.5l29.5 -96q99 131 126 177t27 75
q0 21 -13.5 30.5t-27 13t-13.5 11.5q0 14 30 14q14 0 42.5 -1t42.5 -1t42.5 1t42.5 1q30 0 30 -14q0 -6 -4.5 -9t-11 -4.5t-19 -6.5t-24.5 -13q-21 -14 -59 -50.5t-77 -89.5l-63.5 -85l-42.5 -53.5t-19.5 -27t-10.5 -24.5q-44 -224 -44 -243q0 -17 10.5 -24.5t23 -8t23 -4
t10.5 -12.5t-6 -11t-24 -2q-29 0 -79 1t-72 1q-39 0 -89 -1t-72 -1q-18 0 -18 10q0 9 12 12t27 4t30.5 14.5t21.5 40.5zM427 721h-56l130 144q20 22 33.5 31t32.5 9q20 0 36.5 -15t16.5 -36q0 -19 -12 -30.5t-41 -26.5z" />
    <glyph glyph-name="Thorn" unicode="&#xde;" horiz-adv-x="667" 
d="M389 526l-72 -354q89 0 122 49q25 38 41 105.5t16 121.5q0 46 -21 61.5t-86 16.5zM208 622q0 19 -14 25t-28 7.5t-14 10.5q0 15 31 15q21 0 64.5 -1t69.5 -1q21 0 71 1t82 1q16 0 21 -2.5t5 -11.5t-12 -12t-27.5 -3.5t-32 -15.5t-22.5 -45t-9 -42q32 2 71 2
q238 0 238 -170q0 -64 -41.5 -121.5t-118.5 -84.5q-77 -26 -232 -26q-14 -60 -14 -84q0 -20 10.5 -29t22.5 -9t22.5 -2.5t10.5 -11.5q0 -14 -28 -14q-30 0 -79.5 1t-71.5 1q-20 0 -72 -1t-88 -1q-19 0 -19 12q0 10 12 12.5t27 2t30.5 9.5t20.5 33l94.5 436t19.5 119z" />
    <glyph glyph-name="germandbls" unicode="&#xdf;" 
d="M130 368h-65q57 52 112 124.5t85.5 121t74 84.5t91.5 36q62 0 107 -39t45 -94q0 -49 -31 -89t-84 -64q-13 -6 -30.5 -13t-25.5 -10.5t-16 -8t-11 -9t-3 -10.5q0 -12 24 -19.5t58.5 -15.5t69 -22.5t58.5 -48.5t24 -85q0 -94 -79 -158t-176 -64q-115 0 -115 77q0 35 23 66
t64 31q26 0 41.5 -13t15.5 -34q0 -29 -25 -54.5t-25 -34.5q0 -14 24 -14q19 0 30 11t17 43q23 121 23 172q0 34 -12 59t-26 35.5t-26 27t-12 36.5q0 18 15.5 39t34 40t34 62t15.5 100q0 77 -49 77q-36 0 -62.5 -35t-26.5 -102q0 -8 1 -26t1 -29q0 -75 -17 -157.5t-87 -360.5
q-41 0 -124 -1t-90 -1q-16 0 -16 11q0 8 9.5 11t21.5 4t24 9t16 24z" />
    <glyph glyph-name="agrave" unicode="&#xe0;" 
d="M353 105h-2q-33 -56 -57 -78q-41 -35 -96 -35q-67 0 -110.5 46t-43.5 120q0 116 90.5 210t192.5 94q81 0 93 -76q32 35 88.5 55.5t87.5 20.5q15 0 15 -8q0 -5 -11.5 -18.5t-16.5 -33.5q-63 -303 -63 -320q0 -24 19 -24q26 0 53 74q12 32 18 32q10 0 10 -11q0 -5 -4 -20
t-15 -40t-27 -47t-44 -38t-63 -16q-30 0 -51 9t-33.5 29.5t-17 32t-10.5 35.5q-1 5 -2 7zM255 38q31 0 64.5 56.5t55 134.5t21.5 140q0 29 -12.5 49t-32.5 20q-39 0 -75 -100q-54 -152 -54 -253q0 -47 33 -47zM489 524h-50l-133 85q-37 24 -37 52q0 19 15 33t38 14
q32 0 59 -36z" />
    <glyph glyph-name="aacute" unicode="&#xe1;" 
d="M353 105h-2q-33 -56 -57 -78q-41 -35 -96 -35q-67 0 -110.5 46t-43.5 120q0 116 90.5 210t192.5 94q81 0 93 -76q32 35 88.5 55.5t87.5 20.5q15 0 15 -8q0 -5 -11.5 -18.5t-16.5 -33.5q-63 -303 -63 -320q0 -24 19 -24q26 0 53 74q12 32 18 32q10 0 10 -11q0 -5 -4 -20
t-15 -40t-27 -47t-44 -38t-63 -16q-30 0 -51 9t-33.5 29.5t-17 32t-10.5 35.5q-1 5 -2 7zM255 38q31 0 64.5 56.5t55 134.5t21.5 140q0 29 -12.5 49t-32.5 20q-39 0 -75 -100q-54 -152 -54 -253q0 -47 33 -47zM373 524h-56l130 144q20 22 33.5 31t32.5 9q20 0 36.5 -15
t16.5 -36q0 -19 -12 -30.5t-41 -26.5z" />
    <glyph glyph-name="acircumflex" unicode="&#xe2;" 
d="M353 105h-2q-33 -56 -57 -78q-41 -35 -96 -35q-67 0 -110.5 46t-43.5 120q0 116 90.5 210t192.5 94q81 0 93 -76q32 35 88.5 55.5t87.5 20.5q15 0 15 -8q0 -5 -11.5 -18.5t-16.5 -33.5q-63 -303 -63 -320q0 -24 19 -24q26 0 53 74q12 32 18 32q10 0 10 -11q0 -5 -4 -20
t-15 -40t-27 -47t-44 -38t-63 -16q-30 0 -51 9t-33.5 29.5t-17 32t-10.5 35.5q-1 5 -2 7zM255 38q31 0 64.5 56.5t55 134.5t21.5 140q0 29 -12.5 49t-32.5 20q-39 0 -75 -100q-54 -152 -54 -253q0 -47 33 -47zM282 524h-65l159 176h100l83 -176h-56l-92 91z" />
    <glyph glyph-name="atilde" unicode="&#xe3;" 
d="M353 105h-2q-33 -56 -57 -78q-41 -35 -96 -35q-67 0 -110.5 46t-43.5 120q0 116 90.5 210t192.5 94q81 0 93 -76q32 35 88.5 55.5t87.5 20.5q15 0 15 -8q0 -5 -11.5 -18.5t-16.5 -33.5q-63 -303 -63 -320q0 -24 19 -24q26 0 53 74q12 32 18 32q10 0 10 -11q0 -5 -4 -20
t-15 -40t-27 -47t-44 -38t-63 -16q-30 0 -51 9t-33.5 29.5t-17 32t-10.5 35.5q-1 5 -2 7zM255 38q31 0 64.5 56.5t55 134.5t21.5 140q0 29 -12.5 49t-32.5 20q-39 0 -75 -100q-54 -152 -54 -253q0 -47 33 -47zM272 546h-45q10 52 42 89t84 37q32 0 81.5 -20t68.5 -20
q34 0 51 40h45q-10 -57 -44 -91.5t-78 -34.5q-29 0 -85 22t-71 22q-16 0 -27.5 -10t-14 -15.5t-7.5 -18.5z" />
    <glyph glyph-name="adieresis" unicode="&#xe4;" 
d="M353 105h-2q-33 -56 -57 -78q-41 -35 -96 -35q-67 0 -110.5 46t-43.5 120q0 116 90.5 210t192.5 94q81 0 93 -76q32 35 88.5 55.5t87.5 20.5q15 0 15 -8q0 -5 -11.5 -18.5t-16.5 -33.5q-63 -303 -63 -320q0 -24 19 -24q26 0 53 74q12 32 18 32q10 0 10 -11q0 -5 -4 -20
t-15 -40t-27 -47t-44 -38t-63 -16q-30 0 -51 9t-33.5 29.5t-17 32t-10.5 35.5q-1 5 -2 7zM255 38q31 0 64.5 56.5t55 134.5t21.5 140q0 29 -12.5 49t-32.5 20q-39 0 -75 -100q-54 -152 -54 -253q0 -47 33 -47zM444 603q0 30 21 51t51 21t51 -21t21 -51t-21 -51t-51 -21
t-51 21t-21 51zM228 603q0 30 21 51t51 21t51 -21t21 -51t-21 -51t-51 -21t-51 21t-21 51z" />
    <glyph glyph-name="aring" unicode="&#xe5;" 
d="M353 105h-2q-33 -56 -57 -78q-41 -35 -96 -35q-67 0 -110.5 46t-43.5 120q0 116 90.5 210t192.5 94q81 0 93 -76q32 35 88.5 55.5t87.5 20.5q15 0 15 -8q0 -5 -11.5 -18.5t-16.5 -33.5q-63 -303 -63 -320q0 -24 19 -24q26 0 53 74q12 32 18 32q10 0 10 -11q0 -5 -4 -20
t-15 -40t-27 -47t-44 -38t-63 -16q-30 0 -51 9t-33.5 29.5t-17 32t-10.5 35.5q-1 5 -2 7zM255 38q31 0 64.5 56.5t55 134.5t21.5 140q0 29 -12.5 49t-32.5 20q-39 0 -75 -100q-54 -152 -54 -253q0 -47 33 -47zM295 632q0 45 31.5 76.5t76.5 31.5t75.5 -31.5t30.5 -76.5
t-30.5 -75.5t-75.5 -30.5t-76.5 30.5t-31.5 75.5zM349 633q0 -22 15.5 -37.5t37.5 -15.5t37.5 15.5t15.5 37.5t-15.5 37.5t-37.5 15.5t-37.5 -15.5t-15.5 -37.5z" />
    <glyph glyph-name="ae" unicode="&#xe6;" horiz-adv-x="741" 
d="M284 78l31 153q-107 -30 -107 -132q0 -43 26 -43q24 0 50 22zM78 322q0 36 45.5 69.5t104.5 52t106 18.5q69 0 127 -34q66 34 137 34q69 0 113 -30t44 -80q0 -64 -74 -106t-196 -42q0 -49 31 -83.5t82 -34.5q32 0 58 12t41.5 24t21.5 12q8 0 8 -9q0 -21 -43 -63
q-72 -70 -180 -70q-61 0 -106.5 24.5t-69.5 65.5q-130 -90 -219 -90q-37 0 -62 20t-25 57q0 25 12.5 46.5t30.5 35.5t51 29t59.5 24l71 24l72.5 25q31 150 31 156q0 29 -35 29t-48 -17.5t-18 -53.5q-15 -96 -106 -96q-65 0 -65 51zM485 228h15q39 0 69.5 30.5t44 68
t13.5 70.5q0 41 -32 41q-39 0 -74.5 -68.5t-35.5 -141.5z" />
    <glyph glyph-name="ccedilla" unicode="&#xe7;" horiz-adv-x="500" 
d="M50 186q0 115 84 195.5t200 80.5q83 0 129.5 -42t46.5 -100q0 -39 -22.5 -68t-64.5 -29q-30 0 -50.5 21.5t-20.5 51.5q0 25 18 57t18 52q0 15 -11 24t-28 9q-50 0 -85.5 -72.5t-35.5 -147.5q0 -69 30 -110.5t94 -41.5q25 0 48 10t35.5 22l23 22t13.5 10q12 0 12 -12
q0 -4 -8.5 -16.5t-27 -30.5t-43 -34.5t-62 -29.5t-78.5 -15l-42 -52l2 -2q8 3 26 3q43 0 68.5 -19t25.5 -54q0 -40 -36 -64t-96 -24q-62 0 -112 28l22 32q43 -18 70 -18q25 0 39.5 11.5t14.5 29.5q0 14 -10.5 25t-31.5 11q-12 0 -32 -4l-16 17l62 82q-76 9 -122.5 62
t-46.5 130z" />
    <glyph glyph-name="egrave" unicode="&#xe8;" horiz-adv-x="500" 
d="M514 352q0 -64 -76.5 -106t-209.5 -42q0 -52 27.5 -85t89.5 -33q37 0 64 12t42 24t22 12q8 0 8 -9q0 -16 -40 -57q-74 -76 -199 -76q-89 0 -140.5 52t-51.5 129q0 128 88 208.5t203 80.5q80 0 126.5 -29.5t46.5 -80.5zM228 228h15q43 0 75.5 30.5t46 68t13.5 70.5
q0 41 -32 41q-39 0 -78.5 -69t-39.5 -141zM440 524h-50l-133 85q-37 24 -37 52q0 19 15 33t38 14q32 0 59 -36z" />
    <glyph glyph-name="eacute" unicode="&#xe9;" horiz-adv-x="500" 
d="M514 352q0 -64 -76.5 -106t-209.5 -42q0 -52 27.5 -85t89.5 -33q37 0 64 12t42 24t22 12q8 0 8 -9q0 -16 -40 -57q-74 -76 -199 -76q-89 0 -140.5 52t-51.5 129q0 128 88 208.5t203 80.5q80 0 126.5 -29.5t46.5 -80.5zM228 228h15q43 0 75.5 30.5t46 68t13.5 70.5
q0 41 -32 41q-39 0 -78.5 -69t-39.5 -141zM324 524h-56l130 144q20 22 33.5 31t32.5 9q20 0 36.5 -15t16.5 -36q0 -19 -12 -30.5t-41 -26.5z" />
    <glyph glyph-name="ecircumflex" unicode="&#xea;" horiz-adv-x="500" 
d="M514 352q0 -64 -76.5 -106t-209.5 -42q0 -52 27.5 -85t89.5 -33q37 0 64 12t42 24t22 12q8 0 8 -9q0 -16 -40 -57q-74 -76 -199 -76q-89 0 -140.5 52t-51.5 129q0 128 88 208.5t203 80.5q80 0 126.5 -29.5t46.5 -80.5zM228 228h15q43 0 75.5 30.5t46 68t13.5 70.5
q0 41 -32 41q-39 0 -78.5 -69t-39.5 -141zM233 524h-65l159 176h100l83 -176h-56l-92 91z" />
    <glyph glyph-name="edieresis" unicode="&#xeb;" horiz-adv-x="500" 
d="M514 352q0 -64 -76.5 -106t-209.5 -42q0 -52 27.5 -85t89.5 -33q37 0 64 12t42 24t22 12q8 0 8 -9q0 -16 -40 -57q-74 -76 -199 -76q-89 0 -140.5 52t-51.5 129q0 128 88 208.5t203 80.5q80 0 126.5 -29.5t46.5 -80.5zM228 228h15q43 0 75.5 30.5t46 68t13.5 70.5
q0 41 -32 41q-39 0 -78.5 -69t-39.5 -141zM395 603q0 30 21 51t51 21t51 -21t21 -51t-21 -51t-51 -21t-51 21t-21 51zM179 603q0 30 21 51t51 21t51 -21t21 -51t-21 -51t-51 -21t-51 21t-21 51z" />
    <glyph glyph-name="igrave" unicode="&#xec;" horiz-adv-x="352" 
d="M328 349q0 -31 -30.5 -139.5t-30.5 -129.5q0 -22 15 -22q22 0 48 53q4 7 7.5 15l5.5 12.5t4 8t4 5t5 1.5q9 0 9 -10q0 -8 -9 -30t-25.5 -50.5t-48 -49.5t-68.5 -21q-54 0 -83.5 30t-29.5 82q0 39 30.5 149t30.5 121q0 22 -15 22q-21 0 -48 -53q-4 -7 -7.5 -15l-5.5 -12.5
t-4 -8t-4 -5t-5 -1.5q-9 0 -9 10q0 8 9 30t25.5 50.5t48 49.5t68.5 21q54 0 83.5 -30.5t29.5 -82.5zM340 524h-50l-133 85q-37 24 -37 52q0 19 15 33t38 14q32 0 59 -36z" />
    <glyph glyph-name="iacute" unicode="&#xed;" horiz-adv-x="352" 
d="M328 349q0 -31 -30.5 -139.5t-30.5 -129.5q0 -22 15 -22q22 0 48 53q4 7 7.5 15l5.5 12.5t4 8t4 5t5 1.5q9 0 9 -10q0 -8 -9 -30t-25.5 -50.5t-48 -49.5t-68.5 -21q-54 0 -83.5 30t-29.5 82q0 39 30.5 149t30.5 121q0 22 -15 22q-21 0 -48 -53q-4 -7 -7.5 -15l-5.5 -12.5
t-4 -8t-4 -5t-5 -1.5q-9 0 -9 10q0 8 9 30t25.5 50.5t48 49.5t68.5 21q54 0 83.5 -30.5t29.5 -82.5zM224 524h-56l130 144q20 22 33.5 31t32.5 9q20 0 36.5 -15t16.5 -36q0 -19 -12 -30.5t-41 -26.5z" />
    <glyph glyph-name="icircumflex" unicode="&#xee;" horiz-adv-x="352" 
d="M328 349q0 -31 -30.5 -139.5t-30.5 -129.5q0 -22 15 -22q22 0 48 53q4 7 7.5 15l5.5 12.5t4 8t4 5t5 1.5q9 0 9 -10q0 -8 -9 -30t-25.5 -50.5t-48 -49.5t-68.5 -21q-54 0 -83.5 30t-29.5 82q0 39 30.5 149t30.5 121q0 22 -15 22q-21 0 -48 -53q-4 -7 -7.5 -15l-5.5 -12.5
t-4 -8t-4 -5t-5 -1.5q-9 0 -9 10q0 8 9 30t25.5 50.5t48 49.5t68.5 21q54 0 83.5 -30.5t29.5 -82.5zM133 524h-65l159 176h100l83 -176h-56l-92 91z" />
    <glyph glyph-name="idieresis" unicode="&#xef;" horiz-adv-x="352" 
d="M328 349q0 -31 -30.5 -139.5t-30.5 -129.5q0 -22 15 -22q22 0 48 53q4 7 7.5 15l5.5 12.5t4 8t4 5t5 1.5q9 0 9 -10q0 -8 -9 -30t-25.5 -50.5t-48 -49.5t-68.5 -21q-54 0 -83.5 30t-29.5 82q0 39 30.5 149t30.5 121q0 22 -15 22q-21 0 -48 -53q-4 -7 -7.5 -15l-5.5 -12.5
t-4 -8t-4 -5t-5 -1.5q-9 0 -9 10q0 8 9 30t25.5 50.5t48 49.5t68.5 21q54 0 83.5 -30.5t29.5 -82.5zM295 603q0 30 21 51t51 21t51 -21t21 -51t-21 -51t-51 -21t-51 21t-21 51zM79 603q0 30 21 51t51 21t51 -21t21 -51t-21 -51t-51 -21t-51 21t-21 51z" />
    <glyph glyph-name="eth" unicode="&#xf0;" horiz-adv-x="556" 
d="M216 78q0 -62 48 -62q23 0 40 18.5t32 62.5q24 68 39.5 148t15.5 132q0 61 -48 61q-23 0 -40 -18t-32 -62q-24 -68 -39.5 -148t-15.5 -132zM248 518l-20 34l143 71q-22 52 -67 92q-23 21 -23 28q0 9 10 9q22 0 69 -27t83 -66l155 77l22 -34l-149 -73q100 -123 100 -307
q0 -156 -84 -243t-212 -87q-86 0 -155.5 57.5t-69.5 142.5q0 122 82 196t201 74q15 0 67 -8q2 83 -16 131z" />
    <glyph glyph-name="ntilde" unicode="&#xf1;" horiz-adv-x="630" 
d="M64 -8l75 328q10 42 10 55q0 21 -16 21q-23 0 -51 -57q-3 -5 -6.5 -12.5t-5.5 -11l-4.5 -7.5t-4.5 -5.5t-5 -1.5q-10 0 -10 11q0 7 10 29t27.5 50t48.5 49.5t67 21.5q24 0 42.5 -6t29.5 -19.5t18 -23t11 -30.5t4.5 -26.5t2.5 -25.5h2q14 27 24.5 44.5t30.5 40.5
t47.5 34.5t61.5 11.5q58 0 95 -33.5t37 -92.5q0 -25 -28 -131.5t-28 -124.5q0 -22 15 -22q22 0 48 53q4 7 7.5 15l5.5 12.5t4 8t4 5t5 1.5q9 0 9 -10q0 -8 -9 -30t-25.5 -50.5t-48 -49.5t-68.5 -21q-54 0 -83.5 30.5t-29.5 82.5q0 37 28 147.5t28 126.5q0 33 -28 33
q-24 0 -55 -44t-52 -108q-36 -112 -65 -268q-37 28 -87 28q-35 0 -88 -28zM269 546h-45q10 52 42 89t84 37q32 0 81.5 -20t68.5 -20q34 0 51 40h45q-10 -57 -44 -91.5t-78 -34.5q-29 0 -85 22t-71 22q-16 0 -27.5 -10t-14 -15.5t-7.5 -18.5z" />
    <glyph glyph-name="ograve" unicode="&#xf2;" horiz-adv-x="556" 
d="M557 262q0 -122 -81.5 -196t-200.5 -74q-86 0 -155.5 57.5t-69.5 142.5q0 122 82 196t201 74q86 0 155 -57.5t69 -142.5zM343 438q-23 0 -40 -18t-32 -62q-24 -68 -39.5 -148t-15.5 -132q0 -62 48 -62q23 0 40 18.5t32 62.5q24 68 39.5 148t15.5 132q0 61 -48 61z
M456 524h-50l-133 85q-37 24 -37 52q0 19 15 33t38 14q32 0 59 -36z" />
    <glyph glyph-name="oacute" unicode="&#xf3;" horiz-adv-x="556" 
d="M557 262q0 -122 -81.5 -196t-200.5 -74q-86 0 -155.5 57.5t-69.5 142.5q0 122 82 196t201 74q86 0 155 -57.5t69 -142.5zM343 438q-23 0 -40 -18t-32 -62q-24 -68 -39.5 -148t-15.5 -132q0 -62 48 -62q23 0 40 18.5t32 62.5q24 68 39.5 148t15.5 132q0 61 -48 61z
M340 524h-56l130 144q20 22 33.5 31t32.5 9q20 0 36.5 -15t16.5 -36q0 -19 -12 -30.5t-41 -26.5z" />
    <glyph glyph-name="ocircumflex" unicode="&#xf4;" horiz-adv-x="556" 
d="M557 262q0 -122 -81.5 -196t-200.5 -74q-86 0 -155.5 57.5t-69.5 142.5q0 122 82 196t201 74q86 0 155 -57.5t69 -142.5zM343 438q-23 0 -40 -18t-32 -62q-24 -68 -39.5 -148t-15.5 -132q0 -62 48 -62q23 0 40 18.5t32 62.5q24 68 39.5 148t15.5 132q0 61 -48 61z
M249 524h-65l159 176h100l83 -176h-56l-92 91z" />
    <glyph glyph-name="otilde" unicode="&#xf5;" horiz-adv-x="556" 
d="M557 262q0 -122 -81.5 -196t-200.5 -74q-86 0 -155.5 57.5t-69.5 142.5q0 122 82 196t201 74q86 0 155 -57.5t69 -142.5zM343 438q-23 0 -40 -18t-32 -62q-24 -68 -39.5 -148t-15.5 -132q0 -62 48 -62q23 0 40 18.5t32 62.5q24 68 39.5 148t15.5 132q0 61 -48 61z
M239 546h-45q10 52 42 89t84 37q32 0 81.5 -20t68.5 -20q34 0 51 40h45q-10 -57 -44 -91.5t-78 -34.5q-29 0 -85 22t-71 22q-16 0 -27.5 -10t-14 -15.5t-7.5 -18.5z" />
    <glyph glyph-name="odieresis" unicode="&#xf6;" horiz-adv-x="556" 
d="M557 262q0 -122 -81.5 -196t-200.5 -74q-86 0 -155.5 57.5t-69.5 142.5q0 122 82 196t201 74q86 0 155 -57.5t69 -142.5zM343 438q-23 0 -40 -18t-32 -62q-24 -68 -39.5 -148t-15.5 -132q0 -62 48 -62q23 0 40 18.5t32 62.5q24 68 39.5 148t15.5 132q0 61 -48 61z
M405 603q0 30 21 51t51 21t51 -21t21 -51t-21 -51t-51 -21t-51 21t-21 51zM189 603q0 30 21 51t51 21t51 -21t21 -51t-21 -51t-51 -21t-51 21t-21 51z" />
    <glyph glyph-name="divide" unicode="&#xf7;" horiz-adv-x="600" 
d="M560 167h-454v120h454v-120zM244 418q0 37 26 63t63 26t63 -26t26 -63t-26 -63t-63 -26t-63 26t-26 63zM244 36q0 37 26 63t63 26t63 -26t26 -63t-26 -63t-63 -26t-63 26t-26 63z" />
    <glyph glyph-name="oslash" unicode="&#xf8;" horiz-adv-x="556" 
d="M226 162l165 219q-1 57 -48 57q-23 0 -40 -18t-32 -62q-34 -99 -47 -194zM381 303l-165 -219v-6q0 -62 48 -62q23 0 40 18.5t32 62.5q37 105 47 204zM509 537h52l-91 -120q87 -58 87 -155q0 -122 -81.5 -196t-200.5 -74q-56 0 -108 27l-78 -102h-52l95 124
q-82 59 -82 151q0 122 82 196t201 74q55 0 101 -24z" />
    <glyph glyph-name="ugrave" unicode="&#xf9;" horiz-adv-x="630" 
d="M625 462l-69 -295q-17 -72 -17 -87q0 -22 18 -22q21 0 48 53q4 7 7.5 15l5.5 12.5t4 8t4 5t5 1.5q9 0 9 -10q0 -8 -9 -30t-25.5 -50.5t-48 -49.5t-68.5 -21q-29 0 -49.5 10.5t-30.5 22.5t-17 36t-8 34.5t-3 34.5h-2q-14 -28 -25 -46.5t-31 -42.5t-47 -36.5t-61 -12.5
q-63 0 -97 37.5t-34 88.5q0 32 30.5 136.5t30.5 119.5q0 22 -15 22q-22 0 -48 -53q-4 -7 -7.5 -15l-5.5 -12.5t-4 -8t-4 -5t-5 -1.5q-9 0 -9 10q0 8 9 30t25.5 50.5t48 49.5t68.5 21q54 0 83.5 -30.5t29.5 -82.5q0 -38 -30.5 -144.5t-30.5 -134.5t24 -28q95 0 178 420
q47 -28 81 -28q43 0 92 28zM493 524h-50l-133 85q-37 24 -37 52q0 19 15 33t38 14q32 0 59 -36z" />
    <glyph glyph-name="uacute" unicode="&#xfa;" horiz-adv-x="630" 
d="M625 462l-69 -295q-17 -72 -17 -87q0 -22 18 -22q21 0 48 53q4 7 7.5 15l5.5 12.5t4 8t4 5t5 1.5q9 0 9 -10q0 -8 -9 -30t-25.5 -50.5t-48 -49.5t-68.5 -21q-29 0 -49.5 10.5t-30.5 22.5t-17 36t-8 34.5t-3 34.5h-2q-14 -28 -25 -46.5t-31 -42.5t-47 -36.5t-61 -12.5
q-63 0 -97 37.5t-34 88.5q0 32 30.5 136.5t30.5 119.5q0 22 -15 22q-22 0 -48 -53q-4 -7 -7.5 -15l-5.5 -12.5t-4 -8t-4 -5t-5 -1.5q-9 0 -9 10q0 8 9 30t25.5 50.5t48 49.5t68.5 21q54 0 83.5 -30.5t29.5 -82.5q0 -38 -30.5 -144.5t-30.5 -134.5t24 -28q95 0 178 420
q47 -28 81 -28q43 0 92 28zM377 524h-56l130 144q20 22 33.5 31t32.5 9q20 0 36.5 -15t16.5 -36q0 -19 -12 -30.5t-41 -26.5z" />
    <glyph glyph-name="ucircumflex" unicode="&#xfb;" horiz-adv-x="630" 
d="M625 462l-69 -295q-17 -72 -17 -87q0 -22 18 -22q21 0 48 53q4 7 7.5 15l5.5 12.5t4 8t4 5t5 1.5q9 0 9 -10q0 -8 -9 -30t-25.5 -50.5t-48 -49.5t-68.5 -21q-29 0 -49.5 10.5t-30.5 22.5t-17 36t-8 34.5t-3 34.5h-2q-14 -28 -25 -46.5t-31 -42.5t-47 -36.5t-61 -12.5
q-63 0 -97 37.5t-34 88.5q0 32 30.5 136.5t30.5 119.5q0 22 -15 22q-22 0 -48 -53q-4 -7 -7.5 -15l-5.5 -12.5t-4 -8t-4 -5t-5 -1.5q-9 0 -9 10q0 8 9 30t25.5 50.5t48 49.5t68.5 21q54 0 83.5 -30.5t29.5 -82.5q0 -38 -30.5 -144.5t-30.5 -134.5t24 -28q95 0 178 420
q47 -28 81 -28q43 0 92 28zM286 524h-65l159 176h100l83 -176h-56l-92 91z" />
    <glyph glyph-name="udieresis" unicode="&#xfc;" horiz-adv-x="630" 
d="M625 462l-69 -295q-17 -72 -17 -87q0 -22 18 -22q21 0 48 53q4 7 7.5 15l5.5 12.5t4 8t4 5t5 1.5q9 0 9 -10q0 -8 -9 -30t-25.5 -50.5t-48 -49.5t-68.5 -21q-29 0 -49.5 10.5t-30.5 22.5t-17 36t-8 34.5t-3 34.5h-2q-14 -28 -25 -46.5t-31 -42.5t-47 -36.5t-61 -12.5
q-63 0 -97 37.5t-34 88.5q0 32 30.5 136.5t30.5 119.5q0 22 -15 22q-22 0 -48 -53q-4 -7 -7.5 -15l-5.5 -12.5t-4 -8t-4 -5t-5 -1.5q-9 0 -9 10q0 8 9 30t25.5 50.5t48 49.5t68.5 21q54 0 83.5 -30.5t29.5 -82.5q0 -38 -30.5 -144.5t-30.5 -134.5t24 -28q95 0 178 420
q47 -28 81 -28q43 0 92 28zM448 603q0 30 21 51t51 21t51 -21t21 -51t-21 -51t-51 -21t-51 21t-21 51zM232 603q0 30 21 51t51 21t51 -21t21 -51t-21 -51t-51 -21t-51 21t-21 51z" />
    <glyph glyph-name="yacute" unicode="&#xfd;" horiz-adv-x="537" 
d="M308 317l90 -232q2 2 10.5 15l12 18.5l11.5 18t11.5 20.5t8.5 18.5t7 19.5t2 17q0 26 -14 50.5t-30.5 41.5t-30.5 40.5t-14 48.5q0 29 21.5 49t58.5 20q39 0 65.5 -23.5t26.5 -68.5q0 -68 -48.5 -162t-154.5 -234q-94 -124 -140 -164t-104 -40q-39 0 -61 18.5t-22 50.5
q0 35 22 54t48 19t63 -24t52 -24q24 0 49 26t25 51q0 5 -0.5 9t-2 10.5t-3.5 13t-7 19.5l-9.5 25.5t-13.5 35l-18 45l-23.5 59.5l-28.5 73q-28 73 -42 97t-28 24q-17 0 -38 -47q-12 -25 -19 -25q-8 0 -8 10q0 6 10.5 31.5t28.5 58t50 57.5t67 25q42 0 64.5 -29.5
t55.5 -115.5zM330 524h-56l130 144q20 22 33.5 31t32.5 9q20 0 36.5 -15t16.5 -36q0 -19 -12 -30.5t-41 -26.5z" />
    <glyph glyph-name="thorn" unicode="&#xfe;" horiz-adv-x="593" 
d="M399 730l-87 -366h2q51 98 136 98q68 0 111 -47t43 -114q0 -109 -83.5 -209t-201.5 -100q-53 0 -84 18l-53 -240q-31 29 -82 29q-36 0 -85 -29l174 781q14 68 14 78q0 14 -7.5 21.5t-16.5 9.5t-16.5 6t-7.5 11q0 12 21.5 13t85.5 8.5t137 31.5zM259 83q0 -67 42 -67
q27 0 46.5 36t46.5 135q13 46 22.5 106.5t9.5 83.5q0 41 -29 41t-62.5 -64.5t-54.5 -143.5t-21 -127z" />
    <glyph glyph-name="ydieresis" unicode="&#xff;" horiz-adv-x="537" 
d="M308 317l90 -232q2 2 10.5 15l12 18.5l11.5 18t11.5 20.5t8.5 18.5t7 19.5t2 17q0 26 -14 50.5t-30.5 41.5t-30.5 40.5t-14 48.5q0 29 21.5 49t58.5 20q39 0 65.5 -23.5t26.5 -68.5q0 -68 -48.5 -162t-154.5 -234q-94 -124 -140 -164t-104 -40q-39 0 -61 18.5t-22 50.5
q0 35 22 54t48 19t63 -24t52 -24q24 0 49 26t25 51q0 5 -0.5 9t-2 10.5t-3.5 13t-7 19.5l-9.5 25.5t-13.5 35l-18 45l-23.5 59.5l-28.5 73q-28 73 -42 97t-28 24q-17 0 -38 -47q-12 -25 -19 -25q-8 0 -8 10q0 6 10.5 31.5t28.5 58t50 57.5t67 25q42 0 64.5 -29.5
t55.5 -115.5zM401 603q0 30 21 51t51 21t51 -21t21 -51t-21 -51t-51 -21t-51 21t-21 51zM185 603q0 30 21 51t51 21t51 -21t21 -51t-21 -51t-51 -21t-51 21t-21 51z" />
    <glyph glyph-name="dotlessi" unicode="&#x131;" horiz-adv-x="352" 
d="M328 349q0 -31 -30.5 -139.5t-30.5 -129.5q0 -22 15 -22q22 0 48 53q4 7 7.5 15l5.5 12.5t4 8t4 5t5 1.5q9 0 9 -10q0 -8 -9 -30t-25.5 -50.5t-48 -49.5t-68.5 -21q-54 0 -83.5 30t-29.5 82q0 39 30.5 149t30.5 121q0 22 -15 22q-21 0 -48 -53q-4 -7 -7.5 -15l-5.5 -12.5
t-4 -8t-4 -5t-5 -1.5q-9 0 -9 10q0 8 9 30t25.5 50.5t48 49.5t68.5 21q54 0 83.5 -30.5t29.5 -82.5z" />
    <glyph glyph-name="Lslash" unicode="&#x141;" horiz-adv-x="648" 
d="M37 256l14 52l103 32l23 104.5l16.5 73l9 42.5t5.5 33t1 24q0 17 -10 24t-22.5 7t-22.5 3t-10 12q0 17 28 17q14 0 70 -1t81 -1q21 0 71.5 1t82.5 1q25 0 25 -14q0 -11 -12.5 -14t-28 -3t-31.5 -14t-22 -44l-18.5 -87.5l-14.5 -69.5t-5 -26l193 60l-16 -52l-188 -59
q-61 -287 -61 -301q0 -34 40 -34q61 0 124 36.5t118 97.5q25 28 40.5 52.5t20 36.5t9 19t12.5 7q12 0 12 -12q0 -10 -95 -261q-37 0 -167 1t-210 1q-59 0 -116.5 -1t-61.5 -1q-16 0 -16 12q0 9 12 12.5t27.5 4.5t31.5 16.5t22 45.5q30 147 42 200z" />
    <glyph glyph-name="lslash" unicode="&#x142;" horiz-adv-x="333" 
d="M407 505l-9 -45l-94 -44q-70 -304 -70 -327q0 -31 18 -31q22 0 51 69q17 36 21 38q10 0 10 -12q0 -4 -4 -19.5t-15.5 -40t-27.5 -46.5t-44 -38.5t-62 -16.5q-47 0 -80 30.5t-33 82.5q0 44 43 221l-90 -43l10 46l91 43q58 246 58 257q0 14 -7.5 21.5t-16.5 9.5t-16.5 6
t-7.5 11q0 12 21.5 13t85.5 8.5t137 31.5q-60 -262 -61 -268z" />
    <glyph glyph-name="OE" unicode="&#x152;" horiz-adv-x="1148" 
d="M292 149q0 -141 94 -141q62 0 113.5 57.5t81 142t45 170t15.5 154.5q0 138 -95 138q-63 0 -114 -57t-80 -141.5t-44.5 -169t-15.5 -153.5zM874 656l-61 -274q55 1 106 34t72 75q1 3 3.5 8t3.5 8t3.5 6.5t4 5t4.5 3t6 1.5q9 0 9 -12q0 -4 -1 -10t-5.5 -25.5l-11 -46.5
t-19 -84.5l-27.5 -126.5q-7 -35 -18 -35q-12 0 -12 14q0 3 1 15t1 22q0 49 -30.5 82t-95.5 42l-25 -114.5l-17.5 -78.5l-10.5 -45.5t-6 -31t-1 -20.5q0 -26 14 -36t48 -10q61 0 125 29.5t106 73.5q36 37 60.5 71.5t33 47.5t14.5 13q11 0 11 -11q0 -9 -109 -248q-79 0 -527 2
l12 34l-2 2q-24 -16 -42 -25.5t-52.5 -18t-75.5 -8.5q-114 0 -198.5 83t-84.5 202q0 111 71.5 211.5t174.5 157t202 56.5q102 0 147 -46l7 30q366 2 477 2q2 -31 6 -78.5l6.5 -78t2.5 -47.5q0 -15 -11 -15q-7 0 -11.5 10.5l-16.5 37.5t-33 54q-37 49 -90 70t-138 23z" />
    <glyph glyph-name="oe" unicode="&#x153;" horiz-adv-x="796" 
d="M50 192q0 122 82 196t201 74q89 0 155 -58q64 58 164 58q70 0 114 -30t44 -80q0 -64 -75.5 -106t-203.5 -42q0 -49 31 -83.5t84 -34.5q32 0 58 12t41.5 24t21.5 12q8 0 8 -9q0 -21 -43 -63q-72 -70 -180 -70q-80 0 -133 39q-61 -39 -144 -39q-86 0 -155.5 57.5
t-69.5 142.5zM343 438q-23 0 -40 -18t-32 -62q-24 -68 -39.5 -148t-15.5 -132q0 -62 48 -62q23 0 40 18.5t32 62.5q24 68 39.5 148t15.5 132q0 61 -48 61zM531 228h15q43 0 75.5 30.5t46 68t13.5 70.5q0 41 -32 41q-39 0 -78.5 -69t-39.5 -141z" />
    <glyph glyph-name="Scaron" unicode="&#x160;" horiz-adv-x="648" 
d="M152 460q0 91 85 162.5t186 71.5q43 0 88 -14t74.5 -28t35.5 -14q17 0 23.5 20t15.5 20q11 0 11 -13q0 -3 -4.5 -25.5l-15 -78.5t-21.5 -122q-2 -11 -10 -11q-7 0 -9.5 6.5t-6.5 27.5q-3 20 -6 33q-15 71 -57.5 123t-112.5 52q-54 0 -86 -28.5t-32 -74.5q0 -35 34 -62
t82.5 -46.5t97 -42.5t82.5 -63.5t34 -96.5q0 -104 -86 -188t-227 -84q-55 0 -98 13.5t-71 27.5t-46 14q-15 0 -23 -9.5t-12.5 -19.5t-10.5 -10q-8 0 -8 8q0 17 16 113.5t29 161.5q3 17 13 17t12 -35q3 -42 15.5 -85t35 -82.5t60.5 -64.5t84 -25q56 0 97.5 40.5t41.5 100.5
q0 40 -32 68t-77.5 46.5t-91 40t-77.5 61t-32 95.5zM582 897h65l-159 -176h-100l-83 176h56l92 -91z" />
    <glyph glyph-name="scaron" unicode="&#x161;" horiz-adv-x="481" 
d="M26 113q0 30 17.5 49t44.5 19q32 0 54.5 -26t25.5 -60q4 -47 17 -63t47 -16q36 0 60 17.5t24 50.5q0 20 -21.5 37t-52.5 31.5t-62 32.5t-53 48.5t-23 70.5q-1 62 58.5 110t153.5 48q73 0 124 -28t51 -79q0 -22 -16.5 -41t-46.5 -19q-27 0 -43 21t-16 60q0 36 -11 49
t-50 13q-36 0 -57 -15t-21 -41q0 -19 23.5 -36.5t57.5 -34t68 -35.5t57.5 -49t23.5 -67q0 -72 -67 -120t-175 -48q-91 0 -141.5 36t-50.5 85zM463 700h65l-159 -176h-100l-83 176h56l92 -91z" />
    <glyph glyph-name="Ydieresis" unicode="&#x178;" horiz-adv-x="630" 
d="M258 332l-94 270q-8 22 -21 33.5t-24.5 13.5t-20 5.5t-8.5 12.5t7 11t28 2q27 0 75.5 -1t71.5 -1q27 0 86 1t69 1q12 0 16.5 -0.5t8 -3.5t3.5 -9q0 -9 -12 -13.5t-27 -6.5t-27 -13t-12 -31q0 -7 2 -15.5t7.5 -26.5t13 -39.5t22 -66.5l29.5 -96q99 131 126 177t27 75
q0 21 -13.5 30.5t-27 13t-13.5 11.5q0 14 30 14q14 0 42.5 -1t42.5 -1t42.5 1t42.5 1q30 0 30 -14q0 -6 -4.5 -9t-11 -4.5t-19 -6.5t-24.5 -13q-21 -14 -59 -50.5t-77 -89.5l-63.5 -85l-42.5 -53.5t-19.5 -27t-10.5 -24.5q-44 -224 -44 -243q0 -17 10.5 -24.5t23 -8t23 -4
t10.5 -12.5t-6 -11t-24 -2q-29 0 -79 1t-72 1q-39 0 -89 -1t-72 -1q-18 0 -18 10q0 9 12 12t27 4t30.5 14.5t21.5 40.5zM488 800q0 30 21 51t51 21t51 -21t21 -51t-21 -51t-51 -21t-51 21t-21 51zM272 800q0 30 21 51t51 21t51 -21t21 -51t-21 -51t-51 -21t-51 21t-21 51z
" />
    <glyph glyph-name="Zcaron" unicode="&#x17d;" horiz-adv-x="685" 
d="M751 680l-478 -658q94 9 168 37t114 61t66 64.5t40.5 52.5t22.5 21q10 0 10 -12q0 -8 -104 -248q-48 0 -144 1t-145 1q-48 0 -144 -1t-144 -1l489 658q-84 -6 -150 -31.5t-102 -57t-60.5 -62t-37.5 -51t-19 -20.5q-10 0 -10 12q0 5 3.5 14t12.5 28.5l19.5 42l30 64.5
l39.5 85q43 0 130.5 -1t131.5 -1t131 1t130 1zM600 897h65l-159 -176h-100l-83 176h56l92 -91z" />
    <glyph glyph-name="zcaron" unicode="&#x17e;" horiz-adv-x="500" 
d="M79 79l228 206q-38 4 -63 26t-34 46.5t-23 44.5t-32 20q-13 0 -21 -8t-8 -19t10.5 -21.5t22.5 -19t22.5 -24.5t10.5 -37q0 -27 -18 -45.5t-42 -18.5q-31 0 -50.5 26.5t-19.5 70.5q0 48 47 92t118 44q47 0 113 -28.5t89 -28.5q21 0 38 28.5t33 28.5q8 0 13.5 -4.5
t5.5 -10.5q0 -12 -7 -19t-29 -21t-42 -32l-219 -194q40 -6 63.5 -23t30.5 -37t12.5 -39t18.5 -31.5t39 -12.5q20 0 32.5 11.5t12.5 26.5q0 19 -14.5 34.5t-31.5 25t-31.5 28t-14.5 42.5q0 23 16 38.5t45 15.5q39 0 65 -31t26 -72q0 -67 -60 -120t-148 -53q-37 0 -67.5 12.5
t-46.5 27.5t-33 27.5t-30 12.5t-22.5 -10t-15 -22t-17.5 -22t-29 -10q-22 0 -22 21q0 18 17 29.5t38 18.5t24 10zM473 700h65l-159 -176h-100l-83 176h56l92 -91z" />
    <glyph glyph-name="florin" unicode="&#x192;" 
d="M322 392h-71q33 32 76.5 97.5l76.5 116t83 90.5t104 40q42 0 66 -25.5t24 -59.5q0 -40 -26.5 -70t-64.5 -30q-28 0 -42.5 11t-14.5 41q0 21 8.5 44t8.5 31q0 18 -18 18q-20 0 -33 -21t-13 -57q0 -15 6 -61t6 -105h82l-26 -60h-67q-21 -155 -66 -275.5t-100 -188.5
t-110.5 -102t-107.5 -34q-42 0 -71.5 26t-29.5 56q0 32 20.5 50.5t53.5 18.5q28 0 48 -13.5t29 -29t20.5 -29t24.5 -13.5q30 0 43 17.5t16.5 62t5.5 100.5t16.5 154t42.5 200z" />
    <glyph glyph-name="circumflex" unicode="&#x2c6;" horiz-adv-x="333" 
d="M137 524h-65l159 176h100l83 -176h-56l-92 91z" />
    <glyph glyph-name="caron" unicode="&#x2c7;" horiz-adv-x="333" 
d="M389 700h65l-159 -176h-100l-83 176h56l92 -91z" />
    <glyph glyph-name="uni02C9" unicode="&#x2c9;" horiz-adv-x="333" 
d="M418 563h-336l19 76h335z" />
    <glyph glyph-name="breve" unicode="&#x2d8;" horiz-adv-x="333" 
d="M395 688h45q-13 -88 -66.5 -126.5t-116.5 -38.5q-68 0 -104.5 32.5t-36.5 94.5q0 12 2 38h48q4 -87 100 -87q52 0 84.5 24.5t44.5 62.5z" />
    <glyph glyph-name="dotaccent" unicode="&#x2d9;" horiz-adv-x="333" 
d="M195 603q0 30 21 51t51 21t51 -21t21 -51t-21 -51t-51 -21t-51 21t-21 51z" />
    <glyph glyph-name="ring" unicode="&#x2da;" horiz-adv-x="333" 
d="M150 632q0 45 31.5 76.5t76.5 31.5t75.5 -31.5t30.5 -76.5t-30.5 -75.5t-75.5 -30.5t-76.5 30.5t-31.5 75.5zM204 633q0 -22 15.5 -37.5t37.5 -15.5t37.5 15.5t15.5 37.5t-15.5 37.5t-37.5 15.5t-37.5 -15.5t-15.5 -37.5z" />
    <glyph glyph-name="ogonek" unicode="&#x2db;" horiz-adv-x="333" 
d="M205 -123l16 -33q-96 -63 -158 -63q-38 0 -67.5 20t-29.5 56q0 60 69 103.5t191 60.5v-12q-33 -11 -66.5 -26.5t-67.5 -44.5t-34 -58q0 -45 49 -45q23 0 98 42z" />
    <glyph glyph-name="tilde" unicode="&#x2dc;" horiz-adv-x="333" 
d="M127 546h-45q10 52 42 89t84 37q32 0 81.5 -20t68.5 -20q34 0 51 40h45q-10 -57 -44 -91.5t-78 -34.5q-29 0 -85 22t-71 22q-16 0 -27.5 -10t-14 -15.5t-7.5 -18.5z" />
    <glyph glyph-name="hungarumlaut" unicode="&#x2dd;" horiz-adv-x="333" 
d="M320 524h-56l130 144q20 22 33.5 31t32.5 9q20 0 36.5 -15t16.5 -36q0 -19 -12 -30.5t-41 -26.5zM132 524h-51l106 140q17 23 31.5 33.5t35.5 10.5q19 0 34 -13.5t15 -35.5q0 -16 -11 -27.5t-38 -28.5z" />
    <glyph glyph-name="uni03A9" unicode="&#x3a9;" horiz-adv-x="799" 
d="M776 173l-71 -173h-279l-4 25q5 7 27.5 36.5l33.5 44.5l32.5 45.5t34.5 53t28.5 52t26.5 58.5t17 57q31 137 1 201.5t-105 64.5q-161 0 -224 -270q-8 -37 -9.5 -77.5t1.5 -71.5t12.5 -72.5t15.5 -62.5t18 -59l-15 -25h-281l14 173h35q7 -44 21 -57.5t49 -13.5h99l-29 24
t-28.5 27t-27.5 32.5t-22 37.5t-15.5 44t-4.5 50.5t7 58.5q31 137 142 219.5t255 82.5q145 0 215.5 -80t39.5 -215q-11 -46 -36.5 -87.5t-66 -78t-72 -60t-80.5 -55.5h111q33 0 51 13t46 58h37z" />
    <glyph glyph-name="uni03BC" unicode="&#x3bc;" horiz-adv-x="630" 
d="M625 462l-69 -295q-17 -72 -17 -87q0 -22 18 -22q21 0 48 53q4 7 7.5 15l5.5 12.5t4 8t4 5t5 1.5q9 0 9 -10q0 -8 -9 -30t-25.5 -50.5t-48 -49.5t-68.5 -21q-29 0 -49.5 10.5t-30.5 22.5t-17 36t-8 34.5t-3 34.5h-2q-14 -28 -24.5 -46.5t-30 -42.5t-44.5 -36.5t-55 -12.5
q-8 -24 -15.5 -61t-13.5 -61.5t-17 -49.5t-31.5 -37.5t-50.5 -12.5q-31 0 -51 20t-22 50q-2 39 28 157l55 217q38 148 38 160q0 22 -15 22q-22 0 -48 -53q-4 -7 -7.5 -15l-5.5 -12.5t-4 -8t-4 -5t-5 -1.5q-9 0 -9 10q0 8 9 30t25.5 50.5t48 49.5t68.5 21q54 0 83.5 -30.5
t29.5 -82.5q0 -38 -30.5 -144.5t-30.5 -134.5t24 -28q95 0 178 420q47 -28 81 -28q43 0 92 28z" />
    <glyph glyph-name="pi" unicode="&#x3c0;" horiz-adv-x="631" 
d="M658 479l29 -9q-10 -31 -32.5 -70.5t-37.5 -53.5q-27 -7 -70 -7q-24 -73 -48 -187q-19 -83 24 -83q17 0 50 19l6 -30q-27 -31 -68.5 -51t-78.5 -20q-112 0 -81 134q19 79 61 221q-33 0 -74 1t-57 1l-3 -10q-23 -101 -56 -179.5t-52.5 -106.5t-35.5 -43q-44 -15 -78 -18
l-4 24q66 66 111.5 160t64.5 174q-44 1 -73.5 -7.5t-70.5 -30.5l-10 33l14 14l16 16t15.5 14.5t18 15t18.5 12.5t22 12.5l23.5 9.5t27 8t29.5 4t34 2q249 -3 294 -3q25 0 40.5 7t31.5 27z" />
    <glyph glyph-name="endash" unicode="&#x2013;" horiz-adv-x="500" 
d="M43 274h501l-19 -94h-501z" />
    <glyph glyph-name="emdash" unicode="&#x2014;" horiz-adv-x="1000" 
d="M43 274h1001l-19 -94h-1001z" />
    <glyph glyph-name="quoteleft" unicode="&#x2018;" horiz-adv-x="296" 
d="M198 573q0 -31 37 -31q48 0 67.5 -13.5t19.5 -52.5q0 -47 -37 -77.5t-81 -30.5q-40 0 -69 29t-29 85q0 102 126 200q73 56 93 56q11 0 11 -14q0 -4 -6 -8t-26.5 -15.5t-43.5 -28.5q-62 -47 -62 -99z" />
    <glyph glyph-name="quoteright" unicode="&#x2019;" horiz-adv-x="296" 
d="M292 525q0 31 -37 31q-48 0 -67.5 13.5t-19.5 52.5q0 47 37 77.5t81 30.5q40 0 69 -29t29 -85q0 -102 -126 -200q-73 -56 -93 -56q-11 0 -11 14q0 4 6 8t26.5 15.5t43.5 28.5q62 47 62 99z" />
    <glyph glyph-name="quotesinglbase" unicode="&#x201a;" horiz-adv-x="296" 
d="M171 -45q0 31 -37 31q-48 0 -67.5 13.5t-19.5 52.5q0 47 37 77.5t81 30.5q40 0 69 -29t29 -85q0 -102 -126 -200q-73 -56 -93 -56q-11 0 -11 14q0 4 6 8t26.5 15.5t43.5 28.5q62 47 62 99z" />
    <glyph glyph-name="quotedblleft" unicode="&#x201c;" horiz-adv-x="574" 
d="M198 573q0 -31 37 -31q48 0 67.5 -13.5t19.5 -52.5q0 -47 -37 -77.5t-81 -30.5q-40 0 -69 29t-29 85q0 102 126 200q73 56 93 56q11 0 11 -14q0 -4 -6 -8t-26.5 -15.5t-43.5 -28.5q-62 -47 -62 -99zM476 573q0 -31 37 -31q48 0 67.5 -13.5t19.5 -52.5q0 -47 -37 -77.5
t-81 -30.5q-40 0 -69 29t-29 85q0 102 126 200q73 56 93 56q11 0 11 -14q0 -4 -6 -8t-26.5 -15.5t-43.5 -28.5q-62 -47 -62 -99z" />
    <glyph glyph-name="quotedblright" unicode="&#x201d;" horiz-adv-x="574" 
d="M570 525q0 31 -37 31q-48 0 -67.5 13.5t-19.5 52.5q0 47 37 77.5t81 30.5q40 0 69 -29t29 -85q0 -102 -126 -200q-73 -56 -93 -56q-11 0 -11 14q0 4 6 8t26.5 15.5t43.5 28.5q62 47 62 99zM292 525q0 31 -37 31q-48 0 -67.5 13.5t-19.5 52.5q0 47 37 77.5t81 30.5
q40 0 69 -29t29 -85q0 -102 -126 -200q-73 -56 -93 -56q-11 0 -11 14q0 4 6 8t26.5 15.5t43.5 28.5q62 47 62 99z" />
    <glyph glyph-name="quotedblbase" unicode="&#x201e;" horiz-adv-x="574" 
d="M449 -45q0 31 -37 31q-48 0 -67.5 13.5t-19.5 52.5q0 47 37 77.5t81 30.5q40 0 69 -29t29 -85q0 -102 -126 -200q-73 -56 -93 -56q-11 0 -11 14q0 4 6 8t26.5 15.5t43.5 28.5q62 47 62 99zM171 -45q0 31 -37 31q-48 0 -67.5 13.5t-19.5 52.5q0 47 37 77.5t81 30.5
q40 0 69 -29t29 -85q0 -102 -126 -200q-73 -56 -93 -56q-11 0 -11 14q0 4 6 8t26.5 15.5t43.5 28.5q62 47 62 99z" />
    <glyph glyph-name="dagger" unicode="&#x2020;" horiz-adv-x="500" 
d="M237 -108h-41q59 280 59 390q0 37 -5 67q21 21 29.5 30.5t18.5 25t10 26.5q0 13 -16 13q-7 0 -49 -20q-40 -20 -70 -20q-27 0 -43 17t-16 46q0 67 62 67q27 0 76.5 -24t56.5 -24q15 0 15 17q0 6 -14 55.5t-14 69.5q0 29 17.5 47.5t53.5 18.5q73 0 73 -57
q0 -26 -19.5 -57.5t-39 -56t-19.5 -32.5q0 -10 9 -10q10 0 53 24t71 24q65 0 65 -67q0 -28 -17 -45.5t-43 -17.5q-24 0 -74 20t-60 20q-20 0 -20 -20q0 -30 31 -73q-63 -97 -140 -454z" />
    <glyph glyph-name="daggerdbl" unicode="&#x2021;" horiz-adv-x="500" 
d="M557 462q0 -28 -17 -45.5t-43 -17.5q-24 0 -74 20t-60 20q-20 0 -20 -20t24 -66q-35 -42 -35 -79q0 -22 9 -53q-59 -51 -59 -78q0 -13 16 -13q8 0 49 20t70 20q27 0 43 -17t16 -46q0 -67 -62 -67q-27 0 -76.5 24t-56.5 24q-15 0 -15 -17q0 -6 14 -55.5t14 -69.5
q0 -29 -17.5 -47.5t-53.5 -18.5q-73 0 -73 57q0 26 19.5 57.5t39 56t19.5 32.5q0 10 -9 10q-10 0 -53 -24t-71 -24q-65 0 -65 67q0 28 17 45.5t43 17.5q24 0 74 -20t60 -20q20 0 20 20t-24 66q37 36 37 99q0 19 -5 39q53 44 53 72q0 13 -16 13q-7 0 -49 -20q-40 -20 -70 -20
q-27 0 -43 17t-16 46q0 67 62 67q27 0 76.5 -24t56.5 -24q15 0 15 17q0 6 -14 55.5t-14 69.5q0 29 17.5 47.5t53.5 18.5q73 0 73 -57q0 -26 -19.5 -57.5t-39 -56t-19.5 -32.5q0 -10 9 -10q10 0 53 24t71 24q65 0 65 -67z" />
    <glyph glyph-name="bullet" unicode="&#x2022;" horiz-adv-x="500" 
d="M130 339q0 70 49.5 119.5t119.5 49.5t119.5 -49.5t49.5 -119.5t-49.5 -119.5t-119.5 -49.5t-119.5 49.5t-49.5 119.5z" />
    <glyph glyph-name="ellipsis" unicode="&#x2026;" horiz-adv-x="1000" 
d="M207 206q35 0 57 -25.5t22 -57.5q0 -55 -38 -93t-84 -38q-42 0 -66 24t-24 56q0 51 38 92.5t95 41.5zM540 206q35 0 57 -25.5t22 -57.5q0 -55 -38 -93t-84 -38q-42 0 -66 24t-24 56q0 51 38 92.5t95 41.5zM873 206q35 0 57 -25.5t22 -57.5q0 -55 -38 -93t-84 -38
q-42 0 -66 24t-24 56q0 51 38 92.5t95 41.5z" />
    <glyph glyph-name="perthousand" unicode="&#x2030;" horiz-adv-x="1167" 
d="M1052 358q-29 0 -43 -22.5t-28 -74.5q-38 -141 -38 -213q0 -20 7.5 -29t25.5 -9q29 0 43 22t28 73q38 141 38 214q0 21 -7.5 30t-25.5 9zM833 686l-696 -694h-63l693 694h66zM327 668q-29 0 -43 -22.5t-28 -74.5q-38 -141 -38 -213q0 -20 7.5 -29t25.5 -9q29 0 43 22
t28 73q38 141 38 214q0 21 -7.5 30t-25.5 9zM1052 376q69 0 113 -43t44 -106q0 -90 -75.5 -162.5t-158.5 -72.5q-75 0 -115.5 42.5t-40.5 106.5q0 90 75 162.5t158 72.5zM327 686q69 0 113 -43t44 -106q0 -90 -75.5 -162.5t-158.5 -72.5q-75 0 -115.5 42.5t-40.5 106.5
q0 90 75 162.5t158 72.5zM652 376q69 0 113 -43t44 -106q0 -90 -75.5 -162.5t-158.5 -72.5q-75 0 -115.5 42.5t-40.5 106.5q0 90 75 162.5t158 72.5zM652 358q-29 0 -43 -22.5t-28 -74.5q-38 -141 -38 -213q0 -20 7.5 -29t25.5 -9q29 0 43 22t28 73q38 141 38 214
q0 21 -7.5 30t-25.5 9z" />
    <glyph glyph-name="guilsinglleft" unicode="&#x2039;" horiz-adv-x="315" 
d="M316 385l-140 -167l61 -158q2 -4 0 -13q-2 -5 -11 -5q-7 0 -17 12l-135 160q-6 8 -6 13q0 6 16 18l209 155q15 12 23 12q10 0 10 -10q0 -4 -10 -17z" />
    <glyph glyph-name="guilsinglright" unicode="&#x203a;" horiz-adv-x="315" 
d="M46 69l140 167l-61 158q-2 4 0 13q2 5 11 5q7 0 17 -12l135 -160q6 -8 6 -13q0 -6 -16 -18l-209 -155q-15 -12 -23 -12q-10 0 -10 10q0 4 10 17z" />
    <glyph glyph-name="fraction" unicode="&#x2044;" horiz-adv-x="167" 
d="M334 686l-397 -694h-104l397 694h104z" />
    <glyph glyph-name="Euro" unicode="&#x20ac;" 
d="M496 319l-12 -56h-177q-9 -63 -9 -111q0 -23 3 -43.5t10.5 -43t24 -36t39.5 -13.5q52 0 108 58.5t89 122.5q2 5 5.5 12t5.5 10t4.5 8t4.5 7l4.5 4.5t4.5 3.5t5 1q9 0 9 -10q0 -2 -0.5 -5.5t-0.5 -4.5l-43 -205q-4 -18 -15 -18t-11 15q0 21 -19 21q-8 0 -64 -22
q-54 -22 -108 -22q-111 0 -173.5 68t-62.5 176q0 17 1 27h-76l12 56h70l2.5 10.5t1.5 9.5q3 14 11 42h-72l12 56h81q50 111 142.5 180t198.5 69q52 0 96 -26q4 -3 12.5 -8l12.5 -7.5t10.5 -5.5t12 -4.5t10.5 -1.5q12 0 22 21q10 20 16 20q11 0 11 -8q0 -2 -1 -5.5t-1 -4.5
l-45 -212q-4 -19 -17 -19q-10 0 -15 28q-1 9 -6 34t-7 39q-11 61 -41 98.5t-65 37.5q-56 0 -94 -55.5t-69 -169.5h177l-12 -56h-179l-9 -42q-1 -4 -2 -10.5t-2 -9.5h179z" />
    <glyph glyph-name="afii61289" unicode="&#x2113;" horiz-adv-x="481" 
d="M445 153l20 -25q-108 -135 -235 -135q-83 0 -113 41q-16 24 -18.5 51.5t11.5 100.5l12 52l-71 -37l-6 34l88 51l30 131q24 104 48 156.5t66 92.5q68 65 142 65q57 0 77 -40.5t6 -100.5q-19 -79 -73 -142.5t-156 -135.5l-17 -73q-20 -89 -8 -127.5t60 -38.5q61 0 137 80z
M310 474l-23 -103q106 96 135 218q23 103 -20 103q-26 0 -43.5 -44t-48.5 -174z" />
    <glyph glyph-name="trademark" unicode="&#x2122;" horiz-adv-x="1000" 
d="M118 584v94h379v-94h-34q-6 31 -18 45.5t-37 14.5h-36v-308q0 -15 11 -21.5t38 -6.5v-34h-226v34q27 0 38 6.5t11 21.5v308h-33q-48 0 -59 -60h-34zM556 274v34q35 1 42.5 14.5t7.5 58.5v208q-17 52 -67 55v34h157l127 -262l133 262h143v-34q-49 0 -49 -28v-280
q0 -15 11 -21.5t38 -6.5v-34h-220v34q27 0 38 6.5t11 21.5v205h-2l-132 -267h-22l-127 273h-3v-166q0 -44 8.5 -58t44.5 -15v-34h-139z" />
    <glyph glyph-name="Omega" unicode="&#x2126;" horiz-adv-x="799" 
d="M776 173l-71 -173h-279l-4 25q5 7 27.5 36.5l33.5 44.5l32.5 45.5t34.5 53t28.5 52t26.5 58.5t17 57q31 137 1 201.5t-105 64.5q-161 0 -224 -270q-8 -37 -9.5 -77.5t1.5 -71.5t12.5 -72.5t15.5 -62.5t18 -59l-15 -25h-281l14 173h35q7 -44 21 -57.5t49 -13.5h99l-29 24
t-28.5 27t-27.5 32.5t-22 37.5t-15.5 44t-4.5 50.5t7 58.5q31 137 142 219.5t255 82.5q145 0 215.5 -80t39.5 -215q-11 -46 -36.5 -87.5t-66 -78t-72 -60t-80.5 -55.5h111q33 0 51 13t46 58h37z" />
    <glyph glyph-name="estimated" unicode="&#x212e;" horiz-adv-x="967" 
d="M934 329h-623q-6 0 -6 -4v-189q0 -12 9 -21q98 -103 235 -103q149 0 248 115h56q-53 -62 -133.5 -98t-171.5 -36q-159 0 -271.5 101t-112.5 244q0 144 112.5 245t271.5 101q161 0 273.5 -101t112.5 -245v-9zM792 353v190q0 13 -9 23q-100 98 -234 98q-135 0 -234 -102
q-10 -9 -10 -23v-186q0 -6 6 -6h477q4 0 4 6z" />
    <glyph glyph-name="partialdiff" unicode="&#x2202;" horiz-adv-x="594" 
d="M357 431h1q37 0 69 -16t46 -44q23 61 37 108q24 89 8 147q-9 29 -33.5 46.5t-59.5 17.5q-71 0 -176 -73q-17 0 -28 35.5t3 58.5q84 40 168 40q156 0 207 -142q36 -97 6 -226q-34 -142 -111 -241q-113 -149 -273 -149q-93 0 -136.5 55t-22.5 147q22 97 103 165
q85 71 192 71zM382 379h-1q-59 0 -107 -54q-60 -72 -88 -191q-11 -48 1.5 -74.5t48.5 -26.5q53 0 121 98q53 79 95 191q-6 22 -24.5 39.5t-45.5 17.5z" />
    <glyph glyph-name="Delta" unicode="&#x2206;" horiz-adv-x="702" 
d="M638 0h-628l9 38l420 625l69 15l139 -640zM478 65l-88 442l-289 -442h377z" />
    <glyph glyph-name="product" unicode="&#x220f;" horiz-adv-x="901" 
d="M872 681v-35q-67 -5 -82 -20.5t-15 -73.5v-497q0 -62 15 -78t81 -21v-36h-321v36q58 4 69.5 18.5t11.5 80.5v545q0 24 -6.5 30t-31.5 6h-157q-24 0 -30 -5.5t-6 -28.5v-547q0 -65 10.5 -80t63.5 -19v-36h-314v36q65 5 80 21t15 78v497q0 59 -15 74t-83 20v35h715z" />
    <glyph glyph-name="summation" unicode="&#x2211;" horiz-adv-x="739" 
d="M716 138l-51 -226h-508v36l227 307l-221 389v37h500q1 -8 3 -37t5.5 -72.5t5.5 -73.5l-37 -9q-17 70 -41 110q-15 23 -35 31.5t-75 8.5h-153l168 -295l-231 -317h251q52 0 73 6.5t38.5 29.5t43.5 85z" />
    <glyph glyph-name="minus" unicode="&#x2212;" horiz-adv-x="600" 
d="M560 167h-454v120h454v-120z" />
    <glyph glyph-name="uni2215" unicode="&#x2215;" horiz-adv-x="167" 
d="M334 686l-397 -694h-104l397 694h104z" />
    <glyph glyph-name="uni2219" unicode="&#x2219;" horiz-adv-x="305" 
d="M92 227q0 41 29 69.5t69 28.5t69 -28.5t29 -69.5t-29 -69.5t-69 -28.5t-69 28.5t-29 69.5z" />
    <glyph glyph-name="radical" unicode="&#x221a;" horiz-adv-x="720" 
d="M714 847l-183 -1001l-34 -15l-223 525l-91 -41l-15 42l198 90l152 -377h3l139 788z" />
    <glyph glyph-name="infinity" unicode="&#x221e;" horiz-adv-x="851" 
d="M805 277v-1q0 -80 -49 -128.5t-115 -48.5q-97 0 -177 110q-44 -54 -85.5 -82t-96.5 -28q-65 0 -112.5 48t-47.5 123q0 77 48 126t121 49q97 0 178 -107q1 1 13 14.5t15 16.5t14.5 15.5t17.5 16.5t18 13.5t21.5 13t22.5 9t26.5 7t28.5 1.5q68 -1 113.5 -47t45.5 -121z
M291 177h2q25 0 50 15t40 31t38 44q-21 30 -29.5 40.5t-26.5 29t-36 25t-40 6.5q-39 0 -63 -27t-24 -71q-1 -38 25 -65.5t64 -27.5zM638 368h-1q-14 0 -28 -5t-23.5 -10.5t-23.5 -19l-19 -18.5t-19.5 -22.5t-15.5 -18.5q43 -56 71.5 -76.5t63.5 -20.5q36 0 58.5 29.5
t22.5 63.5q0 43 -23.5 70.5t-62.5 27.5z" />
    <glyph glyph-name="integral" unicode="&#x222b;" horiz-adv-x="556" 
d="M300 -15l-21 385q-6 106 4 187.5t29 128.5t47 76.5t53.5 39t52.5 9.5q30 0 55 -16t25 -43q0 -30 -18 -46.5t-43 -16.5q-18 0 -28.5 17t-17 34t-15.5 17q-34 0 -25 -146l19 -360q6 -122 -7 -214t-41.5 -144.5t-64.5 -77.5t-79 -25q-32 0 -55.5 18t-23.5 43
q-1 28 22.5 47.5t50.5 19.5q15 0 24 -18.5t15.5 -37t15.5 -18.5q34 0 26 141z" />
    <glyph glyph-name="approxequal" unicode="&#x2248;" horiz-adv-x="642" 
d="M553 447l54 -52q-63 -102 -145 -102q-50 0 -115 39q-52 31 -85 31q-21 0 -40.5 -11t-30.5 -23t-29 -35l-53 52q24 43 67.5 72t89.5 29q49 0 106 -34q25 -16 34.5 -21t24 -10t28.5 -5q47 0 94 70zM553 257l54 -52q-63 -102 -147 -102q-48 0 -113 38q-52 32 -85 32
q-22 0 -41.5 -11.5t-30 -23t-28.5 -34.5l-53 51q24 43 67 72t90 29q48 0 105 -33l20.5 -12.5t22.5 -12.5t19.5 -7t24.5 -4q27 0 48 17t47 53z" />
    <glyph glyph-name="notequal" unicode="&#x2260;" horiz-adv-x="660" 
d="M517 499l-37 -81h133v-84h-167l-56 -126h223v-84h-258l-50 -113l-67 29l38 84h-133v84h167l56 126h-223v84h257l50 110z" />
    <glyph glyph-name="lessequal" unicode="&#x2264;" horiz-adv-x="684" 
d="M635 107l-464 217v89l463 216v-94l-377 -165v-2l378 -167v-94zM638 -12h-470v85h470v-85z" />
    <glyph glyph-name="greaterequal" unicode="&#x2265;" horiz-adv-x="684" 
d="M172 629l464 -216v-90l-464 -216v94l377 167v2l-377 165v94zM634 -12h-466v85h466v-85z" />
    <glyph glyph-name="lozenge" unicode="&#x25ca;" horiz-adv-x="740" 
d="M696 323l-209 -396h-102l-208 396l211 399h100zM599 323l-160 315h-4l-161 -314l162 -318h3z" />
    </font>
</defs>
</svg>
